  0
SECTION
  2
HEADER
  9
$ACADVER
  1
AC1032
  9
$ACADMAINTVER
 90
       55
  9
$DWGCODEPAGE
  3
ANSI_936
  9
$LASTSAVEDBY
  1
SIPEED
  9
$REQUIREDVERSIONS
160
                 0
  9
$INSBASE
 10
0.0
 20
0.0
 30
0.0
  9
$EXTMIN
 10
-7.370149103774595
 20
-12.37199780013629
 30
0.0
  9
$EXTMAX
 10
43.95974456906627
 20
29.59295883624908
 30
0.0
  9
$LIMMIN
 10
-0.8507984
 20
-1.8001996
  9
$LIMMAX
 10
27.09859960000001
 20
26.2507984
  9
$ORTHOMODE
 70
     0
  9
$REGENMODE
 70
     1
  9
$FILLMODE
 70
     1
  9
$QTEXTMODE
 70
     0
  9
$MIRRTEXT
 70
     1
  9
$LTSCALE
 40
1.0
  9
$ATTMODE
 70
     1
  9
$TEXTSIZE
 40
2.5
  9
$TRACEWID
 40
1.0
  9
$TEXTSTYLE
  7
Standard
  9
$CLAYER
  8
0
  9
$CELTYPE
  6
ByLayer
  9
$CECOLOR
 62
   256
  9
$CELTSCALE
 40
1.0
  9
$DISPSILH
 70
     0
  9
$DIMSCALE
 40
1.0
  9
$DIMASZ
 40
2.5
  9
$DIMEXO
 40
0.625
  9
$DIMDLI
 40
3.75
  9
$DIMRND
 40
0.0
  9
$DIMDLE
 40
0.0
  9
$DIMEXE
 40
1.25
  9
$DIMTP
 40
0.0
  9
$DIMTM
 40
0.0
  9
$DIMTXT
 40
2.5
  9
$DIMCEN
 40
2.5
  9
$DIMTSZ
 40
0.0
  9
$DIMTOL
 70
     0
  9
$DIMLIM
 70
     0
  9
$DIMTIH
 70
     0
  9
$DIMTOH
 70
     0
  9
$DIMSE1
 70
     0
  9
$DIMSE2
 70
     0
  9
$DIMTAD
 70
     1
  9
$DIMZIN
 70
     8
  9
$DIMBLK
  1

  9
$DIMASO
 70
     1
  9
$DIMSHO
 70
     1
  9
$DIMPOST
  1

  9
$DIMAPOST
  1

  9
$DIMALT
 70
     0
  9
$DIMALTD
 70
     3
  9
$DIMALTF
 40
0.03937007874016
  9
$DIMLFAC
 40
1.0
  9
$DIMTOFL
 70
     1
  9
$DIMTVP
 40
0.0
  9
$DIMTIX
 70
     0
  9
$DIMSOXD
 70
     0
  9
$DIMSAH
 70
     0
  9
$DIMBLK1
  1

  9
$DIMBLK2
  1

  9
$DIMSTYLE
  2
ISO-25
  9
$DIMCLRD
 70
     0
  9
$DIMCLRE
 70
     0
  9
$DIMCLRT
 70
     0
  9
$DIMTFAC
 40
1.0
  9
$DIMGAP
 40
0.625
  9
$DIMJUST
 70
     0
  9
$DIMSD1
 70
     0
  9
$DIMSD2
 70
     0
  9
$DIMTOLJ
 70
     0
  9
$DIMTZIN
 70
     8
  9
$DIMALTZ
 70
     0
  9
$DIMALTTZ
 70
     0
  9
$DIMUPT
 70
     0
  9
$DIMDEC
 70
     2
  9
$DIMTDEC
 70
     2
  9
$DIMALTU
 70
     2
  9
$DIMALTTD
 70
     3
  9
$DIMTXSTY
  7
Standard
  9
$DIMAUNIT
 70
     0
  9
$DIMADEC
 70
     0
  9
$DIMALTRND
 40
0.0
  9
$DIMAZIN
 70
     0
  9
$DIMDSEP
 70
    44
  9
$DIMATFIT
 70
     3
  9
$DIMFRAC
 70
     0
  9
$DIMLDRBLK
  1

  9
$DIMLUNIT
 70
     2
  9
$DIMLWD
 70
    -2
  9
$DIMLWE
 70
    -2
  9
$DIMTMOVE
 70
     0
  9
$DIMFXL
 40
1.0
  9
$DIMFXLON
 70
     0
  9
$DIMJOGANG
 40
0.7853981633974483
  9
$DIMTFILL
 70
     0
  9
$DIMTFILLCLR
 70
     0
  9
$DIMARCSYM
 70
     0
  9
$DIMLTYPE
  6

  9
$DIMLTEX1
  6

  9
$DIMLTEX2
  6

  9
$DIMTXTDIRECTION
 70
     0
  9
$LUNITS
 70
     2
  9
$LUPREC
 70
     4
  9
$SKETCHINC
 40
1.0
  9
$FILLETRAD
 40
10.0
  9
$AUNITS
 70
     0
  9
$AUPREC
 70
     0
  9
$MENU
  1
.
  9
$ELEVATION
 40
0.0
  9
$PELEVATION
 40
0.0
  9
$THICKNESS
 40
0.0
  9
$LIMCHECK
 70
     0
  9
$CHAMFERA
 40
0.0
  9
$CHAMFERB
 40
0.0
  9
$CHAMFERC
 40
0.0
  9
$CHAMFERD
 40
0.0
  9
$SKPOLY
 70
     0
  9
$TDCREATE
 40
2458817.744618055
  9
$TDUCREATE
 40
2458817.411289526
  9
$TDUPDATE
 40
2459116.676469907
  9
$TDUUPDATE
 40
2459116.343136575
  9
$TDINDWG
 40
0.0218287153
  9
$TDUSRTIMER
 40
0.0218287153
  9
$USRTIMER
 70
     1
  9
$ANGBASE
 50
0.0
  9
$ANGDIR
 70
     0
  9
$PDMODE
 70
     0
  9
$PDSIZE
 40
0.0
  9
$PLINEWID
 40
0.0
  9
$SPLFRAME
 70
     0
  9
$SPLINETYPE
 70
     6
  9
$SPLINESEGS
 70
     8
  9
$HANDSEED
  5
65E
  9
$SURFTAB1
 70
     6
  9
$SURFTAB2
 70
     6
  9
$SURFTYPE
 70
     6
  9
$SURFU
 70
     6
  9
$SURFV
 70
     6
  9
$UCSBASE
  2

  9
$UCSNAME
  2

  9
$UCSORG
 10
0.0
 20
0.0
 30
0.0
  9
$UCSXDIR
 10
1.0
 20
0.0
 30
0.0
  9
$UCSYDIR
 10
0.0
 20
1.0
 30
0.0
  9
$UCSORTHOREF
  2

  9
$UCSORTHOVIEW
 70
     0
  9
$UCSORGTOP
 10
0.0
 20
0.0
 30
0.0
  9
$UCSORGBOTTOM
 10
0.0
 20
0.0
 30
0.0
  9
$UCSORGLEFT
 10
0.0
 20
0.0
 30
0.0
  9
$UCSORGRIGHT
 10
0.0
 20
0.0
 30
0.0
  9
$UCSORGFRONT
 10
0.0
 20
0.0
 30
0.0
  9
$UCSORGBACK
 10
0.0
 20
0.0
 30
0.0
  9
$PUCSBASE
  2

  9
$PUCSNAME
  2

  9
$PUCSORG
 10
0.0
 20
0.0
 30
0.0
  9
$PUCSXDIR
 10
1.0
 20
0.0
 30
0.0
  9
$PUCSYDIR
 10
0.0
 20
1.0
 30
0.0
  9
$PUCSORTHOREF
  2

  9
$PUCSORTHOVIEW
 70
     0
  9
$PUCSORGTOP
 10
0.0
 20
0.0
 30
0.0
  9
$PUCSORGBOTTOM
 10
0.0
 20
0.0
 30
0.0
  9
$PUCSORGLEFT
 10
0.0
 20
0.0
 30
0.0
  9
$PUCSORGRIGHT
 10
0.0
 20
0.0
 30
0.0
  9
$PUCSORGFRONT
 10
0.0
 20
0.0
 30
0.0
  9
$PUCSORGBACK
 10
0.0
 20
0.0
 30
0.0
  9
$USERI1
 70
     0
  9
$USERI2
 70
     0
  9
$USERI3
 70
     0
  9
$USERI4
 70
     0
  9
$USERI5
 70
     0
  9
$USERR1
 40
0.0
  9
$USERR2
 40
0.0
  9
$USERR3
 40
0.0
  9
$USERR4
 40
0.0
  9
$USERR5
 40
0.0
  9
$WORLDVIEW
 70
     1
  9
$SHADEDGE
 70
     3
  9
$SHADEDIF
 70
    70
  9
$TILEMODE
 70
     1
  9
$MAXACTVP
 70
    64
  9
$PINSBASE
 10
0.0
 20
0.0
 30
0.0
  9
$PLIMCHECK
 70
     0
  9
$PEXTMIN
 10
1.000000000000000E+20
 20
1.000000000000000E+20
 30
1.000000000000000E+20
  9
$PEXTMAX
 10
-1.000000000000000E+20
 20
-1.000000000000000E+20
 30
-1.000000000000000E+20
  9
$PLIMMIN
 10
0.0
 20
0.0
  9
$PLIMMAX
 10
420.0
 20
297.0
  9
$UNITMODE
 70
     0
  9
$VISRETAIN
 70
     1
  9
$PLINEGEN
 70
     0
  9
$PSLTSCALE
 70
     1
  9
$TREEDEPTH
 70
  3020
  9
$CMLSTYLE
  2
Standard
  9
$CMLJUST
 70
     0
  9
$CMLSCALE
 40
20.0
  9
$PROXYGRAPHICS
 70
     1
  9
$MEASUREMENT
 70
     1
  9
$CELWEIGHT
370
    -1
  9
$ENDCAPS
280
     0
  9
$JOINSTYLE
280
     0
  9
$LWDISPLAY
290
     0
  9
$INSUNITS
 70
     4
  9
$HYPERLINKBASE
  1

  9
$STYLESHEET
  1

  9
$XEDIT
290
     1
  9
$CEPSNTYPE
380
     0
  9
$PSTYLEMODE
290
     1
  9
$FINGERPRINTGUID
  2
{2F236B62-33D7-40A1-AC6B-23808F998FBC}
  9
$VERSIONGUID
  2
{1FA7CB41-61C3-8B42-BE37-7CABF4BB2358}
  9
$EXTNAMES
290
     1
  9
$PSVPSCALE
 40
0.0
  9
$OLESTARTUP
290
     0
  9
$SORTENTS
280
   127
  9
$INDEXCTL
280
     0
  9
$HIDETEXT
280
     1
  9
$XCLIPFRAME
280
     2
  9
$HALOGAP
280
     0
  9
$OBSCOLOR
 70
   257
  9
$OBSLTYPE
280
     0
  9
$INTERSECTIONDISPLAY
280
     0
  9
$INTERSECTIONCOLOR
 70
   257
  9
$DIMASSOC
280
     2
  9
$PROJECTNAME
  1

  9
$CAMERADISPLAY
290
     0
  9
$LENSLENGTH
 40
50.0
  9
$CAMERAHEIGHT
 40
0.0
  9
$STEPSPERSEC
 40
2.0
  9
$STEPSIZE
 40
6.0
  9
$3DDWFPREC
 40
2.0
  9
$PSOLWIDTH
 40
5.0
  9
$PSOLHEIGHT
 40
80.0
  9
$LOFTANG1
 40
1.570796326794896
  9
$LOFTANG2
 40
1.570796326794896
  9
$LOFTMAG1
 40
0.0
  9
$LOFTMAG2
 40
0.0
  9
$LOFTPARAM
 70
     7
  9
$LOFTNORMALS
280
     1
  9
$LATITUDE
 40
37.795
  9
$LONGITUDE
 40
-122.394
  9
$NORTHDIRECTION
 40
0.0
  9
$TIMEZONE
 70
 -8000
  9
$LIGHTGLYPHDISPLAY
280
     1
  9
$TILEMODELIGHTSYNCH
280
     1
  9
$CMATERIAL
347
44
  9
$SOLIDHIST
280
     0
  9
$SHOWHIST
280
     1
  9
$DWFFRAME
280
     2
  9
$DGNFRAME
280
     0
  9
$REALWORLDSCALE
290
     1
  9
$INTERFERECOLOR
 62
     1
  9
$INTERFEREOBJVS
345
33
  9
$INTERFEREVPVS
346
30
  9
$CSHADOW
280
     0
  9
$SHADOWPLANELOCATION
 40
0.0
  0
ENDSEC
  0
SECTION
  2
CLASSES
  0
CLASS
  1
ACDBDICTIONARYWDFLT
  2
AcDbDictionaryWithDefault
  3
ObjectDBX Classes
 90
        0
 91
        1
280
     0
281
     0
  0
CLASS
  1
VISUALSTYLE
  2
AcDbVisualStyle
  3
ObjectDBX Classes
 90
     4095
 91
       24
280
     0
281
     0
  0
CLASS
  1
MATERIAL
  2
AcDbMaterial
  3
ObjectDBX Classes
 90
     1153
 91
        3
280
     0
281
     0
  0
CLASS
  1
SCALE
  2
AcDbScale
  3
ObjectDBX Classes
 90
     1153
 91
       33
280
     0
281
     0
  0
CLASS
  1
TABLESTYLE
  2
AcDbTableStyle
  3
ObjectDBX Classes
 90
     4095
 91
        1
280
     0
281
     0
  0
CLASS
  1
MLEADERSTYLE
  2
AcDbMLeaderStyle
  3
ACDB_MLEADERSTYLE_CLASS
 90
     4095
 91
        1
280
     0
281
     0
  0
CLASS
  1
SUN
  2
AcDbSun
  3
SCENEOE
 90
     1153
 91
        0
280
     0
281
     0
  0
CLASS
  1
DICTIONARYVAR
  2
AcDbDictionaryVar
  3
ObjectDBX Classes
 90
        0
 91
       16
280
     0
281
     0
  0
CLASS
  1
ACDBSECTIONVIEWSTYLE
  2
AcDbSectionViewStyle
  3
ObjectDBX Classes
 90
     1025
 91
        1
280
     0
281
     0
  0
CLASS
  1
ACDBDETAILVIEWSTYLE
  2
AcDbDetailViewStyle
  3
ObjectDBX Classes
 90
     1025
 91
        1
280
     0
281
     0
  0
CLASS
  1
SOLID_BACKGROUND
  2
AcDbSolidBackground
  3
SCENEOE
 90
     4095
 91
        0
280
     0
281
     0
  0
CLASS
  1
NPOCOLLECTION
  2
AcDbImpNonPersistentObjectsCollection
  3
ObjectDBX Classes
 90
     1153
 91
        0
280
     0
281
     0
  0
CLASS
  1
CELLSTYLEMAP
  2
AcDbCellStyleMap
  3
ObjectDBX Classes
 90
     1152
 91
        2
280
     0
281
     0
  0
ENDSEC
  0
SECTION
  2
TABLES
  0
TABLE
  2
VPORT
  5
8
330
0
100
AcDbSymbolTable
 70
     1
  0
VPORT
  5
29
330
8
100
AcDbSymbolTableRecord
100
AcDbViewportTableRecord
  2
*Active
 70
     0
 10
0.0
 20
0.0
 11
1.0
 21
1.0
 12
5.747918307594346
 22
-15.09627250421204
 13
0.0
 23
0.0
 14
10.0
 24
10.0
 15
10.0
 25
10.0
 16
-0.0000000000000231
 26
0.0
 36
105.5169237756497
 17
13.12390097975731
 27
12.22529977560043
 37
0.0
 40
40.44258762725806
 41
2.3796992481203
 42
50.0
 43
0.0
 44
0.0
 50
0.0
 51
0.0
 71
     0
 72
   100
 73
     1
 74
     3
 75
     0
 76
     0
 77
     0
 78
     0
281
     0
 65
     1
110
0.0
120
0.0
130
0.0
111
1.0
121
0.0
131
0.0
112
0.0
122
1.0
132
0.0
 79
     0
146
0.0
348
2F
 60
     3
 61
     5
292
     1
282
     1
141
0.0
142
0.0
 63
   250
421
  3355443
1001
ACAD_NAV_VCDISPLAY
1070
     3
  0
ENDTAB
  0
TABLE
  2
LTYPE
  5
5
330
0
100
AcDbSymbolTable
 70
     2
  0
LTYPE
  5
14
330
5
100
AcDbSymbolTableRecord
100
AcDbLinetypeTableRecord
  2
ByBlock
 70
     0
  3

 72
    65
 73
     0
 40
0.0
  0
LTYPE
  5
15
330
5
100
AcDbSymbolTableRecord
100
AcDbLinetypeTableRecord
  2
ByLayer
 70
     0
  3

 72
    65
 73
     0
 40
0.0
  0
LTYPE
  5
16
330
5
100
AcDbSymbolTableRecord
100
AcDbLinetypeTableRecord
  2
Continuous
 70
     0
  3
Solid line
 72
    65
 73
     0
 40
0.0
  0
ENDTAB
  0
TABLE
  2
LAYER
  5
2
330
0
100
AcDbSymbolTable
 70
    11
  0
LAYER
  5
10
102
{ACAD_XDICTIONARY
360
234
102
}
330
2
100
AcDbSymbolTableRecord
100
AcDbLayerTableRecord
  2
0
 70
     0
 62
     7
  6
Continuous
370
    -3
390
F
347
46
348
0
  0
LAYER
  5
6E
102
{ACAD_XDICTIONARY
360
236
102
}
330
2
100
AcDbSymbolTableRecord
100
AcDbLayerTableRecord
  2
TopLayer
 70
     0
 62
     1
  6
Continuous
370
    -3
390
F
347
46
348
0
  0
LAYER
  5
6F
102
{ACAD_XDICTIONARY
360
238
102
}
330
2
100
AcDbSymbolTableRecord
100
AcDbLayerTableRecord
  2
BottomLayer
 70
     0
 62
     5
  6
Continuous
370
    -3
390
F
347
46
348
0
  0
LAYER
  5
70
102
{ACAD_XDICTIONARY
360
23A
102
}
330
2
100
AcDbSymbolTableRecord
100
AcDbLayerTableRecord
  2
Mechanical1
 70
     0
 62
     6
  6
Continuous
370
    -3
390
F
347
46
348
0
  0
LAYER
  5
71
102
{ACAD_XDICTIONARY
360
23C
102
}
330
2
100
AcDbSymbolTableRecord
100
AcDbLayerTableRecord
  2
TopOverlay
 70
     0
 62
     2
  6
Continuous
370
    -3
390
F
347
46
348
0
  0
LAYER
  5
72
102
{ACAD_XDICTIONARY
360
23E
102
}
330
2
100
AcDbSymbolTableRecord
100
AcDbLayerTableRecord
  2
TopPaste
 70
     0
 62
     8
  6
Continuous
370
    -3
390
F
347
46
348
0
  0
LAYER
  5
73
102
{ACAD_XDICTIONARY
360
240
102
}
330
2
100
AcDbSymbolTableRecord
100
AcDbLayerTableRecord
  2
BottomPaste
 70
     0
 62
    16
  6
Continuous
370
    -3
390
F
347
46
348
0
  0
LAYER
  5
74
102
{ACAD_XDICTIONARY
360
242
102
}
330
2
100
AcDbSymbolTableRecord
100
AcDbLayerTableRecord
  2
TopSolder
 70
     0
 62
   216
  6
Continuous
370
    -3
390
F
347
46
348
0
  0
LAYER
  5
75
102
{ACAD_XDICTIONARY
360
244
102
}
330
2
100
AcDbSymbolTableRecord
100
AcDbLayerTableRecord
  2
BottomSolder
 70
     0
 62
     6
  6
Continuous
370
    -3
390
F
347
46
348
0
  0
LAYER
  5
76
102
{ACAD_XDICTIONARY
360
246
102
}
330
2
100
AcDbSymbolTableRecord
100
AcDbLayerTableRecord
  2
PadHoleLayer
 70
     0
 62
   156
  6
Continuous
370
    -3
390
F
347
46
348
0
  0
LAYER
  5
77
102
{ACAD_XDICTIONARY
360
248
102
}
330
2
100
AcDbSymbolTableRecord
100
AcDbLayerTableRecord
  2
ViaHoleLayer
 70
     0
 62
    16
  6
Continuous
370
    -3
390
F
347
46
348
0
  0
ENDTAB
  0
TABLE
  2
STYLE
  5
3
330
0
100
AcDbSymbolTable
 70
     1
  0
STYLE
  5
11
330
3
100
AcDbSymbolTableRecord
100
AcDbTextStyleTableRecord
  2
Standard
 70
     0
 40
0.0
 41
1.0
 50
0.0
 71
     0
 42
2.5
  3
txt
  4

  0
ENDTAB
  0
TABLE
  2
VIEW
  5
6
330
0
100
AcDbSymbolTable
 70
     0
  0
ENDTAB
  0
TABLE
  2
UCS
  5
7
330
0
100
AcDbSymbolTable
 70
     0
  0
ENDTAB
  0
TABLE
  2
APPID
  5
9
330
0
100
AcDbSymbolTable
 70
     4
  0
APPID
  5
12
330
9
100
AcDbSymbolTableRecord
100
AcDbRegAppTableRecord
  2
ACAD
 70
     0
  0
APPID
  5
1D0
330
9
100
AcDbSymbolTableRecord
100
AcDbRegAppTableRecord
  2
ACAD_MLEADERVER
 70
     0
  0
APPID
  5
1E0
330
9
100
AcDbSymbolTableRecord
100
AcDbRegAppTableRecord
  2
ACAD_EXEMPT_FROM_CAD_STANDARDS
 70
     0
  0
APPID
  5
1EF
330
9
100
AcDbSymbolTableRecord
100
AcDbRegAppTableRecord
  2
ACAD_NAV_VCDISPLAY
 70
     0
  0
ENDTAB
  0
TABLE
  2
DIMSTYLE
  5
A
330
0
100
AcDbSymbolTable
 70
     1
100
AcDbDimStyleTable
 71
     0
  0
DIMSTYLE
105
27
330
A
100
AcDbSymbolTableRecord
100
AcDbDimStyleTableRecord
  2
ISO-25
 70
     0
 41
2.5
 42
0.625
 43
3.75
 44
1.25
 73
     0
 74
     0
 77
     1
 78
     8
140
2.5
141
2.5
143
0.03937007874016
147
0.625
171
     3
172
     1
271
     2
272
     2
274
     3
278
    44
283
     0
284
     8
340
11
  0
ENDTAB
  0
TABLE
  2
BLOCK_RECORD
  5
1
330
0
100
AcDbSymbolTable
 70
     3
  0
BLOCK_RECORD
  5
1F
330
1
100
AcDbSymbolTableRecord
100
AcDbBlockTableRecord
  2
*Model_Space
340
22
 70
     0
280
     1
281
     0
  0
BLOCK_RECORD
  5
1B
330
1
100
AcDbSymbolTableRecord
100
AcDbBlockTableRecord
  2
*Paper_Space
340
1E
 70
     0
280
     1
281
     0
  0
BLOCK_RECORD
  5
23
330
1
100
AcDbSymbolTableRecord
100
AcDbBlockTableRecord
  2
*Paper_Space0
340
26
 70
     0
280
     1
281
     0
  0
BLOCK_RECORD
  5
1FE
330
1
100
AcDbSymbolTableRecord
100
AcDbBlockTableRecord
  2
A$C42EB691F
340
0
 70
     4
280
     1
281
     0
  0
ENDTAB
  0
ENDSEC
  0
SECTION
  2
BLOCKS
  0
BLOCK
  5
20
330
1F
100
AcDbEntity
  8
0
100
AcDbBlockBegin
  2
*Model_Space
 70
     0
 10
0.0
 20
0.0
 30
0.0
  3
*Model_Space
  1

  0
ENDBLK
  5
21
330
1F
100
AcDbEntity
  8
0
100
AcDbBlockEnd
  0
BLOCK
  5
1C
330
1B
100
AcDbEntity
 67
     1
  8
0
100
AcDbBlockBegin
  2
*Paper_Space
 70
     0
 10
0.0
 20
0.0
 30
0.0
  3
*Paper_Space
  1

  0
ENDBLK
  5
1D
330
1B
100
AcDbEntity
 67
     1
  8
0
100
AcDbBlockEnd
  0
BLOCK
  5
24
330
23
100
AcDbEntity
 67
     1
  8
0
100
AcDbBlockBegin
  2
*Paper_Space0
 70
     0
 10
0.0
 20
0.0
 30
0.0
  3
*Paper_Space0
  1

  0
ENDBLK
  5
25
330
23
100
AcDbEntity
 67
     1
  8
0
100
AcDbBlockEnd
  0
BLOCK
  5
200
330
1FE
100
AcDbEntity
  8
0
100
AcDbBlockBegin
  2
A$C42EB691F
 70
     0
 10
0.0
 20
0.0
 30
0.0
  3
A$C42EB691F
  1

  0
MTEXT
  5
1FF
330
1FE
100
AcDbEntity
  8
0
100
AcDbMText
 10
0.175320702405088
 20
1.360807000071075
 30
0.0
 40
1.0
 41
1.986045834868433
 46
0.0
 71
     1
 72
     5
  1
{\fArial|b0|i0|c134|p34;IO3}
 73
     1
 44
1.0
101
Embedded Object
 70
     1
 10
1.0
 20
0.0
 30
0.0
 11
0.175320702405088
 21
1.360807000071075
 31
0.0
 40
1.986045834868433
 41
0.0
 42
2.057980900409277
 43
1.035470668485675
 71
     2
 72
     1
 44
1.986045834868433
 45
12.5
 73
     0
 74
     0
 46
0.0
1001
ACAD
1000
MTEXTBEGIN
1070
    73
1070
     1
1070
    44
1040
1.0
1070
    74
1070
     0
1000
MTEXTEND
  0
ENDBLK
  5
201
330
1FE
100
AcDbEntity
  8
0
100
AcDbBlockEnd
  0
ENDSEC
  0
SECTION
  2
ENTITIES
  0
LWPOLYLINE
  5
78
330
1F
100
AcDbEntity
  8
TopOverlay
100
AcDbPolyline
 90
        2
 70
     0
 43
0.3999992
 10
26.8986
 20
-1.6002
 10
26.8986
 20
-0.3302
  0
LWPOLYLINE
  5
79
330
1F
100
AcDbEntity
  8
TopOverlay
100
AcDbPolyline
 90
        2
 70
     1
 43
0.1999996
 10
26.7986002
 20
-1.6002
 42
1.0
 10
26.9985998
 20
-1.6002
 42
1.0
  0
LWPOLYLINE
  5
7A
330
1F
100
AcDbEntity
  8
TopOverlay
100
AcDbPolyline
 90
        2
 70
     1
 43
0.1999996
 10
26.7986002
 20
-0.3302
 42
1.0
 10
26.9985998
 20
-0.3302
 42
1.0
  0
LWPOLYLINE
  5
7B
330
1F
100
AcDbEntity
  8
TopOverlay
100
AcDbPolyline
 90
        2
 70
     0
 43
0.3999992
 10
25.6286
 20
-1.6002
 10
26.8986
 20
-1.6002
  0
LWPOLYLINE
  5
7C
330
1F
100
AcDbEntity
  8
TopOverlay
100
AcDbPolyline
 90
        2
 70
     1
 43
0.1999996
 10
25.5286002
 20
-1.6002
 42
1.0
 10
25.7285998
 20
-1.6002
 42
1.0
  0
LWPOLYLINE
  5
7D
330
1F
100
AcDbEntity
  8
TopOverlay
100
AcDbPolyline
 90
        2
 70
     1
 43
0.1999996
 10
26.7986002
 20
-1.6002
 42
1.0
 10
26.9985998
 20
-1.6002
 42
1.0
  0
LWPOLYLINE
  5
7E
330
1F
100
AcDbEntity
  8
TopOverlay
100
AcDbPolyline
 90
        2
 70
     0
 43
0.3999992
 10
24.9936
 20
-0.8636000000000001
 10
26.2636
 20
-0.8636000000000001
  0
LWPOLYLINE
  5
7F
330
1F
100
AcDbEntity
  8
TopOverlay
100
AcDbPolyline
 90
        2
 70
     1
 43
0.1999996
 10
24.8936002
 20
-0.8636000000000001
 42
1.0
 10
25.09359980000001
 20
-0.8636000000000001
 42
1.0
  0
LWPOLYLINE
  5
80
330
1F
100
AcDbEntity
  8
TopOverlay
100
AcDbPolyline
 90
        2
 70
     1
 43
0.1999996
 10
26.1636002
 20
-0.8636000000000001
 42
1.0
 10
26.3635998
 20
-0.8636000000000001
 42
1.0
  0
LWPOLYLINE
  5
81
330
1F
100
AcDbEntity
  8
TopOverlay
100
AcDbPolyline
 90
        2
 70
     0
 43
0.3999992
 10
26.2636
 20
-0.8636000000000001
 10
26.2636
 20
0.4064
  0
LWPOLYLINE
  5
82
330
1F
100
AcDbEntity
  8
TopOverlay
100
AcDbPolyline
 90
        2
 70
     1
 43
0.1999996
 10
26.1636002
 20
-0.8636000000000001
 42
1.0
 10
26.3635998
 20
-0.8636000000000001
 42
1.0
  0
LWPOLYLINE
  5
83
330
1F
100
AcDbEntity
  8
TopOverlay
100
AcDbPolyline
 90
        2
 70
     1
 43
0.1999996
 10
26.1636002
 20
0.4064
 42
1.0
 10
26.3635998
 20
0.4064
 42
1.0
  0
LWPOLYLINE
  5
84
330
1F
100
AcDbEntity
  8
TopOverlay
100
AcDbPolyline
 90
        2
 70
     0
 43
0.3999992
 10
-0.508
 20
25.908
 10
0.762
 20
25.908
  0
LWPOLYLINE
  5
85
330
1F
100
AcDbEntity
  8
TopOverlay
100
AcDbPolyline
 90
        2
 70
     1
 43
0.1999996
 10
-0.6079998000000001
 20
25.908
 42
1.0
 10
-0.4080002
 20
25.908
 42
1.0
  0
LWPOLYLINE
  5
86
330
1F
100
AcDbEntity
  8
TopOverlay
100
AcDbPolyline
 90
        2
 70
     1
 43
0.1999996
 10
0.6620002
 20
25.908
 42
1.0
 10
0.8619997999999997
 20
25.908
 42
1.0
  0
LWPOLYLINE
  5
87
330
1F
100
AcDbEntity
  8
TopOverlay
100
AcDbPolyline
 90
        2
 70
     0
 43
0.3999992
 10
-0.508
 20
24.638
 10
-0.508
 20
25.908
  0
LWPOLYLINE
  5
88
330
1F
100
AcDbEntity
  8
TopOverlay
100
AcDbPolyline
 90
        2
 70
     1
 43
0.1999996
 10
-0.6079998000000001
 20
24.638
 42
1.0
 10
-0.4080002
 20
24.638
 42
1.0
  0
LWPOLYLINE
  5
89
330
1F
100
AcDbEntity
  8
TopOverlay
100
AcDbPolyline
 90
        2
 70
     1
 43
0.1999996
 10
-0.6079998000000001
 20
25.908
 42
1.0
 10
-0.4080002
 20
25.908
 42
1.0
  0
LWPOLYLINE
  5
8A
330
1F
100
AcDbEntity
  8
TopOverlay
100
AcDbPolyline
 90
        2
 70
     0
 43
0.3999992
 10
24.638
 20
25.908
 10
25.908
 20
25.908
  0
LWPOLYLINE
  5
8B
330
1F
100
AcDbEntity
  8
TopOverlay
100
AcDbPolyline
 90
        2
 70
     1
 43
0.1999996
 10
24.5380002
 20
25.908
 42
1.0
 10
24.7379998
 20
25.908
 42
1.0
  0
LWPOLYLINE
  5
8C
330
1F
100
AcDbEntity
  8
TopOverlay
100
AcDbPolyline
 90
        2
 70
     1
 43
0.1999996
 10
25.8080002
 20
25.908
 42
1.0
 10
26.00799980000001
 20
25.908
 42
1.0
  0
LWPOLYLINE
  5
8D
330
1F
100
AcDbEntity
  8
TopOverlay
100
AcDbPolyline
 90
        2
 70
     0
 43
0.3999992
 10
25.908
 20
24.638
 10
25.908
 20
25.908
  0
LWPOLYLINE
  5
8E
330
1F
100
AcDbEntity
  8
TopOverlay
100
AcDbPolyline
 90
        2
 70
     1
 43
0.1999996
 10
25.8080002
 20
24.638
 42
1.0
 10
26.00799980000001
 20
24.638
 42
1.0
  0
LWPOLYLINE
  5
8F
330
1F
100
AcDbEntity
  8
TopOverlay
100
AcDbPolyline
 90
        2
 70
     1
 43
0.1999996
 10
25.8080002
 20
25.908
 42
1.0
 10
26.00799980000001
 20
25.908
 42
1.0
  0
LWPOLYLINE
  5
90
330
1F
100
AcDbEntity
  8
TopOverlay
100
AcDbPolyline
 90
        2
 70
     0
 43
0.3999992
 10
-0.508
 20
-0.508
 10
-0.508
 20
0.762
  0
LWPOLYLINE
  5
91
330
1F
100
AcDbEntity
  8
TopOverlay
100
AcDbPolyline
 90
        2
 70
     1
 43
0.1999996
 10
-0.6079998000000001
 20
-0.508
 42
1.0
 10
-0.4080002
 20
-0.508
 42
1.0
  0
LWPOLYLINE
  5
92
330
1F
100
AcDbEntity
  8
TopOverlay
100
AcDbPolyline
 90
        2
 70
     1
 43
0.1999996
 10
-0.6079998000000001
 20
0.762
 42
1.0
 10
-0.4080002
 20
0.762
 42
1.0
  0
LWPOLYLINE
  5
93
330
1F
100
AcDbEntity
  8
TopOverlay
100
AcDbPolyline
 90
        2
 70
     0
 43
0.3999992
 10
-0.508
 20
-0.508
 10
0.762
 20
-0.508
  0
LWPOLYLINE
  5
94
330
1F
100
AcDbEntity
  8
TopOverlay
100
AcDbPolyline
 90
        2
 70
     1
 43
0.1999996
 10
-0.6079998000000001
 20
-0.508
 42
1.0
 10
-0.4080002
 20
-0.508
 42
1.0
  0
LWPOLYLINE
  5
95
330
1F
100
AcDbEntity
  8
TopOverlay
100
AcDbPolyline
 90
        2
 70
     1
 43
0.1999996
 10
0.6620002
 20
-0.508
 42
1.0
 10
0.8619997999999997
 20
-0.508
 42
1.0
  0
SOLID
  5
96
330
1F
100
AcDbEntity
  8
TopPaste
100
AcDbTrace
 10
23.0950008
 20
-0.5999988
 30
0.0
 11
23.8949992
 21
-0.5999988
 31
0.0
 12
23.0950008
 22
0.5999988
 32
0.0
 13
23.8949992
 23
0.5999988
 33
0.0
  0
SOLID
  5
97
330
1F
100
AcDbEntity
  8
TopSolder
100
AcDbTrace
 10
23.0442008
 20
-0.6507988
 30
0.0
 11
23.9457992
 21
-0.6507988
 31
0.0
 12
23.0442008
 22
0.6507988
 32
0.0
 13
23.9457992
 23
0.6507988
 33
0.0
  0
SOLID
  5
98
330
1F
100
AcDbEntity
  8
TopLayer
100
AcDbTrace
 10
23.0950008
 20
-0.5999988
 30
0.0
 11
23.8949992
 21
-0.5999988
 31
0.0
 12
23.0950008
 22
0.5999988
 32
0.0
 13
23.8949992
 23
0.5999988
 33
0.0
  0
SOLID
  5
99
330
1F
100
AcDbEntity
  8
TopPaste
100
AcDbTrace
 10
25.49799828
 20
-0.4499991
 30
0.0
 11
25.49799828
 21
1.049997899999999
 31
0.0
 12
24.74800232
 22
-0.4499991
 32
0.0
 13
24.74800232
 23
1.049997899999999
 33
0.0
  0
SOLID
  5
9A
330
1F
100
AcDbEntity
  8
TopPaste
100
AcDbTrace
 10
25.8729988
 20
-0.07499858
 30
0.0
 11
25.8729988
 21
0.67499738
 31
0.0
 12
24.3730018
 22
-0.07499858
 32
0.0
 13
24.3730018
 23
0.67499738
 33
0.0
  0
LWPOLYLINE
  5
9B
330
1F
100
AcDbEntity
  8
TopPaste
100
AcDbPolyline
 90
        2
 70
     1
 43
0.37500052
 10
25.31049802
 20
0.67499738
 42
1.0
 10
25.68549854
 20
0.67499738
 42
1.0
  0
LWPOLYLINE
  5
9C
330
1F
100
AcDbEntity
  8
TopPaste
100
AcDbPolyline
 90
        2
 70
     1
 43
0.37500052
 10
24.56050206
 20
0.67499738
 42
1.0
 10
24.93550258
 20
0.67499738
 42
1.0
  0
LWPOLYLINE
  5
9D
330
1F
100
AcDbEntity
  8
TopPaste
100
AcDbPolyline
 90
        2
 70
     1
 43
0.37500052
 10
24.56050206
 20
-0.07499858
 42
1.0
 10
24.93550258
 20
-0.07499858
 42
1.0
  0
LWPOLYLINE
  5
9E
330
1F
100
AcDbEntity
  8
TopPaste
100
AcDbPolyline
 90
        2
 70
     1
 43
0.37500052
 10
25.31049802
 20
-0.07499858
 42
1.0
 10
25.68549854
 20
-0.07499858
 42
1.0
  0
SOLID
  5
9F
330
1F
100
AcDbEntity
  8
TopSolder
100
AcDbTrace
 10
25.49799828
 20
-0.5007991000000001
 30
0.0
 11
25.49799828
 21
1.100797899999998
 31
0.0
 12
24.74800232
 22
-0.5007991000000001
 32
0.0
 13
24.74800232
 23
1.100797899999998
 33
0.0
  0
SOLID
  5
A0
330
1F
100
AcDbEntity
  8
TopSolder
100
AcDbTrace
 10
25.9237988
 20
-0.07499858
 30
0.0
 11
25.9237988
 21
0.67499738
 31
0.0
 12
24.3222018
 22
-0.07499858
 32
0.0
 13
24.3222018
 23
0.67499738
 33
0.0
  0
LWPOLYLINE
  5
A1
330
1F
100
AcDbEntity
  8
TopSolder
100
AcDbPolyline
 90
        2
 70
     1
 43
0.4258005200000002
 10
25.28509802
 20
0.67499738
 42
1.0
 10
25.71089854
 20
0.67499738
 42
1.0
  0
LWPOLYLINE
  5
A2
330
1F
100
AcDbEntity
  8
TopSolder
100
AcDbPolyline
 90
        2
 70
     1
 43
0.4258005200000002
 10
24.53510206
 20
0.67499738
 42
1.0
 10
24.96090258
 20
0.67499738
 42
1.0
  0
LWPOLYLINE
  5
A3
330
1F
100
AcDbEntity
  8
TopSolder
100
AcDbPolyline
 90
        2
 70
     1
 43
0.4258005200000002
 10
24.53510206
 20
-0.07499858
 42
1.0
 10
24.96090258
 20
-0.07499858
 42
1.0
  0
LWPOLYLINE
  5
A4
330
1F
100
AcDbEntity
  8
TopSolder
100
AcDbPolyline
 90
        2
 70
     1
 43
0.4258005200000002
 10
25.28509802
 20
-0.07499858
 42
1.0
 10
25.71089854
 20
-0.07499858
 42
1.0
  0
SOLID
  5
A5
330
1F
100
AcDbEntity
  8
TopLayer
100
AcDbTrace
 10
25.49799828
 20
-0.4499991
 30
0.0
 11
25.49799828
 21
1.049997899999999
 31
0.0
 12
24.74800232
 22
-0.4499991
 32
0.0
 13
24.74800232
 23
1.049997899999999
 33
0.0
  0
SOLID
  5
A6
330
1F
100
AcDbEntity
  8
TopLayer
100
AcDbTrace
 10
25.8729988
 20
-0.07499858
 30
0.0
 11
25.8729988
 21
0.67499738
 31
0.0
 12
24.3730018
 22
-0.07499858
 32
0.0
 13
24.3730018
 23
0.67499738
 33
0.0
  0
LWPOLYLINE
  5
A7
330
1F
100
AcDbEntity
  8
TopLayer
100
AcDbPolyline
 90
        2
 70
     1
 43
0.37500052
 10
25.31049802
 20
0.67499738
 42
1.0
 10
25.68549854
 20
0.67499738
 42
1.0
  0
LWPOLYLINE
  5
A8
330
1F
100
AcDbEntity
  8
TopLayer
100
AcDbPolyline
 90
        2
 70
     1
 43
0.37500052
 10
24.56050206
 20
0.67499738
 42
1.0
 10
24.93550258
 20
0.67499738
 42
1.0
  0
LWPOLYLINE
  5
A9
330
1F
100
AcDbEntity
  8
TopLayer
100
AcDbPolyline
 90
        2
 70
     1
 43
0.37500052
 10
24.56050206
 20
-0.07499858
 42
1.0
 10
24.93550258
 20
-0.07499858
 42
1.0
  0
LWPOLYLINE
  5
AA
330
1F
100
AcDbEntity
  8
TopLayer
100
AcDbPolyline
 90
        2
 70
     1
 43
0.37500052
 10
25.31049802
 20
-0.07499858
 42
1.0
 10
25.68549854
 20
-0.07499858
 42
1.0
  0
LWPOLYLINE
  5
AB
330
1F
100
AcDbEntity
  8
PadHoleLayer
100
AcDbPolyline
 90
        4
 70
     1
 43
0.0
 10
25.1230003
 20
0.2999994
 10
25.1230003
 20
0.2999994
 42
-1.0
 10
25.1230003
 20
0.2999994
 10
25.1230003
 20
0.2999994
 42
-1.0
  0
SOLID
  5
AC
330
1F
100
AcDbEntity
  8
TopPaste
100
AcDbTrace
 10
24.6000016
 20
25.5999996
 30
0.0
 11
24.6000016
 21
24.6000016
 31
0.0
 12
25.5999996
 22
25.5999996
 32
0.0
 13
25.5999996
 23
24.6000016
 33
0.0
  0
SOLID
  5
AD
330
1F
100
AcDbEntity
  8
TopSolder
100
AcDbTrace
 10
24.5492016
 20
25.6507996
 30
0.0
 11
24.5492016
 21
24.5492016
 31
0.0
 12
25.6507996
 22
25.6507996
 32
0.0
 13
25.6507996
 23
24.5492016
 33
0.0
  0
SOLID
  5
AE
330
1F
100
AcDbEntity
  8
TopLayer
100
AcDbTrace
 10
24.6000016
 20
25.5999996
 30
0.0
 11
24.6000016
 21
24.6000016
 31
0.0
 12
25.5999996
 22
25.5999996
 32
0.0
 13
25.5999996
 23
24.6000016
 33
0.0
  0
SOLID
  5
AF
330
1F
100
AcDbEntity
  8
TopPaste
100
AcDbTrace
 10
-0.1999996
 20
0.7999984
 30
0.0
 11
-0.1999996
 21
-0.1999996
 31
0.0
 12
0.7999984
 22
0.7999984
 32
0.0
 13
0.7999984
 23
-0.1999996
 33
0.0
  0
SOLID
  5
B0
330
1F
100
AcDbEntity
  8
TopSolder
100
AcDbTrace
 10
-0.2507996
 20
0.8507984
 30
0.0
 11
-0.2507996
 21
-0.2507996
 31
0.0
 12
0.8507984
 22
0.8507984
 32
0.0
 13
0.8507984
 23
-0.2507996
 33
0.0
  0
SOLID
  5
B1
330
1F
100
AcDbEntity
  8
TopLayer
100
AcDbTrace
 10
-0.1999996
 20
0.7999984
 30
0.0
 11
-0.1999996
 21
-0.1999996
 31
0.0
 12
0.7999984
 22
0.7999984
 32
0.0
 13
0.7999984
 23
-0.1999996
 33
0.0
  0
SOLID
  5
B2
330
1F
100
AcDbEntity
  8
TopPaste
100
AcDbTrace
 10
-0.1999996
 20
25.5999996
 30
0.0
 11
-0.1999996
 21
24.6000016
 31
0.0
 12
0.7999984
 22
25.5999996
 32
0.0
 13
0.7999984
 23
24.6000016
 33
0.0
  0
SOLID
  5
B3
330
1F
100
AcDbEntity
  8
TopSolder
100
AcDbTrace
 10
-0.2507996
 20
25.6507996
 30
0.0
 11
-0.2507996
 21
24.5492016
 31
0.0
 12
0.8507984
 22
25.6507996
 32
0.0
 13
0.8507984
 23
24.5492016
 33
0.0
  0
SOLID
  5
B4
330
1F
100
AcDbEntity
  8
TopLayer
100
AcDbTrace
 10
-0.1999996
 20
25.5999996
 30
0.0
 11
-0.1999996
 21
24.6000016
 31
0.0
 12
0.7999984
 22
25.5999996
 32
0.0
 13
0.7999984
 23
24.6000016
 33
0.0
  0
SOLID
  5
B5
330
1F
100
AcDbEntity
  8
TopPaste
100
AcDbTrace
 10
15.4750008
 20
-0.7999984
 30
0.0
 11
16.2749992
 21
-0.7999984
 31
0.0
 12
15.4750008
 22
0.7999984
 32
0.0
 13
16.2749992
 23
0.7999984
 33
0.0
  0
SOLID
  5
B6
330
1F
100
AcDbEntity
  8
TopSolder
100
AcDbTrace
 10
15.4242008
 20
-0.8507984
 30
0.0
 11
16.3257992
 21
-0.8507984
 31
0.0
 12
15.4242008
 22
0.8507984
 32
0.0
 13
16.3257992
 23
0.8507984
 33
0.0
  0
SOLID
  5
B7
330
1F
100
AcDbEntity
  8
TopLayer
100
AcDbTrace
 10
15.4750008
 20
-0.7999984
 30
0.0
 11
16.2749992
 21
-0.7999984
 31
0.0
 12
15.4750008
 22
0.7999984
 32
0.0
 13
16.2749992
 23
0.7999984
 33
0.0
  0
SOLID
  5
B8
330
1F
100
AcDbEntity
  8
TopPaste
100
AcDbTrace
 10
14.2050008
 20
-0.7999984
 30
0.0
 11
15.0049992
 21
-0.7999984
 31
0.0
 12
14.2050008
 22
0.7999984
 32
0.0
 13
15.0049992
 23
0.7999984
 33
0.0
  0
SOLID
  5
B9
330
1F
100
AcDbEntity
  8
TopSolder
100
AcDbTrace
 10
14.1542008
 20
-0.8507984
 30
0.0
 11
15.0557992
 21
-0.8507984
 31
0.0
 12
14.1542008
 22
0.8507984
 32
0.0
 13
15.0557992
 23
0.8507984
 33
0.0
  0
SOLID
  5
BA
330
1F
100
AcDbEntity
  8
TopLayer
100
AcDbTrace
 10
14.2050008
 20
-0.7999984
 30
0.0
 11
15.0049992
 21
-0.7999984
 31
0.0
 12
14.2050008
 22
0.7999984
 32
0.0
 13
15.0049992
 23
0.7999984
 33
0.0
  0
SOLID
  5
BB
330
1F
100
AcDbEntity
  8
TopPaste
100
AcDbTrace
 10
11.6650008
 20
-0.7999984
 30
0.0
 11
12.4649992
 21
-0.7999984
 31
0.0
 12
11.6650008
 22
0.7999984
 32
0.0
 13
12.4649992
 23
0.7999984
 33
0.0
  0
SOLID
  5
BC
330
1F
100
AcDbEntity
  8
TopSolder
100
AcDbTrace
 10
11.6142008
 20
-0.8507984
 30
0.0
 11
12.5157992
 21
-0.8507984
 31
0.0
 12
11.6142008
 22
0.8507984
 32
0.0
 13
12.5157992
 23
0.8507984
 33
0.0
  0
SOLID
  5
BD
330
1F
100
AcDbEntity
  8
TopLayer
100
AcDbTrace
 10
11.6650008
 20
-0.7999984
 30
0.0
 11
12.4649992
 21
-0.7999984
 31
0.0
 12
11.6650008
 22
0.7999984
 32
0.0
 13
12.4649992
 23
0.7999984
 33
0.0
  0
SOLID
  5
BE
330
1F
100
AcDbEntity
  8
TopPaste
100
AcDbTrace
 10
12.9350008
 20
-0.7999984
 30
0.0
 11
13.7349992
 21
-0.7999984
 31
0.0
 12
12.9350008
 22
0.7999984
 32
0.0
 13
13.7349992
 23
0.7999984
 33
0.0
  0
SOLID
  5
BF
330
1F
100
AcDbEntity
  8
TopSolder
100
AcDbTrace
 10
12.8842008
 20
-0.8507984
 30
0.0
 11
13.7857992
 21
-0.8507984
 31
0.0
 12
12.8842008
 22
0.8507984
 32
0.0
 13
13.7857992
 23
0.8507984
 33
0.0
  0
SOLID
  5
C0
330
1F
100
AcDbEntity
  8
TopLayer
100
AcDbTrace
 10
12.9350008
 20
-0.7999984
 30
0.0
 11
13.7349992
 21
-0.7999984
 31
0.0
 12
12.9350008
 22
0.7999984
 32
0.0
 13
13.7349992
 23
0.7999984
 33
0.0
  0
SOLID
  5
C1
330
1F
100
AcDbEntity
  8
TopPaste
100
AcDbTrace
 10
10.3950008
 20
-0.7999984
 30
0.0
 11
11.1949992
 21
-0.7999984
 31
0.0
 12
10.3950008
 22
0.7999984
 32
0.0
 13
11.1949992
 23
0.7999984
 33
0.0
  0
SOLID
  5
C2
330
1F
100
AcDbEntity
  8
TopSolder
100
AcDbTrace
 10
10.3442008
 20
-0.8507984
 30
0.0
 11
11.2457992
 21
-0.8507984
 31
0.0
 12
10.3442008
 22
0.8507984
 32
0.0
 13
11.2457992
 23
0.8507984
 33
0.0
  0
SOLID
  5
C3
330
1F
100
AcDbEntity
  8
TopLayer
100
AcDbTrace
 10
10.3950008
 20
-0.7999984
 30
0.0
 11
11.1949992
 21
-0.7999984
 31
0.0
 12
10.3950008
 22
0.7999984
 32
0.0
 13
11.1949992
 23
0.7999984
 33
0.0
  0
SOLID
  5
C4
330
1F
100
AcDbEntity
  8
TopPaste
100
AcDbTrace
 10
9.1250008
 20
-0.7999984
 30
0.0
 11
9.924999199999998
 21
-0.7999984
 31
0.0
 12
9.1250008
 22
0.7999984
 32
0.0
 13
9.924999199999998
 23
0.7999984
 33
0.0
  0
SOLID
  5
C5
330
1F
100
AcDbEntity
  8
TopSolder
100
AcDbTrace
 10
9.074200799999999
 20
-0.8507984
 30
0.0
 11
9.975799199999999
 21
-0.8507984
 31
0.0
 12
9.074200799999999
 22
0.8507984
 32
0.0
 13
9.975799199999999
 23
0.8507984
 33
0.0
  0
SOLID
  5
C6
330
1F
100
AcDbEntity
  8
TopLayer
100
AcDbTrace
 10
9.1250008
 20
-0.7999984
 30
0.0
 11
9.924999199999998
 21
-0.7999984
 31
0.0
 12
9.1250008
 22
0.7999984
 32
0.0
 13
9.924999199999998
 23
0.7999984
 33
0.0
  0
SOLID
  5
C7
330
1F
100
AcDbEntity
  8
TopPaste
100
AcDbTrace
 10
7.8550008
 20
-0.7999984
 30
0.0
 11
8.654999199999997
 21
-0.7999984
 31
0.0
 12
7.8550008
 22
0.7999984
 32
0.0
 13
8.654999199999997
 23
0.7999984
 33
0.0
  0
SOLID
  5
C8
330
1F
100
AcDbEntity
  8
TopSolder
100
AcDbTrace
 10
7.8042008
 20
-0.8507984
 30
0.0
 11
8.705799199999999
 21
-0.8507984
 31
0.0
 12
7.8042008
 22
0.8507984
 32
0.0
 13
8.705799199999999
 23
0.8507984
 33
0.0
  0
SOLID
  5
C9
330
1F
100
AcDbEntity
  8
TopLayer
100
AcDbTrace
 10
7.8550008
 20
-0.7999984
 30
0.0
 11
8.654999199999997
 21
-0.7999984
 31
0.0
 12
7.8550008
 22
0.7999984
 32
0.0
 13
8.654999199999997
 23
0.7999984
 33
0.0
  0
SOLID
  5
CA
330
1F
100
AcDbEntity
  8
TopPaste
100
AcDbTrace
 10
6.5850008
 20
-0.7999984
 30
0.0
 11
7.384999199999997
 21
-0.7999984
 31
0.0
 12
6.5850008
 22
0.7999984
 32
0.0
 13
7.384999199999997
 23
0.7999984
 33
0.0
  0
SOLID
  5
CB
330
1F
100
AcDbEntity
  8
TopSolder
100
AcDbTrace
 10
6.534200799999998
 20
-0.8507984
 30
0.0
 11
7.435799199999999
 21
-0.8507984
 31
0.0
 12
6.534200799999998
 22
0.8507984
 32
0.0
 13
7.435799199999999
 23
0.8507984
 33
0.0
  0
SOLID
  5
CC
330
1F
100
AcDbEntity
  8
TopLayer
100
AcDbTrace
 10
6.5850008
 20
-0.7999984
 30
0.0
 11
7.384999199999997
 21
-0.7999984
 31
0.0
 12
6.5850008
 22
0.7999984
 32
0.0
 13
7.384999199999997
 23
0.7999984
 33
0.0
  0
SOLID
  5
CD
330
1F
100
AcDbEntity
  8
TopPaste
100
AcDbTrace
 10
5.315000799999999
 20
-0.7999984
 30
0.0
 11
6.114999199999998
 21
-0.7999984
 31
0.0
 12
5.315000799999999
 22
0.7999984
 32
0.0
 13
6.114999199999998
 23
0.7999984
 33
0.0
  0
SOLID
  5
CE
330
1F
100
AcDbEntity
  8
TopSolder
100
AcDbTrace
 10
5.264200799999998
 20
-0.8507984
 30
0.0
 11
6.165799199999997
 21
-0.8507984
 31
0.0
 12
5.264200799999998
 22
0.8507984
 32
0.0
 13
6.165799199999997
 23
0.8507984
 33
0.0
  0
SOLID
  5
CF
330
1F
100
AcDbEntity
  8
TopLayer
100
AcDbTrace
 10
5.315000799999999
 20
-0.7999984
 30
0.0
 11
6.114999199999998
 21
-0.7999984
 31
0.0
 12
5.315000799999999
 22
0.7999984
 32
0.0
 13
6.114999199999998
 23
0.7999984
 33
0.0
  0
SOLID
  5
D0
330
1F
100
AcDbEntity
  8
TopPaste
100
AcDbTrace
 10
4.0450008
 20
-0.7999984
 30
0.0
 11
4.8449992
 21
-0.7999984
 31
0.0
 12
4.0450008
 22
0.7999984
 32
0.0
 13
4.8449992
 23
0.7999984
 33
0.0
  0
SOLID
  5
D1
330
1F
100
AcDbEntity
  8
TopSolder
100
AcDbTrace
 10
3.9942008
 20
-0.8507984
 30
0.0
 11
4.895799199999999
 21
-0.8507984
 31
0.0
 12
3.9942008
 22
0.8507984
 32
0.0
 13
4.895799199999999
 23
0.8507984
 33
0.0
  0
SOLID
  5
D2
330
1F
100
AcDbEntity
  8
TopLayer
100
AcDbTrace
 10
4.0450008
 20
-0.7999984
 30
0.0
 11
4.8449992
 21
-0.7999984
 31
0.0
 12
4.0450008
 22
0.7999984
 32
0.0
 13
4.8449992
 23
0.7999984
 33
0.0
  0
SOLID
  5
D3
330
1F
100
AcDbEntity
  8
TopPaste
100
AcDbTrace
 10
2.775000799999998
 20
-0.7999984
 30
0.0
 11
3.574999199999998
 21
-0.7999984
 31
0.0
 12
2.775000799999998
 22
0.7999984
 32
0.0
 13
3.574999199999998
 23
0.7999984
 33
0.0
  0
SOLID
  5
D4
330
1F
100
AcDbEntity
  8
TopSolder
100
AcDbTrace
 10
2.724200799999998
 20
-0.8507984
 30
0.0
 11
3.625799199999999
 21
-0.8507984
 31
0.0
 12
2.724200799999998
 22
0.8507984
 32
0.0
 13
3.625799199999999
 23
0.8507984
 33
0.0
  0
SOLID
  5
D5
330
1F
100
AcDbEntity
  8
TopLayer
100
AcDbTrace
 10
2.775000799999998
 20
-0.7999984
 30
0.0
 11
3.574999199999998
 21
-0.7999984
 31
0.0
 12
2.775000799999998
 22
0.7999984
 32
0.0
 13
3.574999199999998
 23
0.7999984
 33
0.0
  0
SOLID
  5
D6
330
1F
100
AcDbEntity
  8
TopPaste
100
AcDbTrace
 10
1.505000799999999
 20
-0.7999984
 30
0.0
 11
2.3049992
 21
-0.7999984
 31
0.0
 12
1.505000799999999
 22
0.7999984
 32
0.0
 13
2.3049992
 23
0.7999984
 33
0.0
  0
SOLID
  5
D7
330
1F
100
AcDbEntity
  8
TopSolder
100
AcDbTrace
 10
1.454200799999999
 20
-0.8507984
 30
0.0
 11
2.3557992
 21
-0.8507984
 31
0.0
 12
1.454200799999999
 22
0.8507984
 32
0.0
 13
2.3557992
 23
0.8507984
 33
0.0
  0
SOLID
  5
D8
330
1F
100
AcDbEntity
  8
TopLayer
100
AcDbTrace
 10
1.505000799999999
 20
-0.7999984
 30
0.0
 11
2.3049992
 21
-0.7999984
 31
0.0
 12
1.505000799999999
 22
0.7999984
 32
0.0
 13
2.3049992
 23
0.7999984
 33
0.0
  0
SOLID
  5
D9
330
1F
100
AcDbEntity
  8
TopPaste
100
AcDbTrace
 10
16.7450008
 20
-0.7999984
 30
0.0
 11
17.5449992
 21
-0.7999984
 31
0.0
 12
16.7450008
 22
0.7999984
 32
0.0
 13
17.5449992
 23
0.7999984
 33
0.0
  0
SOLID
  5
DA
330
1F
100
AcDbEntity
  8
TopSolder
100
AcDbTrace
 10
16.6942008
 20
-0.8507984
 30
0.0
 11
17.5957992
 21
-0.8507984
 31
0.0
 12
16.6942008
 22
0.8507984
 32
0.0
 13
17.5957992
 23
0.8507984
 33
0.0
  0
SOLID
  5
DB
330
1F
100
AcDbEntity
  8
TopLayer
100
AcDbTrace
 10
16.7450008
 20
-0.7999984
 30
0.0
 11
17.5449992
 21
-0.7999984
 31
0.0
 12
16.7450008
 22
0.7999984
 32
0.0
 13
17.5449992
 23
0.7999984
 33
0.0
  0
SOLID
  5
DC
330
1F
100
AcDbEntity
  8
TopPaste
100
AcDbTrace
 10
19.2850008
 20
-0.7999984
 30
0.0
 11
20.0849992
 21
-0.7999984
 31
0.0
 12
19.2850008
 22
0.7999984
 32
0.0
 13
20.0849992
 23
0.7999984
 33
0.0
  0
SOLID
  5
DD
330
1F
100
AcDbEntity
  8
TopSolder
100
AcDbTrace
 10
19.2342008
 20
-0.8507984
 30
0.0
 11
20.1357992
 21
-0.8507984
 31
0.0
 12
19.2342008
 22
0.8507984
 32
0.0
 13
20.1357992
 23
0.8507984
 33
0.0
  0
SOLID
  5
DE
330
1F
100
AcDbEntity
  8
TopLayer
100
AcDbTrace
 10
19.2850008
 20
-0.7999984
 30
0.0
 11
20.0849992
 21
-0.7999984
 31
0.0
 12
19.2850008
 22
0.7999984
 32
0.0
 13
20.0849992
 23
0.7999984
 33
0.0
  0
SOLID
  5
DF
330
1F
100
AcDbEntity
  8
TopPaste
100
AcDbTrace
 10
18.0150008
 20
-0.7999984
 30
0.0
 11
18.8149992
 21
-0.7999984
 31
0.0
 12
18.0150008
 22
0.7999984
 32
0.0
 13
18.8149992
 23
0.7999984
 33
0.0
  0
SOLID
  5
E0
330
1F
100
AcDbEntity
  8
TopSolder
100
AcDbTrace
 10
17.9642008
 20
-0.8507984
 30
0.0
 11
18.8657992
 21
-0.8507984
 31
0.0
 12
17.9642008
 22
0.8507984
 32
0.0
 13
18.8657992
 23
0.8507984
 33
0.0
  0
SOLID
  5
E1
330
1F
100
AcDbEntity
  8
TopLayer
100
AcDbTrace
 10
18.0150008
 20
-0.7999984
 30
0.0
 11
18.8149992
 21
-0.7999984
 31
0.0
 12
18.0150008
 22
0.7999984
 32
0.0
 13
18.8149992
 23
0.7999984
 33
0.0
  0
SOLID
  5
E2
330
1F
100
AcDbEntity
  8
TopPaste
100
AcDbTrace
 10
20.5550008
 20
-0.7999984
 30
0.0
 11
21.3549992
 21
-0.7999984
 31
0.0
 12
20.5550008
 22
0.7999984
 32
0.0
 13
21.3549992
 23
0.7999984
 33
0.0
  0
SOLID
  5
E3
330
1F
100
AcDbEntity
  8
TopSolder
100
AcDbTrace
 10
20.5042008
 20
-0.8507984
 30
0.0
 11
21.4057992
 21
-0.8507984
 31
0.0
 12
20.5042008
 22
0.8507984
 32
0.0
 13
21.4057992
 23
0.8507984
 33
0.0
  0
SOLID
  5
E4
330
1F
100
AcDbEntity
  8
TopLayer
100
AcDbTrace
 10
20.5550008
 20
-0.7999984
 30
0.0
 11
21.3549992
 21
-0.7999984
 31
0.0
 12
20.5550008
 22
0.7999984
 32
0.0
 13
21.3549992
 23
0.7999984
 33
0.0
  0
SOLID
  5
E5
330
1F
100
AcDbEntity
  8
TopPaste
100
AcDbTrace
 10
21.8250008
 20
-0.7999984
 30
0.0
 11
22.6249992
 21
-0.7999984
 31
0.0
 12
21.8250008
 22
0.7999984
 32
0.0
 13
22.6249992
 23
0.7999984
 33
0.0
  0
SOLID
  5
E6
330
1F
100
AcDbEntity
  8
TopSolder
100
AcDbTrace
 10
21.7742008
 20
-0.8507984
 30
0.0
 11
22.6757992
 21
-0.8507984
 31
0.0
 12
21.7742008
 22
0.8507984
 32
0.0
 13
22.6757992
 23
0.8507984
 33
0.0
  0
SOLID
  5
E7
330
1F
100
AcDbEntity
  8
TopLayer
100
AcDbTrace
 10
21.8250008
 20
-0.7999984
 30
0.0
 11
22.6249992
 21
-0.7999984
 31
0.0
 12
21.8250008
 22
0.7999984
 32
0.0
 13
22.6249992
 23
0.7999984
 33
0.0
  0
SOLID
  5
E8
330
1F
100
AcDbEntity
  8
TopPaste
100
AcDbTrace
 10
24.8000012
 20
2.3049992
 30
0.0
 11
24.8000012
 21
1.505000799999999
 31
0.0
 12
25.9999988
 22
2.3049992
 32
0.0
 13
25.9999988
 23
1.505000799999999
 33
0.0
  0
SOLID
  5
E9
330
1F
100
AcDbEntity
  8
TopSolder
100
AcDbTrace
 10
24.7492012
 20
2.3557992
 30
0.0
 11
24.7492012
 21
1.454200799999999
 31
0.0
 12
26.0507988
 22
2.3557992
 32
0.0
 13
26.0507988
 23
1.454200799999999
 33
0.0
  0
SOLID
  5
EA
330
1F
100
AcDbEntity
  8
TopLayer
100
AcDbTrace
 10
24.8000012
 20
2.3049992
 30
0.0
 11
24.8000012
 21
1.505000799999999
 31
0.0
 12
25.9999988
 22
2.3049992
 32
0.0
 13
25.9999988
 23
1.505000799999999
 33
0.0
  0
SOLID
  5
EB
330
1F
100
AcDbEntity
  8
TopPaste
100
AcDbTrace
 10
24.6000016
 20
3.574999199999998
 30
0.0
 11
24.6000016
 21
2.775000799999998
 31
0.0
 12
26.1999984
 22
3.574999199999998
 32
0.0
 13
26.1999984
 23
2.775000799999998
 33
0.0
  0
SOLID
  5
EC
330
1F
100
AcDbEntity
  8
TopSolder
100
AcDbTrace
 10
24.5492016
 20
3.625799199999999
 30
0.0
 11
24.5492016
 21
2.724200799999998
 31
0.0
 12
26.2507984
 22
3.625799199999999
 32
0.0
 13
26.2507984
 23
2.724200799999998
 33
0.0
  0
SOLID
  5
ED
330
1F
100
AcDbEntity
  8
TopLayer
100
AcDbTrace
 10
24.6000016
 20
3.574999199999998
 30
0.0
 11
24.6000016
 21
2.775000799999998
 31
0.0
 12
26.1999984
 22
3.574999199999998
 32
0.0
 13
26.1999984
 23
2.775000799999998
 33
0.0
  0
SOLID
  5
EE
330
1F
100
AcDbEntity
  8
TopPaste
100
AcDbTrace
 10
24.6000016
 20
4.8449992
 30
0.0
 11
24.6000016
 21
4.0450008
 31
0.0
 12
26.1999984
 22
4.8449992
 32
0.0
 13
26.1999984
 23
4.0450008
 33
0.0
  0
SOLID
  5
EF
330
1F
100
AcDbEntity
  8
TopSolder
100
AcDbTrace
 10
24.5492016
 20
4.895799199999999
 30
0.0
 11
24.5492016
 21
3.9942008
 31
0.0
 12
26.2507984
 22
4.895799199999999
 32
0.0
 13
26.2507984
 23
3.9942008
 33
0.0
  0
SOLID
  5
F0
330
1F
100
AcDbEntity
  8
TopLayer
100
AcDbTrace
 10
24.6000016
 20
4.8449992
 30
0.0
 11
24.6000016
 21
4.0450008
 31
0.0
 12
26.1999984
 22
4.8449992
 32
0.0
 13
26.1999984
 23
4.0450008
 33
0.0
  0
SOLID
  5
F1
330
1F
100
AcDbEntity
  8
TopPaste
100
AcDbTrace
 10
24.6000016
 20
7.384999199999997
 30
0.0
 11
24.6000016
 21
6.5850008
 31
0.0
 12
26.1999984
 22
7.384999199999997
 32
0.0
 13
26.1999984
 23
6.5850008
 33
0.0
  0
SOLID
  5
F2
330
1F
100
AcDbEntity
  8
TopSolder
100
AcDbTrace
 10
24.5492016
 20
7.435799199999999
 30
0.0
 11
24.5492016
 21
6.534200799999998
 31
0.0
 12
26.2507984
 22
7.435799199999999
 32
0.0
 13
26.2507984
 23
6.534200799999998
 33
0.0
  0
SOLID
  5
F3
330
1F
100
AcDbEntity
  8
TopLayer
100
AcDbTrace
 10
24.6000016
 20
7.384999199999997
 30
0.0
 11
24.6000016
 21
6.5850008
 31
0.0
 12
26.1999984
 22
7.384999199999997
 32
0.0
 13
26.1999984
 23
6.5850008
 33
0.0
  0
SOLID
  5
F4
330
1F
100
AcDbEntity
  8
TopPaste
100
AcDbTrace
 10
24.6000016
 20
6.114999199999998
 30
0.0
 11
24.6000016
 21
5.315000799999999
 31
0.0
 12
26.1999984
 22
6.114999199999998
 32
0.0
 13
26.1999984
 23
5.315000799999999
 33
0.0
  0
SOLID
  5
F5
330
1F
100
AcDbEntity
  8
TopSolder
100
AcDbTrace
 10
24.5492016
 20
6.165799199999997
 30
0.0
 11
24.5492016
 21
5.264200799999998
 31
0.0
 12
26.2507984
 22
6.165799199999997
 32
0.0
 13
26.2507984
 23
5.264200799999998
 33
0.0
  0
SOLID
  5
F6
330
1F
100
AcDbEntity
  8
TopLayer
100
AcDbTrace
 10
24.6000016
 20
6.114999199999998
 30
0.0
 11
24.6000016
 21
5.315000799999999
 31
0.0
 12
26.1999984
 22
6.114999199999998
 32
0.0
 13
26.1999984
 23
5.315000799999999
 33
0.0
  0
SOLID
  5
F7
330
1F
100
AcDbEntity
  8
TopPaste
100
AcDbTrace
 10
24.6000016
 20
8.654999199999997
 30
0.0
 11
24.6000016
 21
7.8550008
 31
0.0
 12
26.1999984
 22
8.654999199999997
 32
0.0
 13
26.1999984
 23
7.8550008
 33
0.0
  0
SOLID
  5
F8
330
1F
100
AcDbEntity
  8
TopSolder
100
AcDbTrace
 10
24.5492016
 20
8.705799199999999
 30
0.0
 11
24.5492016
 21
7.8042008
 31
0.0
 12
26.2507984
 22
8.705799199999999
 32
0.0
 13
26.2507984
 23
7.8042008
 33
0.0
  0
SOLID
  5
F9
330
1F
100
AcDbEntity
  8
TopLayer
100
AcDbTrace
 10
24.6000016
 20
8.654999199999997
 30
0.0
 11
24.6000016
 21
7.8550008
 31
0.0
 12
26.1999984
 22
8.654999199999997
 32
0.0
 13
26.1999984
 23
7.8550008
 33
0.0
  0
SOLID
  5
FA
330
1F
100
AcDbEntity
  8
TopPaste
100
AcDbTrace
 10
24.6000016
 20
23.8949992
 30
0.0
 11
24.6000016
 21
23.0950008
 31
0.0
 12
26.1999984
 22
23.8949992
 32
0.0
 13
26.1999984
 23
23.0950008
 33
0.0
  0
SOLID
  5
FB
330
1F
100
AcDbEntity
  8
TopSolder
100
AcDbTrace
 10
24.5492016
 20
23.9457992
 30
0.0
 11
24.5492016
 21
23.0442008
 31
0.0
 12
26.2507984
 22
23.9457992
 32
0.0
 13
26.2507984
 23
23.0442008
 33
0.0
  0
SOLID
  5
FC
330
1F
100
AcDbEntity
  8
TopLayer
100
AcDbTrace
 10
24.6000016
 20
23.8949992
 30
0.0
 11
24.6000016
 21
23.0950008
 31
0.0
 12
26.1999984
 22
23.8949992
 32
0.0
 13
26.1999984
 23
23.0950008
 33
0.0
  0
SOLID
  5
FD
330
1F
100
AcDbEntity
  8
TopPaste
100
AcDbTrace
 10
24.6000016
 20
22.6249992
 30
0.0
 11
24.6000016
 21
21.8250008
 31
0.0
 12
26.1999984
 22
22.6249992
 32
0.0
 13
26.1999984
 23
21.8250008
 33
0.0
  0
SOLID
  5
FE
330
1F
100
AcDbEntity
  8
TopSolder
100
AcDbTrace
 10
24.5492016
 20
22.6757992
 30
0.0
 11
24.5492016
 21
21.7742008
 31
0.0
 12
26.2507984
 22
22.6757992
 32
0.0
 13
26.2507984
 23
21.7742008
 33
0.0
  0
SOLID
  5
FF
330
1F
100
AcDbEntity
  8
TopLayer
100
AcDbTrace
 10
24.6000016
 20
22.6249992
 30
0.0
 11
24.6000016
 21
21.8250008
 31
0.0
 12
26.1999984
 22
22.6249992
 32
0.0
 13
26.1999984
 23
21.8250008
 33
0.0
  0
SOLID
  5
100
330
1F
100
AcDbEntity
  8
TopPaste
100
AcDbTrace
 10
24.6000016
 20
21.3549992
 30
0.0
 11
24.6000016
 21
20.5550008
 31
0.0
 12
26.1999984
 22
21.3549992
 32
0.0
 13
26.1999984
 23
20.5550008
 33
0.0
  0
SOLID
  5
101
330
1F
100
AcDbEntity
  8
TopSolder
100
AcDbTrace
 10
24.5492016
 20
21.4057992
 30
0.0
 11
24.5492016
 21
20.5042008
 31
0.0
 12
26.2507984
 22
21.4057992
 32
0.0
 13
26.2507984
 23
20.5042008
 33
0.0
  0
SOLID
  5
102
330
1F
100
AcDbEntity
  8
TopLayer
100
AcDbTrace
 10
24.6000016
 20
21.3549992
 30
0.0
 11
24.6000016
 21
20.5550008
 31
0.0
 12
26.1999984
 22
21.3549992
 32
0.0
 13
26.1999984
 23
20.5550008
 33
0.0
  0
SOLID
  5
103
330
1F
100
AcDbEntity
  8
TopPaste
100
AcDbTrace
 10
24.6000016
 20
20.0849992
 30
0.0
 11
24.6000016
 21
19.2850008
 31
0.0
 12
26.1999984
 22
20.0849992
 32
0.0
 13
26.1999984
 23
19.2850008
 33
0.0
  0
SOLID
  5
104
330
1F
100
AcDbEntity
  8
TopSolder
100
AcDbTrace
 10
24.5492016
 20
20.1357992
 30
0.0
 11
24.5492016
 21
19.2342008
 31
0.0
 12
26.2507984
 22
20.1357992
 32
0.0
 13
26.2507984
 23
19.2342008
 33
0.0
  0
SOLID
  5
105
330
1F
100
AcDbEntity
  8
TopLayer
100
AcDbTrace
 10
24.6000016
 20
20.0849992
 30
0.0
 11
24.6000016
 21
19.2850008
 31
0.0
 12
26.1999984
 22
20.0849992
 32
0.0
 13
26.1999984
 23
19.2850008
 33
0.0
  0
SOLID
  5
106
330
1F
100
AcDbEntity
  8
TopPaste
100
AcDbTrace
 10
24.6000016
 20
18.8149992
 30
0.0
 11
24.6000016
 21
18.0150008
 31
0.0
 12
26.1999984
 22
18.8149992
 32
0.0
 13
26.1999984
 23
18.0150008
 33
0.0
  0
SOLID
  5
107
330
1F
100
AcDbEntity
  8
TopSolder
100
AcDbTrace
 10
24.5492016
 20
18.8657992
 30
0.0
 11
24.5492016
 21
17.9642008
 31
0.0
 12
26.2507984
 22
18.8657992
 32
0.0
 13
26.2507984
 23
17.9642008
 33
0.0
  0
SOLID
  5
108
330
1F
100
AcDbEntity
  8
TopLayer
100
AcDbTrace
 10
24.6000016
 20
18.8149992
 30
0.0
 11
24.6000016
 21
18.0150008
 31
0.0
 12
26.1999984
 22
18.8149992
 32
0.0
 13
26.1999984
 23
18.0150008
 33
0.0
  0
SOLID
  5
109
330
1F
100
AcDbEntity
  8
TopPaste
100
AcDbTrace
 10
24.6000016
 20
17.5449992
 30
0.0
 11
24.6000016
 21
16.7450008
 31
0.0
 12
26.1999984
 22
17.5449992
 32
0.0
 13
26.1999984
 23
16.7450008
 33
0.0
  0
SOLID
  5
10A
330
1F
100
AcDbEntity
  8
TopSolder
100
AcDbTrace
 10
24.5492016
 20
17.5957992
 30
0.0
 11
24.5492016
 21
16.6942008
 31
0.0
 12
26.2507984
 22
17.5957992
 32
0.0
 13
26.2507984
 23
16.6942008
 33
0.0
  0
SOLID
  5
10B
330
1F
100
AcDbEntity
  8
TopLayer
100
AcDbTrace
 10
24.6000016
 20
17.5449992
 30
0.0
 11
24.6000016
 21
16.7450008
 31
0.0
 12
26.1999984
 22
17.5449992
 32
0.0
 13
26.1999984
 23
16.7450008
 33
0.0
  0
SOLID
  5
10C
330
1F
100
AcDbEntity
  8
TopPaste
100
AcDbTrace
 10
24.6000016
 20
16.2749992
 30
0.0
 11
24.6000016
 21
15.4750008
 31
0.0
 12
26.1999984
 22
16.2749992
 32
0.0
 13
26.1999984
 23
15.4750008
 33
0.0
  0
SOLID
  5
10D
330
1F
100
AcDbEntity
  8
TopSolder
100
AcDbTrace
 10
24.5492016
 20
16.3257992
 30
0.0
 11
24.5492016
 21
15.4242008
 31
0.0
 12
26.2507984
 22
16.3257992
 32
0.0
 13
26.2507984
 23
15.4242008
 33
0.0
  0
SOLID
  5
10E
330
1F
100
AcDbEntity
  8
TopLayer
100
AcDbTrace
 10
24.6000016
 20
16.2749992
 30
0.0
 11
24.6000016
 21
15.4750008
 31
0.0
 12
26.1999984
 22
16.2749992
 32
0.0
 13
26.1999984
 23
15.4750008
 33
0.0
  0
SOLID
  5
10F
330
1F
100
AcDbEntity
  8
TopPaste
100
AcDbTrace
 10
24.6000016
 20
15.0049992
 30
0.0
 11
24.6000016
 21
14.2050008
 31
0.0
 12
26.1999984
 22
15.0049992
 32
0.0
 13
26.1999984
 23
14.2050008
 33
0.0
  0
SOLID
  5
110
330
1F
100
AcDbEntity
  8
TopSolder
100
AcDbTrace
 10
24.5492016
 20
15.0557992
 30
0.0
 11
24.5492016
 21
14.1542008
 31
0.0
 12
26.2507984
 22
15.0557992
 32
0.0
 13
26.2507984
 23
14.1542008
 33
0.0
  0
SOLID
  5
111
330
1F
100
AcDbEntity
  8
TopLayer
100
AcDbTrace
 10
24.6000016
 20
15.0049992
 30
0.0
 11
24.6000016
 21
14.2050008
 31
0.0
 12
26.1999984
 22
15.0049992
 32
0.0
 13
26.1999984
 23
14.2050008
 33
0.0
  0
SOLID
  5
112
330
1F
100
AcDbEntity
  8
TopPaste
100
AcDbTrace
 10
24.6000016
 20
12.4649992
 30
0.0
 11
24.6000016
 21
11.6650008
 31
0.0
 12
26.1999984
 22
12.4649992
 32
0.0
 13
26.1999984
 23
11.6650008
 33
0.0
  0
SOLID
  5
113
330
1F
100
AcDbEntity
  8
TopSolder
100
AcDbTrace
 10
24.5492016
 20
12.5157992
 30
0.0
 11
24.5492016
 21
11.6142008
 31
0.0
 12
26.2507984
 22
12.5157992
 32
0.0
 13
26.2507984
 23
11.6142008
 33
0.0
  0
SOLID
  5
114
330
1F
100
AcDbEntity
  8
TopLayer
100
AcDbTrace
 10
24.6000016
 20
12.4649992
 30
0.0
 11
24.6000016
 21
11.6650008
 31
0.0
 12
26.1999984
 22
12.4649992
 32
0.0
 13
26.1999984
 23
11.6650008
 33
0.0
  0
SOLID
  5
115
330
1F
100
AcDbEntity
  8
TopPaste
100
AcDbTrace
 10
24.6000016
 20
13.7349992
 30
0.0
 11
24.6000016
 21
12.9350008
 31
0.0
 12
26.1999984
 22
13.7349992
 32
0.0
 13
26.1999984
 23
12.9350008
 33
0.0
  0
SOLID
  5
116
330
1F
100
AcDbEntity
  8
TopSolder
100
AcDbTrace
 10
24.5492016
 20
13.7857992
 30
0.0
 11
24.5492016
 21
12.8842008
 31
0.0
 12
26.2507984
 22
13.7857992
 32
0.0
 13
26.2507984
 23
12.8842008
 33
0.0
  0
SOLID
  5
117
330
1F
100
AcDbEntity
  8
TopLayer
100
AcDbTrace
 10
24.6000016
 20
13.7349992
 30
0.0
 11
24.6000016
 21
12.9350008
 31
0.0
 12
26.1999984
 22
13.7349992
 32
0.0
 13
26.1999984
 23
12.9350008
 33
0.0
  0
SOLID
  5
118
330
1F
100
AcDbEntity
  8
TopPaste
100
AcDbTrace
 10
24.6000016
 20
11.1949992
 30
0.0
 11
24.6000016
 21
10.3950008
 31
0.0
 12
26.1999984
 22
11.1949992
 32
0.0
 13
26.1999984
 23
10.3950008
 33
0.0
  0
SOLID
  5
119
330
1F
100
AcDbEntity
  8
TopSolder
100
AcDbTrace
 10
24.5492016
 20
11.2457992
 30
0.0
 11
24.5492016
 21
10.3442008
 31
0.0
 12
26.2507984
 22
11.2457992
 32
0.0
 13
26.2507984
 23
10.3442008
 33
0.0
  0
SOLID
  5
11A
330
1F
100
AcDbEntity
  8
TopLayer
100
AcDbTrace
 10
24.6000016
 20
11.1949992
 30
0.0
 11
24.6000016
 21
10.3950008
 31
0.0
 12
26.1999984
 22
11.1949992
 32
0.0
 13
26.1999984
 23
10.3950008
 33
0.0
  0
SOLID
  5
11B
330
1F
100
AcDbEntity
  8
TopPaste
100
AcDbTrace
 10
24.6000016
 20
9.924999199999998
 30
0.0
 11
24.6000016
 21
9.1250008
 31
0.0
 12
26.1999984
 22
9.924999199999998
 32
0.0
 13
26.1999984
 23
9.1250008
 33
0.0
  0
SOLID
  5
11C
330
1F
100
AcDbEntity
  8
TopSolder
100
AcDbTrace
 10
24.5492016
 20
9.975799199999999
 30
0.0
 11
24.5492016
 21
9.074200799999999
 31
0.0
 12
26.2507984
 22
9.975799199999999
 32
0.0
 13
26.2507984
 23
9.074200799999999
 33
0.0
  0
SOLID
  5
11D
330
1F
100
AcDbEntity
  8
TopLayer
100
AcDbTrace
 10
24.6000016
 20
9.924999199999998
 30
0.0
 11
24.6000016
 21
9.1250008
 31
0.0
 12
26.1999984
 22
9.924999199999998
 32
0.0
 13
26.1999984
 23
9.1250008
 33
0.0
  0
SOLID
  5
11E
330
1F
100
AcDbEntity
  8
TopPaste
100
AcDbTrace
 10
23.0950008
 20
24.6000016
 30
0.0
 11
23.8949992
 21
24.6000016
 31
0.0
 12
23.0950008
 22
26.1999984
 32
0.0
 13
23.8949992
 23
26.1999984
 33
0.0
  0
SOLID
  5
11F
330
1F
100
AcDbEntity
  8
TopSolder
100
AcDbTrace
 10
23.0442008
 20
24.5492016
 30
0.0
 11
23.9457992
 21
24.5492016
 31
0.0
 12
23.0442008
 22
26.2507984
 32
0.0
 13
23.9457992
 23
26.2507984
 33
0.0
  0
SOLID
  5
120
330
1F
100
AcDbEntity
  8
TopLayer
100
AcDbTrace
 10
23.0950008
 20
24.6000016
 30
0.0
 11
23.8949992
 21
24.6000016
 31
0.0
 12
23.0950008
 22
26.1999984
 32
0.0
 13
23.8949992
 23
26.1999984
 33
0.0
  0
SOLID
  5
121
330
1F
100
AcDbEntity
  8
TopPaste
100
AcDbTrace
 10
21.8250008
 20
24.6000016
 30
0.0
 11
22.6249992
 21
24.6000016
 31
0.0
 12
21.8250008
 22
26.1999984
 32
0.0
 13
22.6249992
 23
26.1999984
 33
0.0
  0
SOLID
  5
122
330
1F
100
AcDbEntity
  8
TopSolder
100
AcDbTrace
 10
21.7742008
 20
24.5492016
 30
0.0
 11
22.6757992
 21
24.5492016
 31
0.0
 12
21.7742008
 22
26.2507984
 32
0.0
 13
22.6757992
 23
26.2507984
 33
0.0
  0
SOLID
  5
123
330
1F
100
AcDbEntity
  8
TopLayer
100
AcDbTrace
 10
21.8250008
 20
24.6000016
 30
0.0
 11
22.6249992
 21
24.6000016
 31
0.0
 12
21.8250008
 22
26.1999984
 32
0.0
 13
22.6249992
 23
26.1999984
 33
0.0
  0
SOLID
  5
124
330
1F
100
AcDbEntity
  8
TopPaste
100
AcDbTrace
 10
20.5550008
 20
24.6000016
 30
0.0
 11
21.3549992
 21
24.6000016
 31
0.0
 12
20.5550008
 22
26.1999984
 32
0.0
 13
21.3549992
 23
26.1999984
 33
0.0
  0
SOLID
  5
125
330
1F
100
AcDbEntity
  8
TopSolder
100
AcDbTrace
 10
20.5042008
 20
24.5492016
 30
0.0
 11
21.4057992
 21
24.5492016
 31
0.0
 12
20.5042008
 22
26.2507984
 32
0.0
 13
21.4057992
 23
26.2507984
 33
0.0
  0
SOLID
  5
126
330
1F
100
AcDbEntity
  8
TopLayer
100
AcDbTrace
 10
20.5550008
 20
24.6000016
 30
0.0
 11
21.3549992
 21
24.6000016
 31
0.0
 12
20.5550008
 22
26.1999984
 32
0.0
 13
21.3549992
 23
26.1999984
 33
0.0
  0
SOLID
  5
127
330
1F
100
AcDbEntity
  8
TopPaste
100
AcDbTrace
 10
18.0150008
 20
24.6000016
 30
0.0
 11
18.8149992
 21
24.6000016
 31
0.0
 12
18.0150008
 22
26.1999984
 32
0.0
 13
18.8149992
 23
26.1999984
 33
0.0
  0
SOLID
  5
128
330
1F
100
AcDbEntity
  8
TopSolder
100
AcDbTrace
 10
17.9642008
 20
24.5492016
 30
0.0
 11
18.8657992
 21
24.5492016
 31
0.0
 12
17.9642008
 22
26.2507984
 32
0.0
 13
18.8657992
 23
26.2507984
 33
0.0
  0
SOLID
  5
129
330
1F
100
AcDbEntity
  8
TopLayer
100
AcDbTrace
 10
18.0150008
 20
24.6000016
 30
0.0
 11
18.8149992
 21
24.6000016
 31
0.0
 12
18.0150008
 22
26.1999984
 32
0.0
 13
18.8149992
 23
26.1999984
 33
0.0
  0
SOLID
  5
12A
330
1F
100
AcDbEntity
  8
TopPaste
100
AcDbTrace
 10
19.2850008
 20
24.6000016
 30
0.0
 11
20.0849992
 21
24.6000016
 31
0.0
 12
19.2850008
 22
26.1999984
 32
0.0
 13
20.0849992
 23
26.1999984
 33
0.0
  0
SOLID
  5
12B
330
1F
100
AcDbEntity
  8
TopSolder
100
AcDbTrace
 10
19.2342008
 20
24.5492016
 30
0.0
 11
20.1357992
 21
24.5492016
 31
0.0
 12
19.2342008
 22
26.2507984
 32
0.0
 13
20.1357992
 23
26.2507984
 33
0.0
  0
SOLID
  5
12C
330
1F
100
AcDbEntity
  8
TopLayer
100
AcDbTrace
 10
19.2850008
 20
24.6000016
 30
0.0
 11
20.0849992
 21
24.6000016
 31
0.0
 12
19.2850008
 22
26.1999984
 32
0.0
 13
20.0849992
 23
26.1999984
 33
0.0
  0
SOLID
  5
12D
330
1F
100
AcDbEntity
  8
TopPaste
100
AcDbTrace
 10
16.7450008
 20
24.6000016
 30
0.0
 11
17.5449992
 21
24.6000016
 31
0.0
 12
16.7450008
 22
26.1999984
 32
0.0
 13
17.5449992
 23
26.1999984
 33
0.0
  0
SOLID
  5
12E
330
1F
100
AcDbEntity
  8
TopSolder
100
AcDbTrace
 10
16.6942008
 20
24.5492016
 30
0.0
 11
17.5957992
 21
24.5492016
 31
0.0
 12
16.6942008
 22
26.2507984
 32
0.0
 13
17.5957992
 23
26.2507984
 33
0.0
  0
SOLID
  5
12F
330
1F
100
AcDbEntity
  8
TopLayer
100
AcDbTrace
 10
16.7450008
 20
24.6000016
 30
0.0
 11
17.5449992
 21
24.6000016
 31
0.0
 12
16.7450008
 22
26.1999984
 32
0.0
 13
17.5449992
 23
26.1999984
 33
0.0
  0
SOLID
  5
130
330
1F
100
AcDbEntity
  8
TopPaste
100
AcDbTrace
 10
1.505000799999999
 20
24.6000016
 30
0.0
 11
2.3049992
 21
24.6000016
 31
0.0
 12
1.505000799999999
 22
26.1999984
 32
0.0
 13
2.3049992
 23
26.1999984
 33
0.0
  0
SOLID
  5
131
330
1F
100
AcDbEntity
  8
TopSolder
100
AcDbTrace
 10
1.454200799999999
 20
24.5492016
 30
0.0
 11
2.3557992
 21
24.5492016
 31
0.0
 12
1.454200799999999
 22
26.2507984
 32
0.0
 13
2.3557992
 23
26.2507984
 33
0.0
  0
SOLID
  5
132
330
1F
100
AcDbEntity
  8
TopLayer
100
AcDbTrace
 10
1.505000799999999
 20
24.6000016
 30
0.0
 11
2.3049992
 21
24.6000016
 31
0.0
 12
1.505000799999999
 22
26.1999984
 32
0.0
 13
2.3049992
 23
26.1999984
 33
0.0
  0
SOLID
  5
133
330
1F
100
AcDbEntity
  8
TopPaste
100
AcDbTrace
 10
2.775000799999998
 20
24.6000016
 30
0.0
 11
3.574999199999998
 21
24.6000016
 31
0.0
 12
2.775000799999998
 22
26.1999984
 32
0.0
 13
3.574999199999998
 23
26.1999984
 33
0.0
  0
SOLID
  5
134
330
1F
100
AcDbEntity
  8
TopSolder
100
AcDbTrace
 10
2.724200799999998
 20
24.5492016
 30
0.0
 11
3.625799199999999
 21
24.5492016
 31
0.0
 12
2.724200799999998
 22
26.2507984
 32
0.0
 13
3.625799199999999
 23
26.2507984
 33
0.0
  0
SOLID
  5
135
330
1F
100
AcDbEntity
  8
TopLayer
100
AcDbTrace
 10
2.775000799999998
 20
24.6000016
 30
0.0
 11
3.574999199999998
 21
24.6000016
 31
0.0
 12
2.775000799999998
 22
26.1999984
 32
0.0
 13
3.574999199999998
 23
26.1999984
 33
0.0
  0
SOLID
  5
136
330
1F
100
AcDbEntity
  8
TopPaste
100
AcDbTrace
 10
4.0450008
 20
24.6000016
 30
0.0
 11
4.8449992
 21
24.6000016
 31
0.0
 12
4.0450008
 22
26.1999984
 32
0.0
 13
4.8449992
 23
26.1999984
 33
0.0
  0
SOLID
  5
137
330
1F
100
AcDbEntity
  8
TopSolder
100
AcDbTrace
 10
3.9942008
 20
24.5492016
 30
0.0
 11
4.895799199999999
 21
24.5492016
 31
0.0
 12
3.9942008
 22
26.2507984
 32
0.0
 13
4.895799199999999
 23
26.2507984
 33
0.0
  0
SOLID
  5
138
330
1F
100
AcDbEntity
  8
TopLayer
100
AcDbTrace
 10
4.0450008
 20
24.6000016
 30
0.0
 11
4.8449992
 21
24.6000016
 31
0.0
 12
4.0450008
 22
26.1999984
 32
0.0
 13
4.8449992
 23
26.1999984
 33
0.0
  0
SOLID
  5
139
330
1F
100
AcDbEntity
  8
TopPaste
100
AcDbTrace
 10
5.315000799999999
 20
24.6000016
 30
0.0
 11
6.114999199999998
 21
24.6000016
 31
0.0
 12
5.315000799999999
 22
26.1999984
 32
0.0
 13
6.114999199999998
 23
26.1999984
 33
0.0
  0
SOLID
  5
13A
330
1F
100
AcDbEntity
  8
TopSolder
100
AcDbTrace
 10
5.264200799999998
 20
24.5492016
 30
0.0
 11
6.165799199999997
 21
24.5492016
 31
0.0
 12
5.264200799999998
 22
26.2507984
 32
0.0
 13
6.165799199999997
 23
26.2507984
 33
0.0
  0
SOLID
  5
13B
330
1F
100
AcDbEntity
  8
TopLayer
100
AcDbTrace
 10
5.315000799999999
 20
24.6000016
 30
0.0
 11
6.114999199999998
 21
24.6000016
 31
0.0
 12
5.315000799999999
 22
26.1999984
 32
0.0
 13
6.114999199999998
 23
26.1999984
 33
0.0
  0
SOLID
  5
13C
330
1F
100
AcDbEntity
  8
TopPaste
100
AcDbTrace
 10
6.5850008
 20
24.6000016
 30
0.0
 11
7.384999199999997
 21
24.6000016
 31
0.0
 12
6.5850008
 22
26.1999984
 32
0.0
 13
7.384999199999997
 23
26.1999984
 33
0.0
  0
SOLID
  5
13D
330
1F
100
AcDbEntity
  8
TopSolder
100
AcDbTrace
 10
6.534200799999998
 20
24.5492016
 30
0.0
 11
7.435799199999999
 21
24.5492016
 31
0.0
 12
6.534200799999998
 22
26.2507984
 32
0.0
 13
7.435799199999999
 23
26.2507984
 33
0.0
  0
SOLID
  5
13E
330
1F
100
AcDbEntity
  8
TopLayer
100
AcDbTrace
 10
6.5850008
 20
24.6000016
 30
0.0
 11
7.384999199999997
 21
24.6000016
 31
0.0
 12
6.5850008
 22
26.1999984
 32
0.0
 13
7.384999199999997
 23
26.1999984
 33
0.0
  0
SOLID
  5
13F
330
1F
100
AcDbEntity
  8
TopPaste
100
AcDbTrace
 10
7.8550008
 20
24.6000016
 30
0.0
 11
8.654999199999997
 21
24.6000016
 31
0.0
 12
7.8550008
 22
26.1999984
 32
0.0
 13
8.654999199999997
 23
26.1999984
 33
0.0
  0
SOLID
  5
140
330
1F
100
AcDbEntity
  8
TopSolder
100
AcDbTrace
 10
7.8042008
 20
24.5492016
 30
0.0
 11
8.705799199999999
 21
24.5492016
 31
0.0
 12
7.8042008
 22
26.2507984
 32
0.0
 13
8.705799199999999
 23
26.2507984
 33
0.0
  0
SOLID
  5
141
330
1F
100
AcDbEntity
  8
TopLayer
100
AcDbTrace
 10
7.8550008
 20
24.6000016
 30
0.0
 11
8.654999199999997
 21
24.6000016
 31
0.0
 12
7.8550008
 22
26.1999984
 32
0.0
 13
8.654999199999997
 23
26.1999984
 33
0.0
  0
SOLID
  5
142
330
1F
100
AcDbEntity
  8
TopPaste
100
AcDbTrace
 10
9.1250008
 20
24.6000016
 30
0.0
 11
9.924999199999998
 21
24.6000016
 31
0.0
 12
9.1250008
 22
26.1999984
 32
0.0
 13
9.924999199999998
 23
26.1999984
 33
0.0
  0
SOLID
  5
143
330
1F
100
AcDbEntity
  8
TopSolder
100
AcDbTrace
 10
9.074200799999999
 20
24.5492016
 30
0.0
 11
9.975799199999999
 21
24.5492016
 31
0.0
 12
9.074200799999999
 22
26.2507984
 32
0.0
 13
9.975799199999999
 23
26.2507984
 33
0.0
  0
SOLID
  5
144
330
1F
100
AcDbEntity
  8
TopLayer
100
AcDbTrace
 10
9.1250008
 20
24.6000016
 30
0.0
 11
9.924999199999998
 21
24.6000016
 31
0.0
 12
9.1250008
 22
26.1999984
 32
0.0
 13
9.924999199999998
 23
26.1999984
 33
0.0
  0
SOLID
  5
145
330
1F
100
AcDbEntity
  8
TopPaste
100
AcDbTrace
 10
10.3950008
 20
24.6000016
 30
0.0
 11
11.1949992
 21
24.6000016
 31
0.0
 12
10.3950008
 22
26.1999984
 32
0.0
 13
11.1949992
 23
26.1999984
 33
0.0
  0
SOLID
  5
146
330
1F
100
AcDbEntity
  8
TopSolder
100
AcDbTrace
 10
10.3442008
 20
24.5492016
 30
0.0
 11
11.2457992
 21
24.5492016
 31
0.0
 12
10.3442008
 22
26.2507984
 32
0.0
 13
11.2457992
 23
26.2507984
 33
0.0
  0
SOLID
  5
147
330
1F
100
AcDbEntity
  8
TopLayer
100
AcDbTrace
 10
10.3950008
 20
24.6000016
 30
0.0
 11
11.1949992
 21
24.6000016
 31
0.0
 12
10.3950008
 22
26.1999984
 32
0.0
 13
11.1949992
 23
26.1999984
 33
0.0
  0
SOLID
  5
148
330
1F
100
AcDbEntity
  8
TopPaste
100
AcDbTrace
 10
12.9350008
 20
24.6000016
 30
0.0
 11
13.7349992
 21
24.6000016
 31
0.0
 12
12.9350008
 22
26.1999984
 32
0.0
 13
13.7349992
 23
26.1999984
 33
0.0
  0
SOLID
  5
149
330
1F
100
AcDbEntity
  8
TopSolder
100
AcDbTrace
 10
12.8842008
 20
24.5492016
 30
0.0
 11
13.7857992
 21
24.5492016
 31
0.0
 12
12.8842008
 22
26.2507984
 32
0.0
 13
13.7857992
 23
26.2507984
 33
0.0
  0
SOLID
  5
14A
330
1F
100
AcDbEntity
  8
TopLayer
100
AcDbTrace
 10
12.9350008
 20
24.6000016
 30
0.0
 11
13.7349992
 21
24.6000016
 31
0.0
 12
12.9350008
 22
26.1999984
 32
0.0
 13
13.7349992
 23
26.1999984
 33
0.0
  0
SOLID
  5
14B
330
1F
100
AcDbEntity
  8
TopPaste
100
AcDbTrace
 10
11.6650008
 20
24.6000016
 30
0.0
 11
12.4649992
 21
24.6000016
 31
0.0
 12
11.6650008
 22
26.1999984
 32
0.0
 13
12.4649992
 23
26.1999984
 33
0.0
  0
SOLID
  5
14C
330
1F
100
AcDbEntity
  8
TopSolder
100
AcDbTrace
 10
11.6142008
 20
24.5492016
 30
0.0
 11
12.5157992
 21
24.5492016
 31
0.0
 12
11.6142008
 22
26.2507984
 32
0.0
 13
12.5157992
 23
26.2507984
 33
0.0
  0
SOLID
  5
14D
330
1F
100
AcDbEntity
  8
TopLayer
100
AcDbTrace
 10
11.6650008
 20
24.6000016
 30
0.0
 11
12.4649992
 21
24.6000016
 31
0.0
 12
11.6650008
 22
26.1999984
 32
0.0
 13
12.4649992
 23
26.1999984
 33
0.0
  0
SOLID
  5
14E
330
1F
100
AcDbEntity
  8
TopPaste
100
AcDbTrace
 10
14.2050008
 20
24.6000016
 30
0.0
 11
15.0049992
 21
24.6000016
 31
0.0
 12
14.2050008
 22
26.1999984
 32
0.0
 13
15.0049992
 23
26.1999984
 33
0.0
  0
SOLID
  5
14F
330
1F
100
AcDbEntity
  8
TopSolder
100
AcDbTrace
 10
14.1542008
 20
24.5492016
 30
0.0
 11
15.0557992
 21
24.5492016
 31
0.0
 12
14.1542008
 22
26.2507984
 32
0.0
 13
15.0557992
 23
26.2507984
 33
0.0
  0
SOLID
  5
150
330
1F
100
AcDbEntity
  8
TopLayer
100
AcDbTrace
 10
14.2050008
 20
24.6000016
 30
0.0
 11
15.0049992
 21
24.6000016
 31
0.0
 12
14.2050008
 22
26.1999984
 32
0.0
 13
15.0049992
 23
26.1999984
 33
0.0
  0
SOLID
  5
151
330
1F
100
AcDbEntity
  8
TopPaste
100
AcDbTrace
 10
15.4750008
 20
24.6000016
 30
0.0
 11
16.2749992
 21
24.6000016
 31
0.0
 12
15.4750008
 22
26.1999984
 32
0.0
 13
16.2749992
 23
26.1999984
 33
0.0
  0
SOLID
  5
152
330
1F
100
AcDbEntity
  8
TopSolder
100
AcDbTrace
 10
15.4242008
 20
24.5492016
 30
0.0
 11
16.3257992
 21
24.5492016
 31
0.0
 12
15.4242008
 22
26.2507984
 32
0.0
 13
16.3257992
 23
26.2507984
 33
0.0
  0
SOLID
  5
153
330
1F
100
AcDbEntity
  8
TopLayer
100
AcDbTrace
 10
15.4750008
 20
24.6000016
 30
0.0
 11
16.2749992
 21
24.6000016
 31
0.0
 12
15.4750008
 22
26.1999984
 32
0.0
 13
16.2749992
 23
26.1999984
 33
0.0
  0
SOLID
  5
154
330
1F
100
AcDbEntity
  8
TopPaste
100
AcDbTrace
 10
-0.7999984
 20
2.3049992
 30
0.0
 11
-0.7999984
 21
1.505000799999999
 31
0.0
 12
0.7999984
 22
2.3049992
 32
0.0
 13
0.7999984
 23
1.505000799999999
 33
0.0
  0
SOLID
  5
155
330
1F
100
AcDbEntity
  8
TopSolder
100
AcDbTrace
 10
-0.8507984
 20
2.3557992
 30
0.0
 11
-0.8507984
 21
1.454200799999999
 31
0.0
 12
0.8507984
 22
2.3557992
 32
0.0
 13
0.8507984
 23
1.454200799999999
 33
0.0
  0
SOLID
  5
156
330
1F
100
AcDbEntity
  8
TopLayer
100
AcDbTrace
 10
-0.7999984
 20
2.3049992
 30
0.0
 11
-0.7999984
 21
1.505000799999999
 31
0.0
 12
0.7999984
 22
2.3049992
 32
0.0
 13
0.7999984
 23
1.505000799999999
 33
0.0
  0
SOLID
  5
157
330
1F
100
AcDbEntity
  8
TopPaste
100
AcDbTrace
 10
-0.7999984
 20
3.574999199999998
 30
0.0
 11
-0.7999984
 21
2.775000799999998
 31
0.0
 12
0.7999984
 22
3.574999199999998
 32
0.0
 13
0.7999984
 23
2.775000799999998
 33
0.0
  0
SOLID
  5
158
330
1F
100
AcDbEntity
  8
TopSolder
100
AcDbTrace
 10
-0.8507984
 20
3.625799199999999
 30
0.0
 11
-0.8507984
 21
2.724200799999998
 31
0.0
 12
0.8507984
 22
3.625799199999999
 32
0.0
 13
0.8507984
 23
2.724200799999998
 33
0.0
  0
SOLID
  5
159
330
1F
100
AcDbEntity
  8
TopLayer
100
AcDbTrace
 10
-0.7999984
 20
3.574999199999998
 30
0.0
 11
-0.7999984
 21
2.775000799999998
 31
0.0
 12
0.7999984
 22
3.574999199999998
 32
0.0
 13
0.7999984
 23
2.775000799999998
 33
0.0
  0
SOLID
  5
15A
330
1F
100
AcDbEntity
  8
TopPaste
100
AcDbTrace
 10
-0.7999984
 20
4.8449992
 30
0.0
 11
-0.7999984
 21
4.0450008
 31
0.0
 12
0.7999984
 22
4.8449992
 32
0.0
 13
0.7999984
 23
4.0450008
 33
0.0
  0
SOLID
  5
15B
330
1F
100
AcDbEntity
  8
TopSolder
100
AcDbTrace
 10
-0.8507984
 20
4.895799199999999
 30
0.0
 11
-0.8507984
 21
3.9942008
 31
0.0
 12
0.8507984
 22
4.895799199999999
 32
0.0
 13
0.8507984
 23
3.9942008
 33
0.0
  0
SOLID
  5
15C
330
1F
100
AcDbEntity
  8
TopLayer
100
AcDbTrace
 10
-0.7999984
 20
4.8449992
 30
0.0
 11
-0.7999984
 21
4.0450008
 31
0.0
 12
0.7999984
 22
4.8449992
 32
0.0
 13
0.7999984
 23
4.0450008
 33
0.0
  0
SOLID
  5
15D
330
1F
100
AcDbEntity
  8
TopPaste
100
AcDbTrace
 10
-0.7999984
 20
7.384999199999997
 30
0.0
 11
-0.7999984
 21
6.5850008
 31
0.0
 12
0.7999984
 22
7.384999199999997
 32
0.0
 13
0.7999984
 23
6.5850008
 33
0.0
  0
SOLID
  5
15E
330
1F
100
AcDbEntity
  8
TopSolder
100
AcDbTrace
 10
-0.8507984
 20
7.435799199999999
 30
0.0
 11
-0.8507984
 21
6.534200799999998
 31
0.0
 12
0.8507984
 22
7.435799199999999
 32
0.0
 13
0.8507984
 23
6.534200799999998
 33
0.0
  0
SOLID
  5
15F
330
1F
100
AcDbEntity
  8
TopLayer
100
AcDbTrace
 10
-0.7999984
 20
7.384999199999997
 30
0.0
 11
-0.7999984
 21
6.5850008
 31
0.0
 12
0.7999984
 22
7.384999199999997
 32
0.0
 13
0.7999984
 23
6.5850008
 33
0.0
  0
SOLID
  5
160
330
1F
100
AcDbEntity
  8
TopPaste
100
AcDbTrace
 10
-0.7999984
 20
8.654999199999997
 30
0.0
 11
-0.7999984
 21
7.8550008
 31
0.0
 12
0.7999984
 22
8.654999199999997
 32
0.0
 13
0.7999984
 23
7.8550008
 33
0.0
  0
SOLID
  5
161
330
1F
100
AcDbEntity
  8
TopSolder
100
AcDbTrace
 10
-0.8507984
 20
8.705799199999999
 30
0.0
 11
-0.8507984
 21
7.8042008
 31
0.0
 12
0.8507984
 22
8.705799199999999
 32
0.0
 13
0.8507984
 23
7.8042008
 33
0.0
  0
SOLID
  5
162
330
1F
100
AcDbEntity
  8
TopLayer
100
AcDbTrace
 10
-0.7999984
 20
8.654999199999997
 30
0.0
 11
-0.7999984
 21
7.8550008
 31
0.0
 12
0.7999984
 22
8.654999199999997
 32
0.0
 13
0.7999984
 23
7.8550008
 33
0.0
  0
SOLID
  5
163
330
1F
100
AcDbEntity
  8
TopPaste
100
AcDbTrace
 10
-0.7999984
 20
23.8949992
 30
0.0
 11
-0.7999984
 21
23.0950008
 31
0.0
 12
0.7999984
 22
23.8949992
 32
0.0
 13
0.7999984
 23
23.0950008
 33
0.0
  0
SOLID
  5
164
330
1F
100
AcDbEntity
  8
TopSolder
100
AcDbTrace
 10
-0.8507984
 20
23.9457992
 30
0.0
 11
-0.8507984
 21
23.0442008
 31
0.0
 12
0.8507984
 22
23.9457992
 32
0.0
 13
0.8507984
 23
23.0442008
 33
0.0
  0
SOLID
  5
165
330
1F
100
AcDbEntity
  8
TopLayer
100
AcDbTrace
 10
-0.7999984
 20
23.8949992
 30
0.0
 11
-0.7999984
 21
23.0950008
 31
0.0
 12
0.7999984
 22
23.8949992
 32
0.0
 13
0.7999984
 23
23.0950008
 33
0.0
  0
SOLID
  5
166
330
1F
100
AcDbEntity
  8
TopPaste
100
AcDbTrace
 10
-0.7999984
 20
22.6249992
 30
0.0
 11
-0.7999984
 21
21.8250008
 31
0.0
 12
0.7999984
 22
22.6249992
 32
0.0
 13
0.7999984
 23
21.8250008
 33
0.0
  0
SOLID
  5
167
330
1F
100
AcDbEntity
  8
TopSolder
100
AcDbTrace
 10
-0.8507984
 20
22.6757992
 30
0.0
 11
-0.8507984
 21
21.7742008
 31
0.0
 12
0.8507984
 22
22.6757992
 32
0.0
 13
0.8507984
 23
21.7742008
 33
0.0
  0
SOLID
  5
168
330
1F
100
AcDbEntity
  8
TopLayer
100
AcDbTrace
 10
-0.7999984
 20
22.6249992
 30
0.0
 11
-0.7999984
 21
21.8250008
 31
0.0
 12
0.7999984
 22
22.6249992
 32
0.0
 13
0.7999984
 23
21.8250008
 33
0.0
  0
SOLID
  5
169
330
1F
100
AcDbEntity
  8
TopPaste
100
AcDbTrace
 10
-0.7999984
 20
21.3549992
 30
0.0
 11
-0.7999984
 21
20.5550008
 31
0.0
 12
0.7999984
 22
21.3549992
 32
0.0
 13
0.7999984
 23
20.5550008
 33
0.0
  0
SOLID
  5
16A
330
1F
100
AcDbEntity
  8
TopSolder
100
AcDbTrace
 10
-0.8507984
 20
21.4057992
 30
0.0
 11
-0.8507984
 21
20.5042008
 31
0.0
 12
0.8507984
 22
21.4057992
 32
0.0
 13
0.8507984
 23
20.5042008
 33
0.0
  0
SOLID
  5
16B
330
1F
100
AcDbEntity
  8
TopLayer
100
AcDbTrace
 10
-0.7999984
 20
21.3549992
 30
0.0
 11
-0.7999984
 21
20.5550008
 31
0.0
 12
0.7999984
 22
21.3549992
 32
0.0
 13
0.7999984
 23
20.5550008
 33
0.0
  0
SOLID
  5
16C
330
1F
100
AcDbEntity
  8
TopPaste
100
AcDbTrace
 10
-0.7999984
 20
20.0849992
 30
0.0
 11
-0.7999984
 21
19.2850008
 31
0.0
 12
0.7999984
 22
20.0849992
 32
0.0
 13
0.7999984
 23
19.2850008
 33
0.0
  0
SOLID
  5
16D
330
1F
100
AcDbEntity
  8
TopSolder
100
AcDbTrace
 10
-0.8507984
 20
20.1357992
 30
0.0
 11
-0.8507984
 21
19.2342008
 31
0.0
 12
0.8507984
 22
20.1357992
 32
0.0
 13
0.8507984
 23
19.2342008
 33
0.0
  0
SOLID
  5
16E
330
1F
100
AcDbEntity
  8
TopLayer
100
AcDbTrace
 10
-0.7999984
 20
20.0849992
 30
0.0
 11
-0.7999984
 21
19.2850008
 31
0.0
 12
0.7999984
 22
20.0849992
 32
0.0
 13
0.7999984
 23
19.2850008
 33
0.0
  0
SOLID
  5
16F
330
1F
100
AcDbEntity
  8
TopPaste
100
AcDbTrace
 10
-0.7999984
 20
18.8149992
 30
0.0
 11
-0.7999984
 21
18.0150008
 31
0.0
 12
0.7999984
 22
18.8149992
 32
0.0
 13
0.7999984
 23
18.0150008
 33
0.0
  0
SOLID
  5
170
330
1F
100
AcDbEntity
  8
TopSolder
100
AcDbTrace
 10
-0.8507984
 20
18.8657992
 30
0.0
 11
-0.8507984
 21
17.9642008
 31
0.0
 12
0.8507984
 22
18.8657992
 32
0.0
 13
0.8507984
 23
17.9642008
 33
0.0
  0
SOLID
  5
171
330
1F
100
AcDbEntity
  8
TopLayer
100
AcDbTrace
 10
-0.7999984
 20
18.8149992
 30
0.0
 11
-0.7999984
 21
18.0150008
 31
0.0
 12
0.7999984
 22
18.8149992
 32
0.0
 13
0.7999984
 23
18.0150008
 33
0.0
  0
SOLID
  5
172
330
1F
100
AcDbEntity
  8
TopPaste
100
AcDbTrace
 10
-0.7999984
 20
17.5449992
 30
0.0
 11
-0.7999984
 21
16.7450008
 31
0.0
 12
0.7999984
 22
17.5449992
 32
0.0
 13
0.7999984
 23
16.7450008
 33
0.0
  0
SOLID
  5
173
330
1F
100
AcDbEntity
  8
TopSolder
100
AcDbTrace
 10
-0.8507984
 20
17.5957992
 30
0.0
 11
-0.8507984
 21
16.6942008
 31
0.0
 12
0.8507984
 22
17.5957992
 32
0.0
 13
0.8507984
 23
16.6942008
 33
0.0
  0
SOLID
  5
174
330
1F
100
AcDbEntity
  8
TopLayer
100
AcDbTrace
 10
-0.7999984
 20
17.5449992
 30
0.0
 11
-0.7999984
 21
16.7450008
 31
0.0
 12
0.7999984
 22
17.5449992
 32
0.0
 13
0.7999984
 23
16.7450008
 33
0.0
  0
SOLID
  5
175
330
1F
100
AcDbEntity
  8
TopPaste
100
AcDbTrace
 10
-0.7999984
 20
16.2749992
 30
0.0
 11
-0.7999984
 21
15.4750008
 31
0.0
 12
0.7999984
 22
16.2749992
 32
0.0
 13
0.7999984
 23
15.4750008
 33
0.0
  0
SOLID
  5
176
330
1F
100
AcDbEntity
  8
TopSolder
100
AcDbTrace
 10
-0.8507984
 20
16.3257992
 30
0.0
 11
-0.8507984
 21
15.4242008
 31
0.0
 12
0.8507984
 22
16.3257992
 32
0.0
 13
0.8507984
 23
15.4242008
 33
0.0
  0
SOLID
  5
177
330
1F
100
AcDbEntity
  8
TopLayer
100
AcDbTrace
 10
-0.7999984
 20
16.2749992
 30
0.0
 11
-0.7999984
 21
15.4750008
 31
0.0
 12
0.7999984
 22
16.2749992
 32
0.0
 13
0.7999984
 23
15.4750008
 33
0.0
  0
SOLID
  5
178
330
1F
100
AcDbEntity
  8
TopPaste
100
AcDbTrace
 10
-0.7999984
 20
15.0049992
 30
0.0
 11
-0.7999984
 21
14.2050008
 31
0.0
 12
0.7999984
 22
15.0049992
 32
0.0
 13
0.7999984
 23
14.2050008
 33
0.0
  0
SOLID
  5
179
330
1F
100
AcDbEntity
  8
TopSolder
100
AcDbTrace
 10
-0.8507984
 20
15.0557992
 30
0.0
 11
-0.8507984
 21
14.1542008
 31
0.0
 12
0.8507984
 22
15.0557992
 32
0.0
 13
0.8507984
 23
14.1542008
 33
0.0
  0
SOLID
  5
17A
330
1F
100
AcDbEntity
  8
TopLayer
100
AcDbTrace
 10
-0.7999984
 20
15.0049992
 30
0.0
 11
-0.7999984
 21
14.2050008
 31
0.0
 12
0.7999984
 22
15.0049992
 32
0.0
 13
0.7999984
 23
14.2050008
 33
0.0
  0
SOLID
  5
17B
330
1F
100
AcDbEntity
  8
TopPaste
100
AcDbTrace
 10
-0.7999984
 20
12.4649992
 30
0.0
 11
-0.7999984
 21
11.6650008
 31
0.0
 12
0.7999984
 22
12.4649992
 32
0.0
 13
0.7999984
 23
11.6650008
 33
0.0
  0
SOLID
  5
17C
330
1F
100
AcDbEntity
  8
TopSolder
100
AcDbTrace
 10
-0.8507984
 20
12.5157992
 30
0.0
 11
-0.8507984
 21
11.6142008
 31
0.0
 12
0.8507984
 22
12.5157992
 32
0.0
 13
0.8507984
 23
11.6142008
 33
0.0
  0
SOLID
  5
17D
330
1F
100
AcDbEntity
  8
TopLayer
100
AcDbTrace
 10
-0.7999984
 20
12.4649992
 30
0.0
 11
-0.7999984
 21
11.6650008
 31
0.0
 12
0.7999984
 22
12.4649992
 32
0.0
 13
0.7999984
 23
11.6650008
 33
0.0
  0
SOLID
  5
17E
330
1F
100
AcDbEntity
  8
TopPaste
100
AcDbTrace
 10
-0.7999984
 20
13.7349992
 30
0.0
 11
-0.7999984
 21
12.9350008
 31
0.0
 12
0.7999984
 22
13.7349992
 32
0.0
 13
0.7999984
 23
12.9350008
 33
0.0
  0
SOLID
  5
17F
330
1F
100
AcDbEntity
  8
TopSolder
100
AcDbTrace
 10
-0.8507984
 20
13.7857992
 30
0.0
 11
-0.8507984
 21
12.8842008
 31
0.0
 12
0.8507984
 22
13.7857992
 32
0.0
 13
0.8507984
 23
12.8842008
 33
0.0
  0
SOLID
  5
180
330
1F
100
AcDbEntity
  8
TopLayer
100
AcDbTrace
 10
-0.7999984
 20
13.7349992
 30
0.0
 11
-0.7999984
 21
12.9350008
 31
0.0
 12
0.7999984
 22
13.7349992
 32
0.0
 13
0.7999984
 23
12.9350008
 33
0.0
  0
SOLID
  5
181
330
1F
100
AcDbEntity
  8
TopPaste
100
AcDbTrace
 10
-0.7999984
 20
11.1949992
 30
0.0
 11
-0.7999984
 21
10.3950008
 31
0.0
 12
0.7999984
 22
11.1949992
 32
0.0
 13
0.7999984
 23
10.3950008
 33
0.0
  0
SOLID
  5
182
330
1F
100
AcDbEntity
  8
TopSolder
100
AcDbTrace
 10
-0.8507984
 20
11.2457992
 30
0.0
 11
-0.8507984
 21
10.3442008
 31
0.0
 12
0.8507984
 22
11.2457992
 32
0.0
 13
0.8507984
 23
10.3442008
 33
0.0
  0
SOLID
  5
183
330
1F
100
AcDbEntity
  8
TopLayer
100
AcDbTrace
 10
-0.7999984
 20
11.1949992
 30
0.0
 11
-0.7999984
 21
10.3950008
 31
0.0
 12
0.7999984
 22
11.1949992
 32
0.0
 13
0.7999984
 23
10.3950008
 33
0.0
  0
SOLID
  5
184
330
1F
100
AcDbEntity
  8
TopPaste
100
AcDbTrace
 10
-0.7999984
 20
9.924999199999998
 30
0.0
 11
-0.7999984
 21
9.1250008
 31
0.0
 12
0.7999984
 22
9.924999199999998
 32
0.0
 13
0.7999984
 23
9.1250008
 33
0.0
  0
SOLID
  5
185
330
1F
100
AcDbEntity
  8
TopSolder
100
AcDbTrace
 10
-0.8507984
 20
9.975799199999999
 30
0.0
 11
-0.8507984
 21
9.074200799999999
 31
0.0
 12
0.8507984
 22
9.975799199999999
 32
0.0
 13
0.8507984
 23
9.074200799999999
 33
0.0
  0
SOLID
  5
186
330
1F
100
AcDbEntity
  8
TopLayer
100
AcDbTrace
 10
-0.7999984
 20
9.924999199999998
 30
0.0
 11
-0.7999984
 21
9.1250008
 31
0.0
 12
0.7999984
 22
9.924999199999998
 32
0.0
 13
0.7999984
 23
9.1250008
 33
0.0
  0
SOLID
  5
187
330
1F
100
AcDbEntity
  8
TopPaste
100
AcDbTrace
 10
17.5665003
 20
8.450999099999997
 30
0.0
 11
17.5665003
 21
5.148999099999998
 31
0.0
 12
20.2335003
 22
8.450999099999997
 32
0.0
 13
20.2335003
 23
5.148999099999998
 33
0.0
  0
SOLID
  5
188
330
1F
100
AcDbEntity
  8
TopSolder
100
AcDbTrace
 10
17.5157003
 20
8.501799099999999
 30
0.0
 11
17.5157003
 21
5.098199099999998
 31
0.0
 12
20.2843003
 22
8.501799099999999
 32
0.0
 13
20.2843003
 23
5.098199099999998
 33
0.0
  0
SOLID
  5
189
330
1F
100
AcDbEntity
  8
TopLayer
100
AcDbTrace
 10
17.5665003
 20
8.450999099999997
 30
0.0
 11
17.5665003
 21
5.148999099999998
 31
0.0
 12
20.2335003
 22
8.450999099999997
 32
0.0
 13
20.2335003
 23
5.148999099999998
 33
0.0
  0
SOLID
  5
18A
330
1F
100
AcDbEntity
  8
TopPaste
100
AcDbTrace
 10
-0.7999984
 20
6.114999199999998
 30
0.0
 11
-0.7999984
 21
5.315000799999999
 31
0.0
 12
0.7999984
 22
6.114999199999998
 32
0.0
 13
0.7999984
 23
5.315000799999999
 33
0.0
  0
SOLID
  5
18B
330
1F
100
AcDbEntity
  8
TopSolder
100
AcDbTrace
 10
-0.8507984
 20
6.165799199999997
 30
0.0
 11
-0.8507984
 21
5.264200799999998
 31
0.0
 12
0.8507984
 22
6.165799199999997
 32
0.0
 13
0.8507984
 23
5.264200799999998
 33
0.0
  0
SOLID
  5
18C
330
1F
100
AcDbEntity
  8
TopLayer
100
AcDbTrace
 10
-0.7999984
 20
6.114999199999998
 30
0.0
 11
-0.7999984
 21
5.315000799999999
 31
0.0
 12
0.7999984
 22
6.114999199999998
 32
0.0
 13
0.7999984
 23
5.315000799999999
 33
0.0
  0
MTEXT
  5
1E3
330
1F
100
AcDbEntity
  8
0
100
AcDbMText
 10
27.27373315199248
 20
0.7817716256504923
 30
0.0
 40
1.0
 41
15.97911354082225
 46
0.0
 71
     1
 72
     5
  1
{\fArial|b0|i0|c134|p34;WIFI_IO0\fSimSun|b0|i0|c134|p2;M1w}
 73
     1
 44
1.0
101
Embedded Object
 70
     1
 10
1.0
 20
0.0
 30
0.0
 11
27.27373315199248
 21
0.7817716256504923
 31
0.0
 40
15.97911354082225
 41
0.0
 42
15.87595555115199
 43
1.45639714344509
 71
     2
 72
     1
 44
15.97911354082225
 45
12.5
 73
     0
 74
     0
 46
0.0
1001
ACAD
1000
MTEXTBEGIN
1070
    73
1070
     1
1070
    44
1040
1.0
1070
    74
1070
     0
1000
MTEXTEND
  0
MTEXT
  5
1EE
330
1F
100
AcDbEntity
  8
0
100
AcDbMText
 10
27.35117255651466
 20
2.417127885385837
 30
0.0
 40
1.0
 41
1.986045834868433
 46
0.0
 71
     1
 72
     5
  1
{\fArial|b0|i0|c134|p34;IO0}
 73
     1
 44
1.0
101
Embedded Object
 70
     1
 10
1.0
 20
0.0
 30
0.0
 11
27.35117255651466
 21
2.417127885385837
 31
0.0
 40
1.986045834868433
 41
0.0
 42
2.054570259208731
 43
1.034788540245566
 71
     2
 72
     1
 44
1.986045834868433
 45
12.5
 73
     0
 74
     0
 46
0.0
1001
ACAD
1000
MTEXTBEGIN
1070
    73
1070
     1
1070
    44
1040
1.0
1070
    74
1070
     0
1000
MTEXTEND
  0
MTEXT
  5
1F5
330
1F
100
AcDbEntity
  8
0
100
AcDbMText
 10
27.3515110574113
 20
3.636338964405978
 30
0.0
 40
1.0
 41
1.986045834868433
 46
0.0
 71
     1
 72
     5
  1
{\fArial|b0|i0|c134|p34;IO1}
 73
     1
 44
1.0
101
Embedded Object
 70
     1
 10
1.0
 20
0.0
 30
0.0
 11
27.3515110574113
 21
3.636338964405978
 31
0.0
 40
1.986045834868433
 41
0.0
 42
1.86493860845839
 43
1.034788540245566
 71
     2
 72
     1
 44
1.986045834868433
 45
12.5
 73
     0
 74
     0
 46
0.0
1001
ACAD
1000
MTEXTBEGIN
1070
    73
1070
     1
1070
    44
1040
1.0
1070
    74
1070
     0
1000
MTEXTEND
  0
MTEXT
  5
1FC
330
1F
100
AcDbEntity
  8
0
100
AcDbMText
 10
27.32028829361662
 20
4.937156939120143
 30
0.0
 40
1.0
 41
1.986045834868433
 46
0.0
 71
     1
 72
     5
  1
{\fArial|b0|i0|c134|p34;IO2}
 73
     1
 44
1.0
101
Embedded Object
 70
     1
 10
1.0
 20
0.0
 30
0.0
 11
27.32028829361662
 21
4.937156939120143
 31
0.0
 40
1.986045834868433
 41
0.0
 42
2.04774897680764
 43
1.034788540245566
 71
     2
 72
     1
 44
1.986045834868433
 45
12.5
 73
     0
 74
     0
 46
0.0
1001
ACAD
1000
MTEXTBEGIN
1070
    73
1070
     1
1070
    44
1040
1.0
1070
    74
1070
     0
1000
MTEXTEND
  0
MTEXT
  5
1FD
330
1F
100
AcDbEntity
  8
0
100
AcDbMText
 10
27.32062679451326
 20
6.156368018140283
 30
0.0
 40
1.0
 41
1.986045834868433
 46
0.0
 71
     1
 72
     5
  1
{\fArial|b0|i0|c134|p34;IO3}
 73
     1
 44
1.0
101
Embedded Object
 70
     1
 10
1.0
 20
0.0
 30
0.0
 11
27.32062679451326
 21
6.156368018140283
 31
0.0
 40
1.986045834868433
 41
0.0
 42
2.057980900409277
 43
1.035470668485675
 71
     2
 72
     1
 44
1.986045834868433
 45
12.5
 73
     0
 74
     0
 46
0.0
1001
ACAD
1000
MTEXTBEGIN
1070
    73
1070
     1
1070
    44
1040
1.0
1070
    74
1070
     0
1000
MTEXTEND
  0
MTEXT
  5
20A
330
1F
100
AcDbEntity
  8
0
100
AcDbMText
 10
27.32545955964446
 20
7.42079997474775
 30
0.0
 40
1.0
 41
1.986045834868433
 46
0.0
 71
     1
 72
     5
  1
{\fArial|b0|i0|c134|p34;IO4}
 73
     1
 44
1.0
101
Embedded Object
 70
     1
 10
1.0
 20
0.0
 30
0.0
 11
27.32545955964446
 21
7.42079997474775
 31
0.0
 40
1.986045834868433
 41
0.0
 42
2.053888130968621
 43
1.034788540245566
 71
     2
 72
     1
 44
1.986045834868433
 45
12.5
 73
     0
 74
     0
 46
0.0
1001
ACAD
1000
MTEXTBEGIN
1070
    73
1070
     1
1070
    44
1040
1.0
1070
    74
1070
     0
1000
MTEXTEND
  0
MTEXT
  5
20B
330
1F
100
AcDbEntity
  8
0
100
AcDbMText
 10
27.3257980605411
 20
8.640011053767892
 30
0.0
 40
1.0
 41
1.986045834868433
 46
0.0
 71
     1
 72
     5
  1
{\fArial|b0|i0|c134|p34;IO5}
 73
     1
 44
1.0
101
Embedded Object
 70
     1
 10
1.0
 20
0.0
 30
0.0
 11
27.3257980605411
 21
8.640011053767892
 31
0.0
 40
1.986045834868433
 41
0.0
 42
2.065484311050477
 43
1.034788540245566
 71
     2
 72
     1
 44
1.986045834868433
 45
12.5
 73
     0
 74
     0
 46
0.0
1001
ACAD
1000
MTEXTBEGIN
1070
    73
1070
     1
1070
    44
1040
1.0
1070
    74
1070
     0
1000
MTEXTEND
  0
MTEXT
  5
20C
330
1F
100
AcDbEntity
  8
0
100
AcDbMText
 10
27.29457529674642
 20
9.940829028482056
 30
0.0
 40
1.0
 41
1.986045834868433
 46
0.0
 71
     1
 72
     5
  1
{\fArial|b0|i0|c134|p34;IO6}
 73
     1
 44
1.0
101
Embedded Object
 70
     1
 10
1.0
 20
0.0
 30
0.0
 11
27.29457529674642
 21
9.940829028482056
 31
0.0
 40
1.986045834868433
 41
0.0
 42
2.057298772169167
 43
1.034788540245566
 71
     2
 72
     1
 44
1.986045834868433
 45
12.5
 73
     0
 74
     0
 46
0.0
1001
ACAD
1000
MTEXTBEGIN
1070
    73
1070
     1
1070
    44
1040
1.0
1070
    74
1070
     0
1000
MTEXTEND
  0
MTEXT
  5
20D
330
1F
100
AcDbEntity
  8
0
100
AcDbMText
 10
27.29491379764307
 20
11.1600401075022
 30
0.0
 40
1.0
 41
1.986045834868433
 46
0.0
 71
     1
 72
     5
  1
{\fArial|b0|i0|c134|p34;IO7}
 73
     1
 44
1.0
101
Embedded Object
 70
     1
 10
1.0
 20
0.0
 30
0.0
 11
27.29491379764307
 21
11.1600401075022
 31
0.0
 40
1.986045834868433
 41
0.0
 42
2.057980900409277
 43
1.034788540245566
 71
     2
 72
     1
 44
1.986045834868433
 45
12.5
 73
     0
 74
     0
 46
0.0
1001
ACAD
1000
MTEXTBEGIN
1070
    73
1070
     1
1070
    44
1040
1.0
1070
    74
1070
     0
1000
MTEXTEND
  0
MTEXT
  5
21A
330
1F
100
AcDbEntity
  8
0
100
AcDbMText
 10
27.26912079556763
 20
12.51855672791253
 30
0.0
 40
1.0
 41
1.986045834868433
 46
0.0
 71
     1
 72
     5
  1
{\fArial|b0|i0|c134|p34;IO8}
 73
     1
 44
1.0
101
Embedded Object
 70
     1
 10
1.0
 20
0.0
 30
0.0
 11
27.26912079556763
 21
12.51855672791253
 31
0.0
 40
1.986045834868433
 41
0.0
 42
2.060027285129604
 43
1.034788540245566
 71
     2
 72
     1
 44
1.986045834868433
 45
12.5
 73
     0
 74
     0
 46
0.0
1001
ACAD
1000
MTEXTBEGIN
1070
    73
1070
     1
1070
    44
1040
1.0
1070
    74
1070
     0
1000
MTEXTEND
  0
MTEXT
  5
21B
330
1F
100
AcDbEntity
  8
0
100
AcDbMText
 10
27.26945929646428
 20
13.73776780693268
 30
0.0
 40
1.0
 41
1.986045834868433
 46
0.0
 71
     1
 72
     5
  1
{\fArial|b0|i0|c134|p34;IO9}
 73
     1
 44
1.0
101
Embedded Object
 70
     1
 10
1.0
 20
0.0
 30
0.0
 11
27.26945929646428
 21
13.73776780693268
 31
0.0
 40
1.986045834868433
 41
0.0
 42
2.060027285129604
 43
1.034788540245566
 71
     2
 72
     1
 44
1.986045834868433
 45
12.5
 73
     0
 74
     0
 46
0.0
1001
ACAD
1000
MTEXTBEGIN
1070
    73
1070
     1
1070
    44
1040
1.0
1070
    74
1070
     0
1000
MTEXTEND
  0
MTEXT
  5
21C
330
1F
100
AcDbEntity
  8
0
100
AcDbMText
 10
27.23823653266959
 20
15.03858578164684
 30
0.0
 40
1.0
 41
1.986045834868433
 46
0.0
 71
     1
 72
     5
  1
{\fArial|b0|i0|c134|p34;IO10}
 73
     1
 44
1.0
101
Embedded Object
 70
     1
 10
1.0
 20
0.0
 30
0.0
 11
27.23823653266959
 21
15.03858578164684
 31
0.0
 40
1.986045834868433
 41
0.0
 42
2.831514324693042
 43
1.034788540245566
 71
     2
 72
     1
 44
1.986045834868433
 45
12.5
 73
     0
 74
     0
 46
0.0
1001
ACAD
1000
MTEXTBEGIN
1070
    73
1070
     1
1070
    44
1040
1.0
1070
    74
1070
     0
1000
MTEXTEND
  0
MTEXT
  5
21D
330
1F
100
AcDbEntity
  8
0
100
AcDbMText
 10
27.23857503356624
 20
16.25779686066698
 30
0.0
 40
1.0
 41
1.986045834868433
 46
0.0
 71
     1
 72
     5
  1
{\fArial|b0|i0|c134|p34;IO11}
 73
     1
 44
1.0
101
Embedded Object
 70
     1
 10
1.0
 20
0.0
 30
0.0
 11
27.23857503356624
 21
16.25779686066698
 31
0.0
 40
1.986045834868433
 41
0.0
 42
2.641882673942701
 43
1.034788540245566
 71
     2
 72
     1
 44
1.986045834868433
 45
12.5
 73
     0
 74
     0
 46
0.0
1001
ACAD
1000
MTEXTBEGIN
1070
    73
1070
     1
1070
    44
1040
1.0
1070
    74
1070
     0
1000
MTEXTEND
  0
MTEXT
  5
21E
330
1F
100
AcDbEntity
  8
0
100
AcDbMText
 10
27.24340779869744
 20
17.52222881727445
 30
0.0
 40
1.0
 41
1.986045834868433
 46
0.0
 71
     1
 72
     5
  1
{\fArial|b0|i0|c134|p34;IO12}
 73
     1
 44
1.0
101
Embedded Object
 70
     1
 10
1.0
 20
0.0
 30
0.0
 11
27.24340779869744
 21
17.52222881727445
 31
0.0
 40
1.986045834868433
 41
0.0
 42
2.82469304229195
 43
1.034788540245566
 71
     2
 72
     1
 44
1.986045834868433
 45
12.5
 73
     0
 74
     0
 46
0.0
1001
ACAD
1000
MTEXTBEGIN
1070
    73
1070
     1
1070
    44
1040
1.0
1070
    74
1070
     0
1000
MTEXTEND
  0
MTEXT
  5
21F
330
1F
100
AcDbEntity
  8
0
100
AcDbMText
 10
27.24374629959408
 20
18.74143989629459
 30
0.0
 40
1.0
 41
1.986045834868433
 46
0.0
 71
     1
 72
     5
  1
{\fArial|b0|i0|c134|p34;IO13}
 73
     1
 44
1.0
101
Embedded Object
 70
     1
 10
1.0
 20
0.0
 30
0.0
 11
27.24374629959408
 21
18.74143989629459
 31
0.0
 40
1.986045834868433
 41
0.0
 42
2.834924965893587
 43
1.035470668485675
 71
     2
 72
     1
 44
1.986045834868433
 45
12.5
 73
     0
 74
     0
 46
0.0
1001
ACAD
1000
MTEXTBEGIN
1070
    73
1070
     1
1070
    44
1040
1.0
1070
    74
1070
     0
1000
MTEXTEND
  0
MTEXT
  5
220
330
1F
100
AcDbEntity
  8
0
100
AcDbMText
 10
27.21252353579939
 20
20.04225787100876
 30
0.0
 40
1.0
 41
1.986045834868433
 46
0.0
 71
     1
 72
     5
  1
{\fArial|b0|i0|c134|p34;IO14}
 73
     1
 44
1.0
101
Embedded Object
 70
     1
 10
1.0
 20
0.0
 30
0.0
 11
27.21252353579939
 21
20.04225787100876
 31
0.0
 40
1.986045834868433
 41
0.0
 42
2.830832196452933
 43
1.034788540245566
 71
     2
 72
     1
 44
1.986045834868433
 45
12.5
 73
     0
 74
     0
 46
0.0
1001
ACAD
1000
MTEXTBEGIN
1070
    73
1070
     1
1070
    44
1040
1.0
1070
    74
1070
     0
1000
MTEXTEND
  0
MTEXT
  5
221
330
1F
100
AcDbEntity
  8
0
100
AcDbMText
 10
27.21286203669604
 20
21.2614689500289
 30
0.0
 40
1.0
 41
1.986045834868433
 46
0.0
 71
     1
 72
     5
  1
{\fArial|b0|i0|c134|p34;IO15}
 73
     1
 44
1.0
101
Embedded Object
 70
     1
 10
1.0
 20
0.0
 30
0.0
 11
27.21286203669604
 21
21.2614689500289
 31
0.0
 40
1.986045834868433
 41
0.0
 42
2.842428376534788
 43
1.034788540245566
 71
     2
 72
     1
 44
1.986045834868433
 45
12.5
 73
     0
 74
     0
 46
0.0
1001
ACAD
1000
MTEXTBEGIN
1070
    73
1070
     1
1070
    44
1040
1.0
1070
    74
1070
     0
1000
MTEXTEND
  0
MTEXT
  5
232
330
1F
100
AcDbEntity
  8
0
100
AcDbMText
 10
27.19264190424218
 20
22.68533317106295
 30
0.0
 40
1.0
 41
1.986045834868433
 46
0.0
 71
     1
 72
     5
  1
{\fArial|b0|i0|c134|p34;IO16}
 73
     1
 44
1.0
101
Embedded Object
 70
     1
 10
1.0
 20
0.0
 30
0.0
 11
27.19264190424218
 21
22.68533317106295
 31
0.0
 40
1.986045834868433
 41
0.0
 42
2.834242837653478
 43
1.034788540245566
 71
     2
 72
     1
 44
1.986045834868433
 45
12.5
 73
     0
 74
     0
 46
0.0
1001
ACAD
1000
MTEXTBEGIN
1070
    73
1070
     1
1070
    44
1040
1.0
1070
    74
1070
     0
1000
MTEXTEND
  0
MTEXT
  5
233
330
1F
100
AcDbEntity
  8
0
100
AcDbMText
 10
27.19298040513883
 20
23.90454425008309
 30
0.0
 40
1.0
 41
1.986045834868433
 46
0.0
 71
     1
 72
     5
  1
{\fArial|b0|i0|c134|p34;IO17}
 73
     1
 44
1.0
101
Embedded Object
 70
     1
 10
1.0
 20
0.0
 30
0.0
 11
27.19298040513883
 21
23.90454425008309
 31
0.0
 40
1.986045834868433
 41
0.0
 42
2.834924965893587
 43
1.034788540245566
 71
     2
 72
     1
 44
1.986045834868433
 45
12.5
 73
     0
 74
     0
 46
0.0
1001
ACAD
1000
MTEXTBEGIN
1070
    73
1070
     1
1070
    44
1040
1.0
1070
    74
1070
     0
1000
MTEXTEND
  0
MTEXT
  5
295
330
1F
100
AcDbEntity
  8
0
100
AcDbMText
 10
27.17106821893543
 20
25.64407630587513
 30
0.0
 40
1.0
 41
1.986045834868433
 46
0.0
 71
     1
 72
     5
  1
{\fArial|b0|i0|c134|p34;GND}
 73
     1
 44
1.0
101
Embedded Object
 70
     1
 10
1.0
 20
0.0
 30
0.0
 11
27.17106821893543
 21
25.64407630587513
 31
0.0
 40
1.986045834868433
 41
0.0
 42
2.955661664392905
 43
1.034106412005456
 71
     2
 72
     1
 44
1.986045834868433
 45
12.5
 73
     0
 74
     0
 46
0.0
1001
ACAD
1000
MTEXTBEGIN
1070
    73
1070
     1
1070
    44
1040
1.0
1070
    74
1070
     0
1000
MTEXTEND
  0
MTEXT
  5
2ED
330
1F
100
AcDbEntity
  8
0
100
AcDbMText
 10
-4.137865463767582
 20
0.8597320825380734
 30
0.0
 40
1.0
 41
9.211477960595344
 46
0.0
 71
     1
 72
     5
  1
{\fArial|b0|i0|c134|p34;GND}
 73
     1
 44
1.0
101
Embedded Object
 70
     1
 10
1.0
 20
0.0
 30
0.0
 11
-4.137865463767582
 21
0.8597320825380734
 31
0.0
 40
9.211477960595344
 41
0.0
 42
2.955661664392905
 43
1.034106412005456
 71
     2
 72
     1
 44
9.211477960595344
 45
12.5
 73
     0
 74
     0
 46
0.0
1001
ACAD
1000
MTEXTBEGIN
1070
    73
1070
     1
1070
    44
1040
1.0
1070
    74
1070
     0
1000
MTEXTEND
  0
MTEXT
  5
2EE
330
1F
100
AcDbEntity
  8
0
100
AcDbMText
 10
-4.060426059245402
 20
2.495088342273418
 30
0.0
 40
1.0
 41
1.986045834868433
 46
0.0
 71
     1
 72
     5
  1
{\fArial|b0|i0|c134|p34;3V3}
 73
     1
 44
1.0
101
Embedded Object
 70
     1
 10
1.0
 20
0.0
 30
0.0
 11
-4.060426059245402
 21
2.495088342273418
 31
0.0
 40
1.986045834868433
 41
0.0
 42
2.363574351978171
 43
1.021828103683492
 71
     2
 72
     1
 44
1.986045834868433
 45
12.5
 73
     0
 74
     0
 46
0.0
1001
ACAD
1000
MTEXTBEGIN
1070
    73
1070
     1
1070
    44
1040
1.0
1070
    74
1070
     0
1000
MTEXTEND
  0
MTEXT
  5
2EF
330
1F
100
AcDbEntity
  8
0
100
AcDbMText
 10
-4.060087558348755
 20
3.71429942129356
 30
0.0
 40
1.0
 41
1.986045834868433
 46
0.0
 71
     1
 72
     5
  1
{\fArial|b0|i0|c134|p34;1V8}
 73
     1
 44
1.0
101
Embedded Object
 70
     1
 10
1.0
 20
0.0
 30
0.0
 11
-4.060087558348755
 21
3.71429942129356
 31
0.0
 40
1.986045834868433
 41
0.0
 42
2.272169167803546
 43
1.021145975443383
 71
     2
 72
     1
 44
1.986045834868433
 45
12.5
 73
     0
 74
     0
 46
0.0
1001
ACAD
1000
MTEXTBEGIN
1070
    73
1070
     1
1070
    44
1040
1.0
1070
    74
1070
     0
1000
MTEXTEND
  0
MTEXT
  5
2F0
330
1F
100
AcDbEntity
  8
0
100
AcDbMText
 10
-4.091310322143441
 20
5.015117396007723
 30
0.0
 40
1.0
 41
1.986045834868433
 46
0.0
 71
     1
 72
     5
  1
{\fArial|b0|i0|c134|p34;5V}
 73
     1
 44
1.0
101
Embedded Object
 70
     1
 10
1.0
 20
0.0
 30
0.0
 11
-4.091310322143441
 21
5.015117396007723
 31
0.0
 40
1.986045834868433
 41
0.0
 42
1.639836289222373
 43
1.017053206002728
 71
     2
 72
     1
 44
1.986045834868433
 45
12.5
 73
     0
 74
     0
 46
0.0
1001
ACAD
1000
MTEXTBEGIN
1070
    73
1070
     1
1070
    44
1040
1.0
1070
    74
1070
     0
1000
MTEXTEND
  0
MTEXT
  5
2F1
330
1F
100
AcDbEntity
  8
0
100
AcDbMText
 10
-4.090971821246796
 20
6.234328475027865
 30
0.0
 40
1.0
 41
1.986045834868433
 46
0.0
 71
     1
 72
     5
  1
{\fArial|b0|i0|c134|p34;5V}
 73
     1
 44
1.0
101
Embedded Object
 70
     1
 10
1.0
 20
0.0
 30
0.0
 11
-4.090971821246796
 21
6.234328475027865
 31
0.0
 40
1.986045834868433
 41
0.0
 42
1.639836289222373
 43
1.017053206002728
 71
     2
 72
     1
 44
1.986045834868433
 45
12.5
 73
     0
 74
     0
 46
0.0
1001
ACAD
1000
MTEXTBEGIN
1070
    73
1070
     1
1070
    44
1040
1.0
1070
    74
1070
     0
1000
MTEXTEND
  0
MTEXT
  5
2F2
330
1F
100
AcDbEntity
  8
0
100
AcDbMText
 10
-4.086139056115597
 20
7.498760431635331
 30
0.0
 40
1.0
 41
1.986045834868433
 46
0.0
 71
     1
 72
     5
  1
{\fArial|b0|i0|c134|p34;GND}
 73
     1
 44
1.0
101
Embedded Object
 70
     1
 10
1.0
 20
0.0
 30
0.0
 11
-4.086139056115597
 21
7.498760431635331
 31
0.0
 40
1.986045834868433
 41
0.0
 42
2.955661664392905
 43
1.034106412005456
 71
     2
 72
     1
 44
1.986045834868433
 45
12.5
 73
     0
 74
     0
 46
0.0
1001
ACAD
1000
MTEXTBEGIN
1070
    73
1070
     1
1070
    44
1040
1.0
1070
    74
1070
     0
1000
MTEXTEND
  0
MTEXT
  5
2F3
330
1F
100
AcDbEntity
  8
0
100
AcDbMText
 10
-4.085800555218951
 20
8.717971510655472
 30
0.0
 40
1.0
 41
1.986045834868433
 46
0.0
 71
     1
 72
     5
  1
{\fArial|b0|i0|c134|p34;GND}
 73
     1
 44
1.0
101
Embedded Object
 70
     1
 10
1.0
 20
0.0
 30
0.0
 11
-4.085800555218951
 21
8.717971510655472
 31
0.0
 40
1.986045834868433
 41
0.0
 42
2.955661664392905
 43
1.034106412005456
 71
     2
 72
     1
 44
1.986045834868433
 45
12.5
 73
     0
 74
     0
 46
0.0
1001
ACAD
1000
MTEXTBEGIN
1070
    73
1070
     1
1070
    44
1040
1.0
1070
    74
1070
     0
1000
MTEXTEND
  0
MTEXT
  5
2F4
330
1F
100
AcDbEntity
  8
0
100
AcDbMText
 10
-4.11702331901364
 20
10.01878948536964
 30
0.0
 40
1.0
 41
1.986045834868433
 46
0.0
 71
     1
 72
     5
  1
{\fArial|b0|i0|c134|p34;IO47}
 73
     1
 44
1.0
101
Embedded Object
 70
     1
 10
1.0
 20
0.0
 30
0.0
 11
-4.11702331901364
 21
10.01878948536964
 31
0.0
 40
1.986045834868433
 41
0.0
 42
2.834924965893587
 43
1.034788540245566
 71
     2
 72
     1
 44
1.986045834868433
 45
12.5
 73
     0
 74
     0
 46
0.0
1001
ACAD
1000
MTEXTBEGIN
1070
    73
1070
     1
1070
    44
1040
1.0
1070
    74
1070
     0
1000
MTEXTEND
  0
MTEXT
  5
2F5
330
1F
100
AcDbEntity
  8
0
100
AcDbMText
 10
-4.116684818116993
 20
11.23800056438978
 30
0.0
 40
1.0
 41
1.986045834868433
 46
0.0
 71
     1
 72
     5
  1
{\fArial|b0|i0|c134|p34;IO46}
 73
     1
 44
1.0
101
Embedded Object
 70
     1
 10
1.0
 20
0.0
 30
0.0
 11
-4.116684818116993
 21
11.23800056438978
 31
0.0
 40
1.986045834868433
 41
0.0
 42
2.834242837653478
 43
1.034788540245566
 71
     2
 72
     1
 44
1.986045834868433
 45
12.5
 73
     0
 74
     0
 46
0.0
1001
ACAD
1000
MTEXTBEGIN
1070
    73
1070
     1
1070
    44
1040
1.0
1070
    74
1070
     0
1000
MTEXTEND
  0
MTEXT
  5
2F6
330
1F
100
AcDbEntity
  8
0
100
AcDbMText
 10
-4.142477820192424
 20
12.59651718480012
 30
0.0
 40
1.0
 41
1.986045834868433
 46
0.0
 71
     1
 72
     5
  1
{\fArial|b0|i0|c134|p34;IO45}
 73
     1
 44
1.0
101
Embedded Object
 70
     1
 10
1.0
 20
0.0
 30
0.0
 11
-4.142477820192424
 21
12.59651718480012
 31
0.0
 40
1.986045834868433
 41
0.0
 42
2.842428376534788
 43
1.034788540245566
 71
     2
 72
     1
 44
1.986045834868433
 45
12.5
 73
     0
 74
     0
 46
0.0
1001
ACAD
1000
MTEXTBEGIN
1070
    73
1070
     1
1070
    44
1040
1.0
1070
    74
1070
     0
1000
MTEXTEND
  0
MTEXT
  5
2F7
330
1F
100
AcDbEntity
  8
0
100
AcDbMText
 10
-4.142139319295778
 20
13.81572826382026
 30
0.0
 40
1.0
 41
1.986045834868433
 46
0.0
 71
     1
 72
     5
  1
{\fArial|b0|i0|c134|p34;IO44}
 73
     1
 44
1.0
101
Embedded Object
 70
     1
 10
1.0
 20
0.0
 30
0.0
 11
-4.142139319295778
 21
13.81572826382026
 31
0.0
 40
1.986045834868433
 41
0.0
 42
2.830832196452933
 43
1.034788540245566
 71
     2
 72
     1
 44
1.986045834868433
 45
12.5
 73
     0
 74
     0
 46
0.0
1001
ACAD
1000
MTEXTBEGIN
1070
    73
1070
     1
1070
    44
1040
1.0
1070
    74
1070
     0
1000
MTEXTEND
  0
MTEXT
  5
2F8
330
1F
100
AcDbEntity
  8
0
100
AcDbMText
 10
-4.173362083090466
 20
15.11654623853442
 30
0.0
 40
1.0
 41
1.986045834868433
 46
0.0
 71
     1
 72
     5
  1
{\fArial|b0|i0|c134|p34;IO43}
 73
     1
 44
1.0
101
Embedded Object
 70
     1
 10
1.0
 20
0.0
 30
0.0
 11
-4.173362083090466
 21
15.11654623853442
 31
0.0
 40
1.986045834868433
 41
0.0
 42
2.834924965893587
 43
1.035470668485675
 71
     2
 72
     1
 44
1.986045834868433
 45
12.5
 73
     0
 74
     0
 46
0.0
1001
ACAD
1000
MTEXTBEGIN
1070
    73
1070
     1
1070
    44
1040
1.0
1070
    74
1070
     0
1000
MTEXTEND
  0
MTEXT
  5
2F9
330
1F
100
AcDbEntity
  8
0
100
AcDbMText
 10
-4.173023582193819
 20
16.33575731755456
 30
0.0
 40
1.0
 41
1.986045834868433
 46
0.0
 71
     1
 72
     5
  1
{\fArial|b0|i0|c134|p34;IO42}
 73
     1
 44
1.0
101
Embedded Object
 70
     1
 10
1.0
 20
0.0
 30
0.0
 11
-4.173023582193819
 21
16.33575731755456
 31
0.0
 40
1.986045834868433
 41
0.0
 42
2.82469304229195
 43
1.034788540245566
 71
     2
 72
     1
 44
1.986045834868433
 45
12.5
 73
     0
 74
     0
 46
0.0
1001
ACAD
1000
MTEXTBEGIN
1070
    73
1070
     1
1070
    44
1040
1.0
1070
    74
1070
     0
1000
MTEXTEND
  0
MTEXT
  5
2FA
330
1F
100
AcDbEntity
  8
0
100
AcDbMText
 10
-4.168190817062622
 20
17.60018927416203
 30
0.0
 40
1.0
 41
1.986045834868433
 46
0.0
 71
     1
 72
     5
  1
{\fArial|b0|i0|c134|p34;IO41}
 73
     1
 44
1.0
101
Embedded Object
 70
     1
 10
1.0
 20
0.0
 30
0.0
 11
-4.168190817062622
 21
17.60018927416203
 31
0.0
 40
1.986045834868433
 41
0.0
 42
2.641882673942701
 43
1.034788540245566
 71
     2
 72
     1
 44
1.986045834868433
 45
12.5
 73
     0
 74
     0
 46
0.0
1001
ACAD
1000
MTEXTBEGIN
1070
    73
1070
     1
1070
    44
1040
1.0
1070
    74
1070
     0
1000
MTEXTEND
  0
MTEXT
  5
2FB
330
1F
100
AcDbEntity
  8
0
100
AcDbMText
 10
-4.167852316165975
 20
18.81940035318217
 30
0.0
 40
1.0
 41
1.986045834868433
 46
0.0
 71
     1
 72
     5
  1
{\fArial|b0|i0|c134|p34;IO40}
 73
     1
 44
1.0
101
Embedded Object
 70
     1
 10
1.0
 20
0.0
 30
0.0
 11
-4.167852316165975
 21
18.81940035318217
 31
0.0
 40
1.986045834868433
 41
0.0
 42
2.831514324693042
 43
1.034788540245566
 71
     2
 72
     1
 44
1.986045834868433
 45
12.5
 73
     0
 74
     0
 46
0.0
1001
ACAD
1000
MTEXTBEGIN
1070
    73
1070
     1
1070
    44
1040
1.0
1070
    74
1070
     0
1000
MTEXTEND
  0
MTEXT
  5
2FC
330
1F
100
AcDbEntity
  8
0
100
AcDbMText
 10
-4.199075079960663
 20
20.12021832789634
 30
0.0
 40
1.0
 41
1.986045834868433
 46
0.0
 71
     1
 72
     5
  1
{\fArial|b0|i0|c134|p34;IO39}
 73
     1
 44
1.0
101
Embedded Object
 70
     1
 10
1.0
 20
0.0
 30
0.0
 11
-4.199075079960663
 21
20.12021832789634
 31
0.0
 40
1.986045834868433
 41
0.0
 42
2.836971350613915
 43
1.035470668485675
 71
     2
 72
     1
 44
1.986045834868433
 45
12.5
 73
     0
 74
     0
 46
0.0
1001
ACAD
1000
MTEXTBEGIN
1070
    73
1070
     1
1070
    44
1040
1.0
1070
    74
1070
     0
1000
MTEXTEND
  0
MTEXT
  5
2FD
330
1F
100
AcDbEntity
  8
0
100
AcDbMText
 10
-4.198736579064018
 20
21.33942940691648
 30
0.0
 40
1.0
 41
1.986045834868433
 46
0.0
 71
     1
 72
     5
  1
{\fArial|b0|i0|c134|p34;IO38}
 73
     1
 44
1.0
101
Embedded Object
 70
     1
 10
1.0
 20
0.0
 30
0.0
 11
-4.198736579064018
 21
21.33942940691648
 31
0.0
 40
1.986045834868433
 41
0.0
 42
2.836971350613915
 43
1.035470668485675
 71
     2
 72
     1
 44
1.986045834868433
 45
12.5
 73
     0
 74
     0
 46
0.0
1001
ACAD
1000
MTEXTBEGIN
1070
    73
1070
     1
1070
    44
1040
1.0
1070
    74
1070
     0
1000
MTEXTEND
  0
MTEXT
  5
2FE
330
1F
100
AcDbEntity
  8
0
100
AcDbMText
 10
-4.218956711517876
 20
22.76329362795053
 30
0.0
 40
1.0
 41
1.986045834868433
 46
0.0
 71
     1
 72
     5
  1
{\fArial|b0|i0|c134|p34;IO37}
 73
     1
 44
1.0
101
Embedded Object
 70
     1
 10
1.0
 20
0.0
 30
0.0
 11
-4.218956711517876
 21
22.76329362795053
 31
0.0
 40
1.986045834868433
 41
0.0
 42
2.834924965893587
 43
1.035470668485675
 71
     2
 72
     1
 44
1.986045834868433
 45
12.5
 73
     0
 74
     0
 46
0.0
1001
ACAD
1000
MTEXTBEGIN
1070
    73
1070
     1
1070
    44
1040
1.0
1070
    74
1070
     0
1000
MTEXTEND
  0
MTEXT
  5
2FF
330
1F
100
AcDbEntity
  8
0
100
AcDbMText
 10
-4.218618210621228
 20
23.98250470697067
 30
0.0
 40
1.0
 41
1.986045834868433
 46
0.0
 71
     1
 72
     5
  1
{\fArial|b0|i0|c134|p34;IO36}
 73
     1
 44
1.0
101
Embedded Object
 70
     1
 10
1.0
 20
0.0
 30
0.0
 11
-4.218618210621228
 21
23.98250470697067
 31
0.0
 40
1.986045834868433
 41
0.0
 42
2.834242837653478
 43
1.035470668485675
 71
     2
 72
     1
 44
1.986045834868433
 45
12.5
 73
     0
 74
     0
 46
0.0
1001
ACAD
1000
MTEXTBEGIN
1070
    73
1070
     1
1070
    44
1040
1.0
1070
    74
1070
     0
1000
MTEXTEND
  0
MTEXT
  5
300
330
1F
100
AcDbEntity
  8
0
100
AcDbMText
 10
-4.240530396824623
 20
25.72203676276271
 30
0.0
 40
1.0
 41
1.986045834868433
 46
0.0
 71
     1
 72
     5
  1
{\fArial|b0|i0|c134|p34;GND}
 73
     1
 44
1.0
101
Embedded Object
 70
     1
 10
1.0
 20
0.0
 30
0.0
 11
-4.240530396824623
 21
25.72203676276271
 31
0.0
 40
1.986045834868433
 41
0.0
 42
2.955661664392905
 43
1.034106412005456
 71
     2
 72
     1
 44
1.986045834868433
 45
12.5
 73
     0
 74
     0
 46
0.0
1001
ACAD
1000
MTEXTBEGIN
1070
    73
1070
     1
1070
    44
1040
1.0
1070
    74
1070
     0
1000
MTEXTEND
  0
MTEXT
  5
356
330
1F
100
AcDbEntity
  8
0
100
AcDbMText
 10
22.91874371176982
 20
26.69425744312869
 30
0.0
 40
1.0
 41
1.986045834868433
 46
0.0
 71
     1
 72
     5
  1
{\fArial|b0|i0|c134|p34;IO18}
 11
0.0000000000000001
 21
1.0
 31
0.0
 73
     1
 44
1.0
101
Embedded Object
 70
     1
 10
0.0000000000000001
 20
1.0
 30
0.0
 11
22.91874371176982
 21
26.69425744312869
 31
0.0
 40
1.986045834868433
 41
0.0
 42
2.836971350613915
 43
1.034788540245566
 71
     2
 72
     1
 44
1.986045834868433
 45
12.5
 73
     0
 74
     0
 46
0.0
1001
ACAD
1000
MTEXTBEGIN
1070
    73
1070
     1
1070
    44
1040
1.0
1070
    74
1070
     0
1000
MTEXTEND
  0
MTEXT
  5
357
330
1F
100
AcDbEntity
  8
0
100
AcDbMText
 10
21.69953263274968
 20
26.69459594402534
 30
0.0
 40
1.0
 41
1.986045834868433
 46
0.0
 71
     1
 72
     5
  1
{\fArial|b0|i0|c134|p34;IO19}
 11
0.0000000000000001
 21
1.0
 31
0.0
 73
     1
 44
1.0
101
Embedded Object
 70
     1
 10
0.0000000000000001
 20
1.0
 30
0.0
 11
21.69953263274968
 21
26.69459594402534
 31
0.0
 40
1.986045834868433
 41
0.0
 42
2.836971350613915
 43
1.034788540245566
 71
     2
 72
     1
 44
1.986045834868433
 45
12.5
 73
     0
 74
     0
 46
0.0
1001
ACAD
1000
MTEXTBEGIN
1070
    73
1070
     1
1070
    44
1040
1.0
1070
    74
1070
     0
1000
MTEXTEND
  0
MTEXT
  5
358
330
1F
100
AcDbEntity
  8
0
100
AcDbMText
 10
20.39871465803551
 20
26.66337318023066
 30
0.0
 40
1.0
 41
1.986045834868433
 46
0.0
 71
     1
 72
     5
  1
{\fArial|b0|i0|c134|p34;IO20}
 11
0.0000000000000001
 21
1.0
 31
0.0
 73
     1
 44
1.0
101
Embedded Object
 70
     1
 10
0.0000000000000001
 20
1.0
 30
0.0
 11
20.39871465803551
 21
26.66337318023066
 31
0.0
 40
1.986045834868433
 41
0.0
 42
2.831514324693042
 43
1.034788540245566
 71
     2
 72
     1
 44
1.986045834868433
 45
12.5
 73
     0
 74
     0
 46
0.0
1001
ACAD
1000
MTEXTBEGIN
1070
    73
1070
     1
1070
    44
1040
1.0
1070
    74
1070
     0
1000
MTEXTEND
  0
MTEXT
  5
359
330
1F
100
AcDbEntity
  8
0
100
AcDbMText
 10
19.17950357901537
 20
26.6637116811273
 30
0.0
 40
1.0
 41
1.986045834868433
 46
0.0
 71
     1
 72
     5
  1
{\fArial|b0|i0|c134|p34;IO21}
 11
0.0000000000000001
 21
1.0
 31
0.0
 73
     1
 44
1.0
101
Embedded Object
 70
     1
 10
0.0000000000000001
 20
1.0
 30
0.0
 11
19.17950357901537
 21
26.6637116811273
 31
0.0
 40
1.986045834868433
 41
0.0
 42
2.641882673942701
 43
1.034788540245566
 71
     2
 72
     1
 44
1.986045834868433
 45
12.5
 73
     0
 74
     0
 46
0.0
1001
ACAD
1000
MTEXTBEGIN
1070
    73
1070
     1
1070
    44
1040
1.0
1070
    74
1070
     0
1000
MTEXTEND
  0
MTEXT
  5
35A
330
1F
100
AcDbEntity
  8
0
100
AcDbMText
 10
17.9150716224079
 20
26.6685444462585
 30
0.0
 40
1.0
 41
1.986045834868433
 46
0.0
 71
     1
 72
     5
  1
{\fArial|b0|i0|c134|p34;IO22}
 11
0.0000000000000001
 21
1.0
 31
0.0
 73
     1
 44
1.0
101
Embedded Object
 70
     1
 10
0.0000000000000001
 20
1.0
 30
0.0
 11
17.9150716224079
 21
26.6685444462585
 31
0.0
 40
1.986045834868433
 41
0.0
 42
2.82469304229195
 43
1.034788540245566
 71
     2
 72
     1
 44
1.986045834868433
 45
12.5
 73
     0
 74
     0
 46
0.0
1001
ACAD
1000
MTEXTBEGIN
1070
    73
1070
     1
1070
    44
1040
1.0
1070
    74
1070
     0
1000
MTEXTEND
  0
MTEXT
  5
35B
330
1F
100
AcDbEntity
  8
0
100
AcDbMText
 10
16.69586054338777
 20
26.66888294715514
 30
0.0
 40
1.0
 41
1.986045834868433
 46
0.0
 71
     1
 72
     5
  1
{\fArial|b0|i0|c134|p34;IO23}
 11
0.0000000000000001
 21
1.0
 31
0.0
 73
     1
 44
1.0
101
Embedded Object
 70
     1
 10
0.0000000000000001
 20
1.0
 30
0.0
 11
16.69586054338777
 21
26.66888294715514
 31
0.0
 40
1.986045834868433
 41
0.0
 42
2.834924965893587
 43
1.035470668485675
 71
     2
 72
     1
 44
1.986045834868433
 45
12.5
 73
     0
 74
     0
 46
0.0
1001
ACAD
1000
MTEXTBEGIN
1070
    73
1070
     1
1070
    44
1040
1.0
1070
    74
1070
     0
1000
MTEXTEND
  0
MTEXT
  5
35C
330
1F
100
AcDbEntity
  8
0
100
AcDbMText
 10
15.3950425686736
 20
26.63766018336046
 30
0.0
 40
1.0
 41
1.986045834868433
 46
0.0
 71
     1
 72
     5
  1
{\fArial|b0|i0|c134|p34;IO24}
 11
0.0000000000000001
 21
1.0
 31
0.0
 73
     1
 44
1.0
101
Embedded Object
 70
     1
 10
0.0000000000000001
 20
1.0
 30
0.0
 11
15.3950425686736
 21
26.63766018336046
 31
0.0
 40
1.986045834868433
 41
0.0
 42
2.830832196452933
 43
1.034788540245566
 71
     2
 72
     1
 44
1.986045834868433
 45
12.5
 73
     0
 74
     0
 46
0.0
1001
ACAD
1000
MTEXTBEGIN
1070
    73
1070
     1
1070
    44
1040
1.0
1070
    74
1070
     0
1000
MTEXTEND
  0
MTEXT
  5
35D
330
1F
100
AcDbEntity
  8
0
100
AcDbMText
 10
14.17583148965346
 20
26.6379986842571
 30
0.0
 40
1.0
 41
1.986045834868433
 46
0.0
 71
     1
 72
     5
  1
{\fArial|b0|i0|c134|p34;IO25}
 11
0.0000000000000001
 21
1.0
 31
0.0
 73
     1
 44
1.0
101
Embedded Object
 70
     1
 10
0.0000000000000001
 20
1.0
 30
0.0
 11
14.17583148965346
 21
26.6379986842571
 31
0.0
 40
1.986045834868433
 41
0.0
 42
2.842428376534788
 43
1.034788540245566
 71
     2
 72
     1
 44
1.986045834868433
 45
12.5
 73
     0
 74
     0
 46
0.0
1001
ACAD
1000
MTEXTBEGIN
1070
    73
1070
     1
1070
    44
1040
1.0
1070
    74
1070
     0
1000
MTEXTEND
  0
MTEXT
  5
35E
330
1F
100
AcDbEntity
  8
0
100
AcDbMText
 10
12.81731486924312
 20
26.61220568218168
 30
0.0
 40
1.0
 41
1.986045834868433
 46
0.0
 71
     1
 72
     5
  1
{\fArial|b0|i0|c134|p34;IO26}
 11
0.0000000000000001
 21
1.0
 31
0.0
 73
     1
 44
1.0
101
Embedded Object
 70
     1
 10
0.0000000000000001
 20
1.0
 30
0.0
 11
12.81731486924312
 21
26.61220568218168
 31
0.0
 40
1.986045834868433
 41
0.0
 42
2.834242837653478
 43
1.034788540245566
 71
     2
 72
     1
 44
1.986045834868433
 45
12.5
 73
     0
 74
     0
 46
0.0
1001
ACAD
1000
MTEXTBEGIN
1070
    73
1070
     1
1070
    44
1040
1.0
1070
    74
1070
     0
1000
MTEXTEND
  0
MTEXT
  5
35F
330
1F
100
AcDbEntity
  8
0
100
AcDbMText
 10
11.59810379022298
 20
26.61254418307832
 30
0.0
 40
1.0
 41
1.986045834868433
 46
0.0
 71
     1
 72
     5
  1
{\fArial|b0|i0|c134|p34;IO27}
 11
0.0000000000000001
 21
1.0
 31
0.0
 73
     1
 44
1.0
101
Embedded Object
 70
     1
 10
0.0000000000000001
 20
1.0
 30
0.0
 11
11.59810379022298
 21
26.61254418307832
 31
0.0
 40
1.986045834868433
 41
0.0
 42
2.834924965893587
 43
1.034788540245566
 71
     2
 72
     1
 44
1.986045834868433
 45
12.5
 73
     0
 74
     0
 46
0.0
1001
ACAD
1000
MTEXTBEGIN
1070
    73
1070
     1
1070
    44
1040
1.0
1070
    74
1070
     0
1000
MTEXTEND
  0
MTEXT
  5
360
330
1F
100
AcDbEntity
  8
0
100
AcDbMText
 10
10.29728581550881
 20
26.58132141928363
 30
0.0
 40
1.0
 41
1.986045834868433
 46
0.0
 71
     1
 72
     5
  1
{\fArial|b0|i0|c134|p34;IO28}
 11
0.0000000000000001
 21
1.0
 31
0.0
 73
     1
 44
1.0
101
Embedded Object
 70
     1
 10
0.0000000000000001
 20
1.0
 30
0.0
 11
10.29728581550881
 21
26.58132141928363
 31
0.0
 40
1.986045834868433
 41
0.0
 42
2.836971350613915
 43
1.034788540245566
 71
     2
 72
     1
 44
1.986045834868433
 45
12.5
 73
     0
 74
     0
 46
0.0
1001
ACAD
1000
MTEXTBEGIN
1070
    73
1070
     1
1070
    44
1040
1.0
1070
    74
1070
     0
1000
MTEXTEND
  0
MTEXT
  5
361
330
1F
100
AcDbEntity
  8
0
100
AcDbMText
 10
9.078074736488671
 20
26.58165992018028
 30
0.0
 40
1.0
 41
1.986045834868433
 46
0.0
 71
     1
 72
     5
  1
{\fArial|b0|i0|c134|p34;IO29}
 11
0.0000000000000001
 21
1.0
 31
0.0
 73
     1
 44
1.0
101
Embedded Object
 70
     1
 10
0.0000000000000001
 20
1.0
 30
0.0
 11
9.078074736488671
 21
26.58165992018028
 31
0.0
 40
1.986045834868433
 41
0.0
 42
2.836971350613915
 43
1.034788540245566
 71
     2
 72
     1
 44
1.986045834868433
 45
12.5
 73
     0
 74
     0
 46
0.0
1001
ACAD
1000
MTEXTBEGIN
1070
    73
1070
     1
1070
    44
1040
1.0
1070
    74
1070
     0
1000
MTEXTEND
  0
MTEXT
  5
362
330
1F
100
AcDbEntity
  8
0
100
AcDbMText
 10
7.813642779881205
 20
26.58649268531148
 30
0.0
 40
1.0
 41
1.986045834868433
 46
0.0
 71
     1
 72
     5
  1
{\fArial|b0|i0|c134|p34;IO30}
 11
0.0000000000000001
 21
1.0
 31
0.0
 73
     1
 44
1.0
101
Embedded Object
 70
     1
 10
0.0000000000000001
 20
1.0
 30
0.0
 11
7.813642779881205
 21
26.58649268531148
 31
0.0
 40
1.986045834868433
 41
0.0
 42
2.831514324693042
 43
1.035470668485675
 71
     2
 72
     1
 44
1.986045834868433
 45
12.5
 73
     0
 74
     0
 46
0.0
1001
ACAD
1000
MTEXTBEGIN
1070
    73
1070
     1
1070
    44
1040
1.0
1070
    74
1070
     0
1000
MTEXTEND
  0
MTEXT
  5
363
330
1F
100
AcDbEntity
  8
0
100
AcDbMText
 10
6.594431700861065
 20
26.58683118620812
 30
0.0
 40
1.0
 41
1.986045834868433
 46
0.0
 71
     1
 72
     5
  1
{\fArial|b0|i0|c134|p34;IO31}
 11
0.0000000000000001
 21
1.0
 31
0.0
 73
     1
 44
1.0
101
Embedded Object
 70
     1
 10
0.0000000000000001
 20
1.0
 30
0.0
 11
6.594431700861065
 21
26.58683118620812
 31
0.0
 40
1.986045834868433
 41
0.0
 42
2.641882673942701
 43
1.035470668485675
 71
     2
 72
     1
 44
1.986045834868433
 45
12.5
 73
     0
 74
     0
 46
0.0
1001
ACAD
1000
MTEXTBEGIN
1070
    73
1070
     1
1070
    44
1040
1.0
1070
    74
1070
     0
1000
MTEXTEND
  0
MTEXT
  5
364
330
1F
100
AcDbEntity
  8
0
100
AcDbMText
 10
5.293613726146901
 20
26.55560842241343
 30
0.0
 40
1.0
 41
1.986045834868433
 46
0.0
 71
     1
 72
     5
  1
{\fArial|b0|i0|c134|p34;IO32}
 11
0.0000000000000001
 21
1.0
 31
0.0
 73
     1
 44
1.0
101
Embedded Object
 70
     1
 10
0.0000000000000001
 20
1.0
 30
0.0
 11
5.293613726146901
 21
26.55560842241343
 31
0.0
 40
1.986045834868433
 41
0.0
 42
2.82469304229195
 43
1.035470668485675
 71
     2
 72
     1
 44
1.986045834868433
 45
12.5
 73
     0
 74
     0
 46
0.0
1001
ACAD
1000
MTEXTBEGIN
1070
    73
1070
     1
1070
    44
1040
1.0
1070
    74
1070
     0
1000
MTEXTEND
  0
MTEXT
  5
365
330
1F
100
AcDbEntity
  8
0
100
AcDbMText
 10
4.07440264712676
 20
26.55594692331008
 30
0.0
 40
1.0
 41
1.986045834868433
 46
0.0
 71
     1
 72
     5
  1
{\fArial|b0|i0|c134|p34;IO33}
 11
0.0000000000000001
 21
1.0
 31
0.0
 73
     1
 44
1.0
101
Embedded Object
 70
     1
 10
0.0000000000000001
 20
1.0
 30
0.0
 11
4.07440264712676
 21
26.55594692331008
 31
0.0
 40
1.986045834868433
 41
0.0
 42
2.834924965893587
 43
1.035470668485675
 71
     2
 72
     1
 44
1.986045834868433
 45
12.5
 73
     0
 74
     0
 46
0.0
1001
ACAD
1000
MTEXTBEGIN
1070
    73
1070
     1
1070
    44
1040
1.0
1070
    74
1070
     0
1000
MTEXTEND
  0
MTEXT
  5
366
330
1F
100
AcDbEntity
  8
0
100
AcDbMText
 10
2.650538426092708
 20
26.53572679085622
 30
0.0
 40
1.0
 41
1.986045834868433
 46
0.0
 71
     1
 72
     5
  1
{\fArial|b0|i0|c134|p34;IO34}
 11
0.0000000000000001
 21
1.0
 31
0.0
 73
     1
 44
1.0
101
Embedded Object
 70
     1
 10
0.0000000000000001
 20
1.0
 30
0.0
 11
2.650538426092708
 21
26.53572679085622
 31
0.0
 40
1.986045834868433
 41
0.0
 42
2.830832196452933
 43
1.035470668485675
 71
     2
 72
     1
 44
1.986045834868433
 45
12.5
 73
     0
 74
     0
 46
0.0
1001
ACAD
1000
MTEXTBEGIN
1070
    73
1070
     1
1070
    44
1040
1.0
1070
    74
1070
     0
1000
MTEXTEND
  0
MTEXT
  5
367
330
1F
100
AcDbEntity
  8
0
100
AcDbMText
 10
1.431327347072566
 20
26.53606529175287
 30
0.0
 40
1.0
 41
1.986045834868433
 46
0.0
 71
     1
 72
     5
  1
{\fArial|b0|i0|c134|p34;IO35}
 11
0.0000000000000001
 21
1.0
 31
0.0
 73
     1
 44
1.0
101
Embedded Object
 70
     1
 10
0.0000000000000001
 20
1.0
 30
0.0
 11
1.431327347072566
 21
26.53606529175287
 31
0.0
 40
1.986045834868433
 41
0.0
 42
2.842428376534788
 43
1.035470668485675
 71
     2
 72
     1
 44
1.986045834868433
 45
12.5
 73
     0
 74
     0
 46
0.0
1001
ACAD
1000
MTEXTBEGIN
1070
    73
1070
     1
1070
    44
1040
1.0
1070
    74
1070
     0
1000
MTEXTEND
  0
MTEXT
  5
3FC
330
1F
100
AcDbEntity
  8
0
100
AcDbMText
 10
22.9874866631636
 20
-6.226600041408743
 30
0.0
 40
1.0
 41
1.986045834868433
 46
0.0
 71
     1
 72
     5
  1
{\fArial|b0|i0|c134|p34;GND}
 11
0.0000000000000001
 21
1.0
 31
0.0
 73
     1
 44
1.0
101
Embedded Object
 70
     1
 10
0.0000000000000001
 20
1.0
 30
0.0
 11
22.9874866631636
 21
-6.226600041408743
 31
0.0
 40
1.986045834868433
 41
0.0
 42
2.955661664392905
 43
1.034106412005456
 71
     2
 72
     1
 44
1.986045834868433
 45
12.5
 73
     0
 74
     0
 46
0.0
1001
ACAD
1000
MTEXTBEGIN
1070
    73
1070
     1
1070
    44
1040
1.0
1070
    74
1070
     0
1000
MTEXTEND
  0
MTEXT
  5
3FD
330
1F
100
AcDbEntity
  8
0
100
AcDbMText
 10
21.76827558414345
 20
-6.226261540512092
 30
0.0
 40
1.0
 41
1.986045834868433
 46
0.0
 71
     1
 72
     5
  1
{\fArial|b0|i0|c134|p34;DVP_D0}
 11
0.0000000000000001
 21
1.0
 31
0.0
 73
     1
 44
1.0
101
Embedded Object
 70
     1
 10
0.0000000000000001
 20
1.0
 30
0.0
 11
21.76827558414345
 21
-6.226261540512092
 31
0.0
 40
1.986045834868433
 41
0.0
 42
5.260572987721691
 43
1.281718963165075
 71
     2
 72
     1
 44
1.986045834868433
 45
12.5
 73
     0
 74
     0
 46
0.0
1001
ACAD
1000
MTEXTBEGIN
1070
    73
1070
     1
1070
    44
1040
1.0
1070
    74
1070
     0
1000
MTEXTEND
  0
MTEXT
  5
3FE
330
1F
100
AcDbEntity
  8
0
100
AcDbMText
 10
20.46745760942929
 20
-6.257484304306782
 30
0.0
 40
1.0
 41
1.986045834868433
 46
0.0
 71
     1
 72
     5
  1
{\fArial|b0|i0|c134|p34;DVP_D1}
 11
0.0000000000000001
 21
1.0
 31
0.0
 73
     1
 44
1.0
101
Embedded Object
 70
     1
 10
0.0000000000000001
 20
1.0
 30
0.0
 11
20.46745760942929
 21
-6.257484304306782
 31
0.0
 40
1.986045834868433
 41
0.0
 42
5.070941336971351
 43
1.281718963165075
 71
     2
 72
     1
 44
1.986045834868433
 45
12.5
 73
     0
 74
     0
 46
0.0
1001
ACAD
1000
MTEXTBEGIN
1070
    73
1070
     1
1070
    44
1040
1.0
1070
    74
1070
     0
1000
MTEXTEND
  0
MTEXT
  5
3FF
330
1F
100
AcDbEntity
  8
0
100
AcDbMText
 10
19.24824653040914
 20
-6.257145803410137
 30
0.0
 40
1.0
 41
1.0
 46
0.0
 71
     1
 72
     5
  1
{\fArial|b0|i0|c134|p34;DVP_D2}
 11
0.0000000000000001
 21
1.0
 31
0.0
 73
     1
 44
1.0
101
Embedded Object
 70
     1
 10
0.0000000000000001
 20
1.0
 30
0.0
 11
19.24824653040914
 21
-6.257145803410137
 31
0.0
 40
1.0
 41
0.0
 42
5.2537517053206
 43
1.281718963165075
 71
     2
 72
     1
 44
1.0
 45
12.5
 73
     0
 74
     0
 46
0.0
1001
ACAD
1000
MTEXTBEGIN
1070
    73
1070
     1
1070
    44
1040
1.0
1070
    74
1070
     0
1000
MTEXTEND
  0
MTEXT
  5
400
330
1F
100
AcDbEntity
  8
0
100
AcDbMText
 10
17.98381457380168
 20
-6.252313038278937
 30
0.0
 40
1.0
 41
1.986045834868433
 46
0.0
 71
     1
 72
     5
  1
{\fArial|b0|i0|c134|p34;DVP_D3}
 11
0.0000000000000001
 21
1.0
 31
0.0
 73
     1
 44
1.0
101
Embedded Object
 70
     1
 10
0.0000000000000001
 20
1.0
 30
0.0
 11
17.98381457380168
 21
-6.252313038278937
 31
0.0
 40
1.986045834868433
 41
0.0
 42
5.263983628922237
 43
1.281718963165075
 71
     2
 72
     1
 44
1.986045834868433
 45
12.5
 73
     0
 74
     0
 46
0.0
1001
ACAD
1000
MTEXTBEGIN
1070
    73
1070
     1
1070
    44
1040
1.0
1070
    74
1070
     0
1000
MTEXTEND
  0
MTEXT
  5
401
330
1F
100
AcDbEntity
  8
0
100
AcDbMText
 10
16.76460349478154
 20
-6.251974537382293
 30
0.0
 40
1.0
 41
1.986045834868433
 46
0.0
 71
     1
 72
     5
  1
{\fArial|b0|i0|c134|p34;DVP_D4}
 11
0.0000000000000001
 21
1.0
 31
0.0
 73
     1
 44
1.0
101
Embedded Object
 70
     1
 10
0.0000000000000001
 20
1.0
 30
0.0
 11
16.76460349478154
 21
-6.251974537382293
 31
0.0
 40
1.986045834868433
 41
0.0
 42
5.259890859481583
 43
1.27762619372442
 71
     2
 72
     1
 44
1.986045834868433
 45
12.5
 73
     0
 74
     0
 46
0.0
1001
ACAD
1000
MTEXTBEGIN
1070
    73
1070
     1
1070
    44
1040
1.0
1070
    74
1070
     0
1000
MTEXTEND
  0
MTEXT
  5
402
330
1F
100
AcDbEntity
  8
0
100
AcDbMText
 10
15.46378552006737
 20
-6.283197301176977
 30
0.0
 40
1.0
 41
1.986045834868433
 46
0.0
 71
     1
 72
     5
  1
{\fArial|b0|i0|c134|p34;DVP_D5}
 11
0.0000000000000001
 21
1.0
 31
0.0
 73
     1
 44
1.0
101
Embedded Object
 70
     1
 10
0.0000000000000001
 20
1.0
 30
0.0
 11
15.46378552006737
 21
-6.283197301176977
 31
0.0
 40
1.986045834868433
 41
0.0
 42
5.271487039563438
 43
1.27762619372442
 71
     2
 72
     1
 44
1.986045834868433
 45
12.5
 73
     0
 74
     0
 46
0.0
1001
ACAD
1000
MTEXTBEGIN
1070
    73
1070
     1
1070
    44
1040
1.0
1070
    74
1070
     0
1000
MTEXTEND
  0
MTEXT
  5
403
330
1F
100
AcDbEntity
  8
0
100
AcDbMText
 10
14.24457444104723
 20
-6.282858800280332
 30
0.0
 40
1.0
 41
1.986045834868433
 46
0.0
 71
     1
 72
     5
  1
{\fArial|b0|i0|c134|p34;DVP_D6}
 11
0.0000000000000001
 21
1.0
 31
0.0
 73
     1
 44
1.0
101
Embedded Object
 70
     1
 10
0.0000000000000001
 20
1.0
 30
0.0
 11
14.24457444104723
 21
-6.282858800280332
 31
0.0
 40
1.986045834868433
 41
0.0
 42
5.263301500682128
 43
1.281718963165075
 71
     2
 72
     1
 44
1.986045834868433
 45
12.5
 73
     0
 74
     0
 46
0.0
1001
ACAD
1000
MTEXTBEGIN
1070
    73
1070
     1
1070
    44
1040
1.0
1070
    74
1070
     0
1000
MTEXTEND
  0
MTEXT
  5
404
330
1F
100
AcDbEntity
  8
0
100
AcDbMText
 10
12.88605782063689
 20
-6.308651802355765
 30
0.0
 40
1.0
 41
1.986045834868433
 46
0.0
 71
     1
 72
     5
  1
{\fArial|b0|i0|c134|p34;DVP_D7}
 11
0.0000000000000001
 21
1.0
 31
0.0
 73
     1
 44
1.0
101
Embedded Object
 70
     1
 10
0.0000000000000001
 20
1.0
 30
0.0
 11
12.88605782063689
 21
-6.308651802355765
 31
0.0
 40
1.986045834868433
 41
0.0
 42
5.263983628922237
 43
1.27762619372442
 71
     2
 72
     1
 44
1.986045834868433
 45
12.5
 73
     0
 74
     0
 46
0.0
1001
ACAD
1000
MTEXTBEGIN
1070
    73
1070
     1
1070
    44
1040
1.0
1070
    74
1070
     0
1000
MTEXTEND
  0
MTEXT
  5
405
330
1F
100
AcDbEntity
  8
0
100
AcDbMText
 10
11.66684674161675
 20
-6.308313301459119
 30
0.0
 40
1.0
 41
1.986045834868433
 46
0.0
 71
     1
 72
     5
  1
{\fArial|b0|i0|c134|p34;SPI0_D0}
 11
0.0000000000000001
 21
1.0
 31
0.0
 73
     1
 44
1.0
101
Embedded Object
 70
     1
 10
0.0000000000000001
 20
1.0
 30
0.0
 11
11.66684674161675
 21
-6.308313301459119
 31
0.0
 40
1.986045834868433
 41
0.0
 42
5.461800818553887
 43
1.294679399727148
 71
     2
 72
     1
 44
1.986045834868433
 45
12.5
 73
     0
 74
     0
 46
0.0
1001
ACAD
1000
MTEXTBEGIN
1070
    73
1070
     1
1070
    44
1040
1.0
1070
    74
1070
     0
1000
MTEXTEND
  0
MTEXT
  5
406
330
1F
100
AcDbEntity
  8
0
100
AcDbMText
 10
10.36602876690259
 20
-6.339536065253805
 30
0.0
 40
1.0
 41
1.986045834868433
 46
0.0
 71
     1
 72
     5
  1
{\fArial|b0|i0|c134|p34;SPI0_D1}
 11
0.0000000000000001
 21
1.0
 31
0.0
 73
     1
 44
1.0
101
Embedded Object
 70
     1
 10
0.0000000000000001
 20
1.0
 30
0.0
 11
10.36602876690259
 21
-6.339536065253805
 31
0.0
 40
1.986045834868433
 41
0.0
 42
5.272169167803546
 43
1.294679399727148
 71
     2
 72
     1
 44
1.986045834868433
 45
12.5
 73
     0
 74
     0
 46
0.0
1001
ACAD
1000
MTEXTBEGIN
1070
    73
1070
     1
1070
    44
1040
1.0
1070
    74
1070
     0
1000
MTEXTEND
  0
MTEXT
  5
407
330
1F
100
AcDbEntity
  8
0
100
AcDbMText
 10
9.146817687882444
 20
-6.33919756435716
 30
0.0
 40
1.0
 41
1.986045834868433
 46
0.0
 71
     1
 72
     5
  1
{\fArial|b0|i0|c134|p34;SPI0_D2}
 11
0.0000000000000001
 21
1.0
 31
0.0
 73
     1
 44
1.0
101
Embedded Object
 70
     1
 10
0.0000000000000001
 20
1.0
 30
0.0
 11
9.146817687882444
 21
-6.33919756435716
 31
0.0
 40
1.986045834868433
 41
0.0
 42
5.454979536152796
 43
1.294679399727148
 71
     2
 72
     1
 44
1.986045834868433
 45
12.5
 73
     0
 74
     0
 46
0.0
1001
ACAD
1000
MTEXTBEGIN
1070
    73
1070
     1
1070
    44
1040
1.0
1070
    74
1070
     0
1000
MTEXTEND
  0
MTEXT
  5
408
330
1F
100
AcDbEntity
  8
0
100
AcDbMText
 10
7.882385731274977
 20
-6.334364799225963
 30
0.0
 40
1.0
 41
1.986045834868433
 46
0.0
 71
     1
 72
     5
  1
{\fArial|b0|i0|c134|p34;SPI0_D3}
 11
0.0000000000000001
 21
1.0
 31
0.0
 73
     1
 44
1.0
101
Embedded Object
 70
     1
 10
0.0000000000000001
 20
1.0
 30
0.0
 11
7.882385731274977
 21
-6.334364799225963
 31
0.0
 40
1.986045834868433
 41
0.0
 42
5.465211459754433
 43
1.294679399727148
 71
     2
 72
     1
 44
1.986045834868433
 45
12.5
 73
     0
 74
     0
 46
0.0
1001
ACAD
1000
MTEXTBEGIN
1070
    73
1070
     1
1070
    44
1040
1.0
1070
    74
1070
     0
1000
MTEXTEND
  0
MTEXT
  5
409
330
1F
100
AcDbEntity
  8
0
100
AcDbMText
 10
6.663174652254837
 20
-6.334026298329316
 30
0.0
 40
1.0
 41
1.986045834868433
 46
0.0
 71
     1
 72
     5
  1
{\fArial|b0|i0|c134|p34;SPI0_D4}
 11
0.0000000000000001
 21
1.0
 31
0.0
 73
     1
 44
1.0
101
Embedded Object
 70
     1
 10
0.0000000000000001
 20
1.0
 30
0.0
 11
6.663174652254837
 21
-6.334026298329316
 31
0.0
 40
1.986045834868433
 41
0.0
 42
5.461118690313778
 43
1.294679399727148
 71
     2
 72
     1
 44
1.986045834868433
 45
12.5
 73
     0
 74
     0
 46
0.0
1001
ACAD
1000
MTEXTBEGIN
1070
    73
1070
     1
1070
    44
1040
1.0
1070
    74
1070
     0
1000
MTEXTEND
  0
MTEXT
  5
40A
330
1F
100
AcDbEntity
  8
0
100
AcDbMText
 10
5.362356677540673
 20
-6.365249062124004
 30
0.0
 40
1.0
 41
1.986045834868433
 46
0.0
 71
     1
 72
     5
  1
{\fArial|b0|i0|c134|p34;SPI0_D5}
 11
0.0000000000000001
 21
1.0
 31
0.0
 73
     1
 44
1.0
101
Embedded Object
 70
     1
 10
0.0000000000000001
 20
1.0
 30
0.0
 11
5.362356677540673
 21
-6.365249062124004
 31
0.0
 40
1.986045834868433
 41
0.0
 42
5.472714870395633
 43
1.294679399727148
 71
     2
 72
     1
 44
1.986045834868433
 45
12.5
 73
     0
 74
     0
 46
0.0
1001
ACAD
1000
MTEXTBEGIN
1070
    73
1070
     1
1070
    44
1040
1.0
1070
    74
1070
     0
1000
MTEXTEND
  0
MTEXT
  5
40B
330
1F
100
AcDbEntity
  8
0
100
AcDbMText
 10
4.143145598520533
 20
-6.364910561227357
 30
0.0
 40
1.0
 41
1.986045834868433
 46
0.0
 71
     1
 72
     5
  1
{\fArial|b0|i0|c134|p34;SPI0_D6}
 11
0.0000000000000001
 21
1.0
 31
0.0
 73
     1
 44
1.0
101
Embedded Object
 70
     1
 10
0.0000000000000001
 20
1.0
 30
0.0
 11
4.143145598520533
 21
-6.364910561227357
 31
0.0
 40
1.986045834868433
 41
0.0
 42
5.464529331514324
 43
1.294679399727148
 71
     2
 72
     1
 44
1.986045834868433
 45
12.5
 73
     0
 74
     0
 46
0.0
1001
ACAD
1000
MTEXTBEGIN
1070
    73
1070
     1
1070
    44
1040
1.0
1070
    74
1070
     0
1000
MTEXTEND
  0
MTEXT
  5
40C
330
1F
100
AcDbEntity
  8
0
100
AcDbMText
 10
2.719281377486481
 20
-6.385130693681214
 30
0.0
 40
1.0
 41
1.986045834868433
 46
0.0
 71
     1
 72
     5
  1
{\fArial|b0|i0|c134|p34;SPI0_D7}
 11
0.0000000000000001
 21
1.0
 31
0.0
 73
     1
 44
1.0
101
Embedded Object
 70
     1
 10
0.0000000000000001
 20
1.0
 30
0.0
 11
2.719281377486481
 21
-6.385130693681214
 31
0.0
 40
1.986045834868433
 41
0.0
 42
5.465211459754433
 43
1.294679399727148
 71
     2
 72
     1
 44
1.986045834868433
 45
12.5
 73
     0
 74
     0
 46
0.0
1001
ACAD
1000
MTEXTBEGIN
1070
    73
1070
     1
1070
    44
1040
1.0
1070
    74
1070
     0
1000
MTEXTEND
  0
MTEXT
  5
40D
330
1F
100
AcDbEntity
  8
0
100
AcDbMText
 10
1.50007029846634
 20
-6.384792192784567
 30
0.0
 40
1.0
 41
1.986045834868433
 46
0.0
 71
     1
 72
     5
  1
{\fArial|b0|i0|c134|p34;RST}
 11
0.0000000000000001
 21
1.0
 31
0.0
 73
     1
 44
1.0
101
Embedded Object
 70
     1
 10
0.0000000000000001
 20
1.0
 30
0.0
 11
1.50007029846634
 21
-6.384792192784567
 31
0.0
 40
1.986045834868433
 41
0.0
 42
2.656207366984992
 43
1.034106412005456
 71
     2
 72
     1
 44
1.986045834868433
 45
12.5
 73
     0
 74
     0
 46
0.0
1001
ACAD
1000
MTEXTBEGIN
1070
    73
1070
     1
1070
    44
1040
1.0
1070
    74
1070
     0
1000
MTEXTEND
  0
MTEXT
  5
491
330
1F
100
AcDbEntity
  8
0
100
AcDbMText
 10
17.70293959948262
 20
9.828932171578976
 30
0.0
 40
1.0
 41
9.211477960595344
 46
0.0
 71
     1
 72
     5
  1
{\fArial|b0|i0|c134|p34;GND}
 73
     1
 44
1.0
101
Embedded Object
 70
     1
 10
1.0
 20
0.0
 30
0.0
 11
17.70293959948262
 21
9.828932171578976
 31
0.0
 40
9.211477960595344
 41
0.0
 42
2.955661664392905
 43
1.034106412005456
 71
     2
 72
     1
 44
9.211477960595344
 45
12.5
 73
     0
 74
     0
 46
0.0
1001
ACAD
1000
MTEXTBEGIN
1070
    73
1070
     1
1070
    44
1040
1.0
1070
    74
1070
     0
1000
MTEXTEND
  0
MTEXT
  5
54F
330
1F
100
AcDbEntity
  8
0
100
AcDbMText
 10
-7.291936813271802
 20
-8.234644217326945
 30
0.0
 40
1.0
 41
47.059989794214
 46
0.0
 71
     1
 72
     5
  1
{\fSimSun|b0|i0|c134|p2;}
 73
     1
 44
1.0
101
Embedded Object
 70
     1
 10
1.0
 20
0.0
 30
0.0
 11
-7.291936813271802
 21
-8.234644217326945
 31
0.0
 40
47.059989794214
 41
0.0
 42
45.62569832402235
 43
1.324022346368715
 71
     2
 72
     1
 44
47.059989794214
 45
12.5
 73
     0
 74
     0
 46
0.0
1001
ACAD
1000
MTEXTBEGIN
1070
    73
1070
     1
1070
    44
1040
1.0
1070
    74
1070
     0
1000
MTEXTEND
  0
MTEXT
  5
657
330
1F
100
AcDbEntity
  8
0
100
AcDbMText
 10
-7.259482498690231
 20
-10.99210953197986
 30
0.0
 40
1.0
 41
47.059989794214
 46
0.0
 71
     1
 72
     5
  1
{\fSimSun|b0|i0|c134|p2;0.5mm}
 73
     1
 44
1.0
101
Embedded Object
 70
     1
 10
1.0
 20
0.0
 30
0.0
 11
-7.259482498690231
 21
-10.99210953197986
 31
0.0
 40
47.059989794214
 41
0.0
 42
37.78212290502793
 43
1.318435754189944
 71
     2
 72
     1
 44
47.059989794214
 45
12.5
 73
     0
 74
     0
 46
0.0
  0
ENDSEC
  0
SECTION
  2
OBJECTS
  0
DICTIONARY
  5
C
330
0
100
AcDbDictionary
281
     1
  3
ACAD_BACKGROUND
350
1DD
  3
ACAD_CIP_PREVIOUS_PRODUCT_INFO
350
1DC
  3
ACAD_COLOR
350
1D5
  3
ACAD_DETAILVIEWSTYLE
350
1D8
  3
ACAD_GROUP
350
D
  3
ACAD_LAYOUT
350
1A
  3
ACAD_MATERIAL
350
43
  3
ACAD_MLEADERSTYLE
350
6B
  3
ACAD_MLINESTYLE
350
17
  3
ACAD_PLOTSETTINGS
350
19
  3
ACAD_PLOTSTYLENAME
350
E
  3
ACAD_SCALELIST
350
47
  3
ACAD_SECTIONVIEWSTYLE
350
1D6
  3
ACAD_TABLESTYLE
350
69
  3
ACAD_VISUALSTYLE
350
2A
  3
ACDB_RECOMPOSE_DATA
350
65D
  3
AcDbVariableDictionary
350
18D
  0
DICTIONARY
  5
234
330
10
100
AcDbDictionary
280
     1
281
     1
  3
ADSK_XREC_LAYER_RECONCILED
360
235
  0
DICTIONARY
  5
236
330
6E
100
AcDbDictionary
280
     1
281
     1
  3
ADSK_XREC_LAYER_RECONCILED
360
237
  0
DICTIONARY
  5
238
330
6F
100
AcDbDictionary
280
     1
281
     1
  3
ADSK_XREC_LAYER_RECONCILED
360
239
  0
DICTIONARY
  5
23A
330
70
100
AcDbDictionary
280
     1
281
     1
  3
ADSK_XREC_LAYER_RECONCILED
360
23B
  0
DICTIONARY
  5
23C
330
71
100
AcDbDictionary
280
     1
281
     1
  3
ADSK_XREC_LAYER_RECONCILED
360
23D
  0
DICTIONARY
  5
23E
330
72
100
AcDbDictionary
280
     1
281
     1
  3
ADSK_XREC_LAYER_RECONCILED
360
23F
  0
DICTIONARY
  5
240
330
73
100
AcDbDictionary
280
     1
281
     1
  3
ADSK_XREC_LAYER_RECONCILED
360
241
  0
DICTIONARY
  5
242
330
74
100
AcDbDictionary
280
     1
281
     1
  3
ADSK_XREC_LAYER_RECONCILED
360
243
  0
DICTIONARY
  5
244
330
75
100
AcDbDictionary
280
     1
281
     1
  3
ADSK_XREC_LAYER_RECONCILED
360
245
  0
DICTIONARY
  5
246
330
76
100
AcDbDictionary
280
     1
281
     1
  3
ADSK_XREC_LAYER_RECONCILED
360
247
  0
DICTIONARY
  5
248
330
77
100
AcDbDictionary
280
     1
281
     1
  3
ADSK_XREC_LAYER_RECONCILED
360
249
  0
DICTIONARY
  5
1DD
102
{ACAD_REACTORS
330
C
102
}
330
C
100
AcDbDictionary
281
     1
  0
XRECORD
  5
1DC
102
{ACAD_REACTORS
330
C
102
}
330
C
100
AcDbXrecord
280
     1
300
ACD
300
2019
300

  0
DICTIONARY
  5
1D5
102
{ACAD_REACTORS
330
C
102
}
330
C
100
AcDbDictionary
281
     1
  0
DICTIONARY
  5
1D8
102
{ACAD_REACTORS
330
C
102
}
330
C
100
AcDbDictionary
281
     1
  3
Metric50
350
1D9
  0
DICTIONARY
  5
D
102
{ACAD_REACTORS
330
C
102
}
330
C
100
AcDbDictionary
281
     1
  0
DICTIONARY
  5
1A
102
{ACAD_REACTORS
330
C
102
}
330
C
100
AcDbDictionary
281
     1
  3
Layout1
350
1E
  3
Layout2
350
26
  3
Model
350
22
  0
DICTIONARY
  5
43
102
{ACAD_REACTORS
330
C
102
}
330
C
100
AcDbDictionary
281
     1
  3
ByBlock
350
45
  3
ByLayer
350
44
  3
Global
350
46
  0
DICTIONARY
  5
6B
102
{ACAD_REACTORS
330
C
102
}
330
C
100
AcDbDictionary
281
     1
  3
Standard
350
6C
  0
DICTIONARY
  5
17
102
{ACAD_REACTORS
330
C
102
}
330
C
100
AcDbDictionary
281
     1
  3
Standard
350
18
  0
DICTIONARY
  5
19
102
{ACAD_REACTORS
330
C
102
}
330
C
100
AcDbDictionary
281
     1
  0
ACDBDICTIONARYWDFLT
  5
E
102
{ACAD_REACTORS
330
C
102
}
330
C
100
AcDbDictionary
281
     1
  3
Normal
350
F
100
AcDbDictionaryWithDefault
340
F
  0
DICTIONARY
  5
47
102
{ACAD_REACTORS
330
C
102
}
330
C
100
AcDbDictionary
281
     1
  3
A0
350
48
  3
A1
350
49
  3
A2
350
4A
  3
A3
350
4B
  3
A4
350
4C
  3
A5
350
4D
  3
A6
350
4E
  3
A7
350
4F
  3
A8
350
50
  3
A9
350
51
  3
B0
350
52
  3
B1
350
53
  3
B2
350
54
  3
B3
350
55
  3
B4
350
56
  3
B5
350
57
  3
B6
350
58
  3
B7
350
59
  3
B8
350
5A
  3
B9
350
5B
  3
C0
350
5C
  3
C1
350
5D
  3
C2
350
5E
  3
C3
350
5F
  3
C4
350
60
  3
C5
350
61
  3
C6
350
62
  3
C7
350
63
  3
C8
350
64
  3
C9
350
65
  3
D0
350
66
  3
D1
350
67
  3
D2
350
68
  0
DICTIONARY
  5
1D6
102
{ACAD_REACTORS
330
C
102
}
330
C
100
AcDbDictionary
281
     1
  3
Metric50
350
1D7
  0
DICTIONARY
  5
69
102
{ACAD_REACTORS
330
C
102
}
330
C
100
AcDbDictionary
281
     1
  3
Standard
350
6A
  0
DICTIONARY
  5
2A
102
{ACAD_REACTORS
330
C
102
}
330
C
100
AcDbDictionary
281
     1
  3
2dWireframe
350
2F
  3
Basic
350
32
  3
Brighten
350
36
  3
ColorChange
350
3A
  3
Conceptual
350
34
  3
Dim
350
35
  3
EdgeColorOff
350
3D
  3
Facepattern
350
39
  3
Flat
350
2B
  3
FlatWithEdges
350
2C
  3
Gouraud
350
2D
  3
GouraudWithEdges
350
2E
  3
Hidden
350
31
  3
JitterOff
350
3B
  3
Linepattern
350
38
  3
OverhangOff
350
3C
  3
Realistic
350
33
  3
Shaded
350
42
  3
Shaded with edges
350
41
  3
Shades of Gray
350
3E
  3
Sketchy
350
3F
  3
Thicken
350
37
  3
Wireframe
350
30
  3
X-Ray
350
40
  0
XRECORD
  5
65D
102
{ACAD_REACTORS
330
C
102
}
330
C
100
AcDbXrecord
280
     1
 90
        1
330
6A
  0
DICTIONARY
  5
18D
102
{ACAD_REACTORS
330
C
102
}
330
C
100
AcDbDictionary
281
     1
  3
CANNOSCALE
350
198
  3
CMLEADERSTYLE
350
18F
  3
CTABLESTYLE
350
18E
  3
CVIEWDETAILSTYLE
350
24A
  3
CVIEWSECTIONSTYLE
350
24B
  3
DIMASSOC
350
194
  3
HIDETEXT
350
195
  3
INDEXCTL
350
24D
  3
LAYEREVAL
350
65A
  3
LAYERNOTIFY
350
65B
  3
LIGHTINGUNITS
350
659
  3
MSLTSCALE
350
199
  3
SORTENTS
350
24C
  0
XRECORD
  5
235
102
{ACAD_REACTORS
330
234
102
}
330
234
100
AcDbXrecord
280
     1
290
     1
  0
XRECORD
  5
237
102
{ACAD_REACTORS
330
236
102
}
330
236
100
AcDbXrecord
280
     1
290
     1
  0
XRECORD
  5
239
102
{ACAD_REACTORS
330
238
102
}
330
238
100
AcDbXrecord
280
     1
290
     1
  0
XRECORD
  5
23B
102
{ACAD_REACTORS
330
23A
102
}
330
23A
100
AcDbXrecord
280
     1
290
     1
  0
XRECORD
  5
23D
102
{ACAD_REACTORS
330
23C
102
}
330
23C
100
AcDbXrecord
280
     1
290
     1
  0
XRECORD
  5
23F
102
{ACAD_REACTORS
330
23E
102
}
330
23E
100
AcDbXrecord
280
     1
290
     1
  0
XRECORD
  5
241
102
{ACAD_REACTORS
330
240
102
}
330
240
100
AcDbXrecord
280
     1
290
     1
  0
XRECORD
  5
243
102
{ACAD_REACTORS
330
242
102
}
330
242
100
AcDbXrecord
280
     1
290
     1
  0
XRECORD
  5
245
102
{ACAD_REACTORS
330
244
102
}
330
244
100
AcDbXrecord
280
     1
290
     1
  0
XRECORD
  5
247
102
{ACAD_REACTORS
330
246
102
}
330
246
100
AcDbXrecord
280
     1
290
     1
  0
XRECORD
  5
249
102
{ACAD_REACTORS
330
248
102
}
330
248
100
AcDbXrecord
280
     1
290
     1
  0
ACDBDETAILVIEWSTYLE
  5
1D9
102
{ACAD_REACTORS
330
1D8
102
}
330
1D8
100
AcDbModelDocViewStyle
 70
     0
  3
Metric50
290
     0
300
Metric50
 90
        0
100
AcDbDetailViewStyle
 70
     0
 71
     0
 90
        3
 71
     1
340
11
 62
   256
 40
5.0
340
0
 62
   256
 40
5.0
300

 40
0.0
280
     1
 71
     2
340
16
 90
       25
 62
   256
 71
     3
340
11
 62
   256
 40
5.0
 90
        0
 40
15.0
 90
        1
300
%<\AcVar ViewDetailId>% (%<\AcVar ViewScale \f "%sn">%)
 71
     4
340
16
 90
       25
 62
   256
340
16
 90
       25
 62
   256
280
     0
  0
LAYOUT
  5
1E
102
{ACAD_REACTORS
330
1A
102
}
330
1A
100
AcDbPlotSettings
  1

  2
none_device
  4

  6

 40
0.0
 41
0.0
 42
0.0
 43
0.0
 44
0.0
 45
0.0
 46
0.0
 47
0.0
 48
0.0
 49
0.0
140
0.0
141
0.0
142
1.0
143
1.0
 70
   688
 72
     1
 73
     0
 74
     5
  7

 75
    16
147
1.0
 76
     0
 77
     2
 78
   300
148
0.0
149
0.0
100
AcDbLayout
  1
Layout1
 70
     1
 71
     1
 10
0.0
 20
0.0
 11
420.0
 21
297.0
 12
0.0
 22
0.0
 32
0.0
 14
1.000000000000000E+20
 24
1.000000000000000E+20
 34
1.000000000000000E+20
 15
-1.000000000000000E+20
 25
-1.000000000000000E+20
 35
-1.000000000000000E+20
146
0.0
 13
0.0
 23
0.0
 33
0.0
 16
1.0
 26
0.0
 36
0.0
 17
0.0
 27
1.0
 37
0.0
 76
     0
330
1B
  0
LAYOUT
  5
26
102
{ACAD_REACTORS
330
1A
102
}
330
1A
100
AcDbPlotSettings
  1

  2
none_device
  4

  6

 40
0.0
 41
0.0
 42
0.0
 43
0.0
 44
0.0
 45
0.0
 46
0.0
 47
0.0
 48
0.0
 49
0.0
140
0.0
141
0.0
142
1.0
143
1.0
 70
   688
 72
     1
 73
     0
 74
     5
  7

 75
    16
147
1.0
 76
     0
 77
     2
 78
   300
148
0.0
149
0.0
100
AcDbLayout
  1
Layout2
 70
     1
 71
     2
 10
0.0
 20
0.0
 11
0.0
 21
0.0
 12
0.0
 22
0.0
 32
0.0
 14
0.0
 24
0.0
 34
0.0
 15
0.0
 25
0.0
 35
0.0
146
0.0
 13
0.0
 23
0.0
 33
0.0
 16
1.0
 26
0.0
 36
0.0
 17
0.0
 27
1.0
 37
0.0
 76
     0
330
23
  0
LAYOUT
  5
22
102
{ACAD_REACTORS
330
1A
102
}
330
1A
100
AcDbPlotSettings
  1

  2
none_device
  4
Letter_(8.50_x_11.00_Inches)
  6

 40
6.349999999999998
 41
6.349999999999998
 42
6.350005079999998
 43
6.350005079999998
 44
215.9
 45
279.4
 46
0.0
 47
0.0
 48
0.0
 49
0.0
140
0.0
141
0.0
142
1.0
143
1.0
 70
  1712
 72
     1
 73
     0
 74
     0
  7

 75
     0
147
1.0
 76
     0
 77
     2
 78
   300
148
0.0
149
0.0
100
AcDbLayout
  1
Model
 70
     1
 71
     0
 10
-0.8507984
 20
-1.8001996
 11
27.09859960000001
 21
26.2507984
 12
0.0
 22
0.0
 32
0.0
 14
1.000000000000000E+20
 24
1.000000000000000E+20
 34
1.000000000000000E+20
 15
-1.000000000000000E+20
 25
-1.000000000000000E+20
 35
-1.000000000000000E+20
146
0.0
 13
0.0
 23
0.0
 33
0.0
 16
1.0
 26
0.0
 36
0.0
 17
0.0
 27
1.0
 37
0.0
 76
     0
330
1F
331
29
  0
MATERIAL
  5
45
102
{ACAD_XDICTIONARY
360
1CC
102
}
102
{ACAD_REACTORS
330
43
102
}
330
43
100
AcDbMaterial
  1
ByBlock
  0
MATERIAL
  5
44
102
{ACAD_XDICTIONARY
360
1CA
102
}
102
{ACAD_REACTORS
330
43
102
}
330
43
100
AcDbMaterial
  1
ByLayer
  0
MATERIAL
  5
46
102
{ACAD_XDICTIONARY
360
1CE
102
}
102
{ACAD_REACTORS
330
43
102
}
330
43
100
AcDbMaterial
  1
Global
  0
MLEADERSTYLE
  5
6C
102
{ACAD_REACTORS
330
6B
102
}
330
6B
100
AcDbMLeaderStyle
179
     2
170
     2
171
     1
172
     0
 90
        2
 40
0.0
 41
0.0
173
     1
 91
-1056964608
340
14
 92
       -2
290
     1
 42
2.0
291
     1
 43
8.0
  3
Standard
 44
4.0
300

342
11
174
     1
178
     6
175
     1
176
     0
 93
-1056964608
 45
4.0
292
     0
297
     0
 46
4.0
 94
-1056964608
 47
1.0
 49
1.0
140
1.0
293
     1
141
0.0
294
     1
177
     0
142
1.0
295
     0
296
     0
143
3.75
271
     0
272
     9
273
     9
298
     0
1001
ACAD_MLEADERVER
1070
     2
  0
MLINESTYLE
  5
18
102
{ACAD_REACTORS
330
17
102
}
330
17
100
AcDbMlineStyle
  2
STANDARD
 70
     0
  3

 62
   256
 51
90.0
 52
90.0
 71
     2
 49
0.5
 62
   256
  6
BYLAYER
 49
-0.5
 62
   256
  6
BYLAYER
  0
ACDBPLACEHOLDER
  5
F
102
{ACAD_REACTORS
330
E
102
}
330
E
  0
SCALE
  5
48
102
{ACAD_REACTORS
330
47
102
}
330
47
100
AcDbScale
 70
     0
300
1:1
140
1.0
141
1.0
290
     1
  0
SCALE
  5
49
102
{ACAD_REACTORS
330
47
102
}
330
47
100
AcDbScale
 70
     0
300
1:2
140
1.0
141
2.0
290
     0
  0
SCALE
  5
4A
102
{ACAD_REACTORS
330
47
102
}
330
47
100
AcDbScale
 70
     0
300
1:4
140
1.0
141
4.0
290
     0
  0
SCALE
  5
4B
102
{ACAD_REACTORS
330
47
102
}
330
47
100
AcDbScale
 70
     0
300
1:5
140
1.0
141
5.0
290
     0
  0
SCALE
  5
4C
102
{ACAD_REACTORS
330
47
102
}
330
47
100
AcDbScale
 70
     0
300
1:8
140
1.0
141
8.0
290
     0
  0
SCALE
  5
4D
102
{ACAD_REACTORS
330
47
102
}
330
47
100
AcDbScale
 70
     0
300
1:10
140
1.0
141
10.0
290
     0
  0
SCALE
  5
4E
102
{ACAD_REACTORS
330
47
102
}
330
47
100
AcDbScale
 70
     0
300
1:16
140
1.0
141
16.0
290
     0
  0
SCALE
  5
4F
102
{ACAD_REACTORS
330
47
102
}
330
47
100
AcDbScale
 70
     0
300
1:20
140
1.0
141
20.0
290
     0
  0
SCALE
  5
50
102
{ACAD_REACTORS
330
47
102
}
330
47
100
AcDbScale
 70
     0
300
1:30
140
1.0
141
30.0
290
     0
  0
SCALE
  5
51
102
{ACAD_REACTORS
330
47
102
}
330
47
100
AcDbScale
 70
     0
300
1:40
140
1.0
141
40.0
290
     0
  0
SCALE
  5
52
102
{ACAD_REACTORS
330
47
102
}
330
47
100
AcDbScale
 70
     0
300
1:50
140
1.0
141
50.0
290
     0
  0
SCALE
  5
53
102
{ACAD_REACTORS
330
47
102
}
330
47
100
AcDbScale
 70
     0
300
1:100
140
1.0
141
100.0
290
     0
  0
SCALE
  5
54
102
{ACAD_REACTORS
330
47
102
}
330
47
100
AcDbScale
 70
     0
300
2:1
140
2.0
141
1.0
290
     0
  0
SCALE
  5
55
102
{ACAD_REACTORS
330
47
102
}
330
47
100
AcDbScale
 70
     0
300
4:1
140
4.0
141
1.0
290
     0
  0
SCALE
  5
56
102
{ACAD_REACTORS
330
47
102
}
330
47
100
AcDbScale
 70
     0
300
8:1
140
8.0
141
1.0
290
     0
  0
SCALE
  5
57
102
{ACAD_REACTORS
330
47
102
}
330
47
100
AcDbScale
 70
     0
300
10:1
140
10.0
141
1.0
290
     0
  0
SCALE
  5
58
102
{ACAD_REACTORS
330
47
102
}
330
47
100
AcDbScale
 70
     0
300
100:1
140
100.0
141
1.0
290
     0
  0
SCALE
  5
59
102
{ACAD_REACTORS
330
47
102
}
330
47
100
AcDbScale
 70
     0
300
1/128" = 1'-0"
140
0.0078125
141
12.0
290
     0
  0
SCALE
  5
5A
102
{ACAD_REACTORS
330
47
102
}
330
47
100
AcDbScale
 70
     0
300
1/64" = 1'-0"
140
0.015625
141
12.0
290
     0
  0
SCALE
  5
5B
102
{ACAD_REACTORS
330
47
102
}
330
47
100
AcDbScale
 70
     0
300
1/32" = 1'-0"
140
0.03125
141
12.0
290
     0
  0
SCALE
  5
5C
102
{ACAD_REACTORS
330
47
102
}
330
47
100
AcDbScale
 70
     0
300
1/16" = 1'-0"
140
0.0625
141
12.0
290
     0
  0
SCALE
  5
5D
102
{ACAD_REACTORS
330
47
102
}
330
47
100
AcDbScale
 70
     0
300
3/32" = 1'-0"
140
0.09375
141
12.0
290
     0
  0
SCALE
  5
5E
102
{ACAD_REACTORS
330
47
102
}
330
47
100
AcDbScale
 70
     0
300
1/8" = 1'-0"
140
0.125
141
12.0
290
     0
  0
SCALE
  5
5F
102
{ACAD_REACTORS
330
47
102
}
330
47
100
AcDbScale
 70
     0
300
3/16" = 1'-0"
140
0.1875
141
12.0
290
     0
  0
SCALE
  5
60
102
{ACAD_REACTORS
330
47
102
}
330
47
100
AcDbScale
 70
     0
300
1/4" = 1'-0"
140
0.25
141
12.0
290
     0
  0
SCALE
  5
61
102
{ACAD_REACTORS
330
47
102
}
330
47
100
AcDbScale
 70
     0
300
3/8" = 1'-0"
140
0.375
141
12.0
290
     0
  0
SCALE
  5
62
102
{ACAD_REACTORS
330
47
102
}
330
47
100
AcDbScale
 70
     0
300
1/2" = 1'-0"
140
0.5
141
12.0
290
     0
  0
SCALE
  5
63
102
{ACAD_REACTORS
330
47
102
}
330
47
100
AcDbScale
 70
     0
300
3/4" = 1'-0"
140
0.75
141
12.0
290
     0
  0
SCALE
  5
64
102
{ACAD_REACTORS
330
47
102
}
330
47
100
AcDbScale
 70
     0
300
1" = 1'-0"
140
1.0
141
12.0
290
     0
  0
SCALE
  5
65
102
{ACAD_REACTORS
330
47
102
}
330
47
100
AcDbScale
 70
     0
300
1-1/2" = 1'-0"
140
1.5
141
12.0
290
     0
  0
SCALE
  5
66
102
{ACAD_REACTORS
330
47
102
}
330
47
100
AcDbScale
 70
     0
300
3" = 1'-0"
140
3.0
141
12.0
290
     0
  0
SCALE
  5
67
102
{ACAD_REACTORS
330
47
102
}
330
47
100
AcDbScale
 70
     0
300
6" = 1'-0"
140
6.0
141
12.0
290
     0
  0
SCALE
  5
68
102
{ACAD_REACTORS
330
47
102
}
330
47
100
AcDbScale
 70
     0
300
1'-0" = 1'-0"
140
12.0
141
12.0
290
     0
  0
ACDBSECTIONVIEWSTYLE
  5
1D7
102
{ACAD_REACTORS
330
1D6
102
}
330
1D6
100
AcDbModelDocViewStyle
 70
     0
  3
Metric50
290
     0
300
Metric50
 90
        0
100
AcDbSectionViewStyle
 70
     0
 71
     0
 90
      102
 71
     1
340
11
 62
   256
 40
5.0
340
0
340
0
 62
   256
 40
5.0
300
I, O, Q, S, X, Z
 40
10.0
 90
        0
 40
2.5
 90
        0
 71
     2
340
16
 90
       25
 62
   256
340
16
 90
       50
 62
   256
 40
5.0
 40
2.5
 40
5.0
 71
     3
340
11
 62
   256
 40
5.0
 90
        0
 40
15.0
 90
        1
300
%<\AcVar ViewSectionStartId>%-%<\AcVar ViewSectionEndId>% (%<\AcVar ViewScale \f "%sn">%)
 71
     4
 62
   256
 62
   257
300
ANSI31
 40
1.0
 90
        0
290
     0
290
     0
 90
        6
 40
0.0
 40
1.570796326794896
 40
0.2617993877991494
 40
1.308996938995747
 40
-0.2617993877991494
 40
1.832595714594045
  0
TABLESTYLE
  5
6A
102
{ACAD_XDICTIONARY
360
60D
102
}
102
{ACAD_REACTORS
330
69
102
}
330
69
100
AcDbTableStyle
280
     0
  3
Standard
 70
     0
 71
     0
 40
1.5
 41
1.5
280
     0
281
     0
  7
Standard
140
4.5
170
     2
 62
     0
 63
     7
283
     0
 90
        4
 91
        0
  1

274
    -2
284
     1
 64
     0
275
    -2
285
     1
 65
     0
276
    -2
286
     1
 66
     0
277
    -2
287
     1
 67
     0
278
    -2
288
     1
 68
     0
279
    -2
289
     1
 69
     0
  7
Standard
140
6.0
170
     5
 62
     0
 63
     7
283
     0
 90
        4
 91
        0
  1

274
    -2
284
     1
 64
     0
275
    -2
285
     1
 65
     0
276
    -2
286
     1
 66
     0
277
    -2
287
     1
 67
     0
278
    -2
288
     1
 68
     0
279
    -2
289
     1
 69
     0
  7
Standard
140
4.5
170
     5
 62
     0
 63
     7
283
     0
 90
        4
 91
        0
  1

274
    -2
284
     1
 64
     0
275
    -2
285
     1
 65
     0
276
    -2
286
     1
 66
     0
277
    -2
287
     1
 67
     0
278
    -2
288
     1
 68
     0
279
    -2
289
     1
 69
     0
  0
VISUALSTYLE
  5
2F
102
{ACAD_REACTORS
330
2A
102
}
330
2A
100
AcDbVisualStyle
  2

 70
     4
177
     3
291
     0
 70
    58
 90
        0
176
     1
 90
        2
176
     1
 90
        0
176
     1
 90
        0
176
     1
 40
0.6
176
     1
 40
30.0
176
     1
 62
     7
176
     1
 90
        1
176
     1
 90
        4
176
     1
 62
     7
176
     1
 62
   257
176
     1
 90
        1
176
     1
 90
        1
176
     1
 40
1.0
176
     1
 90
        0
176
     1
 62
   257
176
     1
 40
1.0
176
     1
 90
        1
176
     1
 90
        6
176
     1
 90
        2
176
     1
 62
     7
176
     1
 90
        5
176
     1
 90
        0
176
     1
 90
        0
176
     1
290
     0
176
     1
 90
        1
176
     1
 40
0.0
176
     1
 90
        0
176
     1
290
     1
176
     1
290
     1
176
     1
290
     0
176
     1
290
     0
176
     1
290
     0
176
     1
290
     0
176
     1
290
     0
176
     1
290
     0
176
     1
290
     0
176
     1
 90
       50
176
     1
 40
0.0
176
     1
 40
1.0
176
     1
 90
        0
176
     1
 62
    18
420
        0
176
     1
 90
       50
176
     1
 90
        3
176
     1
 62
     5
420
      255
176
     1
290
     0
176
     1
 90
       50
176
     1
 90
       50
176
     1
 90
       50
176
     1
290
     0
176
     1
 90
       50
176
     1
 62
   256
176
     0
 40
1.0
176
     0
 90
        2
176
     1
  1
strokes_ogs.tif
176
     1
290
     0
176
     1
 40
1.0
176
     1
 40
1.0
176
     1
1001
ACAD
1000
AcDbSavedByObjectVersion
1070
     0
  0
VISUALSTYLE
  5
32
102
{ACAD_REACTORS
330
2A
102
}
330
2A
100
AcDbVisualStyle
  2

 70
     7
177
     3
291
     1
 70
    58
 90
        1
176
     1
 90
        0
176
     1
 90
        1
176
     1
 90
        0
176
     1
 40
0.6
176
     1
 40
30.0
176
     1
 62
     7
176
     1
 90
        0
176
     1
 90
        4
176
     1
 62
     7
176
     1
 62
   257
176
     1
 90
        1
176
     1
 90
        1
176
     1
 40
1.0
176
     1
 90
        8
176
     1
 62
     7
176
     1
 40
1.0
176
     1
 90
        1
176
     1
 90
        6
176
     1
 90
        2
176
     1
 62
     7
176
     1
 90
        5
176
     1
 90
        0
176
     1
 90
        0
176
     1
290
     0
176
     1
 90
        1
176
     1
 40
0.0
176
     1
 90
        0
176
     1
290
     0
176
     1
290
     1
176
     1
290
     1
176
     1
290
     0
176
     1
290
     0
176
     1
290
     0
176
     1
290
     0
176
     1
290
     0
176
     1
290
     0
176
     1
 90
       50
176
     1
 40
0.0
176
     1
 40
1.0
176
     1
 90
        0
176
     1
 62
    18
420
        0
176
     1
 90
       50
176
     1
 90
        3
176
     1
 62
     5
420
      255
176
     1
290
     0
176
     1
 90
       50
176
     1
 90
       50
176
     1
 90
       50
176
     1
290
     0
176
     1
 90
       50
176
     1
 62
   256
176
     0
 40
1.0
176
     0
 90
        2
176
     1
  1
strokes_ogs.tif
176
     1
290
     0
176
     1
 40
1.0
176
     1
 40
1.0
176
     1
1001
ACAD
1000
AcDbSavedByObjectVersion
1070
     0
  0
VISUALSTYLE
  5
36
102
{ACAD_REACTORS
330
2A
102
}
330
2A
100
AcDbVisualStyle
  2

 70
    12
177
     3
291
     1
 70
    58
 90
        2
176
     1
 90
        2
176
     1
 90
        0
176
     1
 90
        0
176
     1
 40
0.6
176
     1
 40
30.0
176
     1
 62
     7
176
     1
 90
        1
176
     1
 90
        4
176
     1
 62
     7
176
     1
 62
   257
176
     1
 90
        1
176
     1
 90
        1
176
     1
 40
1.0
176
     1
 90
        8
176
     1
 62
     7
176
     1
 40
1.0
176
     1
 90
        1
176
     1
 90
        6
176
     1
 90
        2
176
     1
 62
     7
176
     1
 90
        5
176
     1
 90
        0
176
     1
 90
        0
176
     1
290
     0
176
     1
 90
        1
176
     1
 40
50.0
176
     1
 90
        0
176
     1
290
     0
176
     1
290
     1
176
     1
290
     1
176
     1
290
     0
176
     1
290
     0
176
     1
290
     0
176
     1
290
     0
176
     1
290
     0
176
     1
290
     0
176
     1
 90
       50
176
     1
 40
0.0
176
     1
 40
1.0
176
     1
 90
        0
176
     1
 62
    18
420
        0
176
     1
 90
       50
176
     1
 90
        3
176
     1
 62
     5
420
      255
176
     1
290
     0
176
     1
 90
       50
176
     1
 90
       50
176
     1
 90
       50
176
     1
290
     0
176
     1
 90
       50
176
     1
 62
   256
176
     0
 40
1.0
176
     0
 90
        2
176
     1
  1
strokes_ogs.tif
176
     1
290
     0
176
     1
 40
1.0
176
     1
 40
1.0
176
     1
1001
ACAD
1000
AcDbSavedByObjectVersion
1070
     0
  0
VISUALSTYLE
  5
3A
102
{ACAD_REACTORS
330
2A
102
}
330
2A
100
AcDbVisualStyle
  2

 70
    16
177
     3
291
     1
 70
    58
 90
        2
176
     1
 90
        2
176
     1
 90
        3
176
     1
 90
        0
176
     1
 40
0.6
176
     1
 40
30.0
176
     1
 62
     8
176
     1
 90
        1
176
     1
 90
        4
176
     1
 62
     7
176
     1
 62
   257
176
     1
 90
        1
176
     1
 90
        1
176
     1
 40
1.0
176
     1
 90
        8
176
     1
 62
     8
176
     1
 40
1.0
176
     1
 90
        1
176
     1
 90
        6
176
     1
 90
        2
176
     1
 62
     7
176
     1
 90
        5
176
     1
 90
        0
176
     1
 90
        0
176
     1
290
     0
176
     1
 90
        1
176
     1
 40
0.0
176
     1
 90
        0
176
     1
290
     0
176
     1
290
     1
176
     1
290
     1
176
     1
290
     0
176
     1
290
     0
176
     1
290
     0
176
     1
290
     0
176
     1
290
     0
176
     1
290
     0
176
     1
 90
       50
176
     1
 40
0.0
176
     1
 40
1.0
176
     1
 90
        0
176
     1
 62
    18
420
        0
176
     1
 90
       50
176
     1
 90
        3
176
     1
 62
     5
420
      255
176
     1
290
     0
176
     1
 90
       50
176
     1
 90
       50
176
     1
 90
       50
176
     1
290
     0
176
     1
 90
       50
176
     1
 62
   256
176
     0
 40
1.0
176
     0
 90
        2
176
     1
  1
strokes_ogs.tif
176
     1
290
     0
176
     1
 40
1.0
176
     1
 40
1.0
176
     1
1001
ACAD
1000
AcDbSavedByObjectVersion
1070
     0
  0
VISUALSTYLE
  5
34
102
{ACAD_REACTORS
330
2A
102
}
330
2A
100
AcDbVisualStyle
  2

 70
     9
177
     3
291
     0
 70
    58
 90
        3
176
     1
 90
        2
176
     1
 90
        0
176
     1
 90
        0
176
     1
 40
0.6
176
     1
 40
30.0
176
     1
 62
     7
176
     1
 90
        2
176
     1
 90
        2
176
     1
 62
     7
176
     1
 62
   257
176
     1
 90
        1
176
     1
 90
        1
176
     1
 40
179.0
176
     1
 90
        8
176
     1
 62
     7
176
     1
 40
1.0
176
     1
 90
        1
176
     1
 90
        6
176
     1
 90
        2
176
     1
 62
     7
176
     1
 90
        3
176
     1
 90
        0
176
     1
 90
        0
176
     1
290
     0
176
     1
 90
        1
176
     1
 40
0.0
176
     1
 90
        0
176
     1
290
     0
176
     1
290
     1
176
     1
290
     1
176
     1
290
     0
176
     1
290
     0
176
     1
290
     0
176
     1
290
     0
176
     1
290
     0
176
     1
290
     0
176
     1
 90
       50
176
     1
 40
0.0
176
     1
 40
1.0
176
     1
 90
        0
176
     1
 62
    18
420
        0
176
     1
 90
       50
176
     1
 90
        3
176
     1
 62
     5
420
      255
176
     1
290
     0
176
     1
 90
       50
176
     1
 90
       50
176
     1
 90
       50
176
     1
290
     0
176
     1
 90
       50
176
     1
 62
   256
176
     0
 40
1.0
176
     0
 90
        2
176
     1
  1
strokes_ogs.tif
176
     1
290
     0
176
     1
 40
1.0
176
     1
 40
1.0
176
     1
1001
ACAD
1000
AcDbSavedByObjectVersion
1070
     0
  0
VISUALSTYLE
  5
35
102
{ACAD_REACTORS
330
2A
102
}
330
2A
100
AcDbVisualStyle
  2

 70
    11
177
     3
291
     1
 70
    58
 90
        2
176
     1
 90
        2
176
     1
 90
        0
176
     1
 90
        0
176
     1
 40
0.6
176
     1
 40
30.0
176
     1
 62
     7
176
     1
 90
        1
176
     1
 90
        4
176
     1
 62
     7
176
     1
 62
   257
176
     1
 90
        1
176
     1
 90
        1
176
     1
 40
1.0
176
     1
 90
        8
176
     1
 62
     7
176
     1
 40
1.0
176
     1
 90
        1
176
     1
 90
        6
176
     1
 90
        2
176
     1
 62
     7
176
     1
 90
        5
176
     1
 90
        0
176
     1
 90
        0
176
     1
290
     0
176
     1
 90
        1
176
     1
 40
-50.0
176
     1
 90
        0
176
     1
290
     0
176
     1
290
     1
176
     1
290
     1
176
     1
290
     0
176
     1
290
     0
176
     1
290
     0
176
     1
290
     0
176
     1
290
     0
176
     1
290
     0
176
     1
 90
       50
176
     1
 40
0.0
176
     1
 40
1.0
176
     1
 90
        0
176
     1
 62
    18
420
        0
176
     1
 90
       50
176
     1
 90
        3
176
     1
 62
     5
420
      255
176
     1
290
     0
176
     1
 90
       50
176
     1
 90
       50
176
     1
 90
       50
176
     1
290
     0
176
     1
 90
       50
176
     1
 62
   256
176
     0
 40
1.0
176
     0
 90
        2
176
     1
  1
strokes_ogs.tif
176
     1
290
     0
176
     1
 40
1.0
176
     1
 40
1.0
176
     1
1001
ACAD
1000
AcDbSavedByObjectVersion
1070
     0
  0
VISUALSTYLE
  5
3D
102
{ACAD_REACTORS
330
2A
102
}
330
2A
100
AcDbVisualStyle
  2

 70
    22
177
     3
291
     1
 70
    58
 90
        2
176
     0
 90
        2
176
     0
 90
        0
176
     0
 90
        0
176
     0
 40
0.6
176
     0
 40
30.0
176
     0
 62
     7
176
     0
 90
        1
176
     0
 90
        4
176
     0
 62
     7
176
     0
 62
   257
176
     0
 90
        1
176
     0
 90
        1
176
     0
 40
1.0
176
     0
 90
        8
176
     2
 62
     7
176
     0
 40
1.0
176
     0
 90
        1
176
     0
 90
        6
176
     0
 90
        2
176
     0
 62
     7
176
     0
 90
        5
176
     0
 90
        0
176
     0
 90
        0
176
     0
290
     0
176
     0
 90
        1
176
     0
 40
0.0
176
     0
 90
        0
176
     0
290
     0
176
     0
290
     1
176
     0
290
     1
176
     0
290
     0
176
     0
290
     0
176
     0
290
     0
176
     0
290
     0
176
     0
290
     0
176
     0
290
     0
176
     0
 90
       50
176
     0
 40
0.0
176
     0
 40
1.0
176
     0
 90
        0
176
     0
 62
    18
420
        0
176
     0
 90
       50
176
     0
 90
        3
176
     0
 62
     5
420
      255
176
     0
290
     0
176
     0
 90
       50
176
     0
 90
       50
176
     0
 90
       50
176
     0
290
     0
176
     0
 90
       50
176
     0
 62
   256
176
     0
 40
1.0
176
     0
 90
        2
176
     0
  1
strokes_ogs.tif
176
     0
290
     0
176
     0
 40
1.0
176
     0
 40
1.0
176
     0
1001
ACAD
1000
AcDbSavedByObjectVersion
1070
     0
  0
VISUALSTYLE
  5
39
102
{ACAD_REACTORS
330
2A
102
}
330
2A
100
AcDbVisualStyle
  2

 70
    15
177
     3
291
     1
 70
    58
 90
        2
176
     1
 90
        2
176
     1
 90
        0
176
     1
 90
        0
176
     1
 40
0.6
176
     1
 40
30.0
176
     1
 62
     7
176
     1
 90
        1
176
     1
 90
        4
176
     1
 62
     7
176
     1
 62
   257
176
     1
 90
        1
176
     1
 90
        1
176
     1
 40
1.0
176
     1
 90
        8
176
     1
 62
     7
176
     1
 40
1.0
176
     1
 90
        1
176
     1
 90
        6
176
     1
 90
        2
176
     1
 62
     7
176
     1
 90
        5
176
     1
 90
        0
176
     1
 90
        0
176
     1
290
     0
176
     1
 90
        1
176
     1
 40
0.0
176
     1
 90
        0
176
     1
290
     0
176
     1
290
     1
176
     1
290
     1
176
     1
290
     0
176
     1
290
     0
176
     1
290
     0
176
     1
290
     0
176
     1
290
     0
176
     1
290
     0
176
     1
 90
       50
176
     1
 40
0.0
176
     1
 40
1.0
176
     1
 90
        0
176
     1
 62
    18
420
        0
176
     1
 90
       50
176
     1
 90
        3
176
     1
 62
     5
420
      255
176
     1
290
     0
176
     1
 90
       50
176
     1
 90
       50
176
     1
 90
       50
176
     1
290
     0
176
     1
 90
       50
176
     1
 62
   256
176
     0
 40
1.0
176
     0
 90
        2
176
     1
  1
strokes_ogs.tif
176
     1
290
     0
176
     1
 40
1.0
176
     1
 40
1.0
176
     1
1001
ACAD
1000
AcDbSavedByObjectVersion
1070
     0
  0
VISUALSTYLE
  5
2B
102
{ACAD_REACTORS
330
2A
102
}
330
2A
100
AcDbVisualStyle
  2

 70
     0
177
     3
291
     1
 70
    58
 90
        2
176
     1
 90
        1
176
     1
 90
        1
176
     1
 90
        2
176
     1
 40
0.6
176
     1
 40
30.0
176
     1
 62
     7
176
     1
 90
        0
176
     1
 90
        0
176
     1
 62
     7
176
     1
 62
   257
176
     1
 90
        1
176
     1
 90
        1
176
     1
 40
1.0
176
     1
 90
        8
176
     1
 62
     7
176
     1
 40
1.0
176
     1
 90
        1
176
     1
 90
        6
176
     1
 90
        2
176
     1
 62
     7
176
     1
 90
        5
176
     1
 90
        0
176
     1
 90
        0
176
     1
290
     0
176
     1
 90
       13
176
     1
 40
0.0
176
     1
 90
        0
176
     1
290
     0
176
     1
290
     1
176
     1
290
     1
176
     1
290
     0
176
     1
290
     0
176
     1
290
     0
176
     1
290
     0
176
     1
290
     0
176
     1
290
     0
176
     1
 90
       50
176
     1
 40
0.0
176
     1
 40
1.0
176
     1
 90
        0
176
     1
 62
    18
420
        0
176
     1
 90
       50
176
     1
 90
        3
176
     1
 62
     5
420
      255
176
     1
290
     0
176
     1
 90
       50
176
     1
 90
       50
176
     1
 90
       50
176
     1
290
     0
176
     1
 90
       50
176
     1
 62
   256
176
     0
 40
1.0
176
     0
 90
        2
176
     1
  1
strokes_ogs.tif
176
     1
290
     0
176
     1
 40
1.0
176
     1
 40
1.0
176
     1
1001
ACAD
1000
AcDbSavedByObjectVersion
1070
     0
  0
VISUALSTYLE
  5
2C
102
{ACAD_REACTORS
330
2A
102
}
330
2A
100
AcDbVisualStyle
  2

 70
     1
177
     3
291
     1
 70
    58
 90
        2
176
     1
 90
        1
176
     1
 90
        1
176
     1
 90
        2
176
     1
 40
0.6
176
     1
 40
30.0
176
     1
 62
     7
176
     1
 90
        1
176
     1
 90
        0
176
     1
 62
     7
176
     1
 62
   257
176
     1
 90
        1
176
     1
 90
        1
176
     1
 40
1.0
176
     1
 90
        0
176
     1
 62
   257
176
     1
 40
1.0
176
     1
 90
        1
176
     1
 90
        6
176
     1
 90
        2
176
     1
 62
     7
176
     1
 90
        5
176
     1
 90
        0
176
     1
 90
        0
176
     1
290
     0
176
     1
 90
       13
176
     1
 40
0.0
176
     1
 90
        0
176
     1
290
     0
176
     1
290
     1
176
     1
290
     1
176
     1
290
     0
176
     1
290
     0
176
     1
290
     0
176
     1
290
     0
176
     1
290
     0
176
     1
290
     0
176
     1
 90
       50
176
     1
 40
0.0
176
     1
 40
1.0
176
     1
 90
        0
176
     1
 62
    18
420
        0
176
     1
 90
       50
176
     1
 90
        3
176
     1
 62
     5
420
      255
176
     1
290
     0
176
     1
 90
       50
176
     1
 90
       50
176
     1
 90
       50
176
     1
290
     0
176
     1
 90
       50
176
     1
 62
   256
176
     0
 40
1.0
176
     0
 90
        2
176
     1
  1
strokes_ogs.tif
176
     1
290
     0
176
     1
 40
1.0
176
     1
 40
1.0
176
     1
1001
ACAD
1000
AcDbSavedByObjectVersion
1070
     0
  0
VISUALSTYLE
  5
2D
102
{ACAD_REACTORS
330
2A
102
}
330
2A
100
AcDbVisualStyle
  2

 70
     2
177
     3
291
     1
 70
    58
 90
        2
176
     1
 90
        2
176
     1
 90
        1
176
     1
 90
        2
176
     1
 40
0.6
176
     1
 40
30.0
176
     1
 62
     7
176
     1
 90
        0
176
     1
 90
        0
176
     1
 62
     7
176
     1
 62
   257
176
     1
 90
        1
176
     1
 90
        1
176
     1
 40
1.0
176
     1
 90
        0
176
     1
 62
     7
176
     1
 40
1.0
176
     1
 90
        1
176
     1
 90
        6
176
     1
 90
        2
176
     1
 62
     7
176
     1
 90
        5
176
     1
 90
        0
176
     1
 90
        0
176
     1
290
     0
176
     1
 90
       13
176
     1
 40
0.0
176
     1
 90
        0
176
     1
290
     0
176
     1
290
     1
176
     1
290
     1
176
     1
290
     0
176
     1
290
     0
176
     1
290
     0
176
     1
290
     0
176
     1
290
     0
176
     1
290
     0
176
     1
 90
       50
176
     1
 40
0.0
176
     1
 40
1.0
176
     1
 90
        0
176
     1
 62
    18
420
        0
176
     1
 90
       50
176
     1
 90
        3
176
     1
 62
     5
420
      255
176
     1
290
     0
176
     1
 90
       50
176
     1
 90
       50
176
     1
 90
       50
176
     1
290
     0
176
     1
 90
       50
176
     1
 62
   256
176
     0
 40
1.0
176
     0
 90
        2
176
     1
  1
strokes_ogs.tif
176
     1
290
     0
176
     1
 40
1.0
176
     1
 40
1.0
176
     1
1001
ACAD
1000
AcDbSavedByObjectVersion
1070
     0
  0
VISUALSTYLE
  5
2E
102
{ACAD_REACTORS
330
2A
102
}
330
2A
100
AcDbVisualStyle
  2

 70
     3
177
     3
291
     1
 70
    58
 90
        2
176
     1
 90
        2
176
     1
 90
        1
176
     1
 90
        2
176
     1
 40
0.6
176
     1
 40
30.0
176
     1
 62
     7
176
     1
 90
        1
176
     1
 90
        0
176
     1
 62
     7
176
     1
 62
   257
176
     1
 90
        1
176
     1
 90
        1
176
     1
 40
1.0
176
     1
 90
        0
176
     1
 62
   257
176
     1
 40
1.0
176
     1
 90
        1
176
     1
 90
        6
176
     1
 90
        2
176
     1
 62
     7
176
     1
 90
        5
176
     1
 90
        0
176
     1
 90
        0
176
     1
290
     0
176
     1
 90
       13
176
     1
 40
0.0
176
     1
 90
        0
176
     1
290
     0
176
     1
290
     1
176
     1
290
     1
176
     1
290
     0
176
     1
290
     0
176
     1
290
     0
176
     1
290
     0
176
     1
290
     0
176
     1
290
     0
176
     1
 90
       50
176
     1
 40
0.0
176
     1
 40
1.0
176
     1
 90
        0
176
     1
 62
    18
420
        0
176
     1
 90
       50
176
     1
 90
        3
176
     1
 62
     5
420
      255
176
     1
290
     0
176
     1
 90
       50
176
     1
 90
       50
176
     1
 90
       50
176
     1
290
     0
176
     1
 90
       50
176
     1
 62
   256
176
     0
 40
1.0
176
     0
 90
        2
176
     1
  1
strokes_ogs.tif
176
     1
290
     0
176
     1
 40
1.0
176
     1
 40
1.0
176
     1
1001
ACAD
1000
AcDbSavedByObjectVersion
1070
     0
  0
VISUALSTYLE
  5
31
102
{ACAD_REACTORS
330
2A
102
}
330
2A
100
AcDbVisualStyle
  2

 70
     6
177
     3
291
     0
 70
    58
 90
        1
176
     1
 90
        2
176
     1
 90
        2
176
     1
 90
        0
176
     1
 40
0.6
176
     1
 40
30.0
176
     1
 62
     7
176
     1
 90
        2
176
     1
 90
        2
176
     1
 62
     7
176
     1
 62
   257
176
     1
 90
        2
176
     1
 90
        1
176
     1
 40
40.0
176
     1
 90
        0
176
     1
 62
   257
176
     1
 40
1.0
176
     1
 90
        1
176
     1
 90
        6
176
     1
 90
        2
176
     1
 62
     7
176
     1
 90
        3
176
     1
 90
        0
176
     1
 90
        0
176
     1
290
     0
176
     1
 90
        1
176
     1
 40
0.0
176
     1
 90
        0
176
     1
290
     0
176
     1
290
     1
176
     1
290
     1
176
     1
290
     0
176
     1
290
     0
176
     1
290
     0
176
     1
290
     0
176
     1
290
     0
176
     1
290
     0
176
     1
 90
       50
176
     1
 40
0.0
176
     1
 40
1.0
176
     1
 90
        0
176
     1
 62
    18
420
        0
176
     1
 90
       50
176
     1
 90
        3
176
     1
 62
     5
420
      255
176
     1
290
     0
176
     1
 90
       50
176
     1
 90
       50
176
     1
 90
       50
176
     1
290
     0
176
     1
 90
       50
176
     1
 62
   256
176
     0
 40
1.0
176
     0
 90
        2
176
     1
  1
strokes_ogs.tif
176
     1
290
     0
176
     1
 40
1.0
176
     1
 40
1.0
176
     1
1001
ACAD
1000
AcDbSavedByObjectVersion
1070
     0
  0
VISUALSTYLE
  5
3B
102
{ACAD_REACTORS
330
2A
102
}
330
2A
100
AcDbVisualStyle
  2

 70
    20
177
     3
291
     1
 70
    58
 90
        2
176
     0
 90
        2
176
     0
 90
        0
176
     0
 90
        0
176
     0
 40
0.6
176
     0
 40
30.0
176
     0
 62
     7
176
     0
 90
        1
176
     0
 90
        4
176
     0
 62
     7
176
     0
 62
   257
176
     0
 90
        1
176
     0
 90
        1
176
     0
 40
1.0
176
     0
 90
       10
176
     2
 62
     7
176
     0
 40
1.0
176
     0
 90
        1
176
     0
 90
        6
176
     0
 90
        2
176
     0
 62
     7
176
     0
 90
        5
176
     0
 90
        0
176
     0
 90
        0
176
     0
290
     0
176
     0
 90
        1
176
     0
 40
0.0
176
     0
 90
        0
176
     0
290
     0
176
     0
290
     1
176
     0
290
     1
176
     0
290
     0
176
     0
290
     0
176
     0
290
     0
176
     0
290
     0
176
     0
290
     0
176
     0
290
     0
176
     0
 90
       50
176
     0
 40
0.0
176
     0
 40
1.0
176
     0
 90
        0
176
     0
 62
    18
420
        0
176
     0
 90
       50
176
     0
 90
        3
176
     0
 62
     5
420
      255
176
     0
290
     0
176
     0
 90
       50
176
     0
 90
       50
176
     0
 90
       50
176
     0
290
     0
176
     0
 90
       50
176
     0
 62
   256
176
     0
 40
1.0
176
     0
 90
        2
176
     0
  1
strokes_ogs.tif
176
     0
290
     0
176
     0
 40
1.0
176
     0
 40
1.0
176
     0
1001
ACAD
1000
AcDbSavedByObjectVersion
1070
     0
  0
VISUALSTYLE
  5
38
102
{ACAD_REACTORS
330
2A
102
}
330
2A
100
AcDbVisualStyle
  2

 70
    14
177
     3
291
     1
 70
    58
 90
        2
176
     1
 90
        2
176
     1
 90
        0
176
     1
 90
        0
176
     1
 40
0.6
176
     1
 40
30.0
176
     1
 62
     7
176
     1
 90
        1
176
     1
 90
        4
176
     1
 62
     7
176
     1
 62
   257
176
     1
 90
        7
176
     1
 90
        7
176
     1
 40
1.0
176
     1
 90
        8
176
     1
 62
     7
176
     1
 40
1.0
176
     1
 90
        1
176
     1
 90
        6
176
     1
 90
        2
176
     1
 62
     7
176
     1
 90
        5
176
     1
 90
        0
176
     1
 90
        0
176
     1
290
     0
176
     1
 90
        1
176
     1
 40
0.0
176
     1
 90
        0
176
     1
290
     0
176
     1
290
     1
176
     1
290
     1
176
     1
290
     0
176
     1
290
     0
176
     1
290
     0
176
     1
290
     0
176
     1
290
     0
176
     1
290
     0
176
     1
 90
       50
176
     1
 40
0.0
176
     1
 40
1.0
176
     1
 90
        0
176
     1
 62
    18
420
        0
176
     1
 90
       50
176
     1
 90
        3
176
     1
 62
     5
420
      255
176
     1
290
     0
176
     1
 90
       50
176
     1
 90
       50
176
     1
 90
       50
176
     1
290
     0
176
     1
 90
       50
176
     1
 62
   256
176
     0
 40
1.0
176
     0
 90
        2
176
     1
  1
strokes_ogs.tif
176
     1
290
     0
176
     1
 40
1.0
176
     1
 40
1.0
176
     1
1001
ACAD
1000
AcDbSavedByObjectVersion
1070
     0
  0
VISUALSTYLE
  5
3C
102
{ACAD_REACTORS
330
2A
102
}
330
2A
100
AcDbVisualStyle
  2

 70
    21
177
     3
291
     1
 70
    58
 90
        2
176
     0
 90
        2
176
     0
 90
        0
176
     0
 90
        0
176
     0
 40
0.6
176
     0
 40
30.0
176
     0
 62
     7
176
     0
 90
        1
176
     0
 90
        4
176
     0
 62
     7
176
     0
 62
   257
176
     0
 90
        1
176
     0
 90
        1
176
     0
 40
1.0
176
     0
 90
        9
176
     2
 62
     7
176
     0
 40
1.0
176
     0
 90
        1
176
     0
 90
        6
176
     0
 90
        2
176
     0
 62
     7
176
     0
 90
        5
176
     0
 90
        0
176
     0
 90
        0
176
     0
290
     0
176
     0
 90
        1
176
     0
 40
0.0
176
     0
 90
        0
176
     0
290
     0
176
     0
290
     1
176
     0
290
     1
176
     0
290
     0
176
     0
290
     0
176
     0
290
     0
176
     0
290
     0
176
     0
290
     0
176
     0
290
     0
176
     0
 90
       50
176
     0
 40
0.0
176
     0
 40
1.0
176
     0
 90
        0
176
     0
 62
    18
420
        0
176
     0
 90
       50
176
     0
 90
        3
176
     0
 62
     5
420
      255
176
     0
290
     0
176
     0
 90
       50
176
     0
 90
       50
176
     0
 90
       50
176
     0
290
     0
176
     0
 90
       50
176
     0
 62
   256
176
     0
 40
1.0
176
     0
 90
        2
176
     0
  1
strokes_ogs.tif
176
     0
290
     0
176
     0
 40
1.0
176
     0
 40
1.0
176
     0
1001
ACAD
1000
AcDbSavedByObjectVersion
1070
     0
  0
VISUALSTYLE
  5
33
102
{ACAD_REACTORS
330
2A
102
}
330
2A
100
AcDbVisualStyle
  2

 70
     8
177
     3
291
     0
 70
    58
 90
        2
176
     1
 90
        3
176
     1
 90
        0
176
     1
 90
        2
176
     1
 40
0.6
176
     1
 40
30.0
176
     1
 62
     7
176
     1
 90
        0
176
     1
 90
        0
176
     1
 62
     7
176
     1
 62
   257
176
     1
 90
        1
176
     1
 90
        1
176
     1
 40
1.0
176
     1
 90
        8
176
     1
 62
   257
176
     1
 40
1.0
176
     1
 90
        1
176
     1
 90
        6
176
     1
 90
        2
176
     1
 62
     7
176
     1
 90
        3
176
     1
 90
        0
176
     1
 90
        0
176
     1
290
     0
176
     1
 90
       13
176
     1
 40
0.0
176
     1
 90
        0
176
     1
290
     0
176
     1
290
     1
176
     1
290
     1
176
     1
290
     0
176
     1
290
     0
176
     1
290
     0
176
     1
290
     0
176
     1
290
     0
176
     1
290
     0
176
     1
 90
       50
176
     1
 40
0.0
176
     1
 40
1.0
176
     1
 90
        0
176
     1
 62
    18
420
        0
176
     1
 90
       50
176
     1
 90
        3
176
     1
 62
     5
420
      255
176
     1
290
     0
176
     1
 90
       50
176
     1
 90
       50
176
     1
 90
       50
176
     1
290
     0
176
     1
 90
       50
176
     1
 62
   256
176
     0
 40
1.0
176
     0
 90
        2
176
     1
  1
strokes_ogs.tif
176
     1
290
     0
176
     1
 40
1.0
176
     1
 40
1.0
176
     1
1001
ACAD
1000
AcDbSavedByObjectVersion
1070
     0
  0
VISUALSTYLE
  5
42
102
{ACAD_REACTORS
330
2A
102
}
330
2A
100
AcDbVisualStyle
  2

 70
    27
177
     3
291
     0
 70
    58
 90
        2
176
     1
 90
        2
176
     1
 90
        1
176
     1
 90
        2
176
     1
 40
0.6
176
     1
 40
30.0
176
     1
 62
     7
176
     1
 90
        0
176
     1
 90
        4
176
     1
 62
     7
176
     1
 62
   257
176
     1
 90
        1
176
     1
 90
        1
176
     1
 40
1.0
176
     1
 90
        8
176
     1
 62
   257
176
     1
 40
1.0
176
     1
 90
        1
176
     1
 90
        6
176
     1
 90
        2
176
     1
 62
     8
176
     1
 90
        3
176
     1
 90
        0
176
     1
 90
        0
176
     1
290
     0
176
     1
 90
        5
176
     1
 40
0.0
176
     1
 90
        0
176
     1
290
     0
176
     1
290
     1
176
     1
290
     1
176
     1
290
     0
176
     1
290
     0
176
     1
290
     0
176
     1
290
     0
176
     1
290
     0
176
     1
290
     0
176
     1
 90
       50
176
     1
 40
0.0
176
     1
 40
1.0
176
     1
 90
        0
176
     1
 62
    18
420
        0
176
     1
 90
       50
176
     1
 90
        3
176
     1
 62
     5
420
      255
176
     1
290
     0
176
     1
 90
       50
176
     1
 90
       50
176
     1
 90
       50
176
     1
290
     0
176
     1
 90
       50
176
     1
 62
   256
176
     0
 40
1.0
176
     0
 90
        2
176
     1
  1
strokes_ogs.tif
176
     1
290
     0
176
     1
 40
1.0
176
     1
 40
1.0
176
     1
1001
ACAD
1000
AcDbSavedByObjectVersion
1070
     0
  0
VISUALSTYLE
  5
41
102
{ACAD_REACTORS
330
2A
102
}
330
2A
100
AcDbVisualStyle
  2

 70
    26
177
     3
291
     0
 70
    58
 90
        2
176
     1
 90
        2
176
     1
 90
        1
176
     1
 90
        2
176
     1
 40
0.6
176
     1
 40
30.0
176
     1
 62
     7
176
     1
 90
        1
176
     1
 90
        2
176
     1
 62
     7
176
     1
 62
   257
176
     1
 90
        2
176
     1
 90
        1
176
     1
 40
1.0
176
     1
 90
        8
176
     1
 62
   257
176
     1
 40
1.0
176
     1
 90
        1
176
     1
 90
        6
176
     1
 90
        2
176
     1
 62
     7
176
     1
 90
        3
176
     1
 90
        0
176
     1
 90
        0
176
     1
290
     0
176
     1
 90
        5
176
     1
 40
0.0
176
     1
 90
        0
176
     1
290
     0
176
     1
290
     1
176
     1
290
     1
176
     1
290
     0
176
     1
290
     0
176
     1
290
     0
176
     1
290
     0
176
     1
290
     0
176
     1
290
     0
176
     1
 90
       50
176
     1
 40
0.0
176
     1
 40
1.0
176
     1
 90
        0
176
     1
 62
    18
420
        0
176
     1
 90
       50
176
     1
 90
        3
176
     1
 62
     5
420
      255
176
     1
290
     0
176
     1
 90
       50
176
     1
 90
       50
176
     1
 90
       50
176
     1
290
     0
176
     1
 90
       50
176
     1
 62
   256
176
     0
 40
1.0
176
     0
 90
        2
176
     1
  1
strokes_ogs.tif
176
     1
290
     0
176
     1
 40
1.0
176
     1
 40
1.0
176
     1
1001
ACAD
1000
AcDbSavedByObjectVersion
1070
     0
  0
VISUALSTYLE
  5
3E
102
{ACAD_REACTORS
330
2A
102
}
330
2A
100
AcDbVisualStyle
  2

 70
    23
177
     3
291
     0
 70
    58
 90
        2
176
     1
 90
        2
176
     1
 90
        3
176
     1
 90
        0
176
     1
 40
0.6
176
     1
 40
30.0
176
     1
 62
     7
176
     1
 90
        2
176
     1
 90
        2
176
     1
 62
     7
176
     1
 62
     7
176
     1
 90
        1
176
     1
 90
        1
176
     1
 40
40.0
176
     1
 90
        8
176
     1
 62
     7
176
     1
 40
1.0
176
     1
 90
        1
176
     1
 90
        6
176
     1
 90
        2
176
     1
 62
     7
176
     1
 90
        3
176
     1
 90
        0
176
     1
 90
        0
176
     1
290
     0
176
     1
 90
        1
176
     1
 40
0.0
176
     1
 90
        0
176
     1
290
     0
176
     1
290
     1
176
     1
290
     1
176
     1
290
     0
176
     1
290
     0
176
     1
290
     0
176
     1
290
     0
176
     1
290
     0
176
     1
290
     0
176
     1
 90
       50
176
     1
 40
0.0
176
     1
 40
1.0
176
     1
 90
        0
176
     1
 62
    18
420
        0
176
     1
 90
       50
176
     1
 90
        3
176
     1
 62
     5
420
      255
176
     1
290
     0
176
     1
 90
       50
176
     1
 90
       50
176
     1
 90
       50
176
     1
290
     0
176
     1
 90
       50
176
     1
 62
   256
176
     0
 40
1.0
176
     0
 90
        2
176
     1
  1
strokes_ogs.tif
176
     1
290
     0
176
     1
 40
1.0
176
     1
 40
1.0
176
     1
1001
ACAD
1000
AcDbSavedByObjectVersion
1070
     0
  0
VISUALSTYLE
  5
3F
102
{ACAD_REACTORS
330
2A
102
}
330
2A
100
AcDbVisualStyle
  2

 70
    24
177
     3
291
     0
 70
    58
 90
        1
176
     1
 90
        2
176
     1
 90
        2
176
     1
 90
        0
176
     1
 40
0.6
176
     1
 40
30.0
176
     1
 62
     7
176
     1
 90
        2
176
     1
 90
        2
176
     1
 62
     7
176
     1
 62
     7
176
     1
 90
        1
176
     1
 90
        1
176
     1
 40
40.0
176
     1
 90
       11
176
     1
 62
     7
176
     1
 40
1.0
176
     1
 90
        1
176
     1
 90
        6
176
     1
 90
        2
176
     1
 62
     7
176
     1
 90
        6
176
     1
 90
        0
176
     1
 90
        0
176
     1
290
     0
176
     1
 90
        1
176
     1
 40
0.0
176
     1
 90
        0
176
     1
290
     0
176
     1
290
     1
176
     1
290
     1
176
     1
290
     0
176
     1
290
     0
176
     1
290
     0
176
     1
290
     0
176
     1
290
     0
176
     1
290
     0
176
     1
 90
       50
176
     1
 40
0.0
176
     1
 40
1.0
176
     1
 90
        0
176
     1
 62
    18
420
        0
176
     1
 90
       50
176
     1
 90
        3
176
     1
 62
     5
420
      255
176
     1
290
     0
176
     1
 90
       50
176
     1
 90
       50
176
     1
 90
       50
176
     1
290
     0
176
     1
 90
       50
176
     1
 62
   256
176
     0
 40
1.0
176
     0
 90
        2
176
     1
  1
strokes_ogs.tif
176
     1
290
     0
176
     1
 40
1.0
176
     1
 40
1.0
176
     1
1001
ACAD
1000
AcDbSavedByObjectVersion
1070
     0
  0
VISUALSTYLE
  5
37
102
{ACAD_REACTORS
330
2A
102
}
330
2A
100
AcDbVisualStyle
  2

 70
    13
177
     3
291
     1
 70
    58
 90
        2
176
     1
 90
        2
176
     1
 90
        0
176
     1
 90
        0
176
     1
 40
0.6
176
     1
 40
30.0
176
     1
 62
     7
176
     1
 90
        1
176
     1
 90
        4
176
     1
 62
     7
176
     1
 62
   257
176
     1
 90
        1
176
     1
 90
        1
176
     1
 40
1.0
176
     1
 90
       12
176
     1
 62
     7
176
     1
 40
1.0
176
     1
 90
        1
176
     1
 90
        6
176
     1
 90
        2
176
     1
 62
     7
176
     1
 90
        5
176
     1
 90
        0
176
     1
 90
        0
176
     1
290
     0
176
     1
 90
        1
176
     1
 40
0.0
176
     1
 90
        0
176
     1
290
     0
176
     1
290
     1
176
     1
290
     1
176
     1
290
     0
176
     1
290
     0
176
     1
290
     0
176
     1
290
     0
176
     1
290
     0
176
     1
290
     0
176
     1
 90
       50
176
     1
 40
0.0
176
     1
 40
1.0
176
     1
 90
        0
176
     1
 62
    18
420
        0
176
     1
 90
       50
176
     1
 90
        3
176
     1
 62
     5
420
      255
176
     1
290
     0
176
     1
 90
       50
176
     1
 90
       50
176
     1
 90
       50
176
     1
290
     0
176
     1
 90
       50
176
     1
 62
   256
176
     0
 40
1.0
176
     0
 90
        2
176
     1
  1
strokes_ogs.tif
176
     1
290
     0
176
     1
 40
1.0
176
     1
 40
1.0
176
     1
1001
ACAD
1000
AcDbSavedByObjectVersion
1070
     0
  0
VISUALSTYLE
  5
30
102
{ACAD_REACTORS
330
2A
102
}
330
2A
100
AcDbVisualStyle
  2

 70
     5
177
     3
291
     0
 70
    58
 90
        0
176
     1
 90
        2
176
     1
 90
        0
176
     1
 90
        0
176
     1
 40
0.6
176
     1
 40
30.0
176
     1
 62
     7
176
     1
 90
        1
176
     1
 90
        4
176
     1
 62
     7
176
     1
 62
   257
176
     1
 90
        1
176
     1
 90
        1
176
     1
 40
1.0
176
     1
 90
        0
176
     1
 62
   257
176
     1
 40
1.0
176
     1
 90
        1
176
     1
 90
        6
176
     1
 90
        2
176
     1
 62
     7
176
     1
 90
        3
176
     1
 90
        0
176
     1
 90
        0
176
     1
290
     0
176
     1
 90
        1
176
     1
 40
0.0
176
     1
 90
        0
176
     1
290
     0
176
     1
290
     1
176
     1
290
     1
176
     1
290
     0
176
     1
290
     0
176
     1
290
     0
176
     1
290
     0
176
     1
290
     0
176
     1
290
     0
176
     1
 90
       50
176
     1
 40
0.0
176
     1
 40
1.0
176
     1
 90
        0
176
     1
 62
    18
420
        0
176
     1
 90
       50
176
     1
 90
        3
176
     1
 62
     5
420
      255
176
     1
290
     0
176
     1
 90
       50
176
     1
 90
       50
176
     1
 90
       50
176
     1
290
     0
176
     1
 90
       50
176
     1
 62
   256
176
     0
 40
1.0
176
     0
 90
        2
176
     1
  1
strokes_ogs.tif
176
     1
290
     0
176
     1
 40
1.0
176
     1
 40
1.0
176
     1
1001
ACAD
1000
AcDbSavedByObjectVersion
1070
     0
  0
VISUALSTYLE
  5
40
102
{ACAD_REACTORS
330
2A
102
}
330
2A
100
AcDbVisualStyle
  2

 70
    25
177
     3
291
     0
 70
    58
 90
        2
176
     1
 90
        2
176
     1
 90
        1
176
     1
 90
        1
176
     1
 40
0.5
176
     1
 40
30.0
176
     1
 62
     7
176
     1
 90
        1
176
     1
 90
        0
176
     1
 62
     7
176
     1
 62
   257
176
     1
 90
        1
176
     1
 90
        1
176
     1
 40
1.0
176
     1
 90
        8
176
     1
 62
     7
176
     1
 40
1.0
176
     1
 90
        1
176
     1
 90
        6
176
     1
 90
        2
176
     1
 62
     7
176
     1
 90
        3
176
     1
 90
        0
176
     1
 90
        0
176
     1
290
     0
176
     1
 90
       13
176
     1
 40
0.0
176
     1
 90
        0
176
     1
290
     0
176
     1
290
     1
176
     1
290
     1
176
     1
290
     0
176
     1
290
     0
176
     1
290
     0
176
     1
290
     0
176
     1
290
     0
176
     1
290
     0
176
     1
 90
       50
176
     1
 40
0.0
176
     1
 40
1.0
176
     1
 90
        0
176
     1
 62
    18
420
        0
176
     1
 90
       50
176
     1
 90
        3
176
     1
 62
     5
420
      255
176
     1
290
     0
176
     1
 90
       50
176
     1
 90
       50
176
     1
 90
       50
176
     1
290
     0
176
     1
 90
       50
176
     1
 62
   256
176
     0
 40
1.0
176
     0
 90
        2
176
     1
  1
strokes_ogs.tif
176
     1
290
     0
176
     1
 40
1.0
176
     1
 40
1.0
176
     1
1001
ACAD
1000
AcDbSavedByObjectVersion
1070
     0
  0
DICTIONARYVAR
  5
198
102
{ACAD_REACTORS
330
18D
102
}
330
18D
100
DictionaryVariables
280
     0
  1
1:1
  0
DICTIONARYVAR
  5
18F
102
{ACAD_REACTORS
330
18D
102
}
330
18D
100
DictionaryVariables
280
     0
  1
STANDARD
  0
DICTIONARYVAR
  5
18E
102
{ACAD_REACTORS
330
18D
102
}
330
18D
100
DictionaryVariables
280
     0
  1
STANDARD
  0
DICTIONARYVAR
  5
24A
102
{ACAD_REACTORS
330
18D
102
}
330
18D
100
DictionaryVariables
280
     0
  1
Metric50
  0
DICTIONARYVAR
  5
24B
102
{ACAD_REACTORS
330
18D
102
}
330
18D
100
DictionaryVariables
280
     0
  1
Metric50
  0
DICTIONARYVAR
  5
194
102
{ACAD_REACTORS
330
18D
102
}
330
18D
100
DictionaryVariables
280
     0
  1
2
  0
DICTIONARYVAR
  5
195
102
{ACAD_REACTORS
330
18D
102
}
330
18D
100
DictionaryVariables
280
     0
  1
1
  0
DICTIONARYVAR
  5
24D
102
{ACAD_REACTORS
330
18D
102
}
330
18D
100
DictionaryVariables
280
     0
  1
0
  0
DICTIONARYVAR
  5
65A
102
{ACAD_REACTORS
330
18D
102
}
330
18D
100
DictionaryVariables
280
     0
  1
1
  0
DICTIONARYVAR
  5
65B
102
{ACAD_REACTORS
330
18D
102
}
330
18D
100
DictionaryVariables
280
     0
  1
15
  0
DICTIONARYVAR
  5
659
102
{ACAD_REACTORS
330
18D
102
}
330
18D
100
DictionaryVariables
280
     0
  1
0
  0
DICTIONARYVAR
  5
199
102
{ACAD_REACTORS
330
18D
102
}
330
18D
100
DictionaryVariables
280
     0
  1
1
  0
DICTIONARYVAR
  5
24C
102
{ACAD_REACTORS
330
18D
102
}
330
18D
100
DictionaryVariables
280
     0
  1
127
  0
DICTIONARY
  5
1CC
330
45
100
AcDbDictionary
280
     1
281
     1
  3
ACAD_XREC_ROUNDTRIP
360
1CD
  0
DICTIONARY
  5
1CA
330
44
100
AcDbDictionary
280
     1
281
     1
  3
ACAD_XREC_ROUNDTRIP
360
1CB
  0
DICTIONARY
  5
1CE
330
46
100
AcDbDictionary
280
     1
281
     1
  3
ACAD_XREC_ROUNDTRIP
360
1CF
  0
DICTIONARY
  5
60D
330
6A
100
AcDbDictionary
280
     1
281
     1
  3
ACAD_ROUNDTRIP_2008_TABLESTYLE_CELLSTYLEMAP
360
65C
  0
XRECORD
  5
1CD
102
{ACAD_REACTORS
330
1CC
102
}
330
1CC
100
AcDbXrecord
280
     1
102
MATERIAL
148
0.0
149
0.0
149
0.0
 93
        0
 94
      127
282
     0
 72
     1
 77
     1
171
     1
175
     1
179
     1
273
     0
  0
XRECORD
  5
1CB
102
{ACAD_REACTORS
330
1CA
102
}
330
1CA
100
AcDbXrecord
280
     1
102
MATERIAL
148
0.0
149
0.0
149
0.0
 93
        0
 94
      127
282
     0
 72
     1
 77
     1
171
     1
175
     1
179
     1
273
     0
  0
XRECORD
  5
1CF
102
{ACAD_REACTORS
330
1CE
102
}
330
1CE
100
AcDbXrecord
280
     1
102
MATERIAL
148
0.0
149
0.0
149
0.0
 93
        0
 94
      127
282
     0
 72
     1
 77
     1
171
     1
175
     1
179
     1
273
     0
  0
CELLSTYLEMAP
  5
65C
102
{ACAD_REACTORS
330
60D
102
}
330
60D
100
AcDbCellStyleMap
 90
        3
300
CELLSTYLE
  1
TABLEFORMAT_BEGIN
 90
        5
170
     1
 91
        0
 92
    32768
 62
   257
 93
        1
300
CONTENTFORMAT
  1
CONTENTFORMAT_BEGIN
 90
        0
 91
        0
 92
        4
 93
        0
300

 40
0.0
140
1.0
 94
        5
 62
     0
340
11
144
6.0
309
CONTENTFORMAT_END
171
     1
301
MARGIN
  1
CELLMARGIN_BEGIN
 40
1.5
 40
1.5
 40
1.5
 40
1.5
 40
0.18
 40
0.18
309
CELLMARGIN_END
 94
        6
 95
        1
302
GRIDFORMAT
  1
GRIDFORMAT_BEGIN
 90
        0
 91
        1
 62
     0
 92
       -2
340
0
 93
        0
 40
0.045
309
GRIDFORMAT_END
 95
        2
302
GRIDFORMAT
  1
GRIDFORMAT_BEGIN
 90
        0
 91
        1
 62
     0
 92
       -2
340
0
 93
        0
 40
0.045
309
GRIDFORMAT_END
 95
        4
302
GRIDFORMAT
  1
GRIDFORMAT_BEGIN
 90
        0
 91
        1
 62
     0
 92
       -2
340
0
 93
        0
 40
0.045
309
GRIDFORMAT_END
 95
        8
302
GRIDFORMAT
  1
GRIDFORMAT_BEGIN
 90
        0
 91
        1
 62
     0
 92
       -2
340
0
 93
        0
 40
0.045
309
GRIDFORMAT_END
 95
       16
302
GRIDFORMAT
  1
GRIDFORMAT_BEGIN
 90
        0
 91
        1
 62
     0
 92
       -2
340
0
 93
        0
 40
0.045
309
GRIDFORMAT_END
 95
       32
302
GRIDFORMAT
  1
GRIDFORMAT_BEGIN
 90
        0
 91
        1
 62
     0
 92
       -2
340
0
 93
        0
 40
0.045
309
GRIDFORMAT_END
309
TABLEFORMAT_END
  1
CELLSTYLE_BEGIN
 90
        1
 91
        1
300
_TITLE
309
CELLSTYLE_END
300
CELLSTYLE
  1
TABLEFORMAT_BEGIN
 90
        5
170
     1
 91
        0
 92
        0
 62
   257
 93
        1
300
CONTENTFORMAT
  1
CONTENTFORMAT_BEGIN
 90
        0
 91
        0
 92
        4
 93
        0
300

 40
0.0
140
1.0
 94
        5
 62
     0
340
11
144
4.5
309
CONTENTFORMAT_END
171
     1
301
MARGIN
  1
CELLMARGIN_BEGIN
 40
1.5
 40
1.5
 40
1.5
 40
1.5
 40
0.18
 40
0.18
309
CELLMARGIN_END
 94
        6
 95
        1
302
GRIDFORMAT
  1
GRIDFORMAT_BEGIN
 90
        0
 91
        1
 62
     0
 92
       -2
340
0
 93
        0
 40
0.045
309
GRIDFORMAT_END
 95
        2
302
GRIDFORMAT
  1
GRIDFORMAT_BEGIN
 90
        0
 91
        1
 62
     0
 92
       -2
340
0
 93
        0
 40
0.045
309
GRIDFORMAT_END
 95
        4
302
GRIDFORMAT
  1
GRIDFORMAT_BEGIN
 90
        0
 91
        1
 62
     0
 92
       -2
340
0
 93
        0
 40
0.045
309
GRIDFORMAT_END
 95
        8
302
GRIDFORMAT
  1
GRIDFORMAT_BEGIN
 90
        0
 91
        1
 62
     0
 92
       -2
340
0
 93
        0
 40
0.045
309
GRIDFORMAT_END
 95
       16
302
GRIDFORMAT
  1
GRIDFORMAT_BEGIN
 90
        0
 91
        1
 62
     0
 92
       -2
340
0
 93
        0
 40
0.045
309
GRIDFORMAT_END
 95
       32
302
GRIDFORMAT
  1
GRIDFORMAT_BEGIN
 90
        0
 91
        1
 62
     0
 92
       -2
340
0
 93
        0
 40
0.045
309
GRIDFORMAT_END
309
TABLEFORMAT_END
  1
CELLSTYLE_BEGIN
 90
        2
 91
        1
300
_HEADER
309
CELLSTYLE_END
300
CELLSTYLE
  1
TABLEFORMAT_BEGIN
 90
        5
170
     1
 91
        0
 92
        0
 62
   257
 93
        1
300
CONTENTFORMAT
  1
CONTENTFORMAT_BEGIN
 90
        0
 91
        0
 92
        4
 93
        0
300

 40
0.0
140
1.0
 94
        2
 62
     0
340
11
144
4.5
309
CONTENTFORMAT_END
171
     1
301
MARGIN
  1
CELLMARGIN_BEGIN
 40
1.5
 40
1.5
 40
1.5
 40
1.5
 40
0.18
 40
0.18
309
CELLMARGIN_END
 94
        6
 95
        1
302
GRIDFORMAT
  1
GRIDFORMAT_BEGIN
 90
        0
 91
        1
 62
     0
 92
       -2
340
0
 93
        0
 40
0.045
309
GRIDFORMAT_END
 95
        2
302
GRIDFORMAT
  1
GRIDFORMAT_BEGIN
 90
        0
 91
        1
 62
     0
 92
       -2
340
0
 93
        0
 40
0.045
309
GRIDFORMAT_END
 95
        4
302
GRIDFORMAT
  1
GRIDFORMAT_BEGIN
 90
        0
 91
        1
 62
     0
 92
       -2
340
0
 93
        0
 40
0.045
309
GRIDFORMAT_END
 95
        8
302
GRIDFORMAT
  1
GRIDFORMAT_BEGIN
 90
        0
 91
        1
 62
     0
 92
       -2
340
0
 93
        0
 40
0.045
309
GRIDFORMAT_END
 95
       16
302
GRIDFORMAT
  1
GRIDFORMAT_BEGIN
 90
        0
 91
        1
 62
     0
 92
       -2
340
0
 93
        0
 40
0.045
309
GRIDFORMAT_END
 95
       32
302
GRIDFORMAT
  1
GRIDFORMAT_BEGIN
 90
        0
 91
        1
 62
     0
 92
       -2
340
0
 93
        0
 40
0.045
309
GRIDFORMAT_END
309
TABLEFORMAT_END
  1
CELLSTYLE_BEGIN
 90
        3
 91
        2
300
_DATA
309
CELLSTYLE_END
  0
ENDSEC
  0
EOF
