  0
SECTION
  2
HEADER
  9
$ACADVER
  1
AC1027
  9
$ACADMAINTVER
 70
     8
  9
$DWGCODEPAGE
  3
UNDEFINED
  9
$REQUIREDVERSIONS
160
                 0
  9
$INSBASE
 10
0.0
 20
0.0
 30
0.0
  9
$EXTMIN
 10
1.000000000000000E+20
 20
1.000000000000000E+20
 30
1.000000000000000E+20
  9
$EXTMAX
 10
-1.000000000000000E+20
 20
-1.000000000000000E+20
 30
-1.000000000000000E+20
  9
$LIMMIN
 10
-59.7438988
 20
-18.06479242
  9
$LIMMAX
 10
33.5527142
 20
50.73493536
  9
$ORTHOMODE
 70
     0
  9
$REGENMODE
 70
     1
  9
$FILLMODE
 70
     1
  9
$QTEXTMODE
 70
     0
  9
$MIRRTEXT
 70
     1
  9
$LTSCALE
 40
1.0
  9
$ATTMODE
 70
     1
  9
$TEXTSIZE
 40
2.5
  9
$TRACEWID
 40
1.0
  9
$TEXTSTYLE
  7
Standard
  9
$CLAYER
  8
0
  9
$CELTYPE
  6
ByLayer
  9
$CECOLOR
 62
   256
  9
$CELTSCALE
 40
1.0
  9
$DISPSILH
 70
     0
  9
$DIMSCALE
 40
1.0
  9
$DIMASZ
 40
2.5
  9
$DIMEXO
 40
0.625
  9
$DIMDLI
 40
3.75
  9
$DIMRND
 40
0.0
  9
$DIMDLE
 40
0.0
  9
$DIMEXE
 40
1.25
  9
$DIMTP
 40
0.0
  9
$DIMTM
 40
0.0
  9
$DIMTXT
 40
2.5
  9
$DIMCEN
 40
2.5
  9
$DIMTSZ
 40
0.0
  9
$DIMTOL
 70
     0
  9
$DIMLIM
 70
     0
  9
$DIMTIH
 70
     0
  9
$DIMTOH
 70
     0
  9
$DIMSE1
 70
     0
  9
$DIMSE2
 70
     0
  9
$DIMTAD
 70
     1
  9
$DIMZIN
 70
     8
  9
$DIMBLK
  1

  9
$DIMASO
 70
     1
  9
$DIMSHO
 70
     1
  9
$DIMPOST
  1

  9
$DIMAPOST
  1

  9
$DIMALT
 70
     0
  9
$DIMALTD
 70
     3
  9
$DIMALTF
 40
0.03937007874016
  9
$DIMLFAC
 40
1.0
  9
$DIMTOFL
 70
     1
  9
$DIMTVP
 40
0.0
  9
$DIMTIX
 70
     0
  9
$DIMSOXD
 70
     0
  9
$DIMSAH
 70
     0
  9
$DIMBLK1
  1

  9
$DIMBLK2
  1

  9
$DIMSTYLE
  2
ISO-25
  9
$DIMCLRD
 70
     0
  9
$DIMCLRE
 70
     0
  9
$DIMCLRT
 70
     0
  9
$DIMTFAC
 40
1.0
  9
$DIMGAP
 40
0.625
  9
$DIMJUST
 70
     0
  9
$DIMSD1
 70
     0
  9
$DIMSD2
 70
     0
  9
$DIMTOLJ
 70
     0
  9
$DIMTZIN
 70
     8
  9
$DIMALTZ
 70
     0
  9
$DIMALTTZ
 70
     0
  9
$DIMUPT
 70
     0
  9
$DIMDEC
 70
     2
  9
$DIMTDEC
 70
     2
  9
$DIMALTU
 70
     2
  9
$DIMALTTD
 70
     3
  9
$DIMTXSTY
  7
Standard
  9
$DIMAUNIT
 70
     0
  9
$DIMADEC
 70
     0
  9
$DIMALTRND
 40
0.0
  9
$DIMAZIN
 70
     0
  9
$DIMDSEP
 70
    44
  9
$DIMATFIT
 70
     3
  9
$DIMFRAC
 70
     0
  9
$DIMLDRBLK
  1

  9
$DIMLUNIT
 70
     2
  9
$DIMLWD
 70
    -2
  9
$DIMLWE
 70
    -2
  9
$DIMTMOVE
 70
     0
  9
$DIMFXL
 40
1.0
  9
$DIMFXLON
 70
     0
  9
$DIMJOGANG
 40
0.7853981633974483
  9
$DIMTFILL
 70
     0
  9
$DIMTFILLCLR
 70
     0
  9
$DIMARCSYM
 70
     0
  9
$DIMLTYPE
  6

  9
$DIMLTEX1
  6

  9
$DIMLTEX2
  6

  9
$DIMTXTDIRECTION
 70
     0
  9
$LUNITS
 70
     2
  9
$LUPREC
 70
     4
  9
$SKETCHINC
 40
1.0
  9
$FILLETRAD
 40
10.0
  9
$AUNITS
 70
     0
  9
$AUPREC
 70
     0
  9
$MENU
  1
.
  9
$ELEVATION
 40
0.0
  9
$PELEVATION
 40
0.0
  9
$THICKNESS
 40
0.0
  9
$LIMCHECK
 70
     0
  9
$CHAMFERA
 40
0.0
  9
$CHAMFERB
 40
0.0
  9
$CHAMFERC
 40
0.0
  9
$CHAMFERD
 40
0.0
  9
$SKPOLY
 70
     0
  9
$TDCREATE
 40
2459267.610832928
  9
$TDUCREATE
 40
2459267.277499595
  9
$TDUPDATE
 40
2459267.61083515
  9
$TDUUPDATE
 40
2459267.277501817
  9
$TDINDWG
 40
0.0000000116
  9
$TDUSRTIMER
 40
0.0000000116
  9
$USRTIMER
 70
     1
  9
$ANGBASE
 50
0.0
  9
$ANGDIR
 70
     0
  9
$PDMODE
 70
     0
  9
$PDSIZE
 40
0.0
  9
$PLINEWID
 40
0.0
  9
$SPLFRAME
 70
     0
  9
$SPLINETYPE
 70
     6
  9
$SPLINESEGS
 70
     8
  9
$HANDSEED
  5
3AB
  9
$SURFTAB1
 70
     6
  9
$SURFTAB2
 70
     6
  9
$SURFTYPE
 70
     6
  9
$SURFU
 70
     6
  9
$SURFV
 70
     6
  9
$UCSBASE
  2

  9
$UCSNAME
  2

  9
$UCSORG
 10
0.0
 20
0.0
 30
0.0
  9
$UCSXDIR
 10
1.0
 20
0.0
 30
0.0
  9
$UCSYDIR
 10
0.0
 20
1.0
 30
0.0
  9
$UCSORTHOREF
  2

  9
$UCSORTHOVIEW
 70
     0
  9
$UCSORGTOP
 10
0.0
 20
0.0
 30
0.0
  9
$UCSORGBOTTOM
 10
0.0
 20
0.0
 30
0.0
  9
$UCSORGLEFT
 10
0.0
 20
0.0
 30
0.0
  9
$UCSORGRIGHT
 10
0.0
 20
0.0
 30
0.0
  9
$UCSORGFRONT
 10
0.0
 20
0.0
 30
0.0
  9
$UCSORGBACK
 10
0.0
 20
0.0
 30
0.0
  9
$PUCSBASE
  2

  9
$PUCSNAME
  2

  9
$PUCSORG
 10
0.0
 20
0.0
 30
0.0
  9
$PUCSXDIR
 10
1.0
 20
0.0
 30
0.0
  9
$PUCSYDIR
 10
0.0
 20
1.0
 30
0.0
  9
$PUCSORTHOREF
  2

  9
$PUCSORTHOVIEW
 70
     0
  9
$PUCSORGTOP
 10
0.0
 20
0.0
 30
0.0
  9
$PUCSORGBOTTOM
 10
0.0
 20
0.0
 30
0.0
  9
$PUCSORGLEFT
 10
0.0
 20
0.0
 30
0.0
  9
$PUCSORGRIGHT
 10
0.0
 20
0.0
 30
0.0
  9
$PUCSORGFRONT
 10
0.0
 20
0.0
 30
0.0
  9
$PUCSORGBACK
 10
0.0
 20
0.0
 30
0.0
  9
$USERI1
 70
     0
  9
$USERI2
 70
     0
  9
$USERI3
 70
     0
  9
$USERI4
 70
     0
  9
$USERI5
 70
     0
  9
$USERR1
 40
0.0
  9
$USERR2
 40
0.0
  9
$USERR3
 40
0.0
  9
$USERR4
 40
0.0
  9
$USERR5
 40
0.0
  9
$WORLDVIEW
 70
     1
  9
$SHADEDGE
 70
     3
  9
$SHADEDIF
 70
    70
  9
$TILEMODE
 70
     1
  9
$MAXACTVP
 70
    64
  9
$PINSBASE
 10
0.0
 20
0.0
 30
0.0
  9
$PLIMCHECK
 70
     0
  9
$PEXTMIN
 10
1.000000000000000E+20
 20
1.000000000000000E+20
 30
1.000000000000000E+20
  9
$PEXTMAX
 10
-1.000000000000000E+20
 20
-1.000000000000000E+20
 30
-1.000000000000000E+20
  9
$PLIMMIN
 10
0.0
 20
0.0
  9
$PLIMMAX
 10
420.0
 20
297.0
  9
$UNITMODE
 70
     0
  9
$VISRETAIN
 70
     1
  9
$PLINEGEN
 70
     0
  9
$PSLTSCALE
 70
     1
  9
$TREEDEPTH
 70
  3020
  9
$CMLSTYLE
  2
Standard
  9
$CMLJUST
 70
     0
  9
$CMLSCALE
 40
20.0
  9
$PROXYGRAPHICS
 70
     1
  9
$MEASUREMENT
 70
     1
  9
$CELWEIGHT
370
    -1
  9
$ENDCAPS
280
     0
  9
$JOINSTYLE
280
     0
  9
$LWDISPLAY
290
     0
  9
$INSUNITS
 70
     4
  9
$HYPERLINKBASE
  1

  9
$STYLESHEET
  1

  9
$XEDIT
290
     1
  9
$CEPSNTYPE
380
     0
  9
$PSTYLEMODE
290
     1
  9
$FINGERPRINTGUID
  2
{17ED0637-A9DD-4A73-A331-33C227E8AB77}
  9
$VERSIONGUID
  2
{FAEB1C32-E019-11D5-929B-00C0DF256EC4}
  9
$EXTNAMES
290
     1
  9
$PSVPSCALE
 40
0.0
  9
$OLESTARTUP
290
     0
  9
$SORTENTS
280
   127
  9
$INDEXCTL
280
     0
  9
$HIDETEXT
280
     1
  9
$XCLIPFRAME
280
     2
  9
$HALOGAP
280
     0
  9
$OBSCOLOR
 70
   257
  9
$OBSLTYPE
280
     0
  9
$INTERSECTIONDISPLAY
280
     0
  9
$INTERSECTIONCOLOR
 70
   257
  9
$DIMASSOC
280
     2
  9
$PROJECTNAME
  1

  9
$CAMERADISPLAY
290
     0
  9
$LENSLENGTH
 40
50.0
  9
$CAMERAHEIGHT
 40
0.0
  9
$STEPSPERSEC
 40
2.0
  9
$STEPSIZE
 40
6.0
  9
$3DDWFPREC
 40
2.0
  9
$PSOLWIDTH
 40
5.0
  9
$PSOLHEIGHT
 40
80.0
  9
$LOFTANG1
 40
1.570796326794897
  9
$LOFTANG2
 40
1.570796326794897
  9
$LOFTMAG1
 40
0.0
  9
$LOFTMAG2
 40
0.0
  9
$LOFTPARAM
 70
     7
  9
$LOFTNORMALS
280
     1
  9
$LATITUDE
 40
37.795
  9
$LONGITUDE
 40
-122.394
  9
$NORTHDIRECTION
 40
0.0
  9
$TIMEZONE
 70
 -8000
  9
$LIGHTGLYPHDISPLAY
280
     1
  9
$TILEMODELIGHTSYNCH
280
     1
  9
$CMATERIAL
347
44
  9
$SOLIDHIST
280
     0
  9
$SHOWHIST
280
     1
  9
$DWFFRAME
280
     2
  9
$DGNFRAME
280
     2
  9
$REALWORLDSCALE
290
     1
  9
$INTERFERECOLOR
 62
   256
  9
$CSHADOW
280
     0
  9
$SHADOWPLANELOCATION
 40
0.0
  0
ENDSEC
  0
SECTION
  2
CLASSES
  0
CLASS
  1
ACDBDICTIONARYWDFLT
  2
AcDbDictionaryWithDefault
  3
ObjectDBX Classes
 90
        0
 91
        4
280
     0
281
     0
  0
CLASS
  1
VISUALSTYLE
  2
AcDbVisualStyle
  3
ObjectDBX Classes
 90
     4095
 91
        4
280
     0
281
     0
  0
CLASS
  1
MATERIAL
  2
AcDbMaterial
  3
ObjectDBX Classes
 90
     1153
 91
        4
280
     0
281
     0
  0
CLASS
  1
SCALE
  2
AcDbScale
  3
ObjectDBX Classes
 90
     1153
 91
        4
280
     0
281
     0
  0
CLASS
  1
TABLESTYLE
  2
AcDbTableStyle
  3
ObjectDBX Classes
 90
     4095
 91
        4
280
     0
281
     0
  0
CLASS
  1
MLEADERSTYLE
  2
AcDbMLeaderStyle
  3
ACDB_MLEADERSTYLE_CLASS
 90
     4095
 91
        4
280
     0
281
     0
  0
CLASS
  1
SUN
  2
AcDbSun
  3
SCENEOE
 90
     1153
 91
        4
280
     0
281
     0
  0
CLASS
  1
DICTIONARYVAR
  2
AcDbDictionaryVar
  3
ObjectDBX Classes
 90
        0
 91
        4
280
     0
281
     0
  0
CLASS
  1
CELLSTYLEMAP
  2
AcDbCellStyleMap
  3
ObjectDBX Classes
 90
     1152
 91
        4
280
     0
281
     0
  0
ENDSEC
  0
SECTION
  2
TABLES
  0
TABLE
  2
VPORT
  5
8
330
0
100
AcDbSymbolTable
 70
     1
  0
VPORT
  5
29
330
8
100
AcDbSymbolTableRecord
100
AcDbViewportTableRecord
  2
*Active
 70
     0
 10
0.0
 20
0.0
 11
1.0
 21
1.0
 12
344.1869158878504
 22
148.5
 13
0.0
 23
0.0
 14
10.0
 24
10.0
 15
10.0
 25
10.0
 16
0.0
 26
0.0
 36
1.0
 17
0.0
 27
0.0
 37
0.0
 40
297.0
 41
1.972972972850329
 42
50.0
 43
0.0
 44
0.0
 50
0.0
 51
0.0
 71
     0
 72
   100
 73
     1
 74
     3
 75
     0
 76
     0
 77
     0
 78
     0
281
     0
 65
     1
110
0.0
120
0.0
130
0.0
111
1.0
121
0.0
131
0.0
112
0.0
122
1.0
132
0.0
 79
     0
146
0.0
 60
     3
 61
     5
292
     1
282
     1
141
0.0
142
0.0
 63
   250
361
6D
  0
ENDTAB
  0
TABLE
  2
LTYPE
  5
5
330
0
100
AcDbSymbolTable
 70
     1
  0
LTYPE
  5
14
330
5
100
AcDbSymbolTableRecord
100
AcDbLinetypeTableRecord
  2
ByBlock
 70
     0
  3

 72
    65
 73
     0
 40
0.0
  0
LTYPE
  5
15
330
5
100
AcDbSymbolTableRecord
100
AcDbLinetypeTableRecord
  2
ByLayer
 70
     0
  3

 72
    65
 73
     0
 40
0.0
  0
LTYPE
  5
16
330
5
100
AcDbSymbolTableRecord
100
AcDbLinetypeTableRecord
  2
Continuous
 70
     0
  3
Solid line
 72
    65
 73
     0
 40
0.0
  0
ENDTAB
  0
TABLE
  2
LAYER
  5
2
330
0
100
AcDbSymbolTable
 70
     3
  0
LAYER
  5
10
330
2
100
AcDbSymbolTableRecord
100
AcDbLayerTableRecord
  2
0
 70
     0
 62
     7
  6
Continuous
370
    -3
390
F
347
46
348
0
  0
LAYER
  5
6E
330
2
100
AcDbSymbolTableRecord
100
AcDbLayerTableRecord
  2
Mechanical2
 70
     0
 62
   216
  6
Continuous
370
    -3
390
F
347
46
348
0
  0
LAYER
  5
6F
330
2
100
AcDbSymbolTableRecord
100
AcDbLayerTableRecord
  2
BottomSolder
 70
     0
 62
     6
  6
Continuous
370
    -3
390
F
347
46
348
0
  0
ENDTAB
  0
TABLE
  2
STYLE
  5
3
330
0
100
AcDbSymbolTable
 70
     1
  0
STYLE
  5
11
330
3
100
AcDbSymbolTableRecord
100
AcDbTextStyleTableRecord
  2
Standard
 70
     0
 40
0.0
 41
1.0
 50
0.0
 71
     0
 42
2.5
  3
txt
  4

  0
ENDTAB
  0
TABLE
  2
VIEW
  5
6
330
0
100
AcDbSymbolTable
 70
     0
  0
ENDTAB
  0
TABLE
  2
UCS
  5
7
330
0
100
AcDbSymbolTable
 70
     0
  0
ENDTAB
  0
TABLE
  2
APPID
  5
9
330
0
100
AcDbSymbolTable
 70
     1
  0
APPID
  5
12
330
9
100
AcDbSymbolTableRecord
100
AcDbRegAppTableRecord
  2
ACAD
 70
     0
  0
ENDTAB
  0
TABLE
  2
DIMSTYLE
  5
A
330
0
100
AcDbSymbolTable
 70
     1
100
AcDbDimStyleTable
  0
DIMSTYLE
105
27
330
A
100
AcDbSymbolTableRecord
100
AcDbDimStyleTableRecord
  2
ISO-25
 70
     0
 41
2.5
 42
0.625
 43
3.75
 44
1.25
 73
     0
 74
     0
 77
     1
 78
     8
140
2.5
141
2.5
143
0.03937007874016
147
0.625
171
     3
172
     1
178
     0
271
     2
272
     2
274
     3
278
    44
283
     0
284
     8
340
11
  0
ENDTAB
  0
TABLE
  2
BLOCK_RECORD
  5
1
330
0
100
AcDbSymbolTable
 70
    93
  0
BLOCK_RECORD
  5
1F
330
1
100
AcDbSymbolTableRecord
100
AcDbBlockTableRecord
  2
*Model_Space
340
22
 70
     0
280
     1
281
     0
  0
BLOCK_RECORD
  5
1B
330
1
100
AcDbSymbolTableRecord
100
AcDbBlockTableRecord
  2
*Paper_Space
340
1E
 70
     0
280
     1
281
     0
  0
BLOCK_RECORD
  5
23
330
1
100
AcDbSymbolTableRecord
100
AcDbBlockTableRecord
  2
*Paper_Space0
340
26
 70
     0
280
     1
281
     0
  0
BLOCK_RECORD
  5
7D
330
1
100
AcDbSymbolTableRecord
100
AcDbBlockTableRecord
  2
SIP1_____B_1
340
0
102
{BLKREFS
331
81
102
}
 70
     0
280
     1
281
     0
  0
BLOCK_RECORD
  5
82
330
1
100
AcDbSymbolTableRecord
100
AcDbBlockTableRecord
  2
SIP1_____B_2
340
0
102
{BLKREFS
331
86
102
}
 70
     0
280
     1
281
     0
  0
BLOCK_RECORD
  5
87
330
1
100
AcDbSymbolTableRecord
100
AcDbBlockTableRecord
  2
SIP1_____B_3
340
0
102
{BLKREFS
331
8B
102
}
 70
     0
280
     1
281
     0
  0
BLOCK_RECORD
  5
8C
330
1
100
AcDbSymbolTableRecord
100
AcDbBlockTableRecord
  2
R0402_S_4
340
0
102
{BLKREFS
331
8F
102
}
 70
     0
280
     1
281
     0
  0
BLOCK_RECORD
  5
90
330
1
100
AcDbSymbolTableRecord
100
AcDbBlockTableRecord
  2
R0402_S_5
340
0
102
{BLKREFS
331
93
102
}
 70
     0
280
     1
281
     0
  0
BLOCK_RECORD
  5
94
330
1
100
AcDbSymbolTableRecord
100
AcDbBlockTableRecord
  2
WSON8_6
340
0
102
{BLKREFS
331
97
102
}
 70
     0
280
     1
281
     0
  0
BLOCK_RECORD
  5
98
330
1
100
AcDbSymbolTableRecord
100
AcDbBlockTableRecord
  2
C0603_M_7
340
0
102
{BLKREFS
331
9B
102
}
 70
     0
280
     1
281
     0
  0
BLOCK_RECORD
  5
9C
330
1
100
AcDbSymbolTableRecord
100
AcDbBlockTableRecord
  2
C0603_M_8
340
0
102
{BLKREFS
331
9F
102
}
 70
     0
280
     1
281
     0
  0
BLOCK_RECORD
  5
A0
330
1
100
AcDbSymbolTableRecord
100
AcDbBlockTableRecord
  2
C0402_S_9
340
0
102
{BLKREFS
331
A3
102
}
 70
     0
280
     1
281
     0
  0
BLOCK_RECORD
  5
A4
330
1
100
AcDbSymbolTableRecord
100
AcDbBlockTableRecord
  2
C0603_M_10
340
0
102
{BLKREFS
331
A7
102
}
 70
     0
280
     1
281
     0
  0
BLOCK_RECORD
  5
A8
330
1
100
AcDbSymbolTableRecord
100
AcDbBlockTableRecord
  2
C0603_M_11
340
0
102
{BLKREFS
331
AB
102
}
 70
     0
280
     1
281
     0
  0
BLOCK_RECORD
  5
AC
330
1
100
AcDbSymbolTableRecord
100
AcDbBlockTableRecord
  2
C0603_M_12
340
0
102
{BLKREFS
331
AF
102
}
 70
     0
280
     1
281
     0
  0
BLOCK_RECORD
  5
B0
330
1
100
AcDbSymbolTableRecord
100
AcDbBlockTableRecord
  2
C0402_S_13
340
0
102
{BLKREFS
331
B3
102
}
 70
     0
280
     1
281
     0
  0
BLOCK_RECORD
  5
B4
330
1
100
AcDbSymbolTableRecord
100
AcDbBlockTableRecord
  2
C0402_S_14
340
0
102
{BLKREFS
331
B7
102
}
 70
     0
280
     1
281
     0
  0
BLOCK_RECORD
  5
B8
330
1
100
AcDbSymbolTableRecord
100
AcDbBlockTableRecord
  2
C0603_M_15
340
0
102
{BLKREFS
331
BB
102
}
 70
     0
280
     1
281
     0
  0
BLOCK_RECORD
  5
BC
330
1
100
AcDbSymbolTableRecord
100
AcDbBlockTableRecord
  2
C0402_S_16
340
0
102
{BLKREFS
331
BF
102
}
 70
     0
280
     1
281
     0
  0
BLOCK_RECORD
  5
C0
330
1
100
AcDbSymbolTableRecord
100
AcDbBlockTableRecord
  2
C0402_S_17
340
0
102
{BLKREFS
331
C3
102
}
 70
     0
280
     1
281
     0
  0
BLOCK_RECORD
  5
C4
330
1
100
AcDbSymbolTableRecord
100
AcDbBlockTableRecord
  2
C0402_S_18
340
0
102
{BLKREFS
331
C7
102
}
 70
     0
280
     1
281
     0
  0
BLOCK_RECORD
  5
C8
330
1
100
AcDbSymbolTableRecord
100
AcDbBlockTableRecord
  2
C0402_S_19
340
0
102
{BLKREFS
331
CB
102
}
 70
     0
280
     1
281
     0
  0
BLOCK_RECORD
  5
CC
330
1
100
AcDbSymbolTableRecord
100
AcDbBlockTableRecord
  2
C0402_S_20
340
0
102
{BLKREFS
331
CF
102
}
 70
     0
280
     1
281
     0
  0
BLOCK_RECORD
  5
D0
330
1
100
AcDbSymbolTableRecord
100
AcDbBlockTableRecord
  2
C0603_M_21
340
0
102
{BLKREFS
331
D3
102
}
 70
     0
280
     1
281
     0
  0
BLOCK_RECORD
  5
D4
330
1
100
AcDbSymbolTableRecord
100
AcDbBlockTableRecord
  2
C0603_M_22
340
0
102
{BLKREFS
331
D7
102
}
 70
     0
280
     1
281
     0
  0
BLOCK_RECORD
  5
D8
330
1
100
AcDbSymbolTableRecord
100
AcDbBlockTableRecord
  2
C0402_S_23
340
0
102
{BLKREFS
331
DB
102
}
 70
     0
280
     1
281
     0
  0
BLOCK_RECORD
  5
DC
330
1
100
AcDbSymbolTableRecord
100
AcDbBlockTableRecord
  2
C0402_S_24
340
0
102
{BLKREFS
331
DF
102
}
 70
     0
280
     1
281
     0
  0
BLOCK_RECORD
  5
E0
330
1
100
AcDbSymbolTableRecord
100
AcDbBlockTableRecord
  2
C0402_S_25
340
0
102
{BLKREFS
331
E3
102
}
 70
     0
280
     1
281
     0
  0
BLOCK_RECORD
  5
E4
330
1
100
AcDbSymbolTableRecord
100
AcDbBlockTableRecord
  2
C0402_S_26
340
0
102
{BLKREFS
331
E7
102
}
 70
     0
280
     1
281
     0
  0
BLOCK_RECORD
  5
E8
330
1
100
AcDbSymbolTableRecord
100
AcDbBlockTableRecord
  2
C0402_S_27
340
0
102
{BLKREFS
331
EB
102
}
 70
     0
280
     1
281
     0
  0
BLOCK_RECORD
  5
EC
330
1
100
AcDbSymbolTableRecord
100
AcDbBlockTableRecord
  2
R0402_S_28
340
0
102
{BLKREFS
331
EF
102
}
 70
     0
280
     1
281
     0
  0
BLOCK_RECORD
  5
F0
330
1
100
AcDbSymbolTableRecord
100
AcDbBlockTableRecord
  2
R0402_S_29
340
0
102
{BLKREFS
331
F3
102
}
 70
     0
280
     1
281
     0
  0
BLOCK_RECORD
  5
F4
330
1
100
AcDbSymbolTableRecord
100
AcDbBlockTableRecord
  2
R0402_S_30
340
0
102
{BLKREFS
331
F7
102
}
 70
     0
280
     1
281
     0
  0
BLOCK_RECORD
  5
F8
330
1
100
AcDbSymbolTableRecord
100
AcDbBlockTableRecord
  2
NR3015_31
340
0
102
{BLKREFS
331
FB
102
}
 70
     0
280
     1
281
     0
  0
BLOCK_RECORD
  5
FC
330
1
100
AcDbSymbolTableRecord
100
AcDbBlockTableRecord
  2
0806L_32
340
0
102
{BLKREFS
331
FF
102
}
 70
     0
280
     1
281
     0
  0
BLOCK_RECORD
  5
100
330
1
100
AcDbSymbolTableRecord
100
AcDbBlockTableRecord
  2
0806L_33
340
0
102
{BLKREFS
331
103
102
}
 70
     0
280
     1
281
     0
  0
BLOCK_RECORD
  5
104
330
1
100
AcDbSymbolTableRecord
100
AcDbBlockTableRecord
  2
R0402_S_34
340
0
102
{BLKREFS
331
107
102
}
 70
     0
280
     1
281
     0
  0
BLOCK_RECORD
  5
108
330
1
100
AcDbSymbolTableRecord
100
AcDbBlockTableRecord
  2
R0402_S_35
340
0
102
{BLKREFS
331
10B
102
}
 70
     0
280
     1
281
     0
  0
BLOCK_RECORD
  5
10C
330
1
100
AcDbSymbolTableRecord
100
AcDbBlockTableRecord
  2
R0402_S_36
340
0
102
{BLKREFS
331
10F
102
}
 70
     0
280
     1
281
     0
  0
BLOCK_RECORD
  5
110
330
1
100
AcDbSymbolTableRecord
100
AcDbBlockTableRecord
  2
R0402_S_37
340
0
102
{BLKREFS
331
113
102
}
 70
     0
280
     1
281
     0
  0
BLOCK_RECORD
  5
114
330
1
100
AcDbSymbolTableRecord
100
AcDbBlockTableRecord
  2
R0402_S_38
340
0
102
{BLKREFS
331
117
102
}
 70
     0
280
     1
281
     0
  0
BLOCK_RECORD
  5
118
330
1
100
AcDbSymbolTableRecord
100
AcDbBlockTableRecord
  2
R0402_S_39
340
0
102
{BLKREFS
331
11B
102
}
 70
     0
280
     1
281
     0
  0
BLOCK_RECORD
  5
11C
330
1
100
AcDbSymbolTableRecord
100
AcDbBlockTableRecord
  2
R0402_S_40
340
0
102
{BLKREFS
331
11F
102
}
 70
     0
280
     1
281
     0
  0
BLOCK_RECORD
  5
120
330
1
100
AcDbSymbolTableRecord
100
AcDbBlockTableRecord
  2
QFN20_3X3_41
340
0
102
{BLKREFS
331
123
102
}
 70
     0
280
     1
281
     0
  0
BLOCK_RECORD
  5
124
330
1
100
AcDbSymbolTableRecord
100
AcDbBlockTableRecord
  2
SOT_23_42
340
0
102
{BLKREFS
331
127
102
}
 70
     0
280
     1
281
     0
  0
BLOCK_RECORD
  5
128
330
1
100
AcDbSymbolTableRecord
100
AcDbBlockTableRecord
  2
SMD3225_43
340
0
102
{BLKREFS
331
12B
102
}
 70
     0
280
     1
281
     0
  0
BLOCK_RECORD
  5
12C
330
1
100
AcDbSymbolTableRecord
100
AcDbBlockTableRecord
  2
SIP18_1_27_____B_44
340
0
102
{BLKREFS
331
165
102
}
 70
     0
280
     1
281
     0
  0
BLOCK_RECORD
  5
166
330
1
100
AcDbSymbolTableRecord
100
AcDbBlockTableRecord
  2
SIP18_1_27______45
340
0
102
{BLKREFS
331
19F
102
}
 70
     0
280
     1
281
     0
  0
BLOCK_RECORD
  5
1A0
330
1
100
AcDbSymbolTableRecord
100
AcDbBlockTableRecord
  2
SIP18_1_27______46
340
0
102
{BLKREFS
331
1D9
102
}
 70
     0
280
     1
281
     0
  0
BLOCK_RECORD
  5
1DA
330
1
100
AcDbSymbolTableRecord
100
AcDbBlockTableRecord
  2
SIP18_1_27______47
340
0
102
{BLKREFS
331
213
102
}
 70
     0
280
     1
281
     0
  0
BLOCK_RECORD
  5
214
330
1
100
AcDbSymbolTableRecord
100
AcDbBlockTableRecord
  2
SIP1_____B_48
340
0
102
{BLKREFS
331
218
102
}
 70
     0
280
     1
281
     0
  0
BLOCK_RECORD
  5
219
330
1
100
AcDbSymbolTableRecord
100
AcDbBlockTableRecord
  2
SIP18_1_27_____B_49
340
0
102
{BLKREFS
331
252
102
}
 70
     0
280
     1
281
     0
  0
BLOCK_RECORD
  5
253
330
1
100
AcDbSymbolTableRecord
100
AcDbBlockTableRecord
  2
SIP18_1_27______50
340
0
102
{BLKREFS
331
28C
102
}
 70
     0
280
     1
281
     0
  0
BLOCK_RECORD
  5
28D
330
1
100
AcDbSymbolTableRecord
100
AcDbBlockTableRecord
  2
SIP18_1_27_____B_51
340
0
102
{BLKREFS
331
2C6
102
}
 70
     0
280
     1
281
     0
  0
BLOCK_RECORD
  5
2C7
330
1
100
AcDbSymbolTableRecord
100
AcDbBlockTableRecord
  2
SIP18_1_27_____B_52
340
0
102
{BLKREFS
331
300
102
}
 70
     0
280
     1
281
     0
  0
BLOCK_RECORD
  5
301
330
1
100
AcDbSymbolTableRecord
100
AcDbBlockTableRecord
  2
C0603_M_53
340
0
102
{BLKREFS
331
304
102
}
 70
     0
280
     1
281
     0
  0
BLOCK_RECORD
  5
305
330
1
100
AcDbSymbolTableRecord
100
AcDbBlockTableRecord
  2
C0603_M_54
340
0
102
{BLKREFS
331
308
102
}
 70
     0
280
     1
281
     0
  0
BLOCK_RECORD
  5
309
330
1
100
AcDbSymbolTableRecord
100
AcDbBlockTableRecord
  2
C0402_S_55
340
0
102
{BLKREFS
331
30C
102
}
 70
     0
280
     1
281
     0
  0
BLOCK_RECORD
  5
30D
330
1
100
AcDbSymbolTableRecord
100
AcDbBlockTableRecord
  2
C0402_S_56
340
0
102
{BLKREFS
331
310
102
}
 70
     0
280
     1
281
     0
  0
BLOCK_RECORD
  5
311
330
1
100
AcDbSymbolTableRecord
100
AcDbBlockTableRecord
  2
C0402_S_57
340
0
102
{BLKREFS
331
314
102
}
 70
     0
280
     1
281
     0
  0
BLOCK_RECORD
  5
315
330
1
100
AcDbSymbolTableRecord
100
AcDbBlockTableRecord
  2
C0402_S_58
340
0
102
{BLKREFS
331
318
102
}
 70
     0
280
     1
281
     0
  0
BLOCK_RECORD
  5
319
330
1
100
AcDbSymbolTableRecord
100
AcDbBlockTableRecord
  2
C0603_M_59
340
0
102
{BLKREFS
331
31C
102
}
 70
     0
280
     1
281
     0
  0
BLOCK_RECORD
  5
31D
330
1
100
AcDbSymbolTableRecord
100
AcDbBlockTableRecord
  2
C0603_M_60
340
0
102
{BLKREFS
331
320
102
}
 70
     0
280
     1
281
     0
  0
BLOCK_RECORD
  5
321
330
1
100
AcDbSymbolTableRecord
100
AcDbBlockTableRecord
  2
C0402_S_61
340
0
102
{BLKREFS
331
324
102
}
 70
     0
280
     1
281
     0
  0
BLOCK_RECORD
  5
325
330
1
100
AcDbSymbolTableRecord
100
AcDbBlockTableRecord
  2
C0402_S_62
340
0
102
{BLKREFS
331
328
102
}
 70
     0
280
     1
281
     0
  0
BLOCK_RECORD
  5
329
330
1
100
AcDbSymbolTableRecord
100
AcDbBlockTableRecord
  2
C0402_S_63
340
0
102
{BLKREFS
331
32C
102
}
 70
     0
280
     1
281
     0
  0
BLOCK_RECORD
  5
32D
330
1
100
AcDbSymbolTableRecord
100
AcDbBlockTableRecord
  2
C0402_S_64
340
0
102
{BLKREFS
331
330
102
}
 70
     0
280
     1
281
     0
  0
BLOCK_RECORD
  5
331
330
1
100
AcDbSymbolTableRecord
100
AcDbBlockTableRecord
  2
C0402_S_65
340
0
102
{BLKREFS
331
334
102
}
 70
     0
280
     1
281
     0
  0
BLOCK_RECORD
  5
335
330
1
100
AcDbSymbolTableRecord
100
AcDbBlockTableRecord
  2
C0402_S_66
340
0
102
{BLKREFS
331
338
102
}
 70
     0
280
     1
281
     0
  0
BLOCK_RECORD
  5
339
330
1
100
AcDbSymbolTableRecord
100
AcDbBlockTableRecord
  2
C0402_S_67
340
0
102
{BLKREFS
331
33C
102
}
 70
     0
280
     1
281
     0
  0
BLOCK_RECORD
  5
33D
330
1
100
AcDbSymbolTableRecord
100
AcDbBlockTableRecord
  2
BGA144_68
340
0
102
{BLKREFS
331
340
102
}
 70
     0
280
     1
281
     0
  0
BLOCK_RECORD
  5
341
330
1
100
AcDbSymbolTableRecord
100
AcDbBlockTableRecord
  2
C0402_S_69
340
0
102
{BLKREFS
331
344
102
}
 70
     0
280
     1
281
     0
  0
BLOCK_RECORD
  5
345
330
1
100
AcDbSymbolTableRecord
100
AcDbBlockTableRecord
  2
C0402_S_70
340
0
102
{BLKREFS
331
348
102
}
 70
     0
280
     1
281
     0
  0
BLOCK_RECORD
  5
349
330
1
100
AcDbSymbolTableRecord
100
AcDbBlockTableRecord
  2
C0603_M_71
340
0
102
{BLKREFS
331
34C
102
}
 70
     0
280
     1
281
     0
  0
BLOCK_RECORD
  5
34D
330
1
100
AcDbSymbolTableRecord
100
AcDbBlockTableRecord
  2
C0402_S_72
340
0
102
{BLKREFS
331
350
102
}
 70
     0
280
     1
281
     0
  0
BLOCK_RECORD
  5
351
330
1
100
AcDbSymbolTableRecord
100
AcDbBlockTableRecord
  2
C0402_S_73
340
0
102
{BLKREFS
331
354
102
}
 70
     0
280
     1
281
     0
  0
BLOCK_RECORD
  5
355
330
1
100
AcDbSymbolTableRecord
100
AcDbBlockTableRecord
  2
C0402_S_74
340
0
102
{BLKREFS
331
358
102
}
 70
     0
280
     1
281
     0
  0
BLOCK_RECORD
  5
359
330
1
100
AcDbSymbolTableRecord
100
AcDbBlockTableRecord
  2
C0402_S_75
340
0
102
{BLKREFS
331
35C
102
}
 70
     0
280
     1
281
     0
  0
BLOCK_RECORD
  5
35D
330
1
100
AcDbSymbolTableRecord
100
AcDbBlockTableRecord
  2
C0402_S_76
340
0
102
{BLKREFS
331
360
102
}
 70
     0
280
     1
281
     0
  0
BLOCK_RECORD
  5
361
330
1
100
AcDbSymbolTableRecord
100
AcDbBlockTableRecord
  2
C0402_S_77
340
0
102
{BLKREFS
331
364
102
}
 70
     0
280
     1
281
     0
  0
BLOCK_RECORD
  5
365
330
1
100
AcDbSymbolTableRecord
100
AcDbBlockTableRecord
  2
R0402_S_78
340
0
102
{BLKREFS
331
368
102
}
 70
     0
280
     1
281
     0
  0
BLOCK_RECORD
  5
369
330
1
100
AcDbSymbolTableRecord
100
AcDbBlockTableRecord
  2
R0402_S_79
340
0
102
{BLKREFS
331
36C
102
}
 70
     0
280
     1
281
     0
  0
BLOCK_RECORD
  5
36D
330
1
100
AcDbSymbolTableRecord
100
AcDbBlockTableRecord
  2
R0402_S_80
340
0
102
{BLKREFS
331
370
102
}
 70
     0
280
     1
281
     0
  0
BLOCK_RECORD
  5
371
330
1
100
AcDbSymbolTableRecord
100
AcDbBlockTableRecord
  2
R0402_S_81
340
0
102
{BLKREFS
331
374
102
}
 70
     0
280
     1
281
     0
  0
BLOCK_RECORD
  5
375
330
1
100
AcDbSymbolTableRecord
100
AcDbBlockTableRecord
  2
R0402_S_82
340
0
102
{BLKREFS
331
378
102
}
 70
     0
280
     1
281
     0
  0
BLOCK_RECORD
  5
379
330
1
100
AcDbSymbolTableRecord
100
AcDbBlockTableRecord
  2
R0402_S_83
340
0
102
{BLKREFS
331
37C
102
}
 70
     0
280
     1
281
     0
  0
BLOCK_RECORD
  5
37D
330
1
100
AcDbSymbolTableRecord
100
AcDbBlockTableRecord
  2
R0402_S_84
340
0
102
{BLKREFS
331
380
102
}
 70
     0
280
     1
281
     0
  0
BLOCK_RECORD
  5
381
330
1
100
AcDbSymbolTableRecord
100
AcDbBlockTableRecord
  2
IPEX_85
340
0
102
{BLKREFS
331
384
102
}
 70
     0
280
     1
281
     0
  0
BLOCK_RECORD
  5
385
330
1
100
AcDbSymbolTableRecord
100
AcDbBlockTableRecord
  2
QFN32___8285_86
340
0
102
{BLKREFS
331
388
102
}
 70
     0
280
     1
281
     0
  0
BLOCK_RECORD
  5
389
330
1
100
AcDbSymbolTableRecord
100
AcDbBlockTableRecord
  2
SIP1_____B_87
340
0
102
{BLKREFS
331
38D
102
}
 70
     0
280
     1
281
     0
  0
BLOCK_RECORD
  5
38E
330
1
100
AcDbSymbolTableRecord
100
AcDbBlockTableRecord
  2
C0402_S_88
340
0
102
{BLKREFS
331
391
102
}
 70
     0
280
     1
281
     0
  0
BLOCK_RECORD
  5
392
330
1
100
AcDbSymbolTableRecord
100
AcDbBlockTableRecord
  2
C0402_S_89
340
0
102
{BLKREFS
331
395
102
}
 70
     0
280
     1
281
     0
  0
BLOCK_RECORD
  5
396
330
1
100
AcDbSymbolTableRecord
100
AcDbBlockTableRecord
  2
SMD3225_90
340
0
102
{BLKREFS
331
399
102
}
 70
     0
280
     1
281
     0
  0
BLOCK_RECORD
  5
39A
330
1
100
AcDbSymbolTableRecord
100
AcDbBlockTableRecord
  2
R0402_S_91
340
0
102
{BLKREFS
331
39D
102
}
 70
     0
280
     1
281
     0
  0
BLOCK_RECORD
  5
39E
330
1
100
AcDbSymbolTableRecord
100
AcDbBlockTableRecord
  2
WSON8_6_5__92
340
0
102
{BLKREFS
331
3A1
102
}
 70
     0
280
     1
281
     0
  0
ENDTAB
  0
ENDSEC
  0
SECTION
  2
BLOCKS
  0
BLOCK
  5
20
330
1F
100
AcDbEntity
  8
0
100
AcDbBlockBegin
  2
*Model_Space
 70
     0
 10
0.0
 20
0.0
 30
0.0
  3
*Model_Space
  1

  0
ENDBLK
  5
21
330
1F
100
AcDbEntity
  8
0
100
AcDbBlockEnd
  0
BLOCK
  5
1C
330
1B
100
AcDbEntity
 67
     1
  8
0
100
AcDbBlockBegin
  2
*Paper_Space
 70
     0
 10
0.0
 20
0.0
 30
0.0
  3
*Paper_Space
  1

  0
ENDBLK
  5
1D
330
1B
100
AcDbEntity
 67
     1
  8
0
100
AcDbBlockEnd
  0
BLOCK
  5
24
330
23
100
AcDbEntity
  8
0
100
AcDbBlockBegin
  2
*Paper_Space0
 70
     0
 10
0.0
 20
0.0
 30
0.0
  3
*Paper_Space0
  1

  0
ENDBLK
  5
25
330
23
100
AcDbEntity
  8
0
100
AcDbBlockEnd
  0
BLOCK
  5
7E
330
7D
100
AcDbEntity
  8
0
100
AcDbBlockBegin
  2
SIP1_____B_1
 70
     0
 10
0.0
 20
0.0
 30
0.0
  3
SIP1_____B_1
  1

  0
SOLID
  5
80
330
7D
100
AcDbEntity
  8
BottomSolder
100
AcDbTrace
 10
0.3999992
 20
0.3999992
 30
0.0
 11
-0.3999992
 21
0.3999992
 31
0.0
 12
0.3999992
 22
-0.3999992
 32
0.0
 13
-0.3999992
 23
-0.3999992
 33
0.0
  0
ENDBLK
  5
7F
330
7D
100
AcDbEntity
  8
0
100
AcDbBlockEnd
  0
BLOCK
  5
83
330
82
100
AcDbEntity
  8
0
100
AcDbBlockBegin
  2
SIP1_____B_2
 70
     0
 10
0.0
 20
0.0
 30
0.0
  3
SIP1_____B_2
  1

  0
SOLID
  5
85
330
82
100
AcDbEntity
  8
BottomSolder
100
AcDbTrace
 10
0.3999992
 20
0.3999992
 30
0.0
 11
-0.3999992
 21
0.3999992
 31
0.0
 12
0.3999992
 22
-0.3999992
 32
0.0
 13
-0.3999992
 23
-0.3999992
 33
0.0
  0
ENDBLK
  5
84
330
82
100
AcDbEntity
  8
0
100
AcDbBlockEnd
  0
BLOCK
  5
88
330
87
100
AcDbEntity
  8
0
100
AcDbBlockBegin
  2
SIP1_____B_3
 70
     0
 10
0.0
 20
0.0
 30
0.0
  3
SIP1_____B_3
  1

  0
SOLID
  5
8A
330
87
100
AcDbEntity
  8
BottomSolder
100
AcDbTrace
 10
0.3999992
 20
0.3999992
 30
0.0
 11
-0.3999992
 21
0.3999992
 31
0.0
 12
0.3999992
 22
-0.3999992
 32
0.0
 13
-0.3999992
 23
-0.3999992
 33
0.0
  0
ENDBLK
  5
89
330
87
100
AcDbEntity
  8
0
100
AcDbBlockEnd
  0
BLOCK
  5
8D
330
8C
100
AcDbEntity
  8
0
100
AcDbBlockBegin
  2
R0402_S_4
 70
     0
 10
0.0
 20
0.0
 30
0.0
  3
R0402_S_4
  1

  0
ENDBLK
  5
8E
330
8C
100
AcDbEntity
  8
0
100
AcDbBlockEnd
  0
BLOCK
  5
91
330
90
100
AcDbEntity
  8
0
100
AcDbBlockBegin
  2
R0402_S_5
 70
     0
 10
0.0
 20
0.0
 30
0.0
  3
R0402_S_5
  1

  0
ENDBLK
  5
92
330
90
100
AcDbEntity
  8
0
100
AcDbBlockEnd
  0
BLOCK
  5
95
330
94
100
AcDbEntity
  8
0
100
AcDbBlockBegin
  2
WSON8_6
 70
     0
 10
0.0
 20
0.0
 30
0.0
  3
WSON8_6
  1

  0
ENDBLK
  5
96
330
94
100
AcDbEntity
  8
0
100
AcDbBlockEnd
  0
BLOCK
  5
99
330
98
100
AcDbEntity
  8
0
100
AcDbBlockBegin
  2
C0603_M_7
 70
     0
 10
0.0
 20
0.0
 30
0.0
  3
C0603_M_7
  1

  0
ENDBLK
  5
9A
330
98
100
AcDbEntity
  8
0
100
AcDbBlockEnd
  0
BLOCK
  5
9D
330
9C
100
AcDbEntity
  8
0
100
AcDbBlockBegin
  2
C0603_M_8
 70
     0
 10
0.0
 20
0.0
 30
0.0
  3
C0603_M_8
  1

  0
ENDBLK
  5
9E
330
9C
100
AcDbEntity
  8
0
100
AcDbBlockEnd
  0
BLOCK
  5
A1
330
A0
100
AcDbEntity
  8
0
100
AcDbBlockBegin
  2
C0402_S_9
 70
     0
 10
0.0
 20
0.0
 30
0.0
  3
C0402_S_9
  1

  0
ENDBLK
  5
A2
330
A0
100
AcDbEntity
  8
0
100
AcDbBlockEnd
  0
BLOCK
  5
A5
330
A4
100
AcDbEntity
  8
0
100
AcDbBlockBegin
  2
C0603_M_10
 70
     0
 10
0.0
 20
0.0
 30
0.0
  3
C0603_M_10
  1

  0
ENDBLK
  5
A6
330
A4
100
AcDbEntity
  8
0
100
AcDbBlockEnd
  0
BLOCK
  5
A9
330
A8
100
AcDbEntity
  8
0
100
AcDbBlockBegin
  2
C0603_M_11
 70
     0
 10
0.0
 20
0.0
 30
0.0
  3
C0603_M_11
  1

  0
ENDBLK
  5
AA
330
A8
100
AcDbEntity
  8
0
100
AcDbBlockEnd
  0
BLOCK
  5
AD
330
AC
100
AcDbEntity
  8
0
100
AcDbBlockBegin
  2
C0603_M_12
 70
     0
 10
0.0
 20
0.0
 30
0.0
  3
C0603_M_12
  1

  0
ENDBLK
  5
AE
330
AC
100
AcDbEntity
  8
0
100
AcDbBlockEnd
  0
BLOCK
  5
B1
330
B0
100
AcDbEntity
  8
0
100
AcDbBlockBegin
  2
C0402_S_13
 70
     0
 10
0.0
 20
0.0
 30
0.0
  3
C0402_S_13
  1

  0
ENDBLK
  5
B2
330
B0
100
AcDbEntity
  8
0
100
AcDbBlockEnd
  0
BLOCK
  5
B5
330
B4
100
AcDbEntity
  8
0
100
AcDbBlockBegin
  2
C0402_S_14
 70
     0
 10
0.0
 20
0.0
 30
0.0
  3
C0402_S_14
  1

  0
ENDBLK
  5
B6
330
B4
100
AcDbEntity
  8
0
100
AcDbBlockEnd
  0
BLOCK
  5
B9
330
B8
100
AcDbEntity
  8
0
100
AcDbBlockBegin
  2
C0603_M_15
 70
     0
 10
0.0
 20
0.0
 30
0.0
  3
C0603_M_15
  1

  0
ENDBLK
  5
BA
330
B8
100
AcDbEntity
  8
0
100
AcDbBlockEnd
  0
BLOCK
  5
BD
330
BC
100
AcDbEntity
  8
0
100
AcDbBlockBegin
  2
C0402_S_16
 70
     0
 10
0.0
 20
0.0
 30
0.0
  3
C0402_S_16
  1

  0
ENDBLK
  5
BE
330
BC
100
AcDbEntity
  8
0
100
AcDbBlockEnd
  0
BLOCK
  5
C1
330
C0
100
AcDbEntity
  8
0
100
AcDbBlockBegin
  2
C0402_S_17
 70
     0
 10
0.0
 20
0.0
 30
0.0
  3
C0402_S_17
  1

  0
ENDBLK
  5
C2
330
C0
100
AcDbEntity
  8
0
100
AcDbBlockEnd
  0
BLOCK
  5
C5
330
C4
100
AcDbEntity
  8
0
100
AcDbBlockBegin
  2
C0402_S_18
 70
     0
 10
0.0
 20
0.0
 30
0.0
  3
C0402_S_18
  1

  0
ENDBLK
  5
C6
330
C4
100
AcDbEntity
  8
0
100
AcDbBlockEnd
  0
BLOCK
  5
C9
330
C8
100
AcDbEntity
  8
0
100
AcDbBlockBegin
  2
C0402_S_19
 70
     0
 10
0.0
 20
0.0
 30
0.0
  3
C0402_S_19
  1

  0
ENDBLK
  5
CA
330
C8
100
AcDbEntity
  8
0
100
AcDbBlockEnd
  0
BLOCK
  5
CD
330
CC
100
AcDbEntity
  8
0
100
AcDbBlockBegin
  2
C0402_S_20
 70
     0
 10
0.0
 20
0.0
 30
0.0
  3
C0402_S_20
  1

  0
ENDBLK
  5
CE
330
CC
100
AcDbEntity
  8
0
100
AcDbBlockEnd
  0
BLOCK
  5
D1
330
D0
100
AcDbEntity
  8
0
100
AcDbBlockBegin
  2
C0603_M_21
 70
     0
 10
0.0
 20
0.0
 30
0.0
  3
C0603_M_21
  1

  0
ENDBLK
  5
D2
330
D0
100
AcDbEntity
  8
0
100
AcDbBlockEnd
  0
BLOCK
  5
D5
330
D4
100
AcDbEntity
  8
0
100
AcDbBlockBegin
  2
C0603_M_22
 70
     0
 10
0.0
 20
0.0
 30
0.0
  3
C0603_M_22
  1

  0
ENDBLK
  5
D6
330
D4
100
AcDbEntity
  8
0
100
AcDbBlockEnd
  0
BLOCK
  5
D9
330
D8
100
AcDbEntity
  8
0
100
AcDbBlockBegin
  2
C0402_S_23
 70
     0
 10
0.0
 20
0.0
 30
0.0
  3
C0402_S_23
  1

  0
ENDBLK
  5
DA
330
D8
100
AcDbEntity
  8
0
100
AcDbBlockEnd
  0
BLOCK
  5
DD
330
DC
100
AcDbEntity
  8
0
100
AcDbBlockBegin
  2
C0402_S_24
 70
     0
 10
0.0
 20
0.0
 30
0.0
  3
C0402_S_24
  1

  0
ENDBLK
  5
DE
330
DC
100
AcDbEntity
  8
0
100
AcDbBlockEnd
  0
BLOCK
  5
E1
330
E0
100
AcDbEntity
  8
0
100
AcDbBlockBegin
  2
C0402_S_25
 70
     0
 10
0.0
 20
0.0
 30
0.0
  3
C0402_S_25
  1

  0
ENDBLK
  5
E2
330
E0
100
AcDbEntity
  8
0
100
AcDbBlockEnd
  0
BLOCK
  5
E5
330
E4
100
AcDbEntity
  8
0
100
AcDbBlockBegin
  2
C0402_S_26
 70
     0
 10
0.0
 20
0.0
 30
0.0
  3
C0402_S_26
  1

  0
ENDBLK
  5
E6
330
E4
100
AcDbEntity
  8
0
100
AcDbBlockEnd
  0
BLOCK
  5
E9
330
E8
100
AcDbEntity
  8
0
100
AcDbBlockBegin
  2
C0402_S_27
 70
     0
 10
0.0
 20
0.0
 30
0.0
  3
C0402_S_27
  1

  0
ENDBLK
  5
EA
330
E8
100
AcDbEntity
  8
0
100
AcDbBlockEnd
  0
BLOCK
  5
ED
330
EC
100
AcDbEntity
  8
0
100
AcDbBlockBegin
  2
R0402_S_28
 70
     0
 10
0.0
 20
0.0
 30
0.0
  3
R0402_S_28
  1

  0
ENDBLK
  5
EE
330
EC
100
AcDbEntity
  8
0
100
AcDbBlockEnd
  0
BLOCK
  5
F1
330
F0
100
AcDbEntity
  8
0
100
AcDbBlockBegin
  2
R0402_S_29
 70
     0
 10
0.0
 20
0.0
 30
0.0
  3
R0402_S_29
  1

  0
ENDBLK
  5
F2
330
F0
100
AcDbEntity
  8
0
100
AcDbBlockEnd
  0
BLOCK
  5
F5
330
F4
100
AcDbEntity
  8
0
100
AcDbBlockBegin
  2
R0402_S_30
 70
     0
 10
0.0
 20
0.0
 30
0.0
  3
R0402_S_30
  1

  0
ENDBLK
  5
F6
330
F4
100
AcDbEntity
  8
0
100
AcDbBlockEnd
  0
BLOCK
  5
F9
330
F8
100
AcDbEntity
  8
0
100
AcDbBlockBegin
  2
NR3015_31
 70
     0
 10
0.0
 20
0.0
 30
0.0
  3
NR3015_31
  1

  0
ENDBLK
  5
FA
330
F8
100
AcDbEntity
  8
0
100
AcDbBlockEnd
  0
BLOCK
  5
FD
330
FC
100
AcDbEntity
  8
0
100
AcDbBlockBegin
  2
0806L_32
 70
     0
 10
0.0
 20
0.0
 30
0.0
  3
0806L_32
  1

  0
ENDBLK
  5
FE
330
FC
100
AcDbEntity
  8
0
100
AcDbBlockEnd
  0
BLOCK
  5
101
330
100
100
AcDbEntity
  8
0
100
AcDbBlockBegin
  2
0806L_33
 70
     0
 10
0.0
 20
0.0
 30
0.0
  3
0806L_33
  1

  0
ENDBLK
  5
102
330
100
100
AcDbEntity
  8
0
100
AcDbBlockEnd
  0
BLOCK
  5
105
330
104
100
AcDbEntity
  8
0
100
AcDbBlockBegin
  2
R0402_S_34
 70
     0
 10
0.0
 20
0.0
 30
0.0
  3
R0402_S_34
  1

  0
ENDBLK
  5
106
330
104
100
AcDbEntity
  8
0
100
AcDbBlockEnd
  0
BLOCK
  5
109
330
108
100
AcDbEntity
  8
0
100
AcDbBlockBegin
  2
R0402_S_35
 70
     0
 10
0.0
 20
0.0
 30
0.0
  3
R0402_S_35
  1

  0
ENDBLK
  5
10A
330
108
100
AcDbEntity
  8
0
100
AcDbBlockEnd
  0
BLOCK
  5
10D
330
10C
100
AcDbEntity
  8
0
100
AcDbBlockBegin
  2
R0402_S_36
 70
     0
 10
0.0
 20
0.0
 30
0.0
  3
R0402_S_36
  1

  0
ENDBLK
  5
10E
330
10C
100
AcDbEntity
  8
0
100
AcDbBlockEnd
  0
BLOCK
  5
111
330
110
100
AcDbEntity
  8
0
100
AcDbBlockBegin
  2
R0402_S_37
 70
     0
 10
0.0
 20
0.0
 30
0.0
  3
R0402_S_37
  1

  0
ENDBLK
  5
112
330
110
100
AcDbEntity
  8
0
100
AcDbBlockEnd
  0
BLOCK
  5
115
330
114
100
AcDbEntity
  8
0
100
AcDbBlockBegin
  2
R0402_S_38
 70
     0
 10
0.0
 20
0.0
 30
0.0
  3
R0402_S_38
  1

  0
ENDBLK
  5
116
330
114
100
AcDbEntity
  8
0
100
AcDbBlockEnd
  0
BLOCK
  5
119
330
118
100
AcDbEntity
  8
0
100
AcDbBlockBegin
  2
R0402_S_39
 70
     0
 10
0.0
 20
0.0
 30
0.0
  3
R0402_S_39
  1

  0
ENDBLK
  5
11A
330
118
100
AcDbEntity
  8
0
100
AcDbBlockEnd
  0
BLOCK
  5
11D
330
11C
100
AcDbEntity
  8
0
100
AcDbBlockBegin
  2
R0402_S_40
 70
     0
 10
0.0
 20
0.0
 30
0.0
  3
R0402_S_40
  1

  0
ENDBLK
  5
11E
330
11C
100
AcDbEntity
  8
0
100
AcDbBlockEnd
  0
BLOCK
  5
121
330
120
100
AcDbEntity
  8
0
100
AcDbBlockBegin
  2
QFN20_3X3_41
 70
     0
 10
0.0
 20
0.0
 30
0.0
  3
QFN20_3X3_41
  1

  0
ENDBLK
  5
122
330
120
100
AcDbEntity
  8
0
100
AcDbBlockEnd
  0
BLOCK
  5
125
330
124
100
AcDbEntity
  8
0
100
AcDbBlockBegin
  2
SOT_23_42
 70
     0
 10
0.0
 20
0.0
 30
0.0
  3
SOT_23_42
  1

  0
ENDBLK
  5
126
330
124
100
AcDbEntity
  8
0
100
AcDbBlockEnd
  0
BLOCK
  5
129
330
128
100
AcDbEntity
  8
0
100
AcDbBlockBegin
  2
SMD3225_43
 70
     0
 10
0.0
 20
0.0
 30
0.0
  3
SMD3225_43
  1

  0
ENDBLK
  5
12A
330
128
100
AcDbEntity
  8
0
100
AcDbBlockEnd
  0
BLOCK
  5
12D
330
12C
100
AcDbEntity
  8
0
100
AcDbBlockBegin
  2
SIP18_1_27_____B_44
 70
     0
 10
0.0
 20
0.0
 30
0.0
  3
SIP18_1_27_____B_44
  1

  0
LWPOLYLINE
  5
12F
330
12C
100
AcDbEntity
  8
BottomSolder
100
AcDbPolyline
 90
        2
 70
     0
 43
0.85080094
 10
13.97
 20
0.1999996
 10
13.97
 20
-0.1999996
  0
LWPOLYLINE
  5
130
330
12C
100
AcDbEntity
  8
BottomSolder
100
AcDbPolyline
 90
        2
 70
     1
 43
0.4253992
 10
13.7573004
 20
0.1999996
 42
1.0
 10
14.1826996
 20
0.1999996
 42
1.0
  0
LWPOLYLINE
  5
131
330
12C
100
AcDbEntity
  8
BottomSolder
100
AcDbPolyline
 90
        2
 70
     1
 43
0.4253992
 10
13.7573004
 20
-0.1999996
 42
1.0
 10
14.1826996
 20
-0.1999996
 42
1.0
  0
LWPOLYLINE
  5
132
330
12C
100
AcDbEntity
  8
BottomSolder
100
AcDbPolyline
 90
        2
 70
     0
 43
0.85080094
 10
12.7
 20
0.1999996
 10
12.7
 20
-0.1999996
  0
LWPOLYLINE
  5
133
330
12C
100
AcDbEntity
  8
BottomSolder
100
AcDbPolyline
 90
        2
 70
     1
 43
0.4253992
 10
12.4873004
 20
0.1999996
 42
1.0
 10
12.9126996
 20
0.1999996
 42
1.0
  0
LWPOLYLINE
  5
134
330
12C
100
AcDbEntity
  8
BottomSolder
100
AcDbPolyline
 90
        2
 70
     1
 43
0.4253992
 10
12.4873004
 20
-0.1999996
 42
1.0
 10
12.9126996
 20
-0.1999996
 42
1.0
  0
LWPOLYLINE
  5
135
330
12C
100
AcDbEntity
  8
BottomSolder
100
AcDbPolyline
 90
        2
 70
     0
 43
0.85080094
 10
10.16
 20
0.1999996
 10
10.16
 20
-0.1999996
  0
LWPOLYLINE
  5
136
330
12C
100
AcDbEntity
  8
BottomSolder
100
AcDbPolyline
 90
        2
 70
     1
 43
0.4253992
 10
9.9473004
 20
0.1999996
 42
1.0
 10
10.3726996
 20
0.1999996
 42
1.0
  0
LWPOLYLINE
  5
137
330
12C
100
AcDbEntity
  8
BottomSolder
100
AcDbPolyline
 90
        2
 70
     1
 43
0.4253992
 10
9.9473004
 20
-0.1999996
 42
1.0
 10
10.3726996
 20
-0.1999996
 42
1.0
  0
LWPOLYLINE
  5
138
330
12C
100
AcDbEntity
  8
BottomSolder
100
AcDbPolyline
 90
        2
 70
     0
 43
0.85080094
 10
11.43
 20
0.1999996
 10
11.43
 20
-0.1999996
  0
LWPOLYLINE
  5
139
330
12C
100
AcDbEntity
  8
BottomSolder
100
AcDbPolyline
 90
        2
 70
     1
 43
0.4253992
 10
11.2173004
 20
0.1999996
 42
1.0
 10
11.6426996
 20
0.1999996
 42
1.0
  0
LWPOLYLINE
  5
13A
330
12C
100
AcDbEntity
  8
BottomSolder
100
AcDbPolyline
 90
        2
 70
     1
 43
0.4253992
 10
11.2173004
 20
-0.1999996
 42
1.0
 10
11.6426996
 20
-0.1999996
 42
1.0
  0
LWPOLYLINE
  5
13B
330
12C
100
AcDbEntity
  8
BottomSolder
100
AcDbPolyline
 90
        2
 70
     0
 43
0.85080094
 10
8.889999999999999
 20
0.1999996
 10
8.889999999999999
 20
-0.1999996
  0
LWPOLYLINE
  5
13C
330
12C
100
AcDbEntity
  8
BottomSolder
100
AcDbPolyline
 90
        2
 70
     1
 43
0.4253992
 10
8.6773004
 20
0.1999996
 42
1.0
 10
9.1026996
 20
0.1999996
 42
1.0
  0
LWPOLYLINE
  5
13D
330
12C
100
AcDbEntity
  8
BottomSolder
100
AcDbPolyline
 90
        2
 70
     1
 43
0.4253992
 10
8.6773004
 20
-0.1999996
 42
1.0
 10
9.1026996
 20
-0.1999996
 42
1.0
  0
LWPOLYLINE
  5
13E
330
12C
100
AcDbEntity
  8
BottomSolder
100
AcDbPolyline
 90
        2
 70
     0
 43
0.85080094
 10
7.619999999999999
 20
0.1999996
 10
7.619999999999999
 20
-0.1999996
  0
LWPOLYLINE
  5
13F
330
12C
100
AcDbEntity
  8
BottomSolder
100
AcDbPolyline
 90
        2
 70
     1
 43
0.4253992
 10
7.4073004
 20
0.1999996
 42
1.0
 10
7.832699599999999
 20
0.1999996
 42
1.0
  0
LWPOLYLINE
  5
140
330
12C
100
AcDbEntity
  8
BottomSolder
100
AcDbPolyline
 90
        2
 70
     1
 43
0.4253992
 10
7.4073004
 20
-0.1999996
 42
1.0
 10
7.832699599999999
 20
-0.1999996
 42
1.0
  0
LWPOLYLINE
  5
141
330
12C
100
AcDbEntity
  8
BottomSolder
100
AcDbPolyline
 90
        2
 70
     0
 43
0.85080094
 10
6.35
 20
0.1999996
 10
6.35
 20
-0.1999996
  0
LWPOLYLINE
  5
142
330
12C
100
AcDbEntity
  8
BottomSolder
100
AcDbPolyline
 90
        2
 70
     1
 43
0.4253992
 10
6.1373004
 20
0.1999996
 42
1.0
 10
6.562699599999999
 20
0.1999996
 42
1.0
  0
LWPOLYLINE
  5
143
330
12C
100
AcDbEntity
  8
BottomSolder
100
AcDbPolyline
 90
        2
 70
     1
 43
0.4253992
 10
6.1373004
 20
-0.1999996
 42
1.0
 10
6.562699599999999
 20
-0.1999996
 42
1.0
  0
LWPOLYLINE
  5
144
330
12C
100
AcDbEntity
  8
BottomSolder
100
AcDbPolyline
 90
        2
 70
     0
 43
0.85080094
 10
5.08
 20
0.1999996
 10
5.08
 20
-0.1999996
  0
LWPOLYLINE
  5
145
330
12C
100
AcDbEntity
  8
BottomSolder
100
AcDbPolyline
 90
        2
 70
     1
 43
0.4253992
 10
4.8673004
 20
0.1999996
 42
1.0
 10
5.2926996
 20
0.1999996
 42
1.0
  0
LWPOLYLINE
  5
146
330
12C
100
AcDbEntity
  8
BottomSolder
100
AcDbPolyline
 90
        2
 70
     1
 43
0.4253992
 10
4.8673004
 20
-0.1999996
 42
1.0
 10
5.2926996
 20
-0.1999996
 42
1.0
  0
LWPOLYLINE
  5
147
330
12C
100
AcDbEntity
  8
BottomSolder
100
AcDbPolyline
 90
        2
 70
     0
 43
0.85080094
 10
3.81
 20
0.1999996
 10
3.81
 20
-0.1999996
  0
LWPOLYLINE
  5
148
330
12C
100
AcDbEntity
  8
BottomSolder
100
AcDbPolyline
 90
        2
 70
     1
 43
0.4253992
 10
3.5973004
 20
0.1999996
 42
1.0
 10
4.022699599999999
 20
0.1999996
 42
1.0
  0
LWPOLYLINE
  5
149
330
12C
100
AcDbEntity
  8
BottomSolder
100
AcDbPolyline
 90
        2
 70
     1
 43
0.4253992
 10
3.5973004
 20
-0.1999996
 42
1.0
 10
4.022699599999999
 20
-0.1999996
 42
1.0
  0
LWPOLYLINE
  5
14A
330
12C
100
AcDbEntity
  8
BottomSolder
100
AcDbPolyline
 90
        2
 70
     0
 43
0.85080094
 10
2.54
 20
0.1999996
 10
2.54
 20
-0.1999996
  0
LWPOLYLINE
  5
14B
330
12C
100
AcDbEntity
  8
BottomSolder
100
AcDbPolyline
 90
        2
 70
     1
 43
0.4253992
 10
2.3273004
 20
0.1999996
 42
1.0
 10
2.7526996
 20
0.1999996
 42
1.0
  0
LWPOLYLINE
  5
14C
330
12C
100
AcDbEntity
  8
BottomSolder
100
AcDbPolyline
 90
        2
 70
     1
 43
0.4253992
 10
2.3273004
 20
-0.1999996
 42
1.0
 10
2.7526996
 20
-0.1999996
 42
1.0
  0
LWPOLYLINE
  5
14D
330
12C
100
AcDbEntity
  8
BottomSolder
100
AcDbPolyline
 90
        2
 70
     0
 43
0.85080094
 10
1.27
 20
0.1999996
 10
1.27
 20
-0.1999996
  0
LWPOLYLINE
  5
14E
330
12C
100
AcDbEntity
  8
BottomSolder
100
AcDbPolyline
 90
        2
 70
     1
 43
0.4253992
 10
1.0573004
 20
0.1999996
 42
1.0
 10
1.4826996
 20
0.1999996
 42
1.0
  0
LWPOLYLINE
  5
14F
330
12C
100
AcDbEntity
  8
BottomSolder
100
AcDbPolyline
 90
        2
 70
     1
 43
0.4253992
 10
1.0573004
 20
-0.1999996
 42
1.0
 10
1.4826996
 20
-0.1999996
 42
1.0
  0
LWPOLYLINE
  5
150
330
12C
100
AcDbEntity
  8
BottomSolder
100
AcDbPolyline
 90
        2
 70
     0
 43
0.85080094
 10
0.0
 20
0.1999996
 10
0.0
 20
-0.1999996
  0
LWPOLYLINE
  5
151
330
12C
100
AcDbEntity
  8
BottomSolder
100
AcDbPolyline
 90
        2
 70
     1
 43
0.4253992
 10
-0.2126996
 20
0.1999996
 42
1.0
 10
0.2126996
 20
0.1999996
 42
1.0
  0
LWPOLYLINE
  5
152
330
12C
100
AcDbEntity
  8
BottomSolder
100
AcDbPolyline
 90
        2
 70
     1
 43
0.4253992
 10
-0.2126996
 20
-0.1999996
 42
1.0
 10
0.2126996
 20
-0.1999996
 42
1.0
  0
LWPOLYLINE
  5
153
330
12C
100
AcDbEntity
  8
BottomSolder
100
AcDbPolyline
 90
        2
 70
     0
 43
0.85080094
 10
15.24
 20
0.1999996
 10
15.24
 20
-0.1999996
  0
LWPOLYLINE
  5
154
330
12C
100
AcDbEntity
  8
BottomSolder
100
AcDbPolyline
 90
        2
 70
     1
 43
0.4253992
 10
15.0273004
 20
0.1999996
 42
1.0
 10
15.4526996
 20
0.1999996
 42
1.0
  0
LWPOLYLINE
  5
155
330
12C
100
AcDbEntity
  8
BottomSolder
100
AcDbPolyline
 90
        2
 70
     1
 43
0.4253992
 10
15.0273004
 20
-0.1999996
 42
1.0
 10
15.4526996
 20
-0.1999996
 42
1.0
  0
LWPOLYLINE
  5
156
330
12C
100
AcDbEntity
  8
BottomSolder
100
AcDbPolyline
 90
        2
 70
     0
 43
0.85080094
 10
17.78
 20
0.1999996
 10
17.78
 20
-0.1999996
  0
LWPOLYLINE
  5
157
330
12C
100
AcDbEntity
  8
BottomSolder
100
AcDbPolyline
 90
        2
 70
     1
 43
0.4253992
 10
17.5673004
 20
0.1999996
 42
1.0
 10
17.9926996
 20
0.1999996
 42
1.0
  0
LWPOLYLINE
  5
158
330
12C
100
AcDbEntity
  8
BottomSolder
100
AcDbPolyline
 90
        2
 70
     1
 43
0.4253992
 10
17.5673004
 20
-0.1999996
 42
1.0
 10
17.9926996
 20
-0.1999996
 42
1.0
  0
LWPOLYLINE
  5
159
330
12C
100
AcDbEntity
  8
BottomSolder
100
AcDbPolyline
 90
        2
 70
     0
 43
0.85080094
 10
16.51
 20
0.1999996
 10
16.51
 20
-0.1999996
  0
LWPOLYLINE
  5
15A
330
12C
100
AcDbEntity
  8
BottomSolder
100
AcDbPolyline
 90
        2
 70
     1
 43
0.4253992
 10
16.2973004
 20
0.1999996
 42
1.0
 10
16.7226996
 20
0.1999996
 42
1.0
  0
LWPOLYLINE
  5
15B
330
12C
100
AcDbEntity
  8
BottomSolder
100
AcDbPolyline
 90
        2
 70
     1
 43
0.4253992
 10
16.2973004
 20
-0.1999996
 42
1.0
 10
16.7226996
 20
-0.1999996
 42
1.0
  0
LWPOLYLINE
  5
15C
330
12C
100
AcDbEntity
  8
BottomSolder
100
AcDbPolyline
 90
        2
 70
     0
 43
0.85080094
 10
19.05
 20
0.1999996
 10
19.05
 20
-0.1999996
  0
LWPOLYLINE
  5
15D
330
12C
100
AcDbEntity
  8
BottomSolder
100
AcDbPolyline
 90
        2
 70
     1
 43
0.4253992
 10
18.8373004
 20
0.1999996
 42
1.0
 10
19.2626996
 20
0.1999996
 42
1.0
  0
LWPOLYLINE
  5
15E
330
12C
100
AcDbEntity
  8
BottomSolder
100
AcDbPolyline
 90
        2
 70
     1
 43
0.4253992
 10
18.8373004
 20
-0.1999996
 42
1.0
 10
19.2626996
 20
-0.1999996
 42
1.0
  0
LWPOLYLINE
  5
15F
330
12C
100
AcDbEntity
  8
BottomSolder
100
AcDbPolyline
 90
        2
 70
     0
 43
0.85080094
 10
20.32
 20
0.1999996
 10
20.32
 20
-0.1999996
  0
LWPOLYLINE
  5
160
330
12C
100
AcDbEntity
  8
BottomSolder
100
AcDbPolyline
 90
        2
 70
     1
 43
0.4253992
 10
20.1073004
 20
0.1999996
 42
1.0
 10
20.5326996
 20
0.1999996
 42
1.0
  0
LWPOLYLINE
  5
161
330
12C
100
AcDbEntity
  8
BottomSolder
100
AcDbPolyline
 90
        2
 70
     1
 43
0.4253992
 10
20.1073004
 20
-0.1999996
 42
1.0
 10
20.5326996
 20
-0.1999996
 42
1.0
  0
LWPOLYLINE
  5
162
330
12C
100
AcDbEntity
  8
BottomSolder
100
AcDbPolyline
 90
        2
 70
     0
 43
0.85080094
 10
21.59
 20
0.1999996
 10
21.59
 20
-0.1999996
  0
LWPOLYLINE
  5
163
330
12C
100
AcDbEntity
  8
BottomSolder
100
AcDbPolyline
 90
        2
 70
     1
 43
0.4253992
 10
21.3773004
 20
0.1999996
 42
1.0
 10
21.8026996
 20
0.1999996
 42
1.0
  0
LWPOLYLINE
  5
164
330
12C
100
AcDbEntity
  8
BottomSolder
100
AcDbPolyline
 90
        2
 70
     1
 43
0.4253992
 10
21.3773004
 20
-0.1999996
 42
1.0
 10
21.8026996
 20
-0.1999996
 42
1.0
  0
ENDBLK
  5
12E
330
12C
100
AcDbEntity
  8
0
100
AcDbBlockEnd
  0
BLOCK
  5
167
330
166
100
AcDbEntity
  8
0
100
AcDbBlockBegin
  2
SIP18_1_27______45
 70
     0
 10
0.0
 20
0.0
 30
0.0
  3
SIP18_1_27______45
  1

  0
LWPOLYLINE
  5
169
330
166
100
AcDbEntity
  8
BottomSolder
100
AcDbPolyline
 90
        2
 70
     0
 43
0.85080094
 10
13.97
 20
0.1999996
 10
13.97
 20
-0.1999996
  0
LWPOLYLINE
  5
16A
330
166
100
AcDbEntity
  8
BottomSolder
100
AcDbPolyline
 90
        2
 70
     1
 43
0.4253992
 10
13.7573004
 20
0.1999996
 42
1.0
 10
14.1826996
 20
0.1999996
 42
1.0
  0
LWPOLYLINE
  5
16B
330
166
100
AcDbEntity
  8
BottomSolder
100
AcDbPolyline
 90
        2
 70
     1
 43
0.4253992
 10
13.7573004
 20
-0.1999996
 42
1.0
 10
14.1826996
 20
-0.1999996
 42
1.0
  0
LWPOLYLINE
  5
16C
330
166
100
AcDbEntity
  8
BottomSolder
100
AcDbPolyline
 90
        2
 70
     0
 43
0.85080094
 10
12.7
 20
0.1999996
 10
12.7
 20
-0.1999996
  0
LWPOLYLINE
  5
16D
330
166
100
AcDbEntity
  8
BottomSolder
100
AcDbPolyline
 90
        2
 70
     1
 43
0.4253992
 10
12.4873004
 20
0.1999996
 42
1.0
 10
12.9126996
 20
0.1999996
 42
1.0
  0
LWPOLYLINE
  5
16E
330
166
100
AcDbEntity
  8
BottomSolder
100
AcDbPolyline
 90
        2
 70
     1
 43
0.4253992
 10
12.4873004
 20
-0.1999996
 42
1.0
 10
12.9126996
 20
-0.1999996
 42
1.0
  0
LWPOLYLINE
  5
16F
330
166
100
AcDbEntity
  8
BottomSolder
100
AcDbPolyline
 90
        2
 70
     0
 43
0.85080094
 10
10.16
 20
0.1999996
 10
10.16
 20
-0.1999996
  0
LWPOLYLINE
  5
170
330
166
100
AcDbEntity
  8
BottomSolder
100
AcDbPolyline
 90
        2
 70
     1
 43
0.4253992
 10
9.9473004
 20
0.1999996
 42
1.0
 10
10.3726996
 20
0.1999996
 42
1.0
  0
LWPOLYLINE
  5
171
330
166
100
AcDbEntity
  8
BottomSolder
100
AcDbPolyline
 90
        2
 70
     1
 43
0.4253992
 10
9.9473004
 20
-0.1999996
 42
1.0
 10
10.3726996
 20
-0.1999996
 42
1.0
  0
LWPOLYLINE
  5
172
330
166
100
AcDbEntity
  8
BottomSolder
100
AcDbPolyline
 90
        2
 70
     0
 43
0.85080094
 10
11.43
 20
0.1999996
 10
11.43
 20
-0.1999996
  0
LWPOLYLINE
  5
173
330
166
100
AcDbEntity
  8
BottomSolder
100
AcDbPolyline
 90
        2
 70
     1
 43
0.4253992
 10
11.2173004
 20
0.1999996
 42
1.0
 10
11.6426996
 20
0.1999996
 42
1.0
  0
LWPOLYLINE
  5
174
330
166
100
AcDbEntity
  8
BottomSolder
100
AcDbPolyline
 90
        2
 70
     1
 43
0.4253992
 10
11.2173004
 20
-0.1999996
 42
1.0
 10
11.6426996
 20
-0.1999996
 42
1.0
  0
LWPOLYLINE
  5
175
330
166
100
AcDbEntity
  8
BottomSolder
100
AcDbPolyline
 90
        2
 70
     0
 43
0.85080094
 10
8.889999999999999
 20
0.1999996
 10
8.889999999999999
 20
-0.1999996
  0
LWPOLYLINE
  5
176
330
166
100
AcDbEntity
  8
BottomSolder
100
AcDbPolyline
 90
        2
 70
     1
 43
0.4253992
 10
8.6773004
 20
0.1999996
 42
1.0
 10
9.1026996
 20
0.1999996
 42
1.0
  0
LWPOLYLINE
  5
177
330
166
100
AcDbEntity
  8
BottomSolder
100
AcDbPolyline
 90
        2
 70
     1
 43
0.4253992
 10
8.6773004
 20
-0.1999996
 42
1.0
 10
9.1026996
 20
-0.1999996
 42
1.0
  0
LWPOLYLINE
  5
178
330
166
100
AcDbEntity
  8
BottomSolder
100
AcDbPolyline
 90
        2
 70
     0
 43
0.85080094
 10
7.619999999999999
 20
0.1999996
 10
7.619999999999999
 20
-0.1999996
  0
LWPOLYLINE
  5
179
330
166
100
AcDbEntity
  8
BottomSolder
100
AcDbPolyline
 90
        2
 70
     1
 43
0.4253992
 10
7.4073004
 20
0.1999996
 42
1.0
 10
7.832699599999999
 20
0.1999996
 42
1.0
  0
LWPOLYLINE
  5
17A
330
166
100
AcDbEntity
  8
BottomSolder
100
AcDbPolyline
 90
        2
 70
     1
 43
0.4253992
 10
7.4073004
 20
-0.1999996
 42
1.0
 10
7.832699599999999
 20
-0.1999996
 42
1.0
  0
LWPOLYLINE
  5
17B
330
166
100
AcDbEntity
  8
BottomSolder
100
AcDbPolyline
 90
        2
 70
     0
 43
0.85080094
 10
6.35
 20
0.1999996
 10
6.35
 20
-0.1999996
  0
LWPOLYLINE
  5
17C
330
166
100
AcDbEntity
  8
BottomSolder
100
AcDbPolyline
 90
        2
 70
     1
 43
0.4253992
 10
6.1373004
 20
0.1999996
 42
1.0
 10
6.562699599999999
 20
0.1999996
 42
1.0
  0
LWPOLYLINE
  5
17D
330
166
100
AcDbEntity
  8
BottomSolder
100
AcDbPolyline
 90
        2
 70
     1
 43
0.4253992
 10
6.1373004
 20
-0.1999996
 42
1.0
 10
6.562699599999999
 20
-0.1999996
 42
1.0
  0
LWPOLYLINE
  5
17E
330
166
100
AcDbEntity
  8
BottomSolder
100
AcDbPolyline
 90
        2
 70
     0
 43
0.85080094
 10
5.08
 20
0.1999996
 10
5.08
 20
-0.1999996
  0
LWPOLYLINE
  5
17F
330
166
100
AcDbEntity
  8
BottomSolder
100
AcDbPolyline
 90
        2
 70
     1
 43
0.4253992
 10
4.8673004
 20
0.1999996
 42
1.0
 10
5.2926996
 20
0.1999996
 42
1.0
  0
LWPOLYLINE
  5
180
330
166
100
AcDbEntity
  8
BottomSolder
100
AcDbPolyline
 90
        2
 70
     1
 43
0.4253992
 10
4.8673004
 20
-0.1999996
 42
1.0
 10
5.2926996
 20
-0.1999996
 42
1.0
  0
LWPOLYLINE
  5
181
330
166
100
AcDbEntity
  8
BottomSolder
100
AcDbPolyline
 90
        2
 70
     0
 43
0.85080094
 10
3.81
 20
0.1999996
 10
3.81
 20
-0.1999996
  0
LWPOLYLINE
  5
182
330
166
100
AcDbEntity
  8
BottomSolder
100
AcDbPolyline
 90
        2
 70
     1
 43
0.4253992
 10
3.5973004
 20
0.1999996
 42
1.0
 10
4.022699599999999
 20
0.1999996
 42
1.0
  0
LWPOLYLINE
  5
183
330
166
100
AcDbEntity
  8
BottomSolder
100
AcDbPolyline
 90
        2
 70
     1
 43
0.4253992
 10
3.5973004
 20
-0.1999996
 42
1.0
 10
4.022699599999999
 20
-0.1999996
 42
1.0
  0
LWPOLYLINE
  5
184
330
166
100
AcDbEntity
  8
BottomSolder
100
AcDbPolyline
 90
        2
 70
     0
 43
0.85080094
 10
2.54
 20
0.1999996
 10
2.54
 20
-0.1999996
  0
LWPOLYLINE
  5
185
330
166
100
AcDbEntity
  8
BottomSolder
100
AcDbPolyline
 90
        2
 70
     1
 43
0.4253992
 10
2.3273004
 20
0.1999996
 42
1.0
 10
2.7526996
 20
0.1999996
 42
1.0
  0
LWPOLYLINE
  5
186
330
166
100
AcDbEntity
  8
BottomSolder
100
AcDbPolyline
 90
        2
 70
     1
 43
0.4253992
 10
2.3273004
 20
-0.1999996
 42
1.0
 10
2.7526996
 20
-0.1999996
 42
1.0
  0
LWPOLYLINE
  5
187
330
166
100
AcDbEntity
  8
BottomSolder
100
AcDbPolyline
 90
        2
 70
     0
 43
0.85080094
 10
1.27
 20
0.1999996
 10
1.27
 20
-0.1999996
  0
LWPOLYLINE
  5
188
330
166
100
AcDbEntity
  8
BottomSolder
100
AcDbPolyline
 90
        2
 70
     1
 43
0.4253992
 10
1.0573004
 20
0.1999996
 42
1.0
 10
1.4826996
 20
0.1999996
 42
1.0
  0
LWPOLYLINE
  5
189
330
166
100
AcDbEntity
  8
BottomSolder
100
AcDbPolyline
 90
        2
 70
     1
 43
0.4253992
 10
1.0573004
 20
-0.1999996
 42
1.0
 10
1.4826996
 20
-0.1999996
 42
1.0
  0
LWPOLYLINE
  5
18A
330
166
100
AcDbEntity
  8
BottomSolder
100
AcDbPolyline
 90
        2
 70
     0
 43
0.85080094
 10
0.0
 20
0.1999996
 10
0.0
 20
-0.1999996
  0
LWPOLYLINE
  5
18B
330
166
100
AcDbEntity
  8
BottomSolder
100
AcDbPolyline
 90
        2
 70
     1
 43
0.4253992
 10
-0.2126996
 20
0.1999996
 42
1.0
 10
0.2126996
 20
0.1999996
 42
1.0
  0
LWPOLYLINE
  5
18C
330
166
100
AcDbEntity
  8
BottomSolder
100
AcDbPolyline
 90
        2
 70
     1
 43
0.4253992
 10
-0.2126996
 20
-0.1999996
 42
1.0
 10
0.2126996
 20
-0.1999996
 42
1.0
  0
LWPOLYLINE
  5
18D
330
166
100
AcDbEntity
  8
BottomSolder
100
AcDbPolyline
 90
        2
 70
     0
 43
0.85080094
 10
15.24
 20
0.1999996
 10
15.24
 20
-0.1999996
  0
LWPOLYLINE
  5
18E
330
166
100
AcDbEntity
  8
BottomSolder
100
AcDbPolyline
 90
        2
 70
     1
 43
0.4253992
 10
15.0273004
 20
0.1999996
 42
1.0
 10
15.4526996
 20
0.1999996
 42
1.0
  0
LWPOLYLINE
  5
18F
330
166
100
AcDbEntity
  8
BottomSolder
100
AcDbPolyline
 90
        2
 70
     1
 43
0.4253992
 10
15.0273004
 20
-0.1999996
 42
1.0
 10
15.4526996
 20
-0.1999996
 42
1.0
  0
LWPOLYLINE
  5
190
330
166
100
AcDbEntity
  8
BottomSolder
100
AcDbPolyline
 90
        2
 70
     0
 43
0.85080094
 10
17.78
 20
0.1999996
 10
17.78
 20
-0.1999996
  0
LWPOLYLINE
  5
191
330
166
100
AcDbEntity
  8
BottomSolder
100
AcDbPolyline
 90
        2
 70
     1
 43
0.4253992
 10
17.5673004
 20
0.1999996
 42
1.0
 10
17.9926996
 20
0.1999996
 42
1.0
  0
LWPOLYLINE
  5
192
330
166
100
AcDbEntity
  8
BottomSolder
100
AcDbPolyline
 90
        2
 70
     1
 43
0.4253992
 10
17.5673004
 20
-0.1999996
 42
1.0
 10
17.9926996
 20
-0.1999996
 42
1.0
  0
LWPOLYLINE
  5
193
330
166
100
AcDbEntity
  8
BottomSolder
100
AcDbPolyline
 90
        2
 70
     0
 43
0.85080094
 10
16.51
 20
0.1999996
 10
16.51
 20
-0.1999996
  0
LWPOLYLINE
  5
194
330
166
100
AcDbEntity
  8
BottomSolder
100
AcDbPolyline
 90
        2
 70
     1
 43
0.4253992
 10
16.2973004
 20
0.1999996
 42
1.0
 10
16.7226996
 20
0.1999996
 42
1.0
  0
LWPOLYLINE
  5
195
330
166
100
AcDbEntity
  8
BottomSolder
100
AcDbPolyline
 90
        2
 70
     1
 43
0.4253992
 10
16.2973004
 20
-0.1999996
 42
1.0
 10
16.7226996
 20
-0.1999996
 42
1.0
  0
LWPOLYLINE
  5
196
330
166
100
AcDbEntity
  8
BottomSolder
100
AcDbPolyline
 90
        2
 70
     0
 43
0.85080094
 10
19.05
 20
0.1999996
 10
19.05
 20
-0.1999996
  0
LWPOLYLINE
  5
197
330
166
100
AcDbEntity
  8
BottomSolder
100
AcDbPolyline
 90
        2
 70
     1
 43
0.4253992
 10
18.8373004
 20
0.1999996
 42
1.0
 10
19.2626996
 20
0.1999996
 42
1.0
  0
LWPOLYLINE
  5
198
330
166
100
AcDbEntity
  8
BottomSolder
100
AcDbPolyline
 90
        2
 70
     1
 43
0.4253992
 10
18.8373004
 20
-0.1999996
 42
1.0
 10
19.2626996
 20
-0.1999996
 42
1.0
  0
LWPOLYLINE
  5
199
330
166
100
AcDbEntity
  8
BottomSolder
100
AcDbPolyline
 90
        2
 70
     0
 43
0.85080094
 10
20.32
 20
0.1999996
 10
20.32
 20
-0.1999996
  0
LWPOLYLINE
  5
19A
330
166
100
AcDbEntity
  8
BottomSolder
100
AcDbPolyline
 90
        2
 70
     1
 43
0.4253992
 10
20.1073004
 20
0.1999996
 42
1.0
 10
20.5326996
 20
0.1999996
 42
1.0
  0
LWPOLYLINE
  5
19B
330
166
100
AcDbEntity
  8
BottomSolder
100
AcDbPolyline
 90
        2
 70
     1
 43
0.4253992
 10
20.1073004
 20
-0.1999996
 42
1.0
 10
20.5326996
 20
-0.1999996
 42
1.0
  0
LWPOLYLINE
  5
19C
330
166
100
AcDbEntity
  8
BottomSolder
100
AcDbPolyline
 90
        2
 70
     0
 43
0.85080094
 10
21.59
 20
0.1999996
 10
21.59
 20
-0.1999996
  0
LWPOLYLINE
  5
19D
330
166
100
AcDbEntity
  8
BottomSolder
100
AcDbPolyline
 90
        2
 70
     1
 43
0.4253992
 10
21.3773004
 20
0.1999996
 42
1.0
 10
21.8026996
 20
0.1999996
 42
1.0
  0
LWPOLYLINE
  5
19E
330
166
100
AcDbEntity
  8
BottomSolder
100
AcDbPolyline
 90
        2
 70
     1
 43
0.4253992
 10
21.3773004
 20
-0.1999996
 42
1.0
 10
21.8026996
 20
-0.1999996
 42
1.0
  0
ENDBLK
  5
168
330
166
100
AcDbEntity
  8
0
100
AcDbBlockEnd
  0
BLOCK
  5
1A1
330
1A0
100
AcDbEntity
  8
0
100
AcDbBlockBegin
  2
SIP18_1_27______46
 70
     0
 10
0.0
 20
0.0
 30
0.0
  3
SIP18_1_27______46
  1

  0
LWPOLYLINE
  5
1A3
330
1A0
100
AcDbEntity
  8
BottomSolder
100
AcDbPolyline
 90
        2
 70
     0
 43
0.85080094
 10
13.97
 20
0.1999996
 10
13.97
 20
-0.1999996
  0
LWPOLYLINE
  5
1A4
330
1A0
100
AcDbEntity
  8
BottomSolder
100
AcDbPolyline
 90
        2
 70
     1
 43
0.4253992
 10
13.7573004
 20
0.1999996
 42
1.0
 10
14.1826996
 20
0.1999996
 42
1.0
  0
LWPOLYLINE
  5
1A5
330
1A0
100
AcDbEntity
  8
BottomSolder
100
AcDbPolyline
 90
        2
 70
     1
 43
0.4253992
 10
13.7573004
 20
-0.1999996
 42
1.0
 10
14.1826996
 20
-0.1999996
 42
1.0
  0
LWPOLYLINE
  5
1A6
330
1A0
100
AcDbEntity
  8
BottomSolder
100
AcDbPolyline
 90
        2
 70
     0
 43
0.85080094
 10
12.7
 20
0.1999996
 10
12.7
 20
-0.1999996
  0
LWPOLYLINE
  5
1A7
330
1A0
100
AcDbEntity
  8
BottomSolder
100
AcDbPolyline
 90
        2
 70
     1
 43
0.4253992
 10
12.4873004
 20
0.1999996
 42
1.0
 10
12.9126996
 20
0.1999996
 42
1.0
  0
LWPOLYLINE
  5
1A8
330
1A0
100
AcDbEntity
  8
BottomSolder
100
AcDbPolyline
 90
        2
 70
     1
 43
0.4253992
 10
12.4873004
 20
-0.1999996
 42
1.0
 10
12.9126996
 20
-0.1999996
 42
1.0
  0
LWPOLYLINE
  5
1A9
330
1A0
100
AcDbEntity
  8
BottomSolder
100
AcDbPolyline
 90
        2
 70
     0
 43
0.85080094
 10
10.16
 20
0.1999996
 10
10.16
 20
-0.1999996
  0
LWPOLYLINE
  5
1AA
330
1A0
100
AcDbEntity
  8
BottomSolder
100
AcDbPolyline
 90
        2
 70
     1
 43
0.4253992
 10
9.9473004
 20
0.1999996
 42
1.0
 10
10.3726996
 20
0.1999996
 42
1.0
  0
LWPOLYLINE
  5
1AB
330
1A0
100
AcDbEntity
  8
BottomSolder
100
AcDbPolyline
 90
        2
 70
     1
 43
0.4253992
 10
9.9473004
 20
-0.1999996
 42
1.0
 10
10.3726996
 20
-0.1999996
 42
1.0
  0
LWPOLYLINE
  5
1AC
330
1A0
100
AcDbEntity
  8
BottomSolder
100
AcDbPolyline
 90
        2
 70
     0
 43
0.85080094
 10
11.43
 20
0.1999996
 10
11.43
 20
-0.1999996
  0
LWPOLYLINE
  5
1AD
330
1A0
100
AcDbEntity
  8
BottomSolder
100
AcDbPolyline
 90
        2
 70
     1
 43
0.4253992
 10
11.2173004
 20
0.1999996
 42
1.0
 10
11.6426996
 20
0.1999996
 42
1.0
  0
LWPOLYLINE
  5
1AE
330
1A0
100
AcDbEntity
  8
BottomSolder
100
AcDbPolyline
 90
        2
 70
     1
 43
0.4253992
 10
11.2173004
 20
-0.1999996
 42
1.0
 10
11.6426996
 20
-0.1999996
 42
1.0
  0
LWPOLYLINE
  5
1AF
330
1A0
100
AcDbEntity
  8
BottomSolder
100
AcDbPolyline
 90
        2
 70
     0
 43
0.85080094
 10
8.889999999999999
 20
0.1999996
 10
8.889999999999999
 20
-0.1999996
  0
LWPOLYLINE
  5
1B0
330
1A0
100
AcDbEntity
  8
BottomSolder
100
AcDbPolyline
 90
        2
 70
     1
 43
0.4253992
 10
8.6773004
 20
0.1999996
 42
1.0
 10
9.1026996
 20
0.1999996
 42
1.0
  0
LWPOLYLINE
  5
1B1
330
1A0
100
AcDbEntity
  8
BottomSolder
100
AcDbPolyline
 90
        2
 70
     1
 43
0.4253992
 10
8.6773004
 20
-0.1999996
 42
1.0
 10
9.1026996
 20
-0.1999996
 42
1.0
  0
LWPOLYLINE
  5
1B2
330
1A0
100
AcDbEntity
  8
BottomSolder
100
AcDbPolyline
 90
        2
 70
     0
 43
0.85080094
 10
7.619999999999999
 20
0.1999996
 10
7.619999999999999
 20
-0.1999996
  0
LWPOLYLINE
  5
1B3
330
1A0
100
AcDbEntity
  8
BottomSolder
100
AcDbPolyline
 90
        2
 70
     1
 43
0.4253992
 10
7.4073004
 20
0.1999996
 42
1.0
 10
7.832699599999999
 20
0.1999996
 42
1.0
  0
LWPOLYLINE
  5
1B4
330
1A0
100
AcDbEntity
  8
BottomSolder
100
AcDbPolyline
 90
        2
 70
     1
 43
0.4253992
 10
7.4073004
 20
-0.1999996
 42
1.0
 10
7.832699599999999
 20
-0.1999996
 42
1.0
  0
LWPOLYLINE
  5
1B5
330
1A0
100
AcDbEntity
  8
BottomSolder
100
AcDbPolyline
 90
        2
 70
     0
 43
0.85080094
 10
6.35
 20
0.1999996
 10
6.35
 20
-0.1999996
  0
LWPOLYLINE
  5
1B6
330
1A0
100
AcDbEntity
  8
BottomSolder
100
AcDbPolyline
 90
        2
 70
     1
 43
0.4253992
 10
6.1373004
 20
0.1999996
 42
1.0
 10
6.562699599999999
 20
0.1999996
 42
1.0
  0
LWPOLYLINE
  5
1B7
330
1A0
100
AcDbEntity
  8
BottomSolder
100
AcDbPolyline
 90
        2
 70
     1
 43
0.4253992
 10
6.1373004
 20
-0.1999996
 42
1.0
 10
6.562699599999999
 20
-0.1999996
 42
1.0
  0
LWPOLYLINE
  5
1B8
330
1A0
100
AcDbEntity
  8
BottomSolder
100
AcDbPolyline
 90
        2
 70
     0
 43
0.85080094
 10
5.08
 20
0.1999996
 10
5.08
 20
-0.1999996
  0
LWPOLYLINE
  5
1B9
330
1A0
100
AcDbEntity
  8
BottomSolder
100
AcDbPolyline
 90
        2
 70
     1
 43
0.4253992
 10
4.8673004
 20
0.1999996
 42
1.0
 10
5.2926996
 20
0.1999996
 42
1.0
  0
LWPOLYLINE
  5
1BA
330
1A0
100
AcDbEntity
  8
BottomSolder
100
AcDbPolyline
 90
        2
 70
     1
 43
0.4253992
 10
4.8673004
 20
-0.1999996
 42
1.0
 10
5.2926996
 20
-0.1999996
 42
1.0
  0
LWPOLYLINE
  5
1BB
330
1A0
100
AcDbEntity
  8
BottomSolder
100
AcDbPolyline
 90
        2
 70
     0
 43
0.85080094
 10
3.81
 20
0.1999996
 10
3.81
 20
-0.1999996
  0
LWPOLYLINE
  5
1BC
330
1A0
100
AcDbEntity
  8
BottomSolder
100
AcDbPolyline
 90
        2
 70
     1
 43
0.4253992
 10
3.5973004
 20
0.1999996
 42
1.0
 10
4.022699599999999
 20
0.1999996
 42
1.0
  0
LWPOLYLINE
  5
1BD
330
1A0
100
AcDbEntity
  8
BottomSolder
100
AcDbPolyline
 90
        2
 70
     1
 43
0.4253992
 10
3.5973004
 20
-0.1999996
 42
1.0
 10
4.022699599999999
 20
-0.1999996
 42
1.0
  0
LWPOLYLINE
  5
1BE
330
1A0
100
AcDbEntity
  8
BottomSolder
100
AcDbPolyline
 90
        2
 70
     0
 43
0.85080094
 10
2.54
 20
0.1999996
 10
2.54
 20
-0.1999996
  0
LWPOLYLINE
  5
1BF
330
1A0
100
AcDbEntity
  8
BottomSolder
100
AcDbPolyline
 90
        2
 70
     1
 43
0.4253992
 10
2.3273004
 20
0.1999996
 42
1.0
 10
2.7526996
 20
0.1999996
 42
1.0
  0
LWPOLYLINE
  5
1C0
330
1A0
100
AcDbEntity
  8
BottomSolder
100
AcDbPolyline
 90
        2
 70
     1
 43
0.4253992
 10
2.3273004
 20
-0.1999996
 42
1.0
 10
2.7526996
 20
-0.1999996
 42
1.0
  0
LWPOLYLINE
  5
1C1
330
1A0
100
AcDbEntity
  8
BottomSolder
100
AcDbPolyline
 90
        2
 70
     0
 43
0.85080094
 10
1.27
 20
0.1999996
 10
1.27
 20
-0.1999996
  0
LWPOLYLINE
  5
1C2
330
1A0
100
AcDbEntity
  8
BottomSolder
100
AcDbPolyline
 90
        2
 70
     1
 43
0.4253992
 10
1.0573004
 20
0.1999996
 42
1.0
 10
1.4826996
 20
0.1999996
 42
1.0
  0
LWPOLYLINE
  5
1C3
330
1A0
100
AcDbEntity
  8
BottomSolder
100
AcDbPolyline
 90
        2
 70
     1
 43
0.4253992
 10
1.0573004
 20
-0.1999996
 42
1.0
 10
1.4826996
 20
-0.1999996
 42
1.0
  0
LWPOLYLINE
  5
1C4
330
1A0
100
AcDbEntity
  8
BottomSolder
100
AcDbPolyline
 90
        2
 70
     0
 43
0.85080094
 10
0.0
 20
0.1999996
 10
0.0
 20
-0.1999996
  0
LWPOLYLINE
  5
1C5
330
1A0
100
AcDbEntity
  8
BottomSolder
100
AcDbPolyline
 90
        2
 70
     1
 43
0.4253992
 10
-0.2126996
 20
0.1999996
 42
1.0
 10
0.2126996
 20
0.1999996
 42
1.0
  0
LWPOLYLINE
  5
1C6
330
1A0
100
AcDbEntity
  8
BottomSolder
100
AcDbPolyline
 90
        2
 70
     1
 43
0.4253992
 10
-0.2126996
 20
-0.1999996
 42
1.0
 10
0.2126996
 20
-0.1999996
 42
1.0
  0
LWPOLYLINE
  5
1C7
330
1A0
100
AcDbEntity
  8
BottomSolder
100
AcDbPolyline
 90
        2
 70
     0
 43
0.85080094
 10
15.24
 20
0.1999996
 10
15.24
 20
-0.1999996
  0
LWPOLYLINE
  5
1C8
330
1A0
100
AcDbEntity
  8
BottomSolder
100
AcDbPolyline
 90
        2
 70
     1
 43
0.4253992
 10
15.0273004
 20
0.1999996
 42
1.0
 10
15.4526996
 20
0.1999996
 42
1.0
  0
LWPOLYLINE
  5
1C9
330
1A0
100
AcDbEntity
  8
BottomSolder
100
AcDbPolyline
 90
        2
 70
     1
 43
0.4253992
 10
15.0273004
 20
-0.1999996
 42
1.0
 10
15.4526996
 20
-0.1999996
 42
1.0
  0
LWPOLYLINE
  5
1CA
330
1A0
100
AcDbEntity
  8
BottomSolder
100
AcDbPolyline
 90
        2
 70
     0
 43
0.85080094
 10
17.78
 20
0.1999996
 10
17.78
 20
-0.1999996
  0
LWPOLYLINE
  5
1CB
330
1A0
100
AcDbEntity
  8
BottomSolder
100
AcDbPolyline
 90
        2
 70
     1
 43
0.4253992
 10
17.5673004
 20
0.1999996
 42
1.0
 10
17.9926996
 20
0.1999996
 42
1.0
  0
LWPOLYLINE
  5
1CC
330
1A0
100
AcDbEntity
  8
BottomSolder
100
AcDbPolyline
 90
        2
 70
     1
 43
0.4253992
 10
17.5673004
 20
-0.1999996
 42
1.0
 10
17.9926996
 20
-0.1999996
 42
1.0
  0
LWPOLYLINE
  5
1CD
330
1A0
100
AcDbEntity
  8
BottomSolder
100
AcDbPolyline
 90
        2
 70
     0
 43
0.85080094
 10
16.51
 20
0.1999996
 10
16.51
 20
-0.1999996
  0
LWPOLYLINE
  5
1CE
330
1A0
100
AcDbEntity
  8
BottomSolder
100
AcDbPolyline
 90
        2
 70
     1
 43
0.4253992
 10
16.2973004
 20
0.1999996
 42
1.0
 10
16.7226996
 20
0.1999996
 42
1.0
  0
LWPOLYLINE
  5
1CF
330
1A0
100
AcDbEntity
  8
BottomSolder
100
AcDbPolyline
 90
        2
 70
     1
 43
0.4253992
 10
16.2973004
 20
-0.1999996
 42
1.0
 10
16.7226996
 20
-0.1999996
 42
1.0
  0
LWPOLYLINE
  5
1D0
330
1A0
100
AcDbEntity
  8
BottomSolder
100
AcDbPolyline
 90
        2
 70
     0
 43
0.85080094
 10
19.05
 20
0.1999996
 10
19.05
 20
-0.1999996
  0
LWPOLYLINE
  5
1D1
330
1A0
100
AcDbEntity
  8
BottomSolder
100
AcDbPolyline
 90
        2
 70
     1
 43
0.4253992
 10
18.8373004
 20
0.1999996
 42
1.0
 10
19.2626996
 20
0.1999996
 42
1.0
  0
LWPOLYLINE
  5
1D2
330
1A0
100
AcDbEntity
  8
BottomSolder
100
AcDbPolyline
 90
        2
 70
     1
 43
0.4253992
 10
18.8373004
 20
-0.1999996
 42
1.0
 10
19.2626996
 20
-0.1999996
 42
1.0
  0
LWPOLYLINE
  5
1D3
330
1A0
100
AcDbEntity
  8
BottomSolder
100
AcDbPolyline
 90
        2
 70
     0
 43
0.85080094
 10
20.32
 20
0.1999996
 10
20.32
 20
-0.1999996
  0
LWPOLYLINE
  5
1D4
330
1A0
100
AcDbEntity
  8
BottomSolder
100
AcDbPolyline
 90
        2
 70
     1
 43
0.4253992
 10
20.1073004
 20
0.1999996
 42
1.0
 10
20.5326996
 20
0.1999996
 42
1.0
  0
LWPOLYLINE
  5
1D5
330
1A0
100
AcDbEntity
  8
BottomSolder
100
AcDbPolyline
 90
        2
 70
     1
 43
0.4253992
 10
20.1073004
 20
-0.1999996
 42
1.0
 10
20.5326996
 20
-0.1999996
 42
1.0
  0
LWPOLYLINE
  5
1D6
330
1A0
100
AcDbEntity
  8
BottomSolder
100
AcDbPolyline
 90
        2
 70
     0
 43
0.85080094
 10
21.59
 20
0.1999996
 10
21.59
 20
-0.1999996
  0
LWPOLYLINE
  5
1D7
330
1A0
100
AcDbEntity
  8
BottomSolder
100
AcDbPolyline
 90
        2
 70
     1
 43
0.4253992
 10
21.3773004
 20
0.1999996
 42
1.0
 10
21.8026996
 20
0.1999996
 42
1.0
  0
LWPOLYLINE
  5
1D8
330
1A0
100
AcDbEntity
  8
BottomSolder
100
AcDbPolyline
 90
        2
 70
     1
 43
0.4253992
 10
21.3773004
 20
-0.1999996
 42
1.0
 10
21.8026996
 20
-0.1999996
 42
1.0
  0
ENDBLK
  5
1A2
330
1A0
100
AcDbEntity
  8
0
100
AcDbBlockEnd
  0
BLOCK
  5
1DB
330
1DA
100
AcDbEntity
  8
0
100
AcDbBlockBegin
  2
SIP18_1_27______47
 70
     0
 10
0.0
 20
0.0
 30
0.0
  3
SIP18_1_27______47
  1

  0
LWPOLYLINE
  5
1DD
330
1DA
100
AcDbEntity
  8
BottomSolder
100
AcDbPolyline
 90
        2
 70
     0
 43
0.85080094
 10
13.97
 20
0.1999996
 10
13.97
 20
-0.1999996
  0
LWPOLYLINE
  5
1DE
330
1DA
100
AcDbEntity
  8
BottomSolder
100
AcDbPolyline
 90
        2
 70
     1
 43
0.4253992
 10
13.7573004
 20
0.1999996
 42
1.0
 10
14.1826996
 20
0.1999996
 42
1.0
  0
LWPOLYLINE
  5
1DF
330
1DA
100
AcDbEntity
  8
BottomSolder
100
AcDbPolyline
 90
        2
 70
     1
 43
0.4253992
 10
13.7573004
 20
-0.1999996
 42
1.0
 10
14.1826996
 20
-0.1999996
 42
1.0
  0
LWPOLYLINE
  5
1E0
330
1DA
100
AcDbEntity
  8
BottomSolder
100
AcDbPolyline
 90
        2
 70
     0
 43
0.85080094
 10
12.7
 20
0.1999996
 10
12.7
 20
-0.1999996
  0
LWPOLYLINE
  5
1E1
330
1DA
100
AcDbEntity
  8
BottomSolder
100
AcDbPolyline
 90
        2
 70
     1
 43
0.4253992
 10
12.4873004
 20
0.1999996
 42
1.0
 10
12.9126996
 20
0.1999996
 42
1.0
  0
LWPOLYLINE
  5
1E2
330
1DA
100
AcDbEntity
  8
BottomSolder
100
AcDbPolyline
 90
        2
 70
     1
 43
0.4253992
 10
12.4873004
 20
-0.1999996
 42
1.0
 10
12.9126996
 20
-0.1999996
 42
1.0
  0
LWPOLYLINE
  5
1E3
330
1DA
100
AcDbEntity
  8
BottomSolder
100
AcDbPolyline
 90
        2
 70
     0
 43
0.85080094
 10
10.16
 20
0.1999996
 10
10.16
 20
-0.1999996
  0
LWPOLYLINE
  5
1E4
330
1DA
100
AcDbEntity
  8
BottomSolder
100
AcDbPolyline
 90
        2
 70
     1
 43
0.4253992
 10
9.9473004
 20
0.1999996
 42
1.0
 10
10.3726996
 20
0.1999996
 42
1.0
  0
LWPOLYLINE
  5
1E5
330
1DA
100
AcDbEntity
  8
BottomSolder
100
AcDbPolyline
 90
        2
 70
     1
 43
0.4253992
 10
9.9473004
 20
-0.1999996
 42
1.0
 10
10.3726996
 20
-0.1999996
 42
1.0
  0
LWPOLYLINE
  5
1E6
330
1DA
100
AcDbEntity
  8
BottomSolder
100
AcDbPolyline
 90
        2
 70
     0
 43
0.85080094
 10
11.43
 20
0.1999996
 10
11.43
 20
-0.1999996
  0
LWPOLYLINE
  5
1E7
330
1DA
100
AcDbEntity
  8
BottomSolder
100
AcDbPolyline
 90
        2
 70
     1
 43
0.4253992
 10
11.2173004
 20
0.1999996
 42
1.0
 10
11.6426996
 20
0.1999996
 42
1.0
  0
LWPOLYLINE
  5
1E8
330
1DA
100
AcDbEntity
  8
BottomSolder
100
AcDbPolyline
 90
        2
 70
     1
 43
0.4253992
 10
11.2173004
 20
-0.1999996
 42
1.0
 10
11.6426996
 20
-0.1999996
 42
1.0
  0
LWPOLYLINE
  5
1E9
330
1DA
100
AcDbEntity
  8
BottomSolder
100
AcDbPolyline
 90
        2
 70
     0
 43
0.85080094
 10
8.889999999999999
 20
0.1999996
 10
8.889999999999999
 20
-0.1999996
  0
LWPOLYLINE
  5
1EA
330
1DA
100
AcDbEntity
  8
BottomSolder
100
AcDbPolyline
 90
        2
 70
     1
 43
0.4253992
 10
8.6773004
 20
0.1999996
 42
1.0
 10
9.1026996
 20
0.1999996
 42
1.0
  0
LWPOLYLINE
  5
1EB
330
1DA
100
AcDbEntity
  8
BottomSolder
100
AcDbPolyline
 90
        2
 70
     1
 43
0.4253992
 10
8.6773004
 20
-0.1999996
 42
1.0
 10
9.1026996
 20
-0.1999996
 42
1.0
  0
LWPOLYLINE
  5
1EC
330
1DA
100
AcDbEntity
  8
BottomSolder
100
AcDbPolyline
 90
        2
 70
     0
 43
0.85080094
 10
7.619999999999999
 20
0.1999996
 10
7.619999999999999
 20
-0.1999996
  0
LWPOLYLINE
  5
1ED
330
1DA
100
AcDbEntity
  8
BottomSolder
100
AcDbPolyline
 90
        2
 70
     1
 43
0.4253992
 10
7.4073004
 20
0.1999996
 42
1.0
 10
7.832699599999999
 20
0.1999996
 42
1.0
  0
LWPOLYLINE
  5
1EE
330
1DA
100
AcDbEntity
  8
BottomSolder
100
AcDbPolyline
 90
        2
 70
     1
 43
0.4253992
 10
7.4073004
 20
-0.1999996
 42
1.0
 10
7.832699599999999
 20
-0.1999996
 42
1.0
  0
LWPOLYLINE
  5
1EF
330
1DA
100
AcDbEntity
  8
BottomSolder
100
AcDbPolyline
 90
        2
 70
     0
 43
0.85080094
 10
6.35
 20
0.1999996
 10
6.35
 20
-0.1999996
  0
LWPOLYLINE
  5
1F0
330
1DA
100
AcDbEntity
  8
BottomSolder
100
AcDbPolyline
 90
        2
 70
     1
 43
0.4253992
 10
6.1373004
 20
0.1999996
 42
1.0
 10
6.562699599999999
 20
0.1999996
 42
1.0
  0
LWPOLYLINE
  5
1F1
330
1DA
100
AcDbEntity
  8
BottomSolder
100
AcDbPolyline
 90
        2
 70
     1
 43
0.4253992
 10
6.1373004
 20
-0.1999996
 42
1.0
 10
6.562699599999999
 20
-0.1999996
 42
1.0
  0
LWPOLYLINE
  5
1F2
330
1DA
100
AcDbEntity
  8
BottomSolder
100
AcDbPolyline
 90
        2
 70
     0
 43
0.85080094
 10
5.08
 20
0.1999996
 10
5.08
 20
-0.1999996
  0
LWPOLYLINE
  5
1F3
330
1DA
100
AcDbEntity
  8
BottomSolder
100
AcDbPolyline
 90
        2
 70
     1
 43
0.4253992
 10
4.8673004
 20
0.1999996
 42
1.0
 10
5.2926996
 20
0.1999996
 42
1.0
  0
LWPOLYLINE
  5
1F4
330
1DA
100
AcDbEntity
  8
BottomSolder
100
AcDbPolyline
 90
        2
 70
     1
 43
0.4253992
 10
4.8673004
 20
-0.1999996
 42
1.0
 10
5.2926996
 20
-0.1999996
 42
1.0
  0
LWPOLYLINE
  5
1F5
330
1DA
100
AcDbEntity
  8
BottomSolder
100
AcDbPolyline
 90
        2
 70
     0
 43
0.85080094
 10
3.81
 20
0.1999996
 10
3.81
 20
-0.1999996
  0
LWPOLYLINE
  5
1F6
330
1DA
100
AcDbEntity
  8
BottomSolder
100
AcDbPolyline
 90
        2
 70
     1
 43
0.4253992
 10
3.5973004
 20
0.1999996
 42
1.0
 10
4.022699599999999
 20
0.1999996
 42
1.0
  0
LWPOLYLINE
  5
1F7
330
1DA
100
AcDbEntity
  8
BottomSolder
100
AcDbPolyline
 90
        2
 70
     1
 43
0.4253992
 10
3.5973004
 20
-0.1999996
 42
1.0
 10
4.022699599999999
 20
-0.1999996
 42
1.0
  0
LWPOLYLINE
  5
1F8
330
1DA
100
AcDbEntity
  8
BottomSolder
100
AcDbPolyline
 90
        2
 70
     0
 43
0.85080094
 10
2.54
 20
0.1999996
 10
2.54
 20
-0.1999996
  0
LWPOLYLINE
  5
1F9
330
1DA
100
AcDbEntity
  8
BottomSolder
100
AcDbPolyline
 90
        2
 70
     1
 43
0.4253992
 10
2.3273004
 20
0.1999996
 42
1.0
 10
2.7526996
 20
0.1999996
 42
1.0
  0
LWPOLYLINE
  5
1FA
330
1DA
100
AcDbEntity
  8
BottomSolder
100
AcDbPolyline
 90
        2
 70
     1
 43
0.4253992
 10
2.3273004
 20
-0.1999996
 42
1.0
 10
2.7526996
 20
-0.1999996
 42
1.0
  0
LWPOLYLINE
  5
1FB
330
1DA
100
AcDbEntity
  8
BottomSolder
100
AcDbPolyline
 90
        2
 70
     0
 43
0.85080094
 10
1.27
 20
0.1999996
 10
1.27
 20
-0.1999996
  0
LWPOLYLINE
  5
1FC
330
1DA
100
AcDbEntity
  8
BottomSolder
100
AcDbPolyline
 90
        2
 70
     1
 43
0.4253992
 10
1.0573004
 20
0.1999996
 42
1.0
 10
1.4826996
 20
0.1999996
 42
1.0
  0
LWPOLYLINE
  5
1FD
330
1DA
100
AcDbEntity
  8
BottomSolder
100
AcDbPolyline
 90
        2
 70
     1
 43
0.4253992
 10
1.0573004
 20
-0.1999996
 42
1.0
 10
1.4826996
 20
-0.1999996
 42
1.0
  0
LWPOLYLINE
  5
1FE
330
1DA
100
AcDbEntity
  8
BottomSolder
100
AcDbPolyline
 90
        2
 70
     0
 43
0.85080094
 10
0.0
 20
0.1999996
 10
0.0
 20
-0.1999996
  0
LWPOLYLINE
  5
1FF
330
1DA
100
AcDbEntity
  8
BottomSolder
100
AcDbPolyline
 90
        2
 70
     1
 43
0.4253992
 10
-0.2126996
 20
0.1999996
 42
1.0
 10
0.2126996
 20
0.1999996
 42
1.0
  0
LWPOLYLINE
  5
200
330
1DA
100
AcDbEntity
  8
BottomSolder
100
AcDbPolyline
 90
        2
 70
     1
 43
0.4253992
 10
-0.2126996
 20
-0.1999996
 42
1.0
 10
0.2126996
 20
-0.1999996
 42
1.0
  0
LWPOLYLINE
  5
201
330
1DA
100
AcDbEntity
  8
BottomSolder
100
AcDbPolyline
 90
        2
 70
     0
 43
0.85080094
 10
15.24
 20
0.1999996
 10
15.24
 20
-0.1999996
  0
LWPOLYLINE
  5
202
330
1DA
100
AcDbEntity
  8
BottomSolder
100
AcDbPolyline
 90
        2
 70
     1
 43
0.4253992
 10
15.0273004
 20
0.1999996
 42
1.0
 10
15.4526996
 20
0.1999996
 42
1.0
  0
LWPOLYLINE
  5
203
330
1DA
100
AcDbEntity
  8
BottomSolder
100
AcDbPolyline
 90
        2
 70
     1
 43
0.4253992
 10
15.0273004
 20
-0.1999996
 42
1.0
 10
15.4526996
 20
-0.1999996
 42
1.0
  0
LWPOLYLINE
  5
204
330
1DA
100
AcDbEntity
  8
BottomSolder
100
AcDbPolyline
 90
        2
 70
     0
 43
0.85080094
 10
17.78
 20
0.1999996
 10
17.78
 20
-0.1999996
  0
LWPOLYLINE
  5
205
330
1DA
100
AcDbEntity
  8
BottomSolder
100
AcDbPolyline
 90
        2
 70
     1
 43
0.4253992
 10
17.5673004
 20
0.1999996
 42
1.0
 10
17.9926996
 20
0.1999996
 42
1.0
  0
LWPOLYLINE
  5
206
330
1DA
100
AcDbEntity
  8
BottomSolder
100
AcDbPolyline
 90
        2
 70
     1
 43
0.4253992
 10
17.5673004
 20
-0.1999996
 42
1.0
 10
17.9926996
 20
-0.1999996
 42
1.0
  0
LWPOLYLINE
  5
207
330
1DA
100
AcDbEntity
  8
BottomSolder
100
AcDbPolyline
 90
        2
 70
     0
 43
0.85080094
 10
16.51
 20
0.1999996
 10
16.51
 20
-0.1999996
  0
LWPOLYLINE
  5
208
330
1DA
100
AcDbEntity
  8
BottomSolder
100
AcDbPolyline
 90
        2
 70
     1
 43
0.4253992
 10
16.2973004
 20
0.1999996
 42
1.0
 10
16.7226996
 20
0.1999996
 42
1.0
  0
LWPOLYLINE
  5
209
330
1DA
100
AcDbEntity
  8
BottomSolder
100
AcDbPolyline
 90
        2
 70
     1
 43
0.4253992
 10
16.2973004
 20
-0.1999996
 42
1.0
 10
16.7226996
 20
-0.1999996
 42
1.0
  0
LWPOLYLINE
  5
20A
330
1DA
100
AcDbEntity
  8
BottomSolder
100
AcDbPolyline
 90
        2
 70
     0
 43
0.85080094
 10
19.05
 20
0.1999996
 10
19.05
 20
-0.1999996
  0
LWPOLYLINE
  5
20B
330
1DA
100
AcDbEntity
  8
BottomSolder
100
AcDbPolyline
 90
        2
 70
     1
 43
0.4253992
 10
18.8373004
 20
0.1999996
 42
1.0
 10
19.2626996
 20
0.1999996
 42
1.0
  0
LWPOLYLINE
  5
20C
330
1DA
100
AcDbEntity
  8
BottomSolder
100
AcDbPolyline
 90
        2
 70
     1
 43
0.4253992
 10
18.8373004
 20
-0.1999996
 42
1.0
 10
19.2626996
 20
-0.1999996
 42
1.0
  0
LWPOLYLINE
  5
20D
330
1DA
100
AcDbEntity
  8
BottomSolder
100
AcDbPolyline
 90
        2
 70
     0
 43
0.85080094
 10
20.32
 20
0.1999996
 10
20.32
 20
-0.1999996
  0
LWPOLYLINE
  5
20E
330
1DA
100
AcDbEntity
  8
BottomSolder
100
AcDbPolyline
 90
        2
 70
     1
 43
0.4253992
 10
20.1073004
 20
0.1999996
 42
1.0
 10
20.5326996
 20
0.1999996
 42
1.0
  0
LWPOLYLINE
  5
20F
330
1DA
100
AcDbEntity
  8
BottomSolder
100
AcDbPolyline
 90
        2
 70
     1
 43
0.4253992
 10
20.1073004
 20
-0.1999996
 42
1.0
 10
20.5326996
 20
-0.1999996
 42
1.0
  0
LWPOLYLINE
  5
210
330
1DA
100
AcDbEntity
  8
BottomSolder
100
AcDbPolyline
 90
        2
 70
     0
 43
0.85080094
 10
21.59
 20
0.1999996
 10
21.59
 20
-0.1999996
  0
LWPOLYLINE
  5
211
330
1DA
100
AcDbEntity
  8
BottomSolder
100
AcDbPolyline
 90
        2
 70
     1
 43
0.4253992
 10
21.3773004
 20
0.1999996
 42
1.0
 10
21.8026996
 20
0.1999996
 42
1.0
  0
LWPOLYLINE
  5
212
330
1DA
100
AcDbEntity
  8
BottomSolder
100
AcDbPolyline
 90
        2
 70
     1
 43
0.4253992
 10
21.3773004
 20
-0.1999996
 42
1.0
 10
21.8026996
 20
-0.1999996
 42
1.0
  0
ENDBLK
  5
1DC
330
1DA
100
AcDbEntity
  8
0
100
AcDbBlockEnd
  0
BLOCK
  5
215
330
214
100
AcDbEntity
  8
0
100
AcDbBlockBegin
  2
SIP1_____B_48
 70
     0
 10
0.0
 20
0.0
 30
0.0
  3
SIP1_____B_48
  1

  0
LWPOLYLINE
  5
217
330
214
100
AcDbEntity
  8
BottomSolder
100
AcDbPolyline
 90
        2
 70
     1
 43
0.4253992
 10
-0.2126996
 20
0.0
 42
1.0
 10
0.2126996
 20
0.0
 42
1.0
  0
ENDBLK
  5
216
330
214
100
AcDbEntity
  8
0
100
AcDbBlockEnd
  0
BLOCK
  5
21A
330
219
100
AcDbEntity
  8
0
100
AcDbBlockBegin
  2
SIP18_1_27_____B_49
 70
     0
 10
0.0
 20
0.0
 30
0.0
  3
SIP18_1_27_____B_49
  1

  0
LWPOLYLINE
  5
21C
330
219
100
AcDbEntity
  8
BottomSolder
100
AcDbPolyline
 90
        2
 70
     0
 43
0.85080094
 10
13.97
 20
0.1999996
 10
13.97
 20
-0.1999996
  0
LWPOLYLINE
  5
21D
330
219
100
AcDbEntity
  8
BottomSolder
100
AcDbPolyline
 90
        2
 70
     1
 43
0.4253992
 10
13.7573004
 20
0.1999996
 42
1.0
 10
14.1826996
 20
0.1999996
 42
1.0
  0
LWPOLYLINE
  5
21E
330
219
100
AcDbEntity
  8
BottomSolder
100
AcDbPolyline
 90
        2
 70
     1
 43
0.4253992
 10
13.7573004
 20
-0.1999996
 42
1.0
 10
14.1826996
 20
-0.1999996
 42
1.0
  0
LWPOLYLINE
  5
21F
330
219
100
AcDbEntity
  8
BottomSolder
100
AcDbPolyline
 90
        2
 70
     0
 43
0.85080094
 10
12.7
 20
0.1999996
 10
12.7
 20
-0.1999996
  0
LWPOLYLINE
  5
220
330
219
100
AcDbEntity
  8
BottomSolder
100
AcDbPolyline
 90
        2
 70
     1
 43
0.4253992
 10
12.4873004
 20
0.1999996
 42
1.0
 10
12.9126996
 20
0.1999996
 42
1.0
  0
LWPOLYLINE
  5
221
330
219
100
AcDbEntity
  8
BottomSolder
100
AcDbPolyline
 90
        2
 70
     1
 43
0.4253992
 10
12.4873004
 20
-0.1999996
 42
1.0
 10
12.9126996
 20
-0.1999996
 42
1.0
  0
LWPOLYLINE
  5
222
330
219
100
AcDbEntity
  8
BottomSolder
100
AcDbPolyline
 90
        2
 70
     0
 43
0.85080094
 10
10.16
 20
0.1999996
 10
10.16
 20
-0.1999996
  0
LWPOLYLINE
  5
223
330
219
100
AcDbEntity
  8
BottomSolder
100
AcDbPolyline
 90
        2
 70
     1
 43
0.4253992
 10
9.9473004
 20
0.1999996
 42
1.0
 10
10.3726996
 20
0.1999996
 42
1.0
  0
LWPOLYLINE
  5
224
330
219
100
AcDbEntity
  8
BottomSolder
100
AcDbPolyline
 90
        2
 70
     1
 43
0.4253992
 10
9.9473004
 20
-0.1999996
 42
1.0
 10
10.3726996
 20
-0.1999996
 42
1.0
  0
LWPOLYLINE
  5
225
330
219
100
AcDbEntity
  8
BottomSolder
100
AcDbPolyline
 90
        2
 70
     0
 43
0.85080094
 10
11.43
 20
0.1999996
 10
11.43
 20
-0.1999996
  0
LWPOLYLINE
  5
226
330
219
100
AcDbEntity
  8
BottomSolder
100
AcDbPolyline
 90
        2
 70
     1
 43
0.4253992
 10
11.2173004
 20
0.1999996
 42
1.0
 10
11.6426996
 20
0.1999996
 42
1.0
  0
LWPOLYLINE
  5
227
330
219
100
AcDbEntity
  8
BottomSolder
100
AcDbPolyline
 90
        2
 70
     1
 43
0.4253992
 10
11.2173004
 20
-0.1999996
 42
1.0
 10
11.6426996
 20
-0.1999996
 42
1.0
  0
LWPOLYLINE
  5
228
330
219
100
AcDbEntity
  8
BottomSolder
100
AcDbPolyline
 90
        2
 70
     0
 43
0.85080094
 10
8.889999999999999
 20
0.1999996
 10
8.889999999999999
 20
-0.1999996
  0
LWPOLYLINE
  5
229
330
219
100
AcDbEntity
  8
BottomSolder
100
AcDbPolyline
 90
        2
 70
     1
 43
0.4253992
 10
8.6773004
 20
0.1999996
 42
1.0
 10
9.1026996
 20
0.1999996
 42
1.0
  0
LWPOLYLINE
  5
22A
330
219
100
AcDbEntity
  8
BottomSolder
100
AcDbPolyline
 90
        2
 70
     1
 43
0.4253992
 10
8.6773004
 20
-0.1999996
 42
1.0
 10
9.1026996
 20
-0.1999996
 42
1.0
  0
LWPOLYLINE
  5
22B
330
219
100
AcDbEntity
  8
BottomSolder
100
AcDbPolyline
 90
        2
 70
     0
 43
0.85080094
 10
7.619999999999999
 20
0.1999996
 10
7.619999999999999
 20
-0.1999996
  0
LWPOLYLINE
  5
22C
330
219
100
AcDbEntity
  8
BottomSolder
100
AcDbPolyline
 90
        2
 70
     1
 43
0.4253992
 10
7.4073004
 20
0.1999996
 42
1.0
 10
7.832699599999999
 20
0.1999996
 42
1.0
  0
LWPOLYLINE
  5
22D
330
219
100
AcDbEntity
  8
BottomSolder
100
AcDbPolyline
 90
        2
 70
     1
 43
0.4253992
 10
7.4073004
 20
-0.1999996
 42
1.0
 10
7.832699599999999
 20
-0.1999996
 42
1.0
  0
LWPOLYLINE
  5
22E
330
219
100
AcDbEntity
  8
BottomSolder
100
AcDbPolyline
 90
        2
 70
     0
 43
0.85080094
 10
6.35
 20
0.1999996
 10
6.35
 20
-0.1999996
  0
LWPOLYLINE
  5
22F
330
219
100
AcDbEntity
  8
BottomSolder
100
AcDbPolyline
 90
        2
 70
     1
 43
0.4253992
 10
6.1373004
 20
0.1999996
 42
1.0
 10
6.562699599999999
 20
0.1999996
 42
1.0
  0
LWPOLYLINE
  5
230
330
219
100
AcDbEntity
  8
BottomSolder
100
AcDbPolyline
 90
        2
 70
     1
 43
0.4253992
 10
6.1373004
 20
-0.1999996
 42
1.0
 10
6.562699599999999
 20
-0.1999996
 42
1.0
  0
LWPOLYLINE
  5
231
330
219
100
AcDbEntity
  8
BottomSolder
100
AcDbPolyline
 90
        2
 70
     0
 43
0.85080094
 10
5.08
 20
0.1999996
 10
5.08
 20
-0.1999996
  0
LWPOLYLINE
  5
232
330
219
100
AcDbEntity
  8
BottomSolder
100
AcDbPolyline
 90
        2
 70
     1
 43
0.4253992
 10
4.8673004
 20
0.1999996
 42
1.0
 10
5.2926996
 20
0.1999996
 42
1.0
  0
LWPOLYLINE
  5
233
330
219
100
AcDbEntity
  8
BottomSolder
100
AcDbPolyline
 90
        2
 70
     1
 43
0.4253992
 10
4.8673004
 20
-0.1999996
 42
1.0
 10
5.2926996
 20
-0.1999996
 42
1.0
  0
LWPOLYLINE
  5
234
330
219
100
AcDbEntity
  8
BottomSolder
100
AcDbPolyline
 90
        2
 70
     0
 43
0.85080094
 10
3.81
 20
0.1999996
 10
3.81
 20
-0.1999996
  0
LWPOLYLINE
  5
235
330
219
100
AcDbEntity
  8
BottomSolder
100
AcDbPolyline
 90
        2
 70
     1
 43
0.4253992
 10
3.5973004
 20
0.1999996
 42
1.0
 10
4.022699599999999
 20
0.1999996
 42
1.0
  0
LWPOLYLINE
  5
236
330
219
100
AcDbEntity
  8
BottomSolder
100
AcDbPolyline
 90
        2
 70
     1
 43
0.4253992
 10
3.5973004
 20
-0.1999996
 42
1.0
 10
4.022699599999999
 20
-0.1999996
 42
1.0
  0
LWPOLYLINE
  5
237
330
219
100
AcDbEntity
  8
BottomSolder
100
AcDbPolyline
 90
        2
 70
     0
 43
0.85080094
 10
2.54
 20
0.1999996
 10
2.54
 20
-0.1999996
  0
LWPOLYLINE
  5
238
330
219
100
AcDbEntity
  8
BottomSolder
100
AcDbPolyline
 90
        2
 70
     1
 43
0.4253992
 10
2.3273004
 20
0.1999996
 42
1.0
 10
2.7526996
 20
0.1999996
 42
1.0
  0
LWPOLYLINE
  5
239
330
219
100
AcDbEntity
  8
BottomSolder
100
AcDbPolyline
 90
        2
 70
     1
 43
0.4253992
 10
2.3273004
 20
-0.1999996
 42
1.0
 10
2.7526996
 20
-0.1999996
 42
1.0
  0
LWPOLYLINE
  5
23A
330
219
100
AcDbEntity
  8
BottomSolder
100
AcDbPolyline
 90
        2
 70
     0
 43
0.85080094
 10
1.27
 20
0.1999996
 10
1.27
 20
-0.1999996
  0
LWPOLYLINE
  5
23B
330
219
100
AcDbEntity
  8
BottomSolder
100
AcDbPolyline
 90
        2
 70
     1
 43
0.4253992
 10
1.0573004
 20
0.1999996
 42
1.0
 10
1.4826996
 20
0.1999996
 42
1.0
  0
LWPOLYLINE
  5
23C
330
219
100
AcDbEntity
  8
BottomSolder
100
AcDbPolyline
 90
        2
 70
     1
 43
0.4253992
 10
1.0573004
 20
-0.1999996
 42
1.0
 10
1.4826996
 20
-0.1999996
 42
1.0
  0
LWPOLYLINE
  5
23D
330
219
100
AcDbEntity
  8
BottomSolder
100
AcDbPolyline
 90
        2
 70
     0
 43
0.85080094
 10
0.0
 20
0.1999996
 10
0.0
 20
-0.1999996
  0
LWPOLYLINE
  5
23E
330
219
100
AcDbEntity
  8
BottomSolder
100
AcDbPolyline
 90
        2
 70
     1
 43
0.4253992
 10
-0.2126996
 20
0.1999996
 42
1.0
 10
0.2126996
 20
0.1999996
 42
1.0
  0
LWPOLYLINE
  5
23F
330
219
100
AcDbEntity
  8
BottomSolder
100
AcDbPolyline
 90
        2
 70
     1
 43
0.4253992
 10
-0.2126996
 20
-0.1999996
 42
1.0
 10
0.2126996
 20
-0.1999996
 42
1.0
  0
LWPOLYLINE
  5
240
330
219
100
AcDbEntity
  8
BottomSolder
100
AcDbPolyline
 90
        2
 70
     0
 43
0.85080094
 10
15.24
 20
0.1999996
 10
15.24
 20
-0.1999996
  0
LWPOLYLINE
  5
241
330
219
100
AcDbEntity
  8
BottomSolder
100
AcDbPolyline
 90
        2
 70
     1
 43
0.4253992
 10
15.0273004
 20
0.1999996
 42
1.0
 10
15.4526996
 20
0.1999996
 42
1.0
  0
LWPOLYLINE
  5
242
330
219
100
AcDbEntity
  8
BottomSolder
100
AcDbPolyline
 90
        2
 70
     1
 43
0.4253992
 10
15.0273004
 20
-0.1999996
 42
1.0
 10
15.4526996
 20
-0.1999996
 42
1.0
  0
LWPOLYLINE
  5
243
330
219
100
AcDbEntity
  8
BottomSolder
100
AcDbPolyline
 90
        2
 70
     0
 43
0.85080094
 10
17.78
 20
0.1999996
 10
17.78
 20
-0.1999996
  0
LWPOLYLINE
  5
244
330
219
100
AcDbEntity
  8
BottomSolder
100
AcDbPolyline
 90
        2
 70
     1
 43
0.4253992
 10
17.5673004
 20
0.1999996
 42
1.0
 10
17.9926996
 20
0.1999996
 42
1.0
  0
LWPOLYLINE
  5
245
330
219
100
AcDbEntity
  8
BottomSolder
100
AcDbPolyline
 90
        2
 70
     1
 43
0.4253992
 10
17.5673004
 20
-0.1999996
 42
1.0
 10
17.9926996
 20
-0.1999996
 42
1.0
  0
LWPOLYLINE
  5
246
330
219
100
AcDbEntity
  8
BottomSolder
100
AcDbPolyline
 90
        2
 70
     0
 43
0.85080094
 10
16.51
 20
0.1999996
 10
16.51
 20
-0.1999996
  0
LWPOLYLINE
  5
247
330
219
100
AcDbEntity
  8
BottomSolder
100
AcDbPolyline
 90
        2
 70
     1
 43
0.4253992
 10
16.2973004
 20
0.1999996
 42
1.0
 10
16.7226996
 20
0.1999996
 42
1.0
  0
LWPOLYLINE
  5
248
330
219
100
AcDbEntity
  8
BottomSolder
100
AcDbPolyline
 90
        2
 70
     1
 43
0.4253992
 10
16.2973004
 20
-0.1999996
 42
1.0
 10
16.7226996
 20
-0.1999996
 42
1.0
  0
LWPOLYLINE
  5
249
330
219
100
AcDbEntity
  8
BottomSolder
100
AcDbPolyline
 90
        2
 70
     0
 43
0.85080094
 10
19.05
 20
0.1999996
 10
19.05
 20
-0.1999996
  0
LWPOLYLINE
  5
24A
330
219
100
AcDbEntity
  8
BottomSolder
100
AcDbPolyline
 90
        2
 70
     1
 43
0.4253992
 10
18.8373004
 20
0.1999996
 42
1.0
 10
19.2626996
 20
0.1999996
 42
1.0
  0
LWPOLYLINE
  5
24B
330
219
100
AcDbEntity
  8
BottomSolder
100
AcDbPolyline
 90
        2
 70
     1
 43
0.4253992
 10
18.8373004
 20
-0.1999996
 42
1.0
 10
19.2626996
 20
-0.1999996
 42
1.0
  0
LWPOLYLINE
  5
24C
330
219
100
AcDbEntity
  8
BottomSolder
100
AcDbPolyline
 90
        2
 70
     0
 43
0.85080094
 10
20.32
 20
0.1999996
 10
20.32
 20
-0.1999996
  0
LWPOLYLINE
  5
24D
330
219
100
AcDbEntity
  8
BottomSolder
100
AcDbPolyline
 90
        2
 70
     1
 43
0.4253992
 10
20.1073004
 20
0.1999996
 42
1.0
 10
20.5326996
 20
0.1999996
 42
1.0
  0
LWPOLYLINE
  5
24E
330
219
100
AcDbEntity
  8
BottomSolder
100
AcDbPolyline
 90
        2
 70
     1
 43
0.4253992
 10
20.1073004
 20
-0.1999996
 42
1.0
 10
20.5326996
 20
-0.1999996
 42
1.0
  0
LWPOLYLINE
  5
24F
330
219
100
AcDbEntity
  8
BottomSolder
100
AcDbPolyline
 90
        2
 70
     0
 43
0.85080094
 10
21.59
 20
0.1999996
 10
21.59
 20
-0.1999996
  0
LWPOLYLINE
  5
250
330
219
100
AcDbEntity
  8
BottomSolder
100
AcDbPolyline
 90
        2
 70
     1
 43
0.4253992
 10
21.3773004
 20
0.1999996
 42
1.0
 10
21.8026996
 20
0.1999996
 42
1.0
  0
LWPOLYLINE
  5
251
330
219
100
AcDbEntity
  8
BottomSolder
100
AcDbPolyline
 90
        2
 70
     1
 43
0.4253992
 10
21.3773004
 20
-0.1999996
 42
1.0
 10
21.8026996
 20
-0.1999996
 42
1.0
  0
ENDBLK
  5
21B
330
219
100
AcDbEntity
  8
0
100
AcDbBlockEnd
  0
BLOCK
  5
254
330
253
100
AcDbEntity
  8
0
100
AcDbBlockBegin
  2
SIP18_1_27______50
 70
     0
 10
0.0
 20
0.0
 30
0.0
  3
SIP18_1_27______50
  1

  0
LWPOLYLINE
  5
256
330
253
100
AcDbEntity
  8
BottomSolder
100
AcDbPolyline
 90
        2
 70
     0
 43
0.85080094
 10
13.97
 20
0.1999996
 10
13.97
 20
-0.1999996
  0
LWPOLYLINE
  5
257
330
253
100
AcDbEntity
  8
BottomSolder
100
AcDbPolyline
 90
        2
 70
     1
 43
0.4253992
 10
13.7573004
 20
0.1999996
 42
1.0
 10
14.1826996
 20
0.1999996
 42
1.0
  0
LWPOLYLINE
  5
258
330
253
100
AcDbEntity
  8
BottomSolder
100
AcDbPolyline
 90
        2
 70
     1
 43
0.4253992
 10
13.7573004
 20
-0.1999996
 42
1.0
 10
14.1826996
 20
-0.1999996
 42
1.0
  0
LWPOLYLINE
  5
259
330
253
100
AcDbEntity
  8
BottomSolder
100
AcDbPolyline
 90
        2
 70
     0
 43
0.85080094
 10
12.7
 20
0.1999996
 10
12.7
 20
-0.1999996
  0
LWPOLYLINE
  5
25A
330
253
100
AcDbEntity
  8
BottomSolder
100
AcDbPolyline
 90
        2
 70
     1
 43
0.4253992
 10
12.4873004
 20
0.1999996
 42
1.0
 10
12.9126996
 20
0.1999996
 42
1.0
  0
LWPOLYLINE
  5
25B
330
253
100
AcDbEntity
  8
BottomSolder
100
AcDbPolyline
 90
        2
 70
     1
 43
0.4253992
 10
12.4873004
 20
-0.1999996
 42
1.0
 10
12.9126996
 20
-0.1999996
 42
1.0
  0
LWPOLYLINE
  5
25C
330
253
100
AcDbEntity
  8
BottomSolder
100
AcDbPolyline
 90
        2
 70
     0
 43
0.85080094
 10
10.16
 20
0.1999996
 10
10.16
 20
-0.1999996
  0
LWPOLYLINE
  5
25D
330
253
100
AcDbEntity
  8
BottomSolder
100
AcDbPolyline
 90
        2
 70
     1
 43
0.4253992
 10
9.9473004
 20
0.1999996
 42
1.0
 10
10.3726996
 20
0.1999996
 42
1.0
  0
LWPOLYLINE
  5
25E
330
253
100
AcDbEntity
  8
BottomSolder
100
AcDbPolyline
 90
        2
 70
     1
 43
0.4253992
 10
9.9473004
 20
-0.1999996
 42
1.0
 10
10.3726996
 20
-0.1999996
 42
1.0
  0
LWPOLYLINE
  5
25F
330
253
100
AcDbEntity
  8
BottomSolder
100
AcDbPolyline
 90
        2
 70
     0
 43
0.85080094
 10
11.43
 20
0.1999996
 10
11.43
 20
-0.1999996
  0
LWPOLYLINE
  5
260
330
253
100
AcDbEntity
  8
BottomSolder
100
AcDbPolyline
 90
        2
 70
     1
 43
0.4253992
 10
11.2173004
 20
0.1999996
 42
1.0
 10
11.6426996
 20
0.1999996
 42
1.0
  0
LWPOLYLINE
  5
261
330
253
100
AcDbEntity
  8
BottomSolder
100
AcDbPolyline
 90
        2
 70
     1
 43
0.4253992
 10
11.2173004
 20
-0.1999996
 42
1.0
 10
11.6426996
 20
-0.1999996
 42
1.0
  0
LWPOLYLINE
  5
262
330
253
100
AcDbEntity
  8
BottomSolder
100
AcDbPolyline
 90
        2
 70
     0
 43
0.85080094
 10
8.889999999999999
 20
0.1999996
 10
8.889999999999999
 20
-0.1999996
  0
LWPOLYLINE
  5
263
330
253
100
AcDbEntity
  8
BottomSolder
100
AcDbPolyline
 90
        2
 70
     1
 43
0.4253992
 10
8.6773004
 20
0.1999996
 42
1.0
 10
9.1026996
 20
0.1999996
 42
1.0
  0
LWPOLYLINE
  5
264
330
253
100
AcDbEntity
  8
BottomSolder
100
AcDbPolyline
 90
        2
 70
     1
 43
0.4253992
 10
8.6773004
 20
-0.1999996
 42
1.0
 10
9.1026996
 20
-0.1999996
 42
1.0
  0
LWPOLYLINE
  5
265
330
253
100
AcDbEntity
  8
BottomSolder
100
AcDbPolyline
 90
        2
 70
     0
 43
0.85080094
 10
7.619999999999999
 20
0.1999996
 10
7.619999999999999
 20
-0.1999996
  0
LWPOLYLINE
  5
266
330
253
100
AcDbEntity
  8
BottomSolder
100
AcDbPolyline
 90
        2
 70
     1
 43
0.4253992
 10
7.4073004
 20
0.1999996
 42
1.0
 10
7.832699599999999
 20
0.1999996
 42
1.0
  0
LWPOLYLINE
  5
267
330
253
100
AcDbEntity
  8
BottomSolder
100
AcDbPolyline
 90
        2
 70
     1
 43
0.4253992
 10
7.4073004
 20
-0.1999996
 42
1.0
 10
7.832699599999999
 20
-0.1999996
 42
1.0
  0
LWPOLYLINE
  5
268
330
253
100
AcDbEntity
  8
BottomSolder
100
AcDbPolyline
 90
        2
 70
     0
 43
0.85080094
 10
6.35
 20
0.1999996
 10
6.35
 20
-0.1999996
  0
LWPOLYLINE
  5
269
330
253
100
AcDbEntity
  8
BottomSolder
100
AcDbPolyline
 90
        2
 70
     1
 43
0.4253992
 10
6.1373004
 20
0.1999996
 42
1.0
 10
6.562699599999999
 20
0.1999996
 42
1.0
  0
LWPOLYLINE
  5
26A
330
253
100
AcDbEntity
  8
BottomSolder
100
AcDbPolyline
 90
        2
 70
     1
 43
0.4253992
 10
6.1373004
 20
-0.1999996
 42
1.0
 10
6.562699599999999
 20
-0.1999996
 42
1.0
  0
LWPOLYLINE
  5
26B
330
253
100
AcDbEntity
  8
BottomSolder
100
AcDbPolyline
 90
        2
 70
     0
 43
0.85080094
 10
5.08
 20
0.1999996
 10
5.08
 20
-0.1999996
  0
LWPOLYLINE
  5
26C
330
253
100
AcDbEntity
  8
BottomSolder
100
AcDbPolyline
 90
        2
 70
     1
 43
0.4253992
 10
4.8673004
 20
0.1999996
 42
1.0
 10
5.2926996
 20
0.1999996
 42
1.0
  0
LWPOLYLINE
  5
26D
330
253
100
AcDbEntity
  8
BottomSolder
100
AcDbPolyline
 90
        2
 70
     1
 43
0.4253992
 10
4.8673004
 20
-0.1999996
 42
1.0
 10
5.2926996
 20
-0.1999996
 42
1.0
  0
LWPOLYLINE
  5
26E
330
253
100
AcDbEntity
  8
BottomSolder
100
AcDbPolyline
 90
        2
 70
     0
 43
0.85080094
 10
3.81
 20
0.1999996
 10
3.81
 20
-0.1999996
  0
LWPOLYLINE
  5
26F
330
253
100
AcDbEntity
  8
BottomSolder
100
AcDbPolyline
 90
        2
 70
     1
 43
0.4253992
 10
3.5973004
 20
0.1999996
 42
1.0
 10
4.022699599999999
 20
0.1999996
 42
1.0
  0
LWPOLYLINE
  5
270
330
253
100
AcDbEntity
  8
BottomSolder
100
AcDbPolyline
 90
        2
 70
     1
 43
0.4253992
 10
3.5973004
 20
-0.1999996
 42
1.0
 10
4.022699599999999
 20
-0.1999996
 42
1.0
  0
LWPOLYLINE
  5
271
330
253
100
AcDbEntity
  8
BottomSolder
100
AcDbPolyline
 90
        2
 70
     0
 43
0.85080094
 10
2.54
 20
0.1999996
 10
2.54
 20
-0.1999996
  0
LWPOLYLINE
  5
272
330
253
100
AcDbEntity
  8
BottomSolder
100
AcDbPolyline
 90
        2
 70
     1
 43
0.4253992
 10
2.3273004
 20
0.1999996
 42
1.0
 10
2.7526996
 20
0.1999996
 42
1.0
  0
LWPOLYLINE
  5
273
330
253
100
AcDbEntity
  8
BottomSolder
100
AcDbPolyline
 90
        2
 70
     1
 43
0.4253992
 10
2.3273004
 20
-0.1999996
 42
1.0
 10
2.7526996
 20
-0.1999996
 42
1.0
  0
LWPOLYLINE
  5
274
330
253
100
AcDbEntity
  8
BottomSolder
100
AcDbPolyline
 90
        2
 70
     0
 43
0.85080094
 10
1.27
 20
0.1999996
 10
1.27
 20
-0.1999996
  0
LWPOLYLINE
  5
275
330
253
100
AcDbEntity
  8
BottomSolder
100
AcDbPolyline
 90
        2
 70
     1
 43
0.4253992
 10
1.0573004
 20
0.1999996
 42
1.0
 10
1.4826996
 20
0.1999996
 42
1.0
  0
LWPOLYLINE
  5
276
330
253
100
AcDbEntity
  8
BottomSolder
100
AcDbPolyline
 90
        2
 70
     1
 43
0.4253992
 10
1.0573004
 20
-0.1999996
 42
1.0
 10
1.4826996
 20
-0.1999996
 42
1.0
  0
LWPOLYLINE
  5
277
330
253
100
AcDbEntity
  8
BottomSolder
100
AcDbPolyline
 90
        2
 70
     0
 43
0.85080094
 10
0.0
 20
0.1999996
 10
0.0
 20
-0.1999996
  0
LWPOLYLINE
  5
278
330
253
100
AcDbEntity
  8
BottomSolder
100
AcDbPolyline
 90
        2
 70
     1
 43
0.4253992
 10
-0.2126996
 20
0.1999996
 42
1.0
 10
0.2126996
 20
0.1999996
 42
1.0
  0
LWPOLYLINE
  5
279
330
253
100
AcDbEntity
  8
BottomSolder
100
AcDbPolyline
 90
        2
 70
     1
 43
0.4253992
 10
-0.2126996
 20
-0.1999996
 42
1.0
 10
0.2126996
 20
-0.1999996
 42
1.0
  0
LWPOLYLINE
  5
27A
330
253
100
AcDbEntity
  8
BottomSolder
100
AcDbPolyline
 90
        2
 70
     0
 43
0.85080094
 10
15.24
 20
0.1999996
 10
15.24
 20
-0.1999996
  0
LWPOLYLINE
  5
27B
330
253
100
AcDbEntity
  8
BottomSolder
100
AcDbPolyline
 90
        2
 70
     1
 43
0.4253992
 10
15.0273004
 20
0.1999996
 42
1.0
 10
15.4526996
 20
0.1999996
 42
1.0
  0
LWPOLYLINE
  5
27C
330
253
100
AcDbEntity
  8
BottomSolder
100
AcDbPolyline
 90
        2
 70
     1
 43
0.4253992
 10
15.0273004
 20
-0.1999996
 42
1.0
 10
15.4526996
 20
-0.1999996
 42
1.0
  0
LWPOLYLINE
  5
27D
330
253
100
AcDbEntity
  8
BottomSolder
100
AcDbPolyline
 90
        2
 70
     0
 43
0.85080094
 10
17.78
 20
0.1999996
 10
17.78
 20
-0.1999996
  0
LWPOLYLINE
  5
27E
330
253
100
AcDbEntity
  8
BottomSolder
100
AcDbPolyline
 90
        2
 70
     1
 43
0.4253992
 10
17.5673004
 20
0.1999996
 42
1.0
 10
17.9926996
 20
0.1999996
 42
1.0
  0
LWPOLYLINE
  5
27F
330
253
100
AcDbEntity
  8
BottomSolder
100
AcDbPolyline
 90
        2
 70
     1
 43
0.4253992
 10
17.5673004
 20
-0.1999996
 42
1.0
 10
17.9926996
 20
-0.1999996
 42
1.0
  0
LWPOLYLINE
  5
280
330
253
100
AcDbEntity
  8
BottomSolder
100
AcDbPolyline
 90
        2
 70
     0
 43
0.85080094
 10
16.51
 20
0.1999996
 10
16.51
 20
-0.1999996
  0
LWPOLYLINE
  5
281
330
253
100
AcDbEntity
  8
BottomSolder
100
AcDbPolyline
 90
        2
 70
     1
 43
0.4253992
 10
16.2973004
 20
0.1999996
 42
1.0
 10
16.7226996
 20
0.1999996
 42
1.0
  0
LWPOLYLINE
  5
282
330
253
100
AcDbEntity
  8
BottomSolder
100
AcDbPolyline
 90
        2
 70
     1
 43
0.4253992
 10
16.2973004
 20
-0.1999996
 42
1.0
 10
16.7226996
 20
-0.1999996
 42
1.0
  0
LWPOLYLINE
  5
283
330
253
100
AcDbEntity
  8
BottomSolder
100
AcDbPolyline
 90
        2
 70
     0
 43
0.85080094
 10
19.05
 20
0.1999996
 10
19.05
 20
-0.1999996
  0
LWPOLYLINE
  5
284
330
253
100
AcDbEntity
  8
BottomSolder
100
AcDbPolyline
 90
        2
 70
     1
 43
0.4253992
 10
18.8373004
 20
0.1999996
 42
1.0
 10
19.2626996
 20
0.1999996
 42
1.0
  0
LWPOLYLINE
  5
285
330
253
100
AcDbEntity
  8
BottomSolder
100
AcDbPolyline
 90
        2
 70
     1
 43
0.4253992
 10
18.8373004
 20
-0.1999996
 42
1.0
 10
19.2626996
 20
-0.1999996
 42
1.0
  0
LWPOLYLINE
  5
286
330
253
100
AcDbEntity
  8
BottomSolder
100
AcDbPolyline
 90
        2
 70
     0
 43
0.85080094
 10
20.32
 20
0.1999996
 10
20.32
 20
-0.1999996
  0
LWPOLYLINE
  5
287
330
253
100
AcDbEntity
  8
BottomSolder
100
AcDbPolyline
 90
        2
 70
     1
 43
0.4253992
 10
20.1073004
 20
0.1999996
 42
1.0
 10
20.5326996
 20
0.1999996
 42
1.0
  0
LWPOLYLINE
  5
288
330
253
100
AcDbEntity
  8
BottomSolder
100
AcDbPolyline
 90
        2
 70
     1
 43
0.4253992
 10
20.1073004
 20
-0.1999996
 42
1.0
 10
20.5326996
 20
-0.1999996
 42
1.0
  0
LWPOLYLINE
  5
289
330
253
100
AcDbEntity
  8
BottomSolder
100
AcDbPolyline
 90
        2
 70
     0
 43
0.85080094
 10
21.59
 20
0.1999996
 10
21.59
 20
-0.1999996
  0
LWPOLYLINE
  5
28A
330
253
100
AcDbEntity
  8
BottomSolder
100
AcDbPolyline
 90
        2
 70
     1
 43
0.4253992
 10
21.3773004
 20
0.1999996
 42
1.0
 10
21.8026996
 20
0.1999996
 42
1.0
  0
LWPOLYLINE
  5
28B
330
253
100
AcDbEntity
  8
BottomSolder
100
AcDbPolyline
 90
        2
 70
     1
 43
0.4253992
 10
21.3773004
 20
-0.1999996
 42
1.0
 10
21.8026996
 20
-0.1999996
 42
1.0
  0
ENDBLK
  5
255
330
253
100
AcDbEntity
  8
0
100
AcDbBlockEnd
  0
BLOCK
  5
28E
330
28D
100
AcDbEntity
  8
0
100
AcDbBlockBegin
  2
SIP18_1_27_____B_51
 70
     0
 10
0.0
 20
0.0
 30
0.0
  3
SIP18_1_27_____B_51
  1

  0
LWPOLYLINE
  5
290
330
28D
100
AcDbEntity
  8
BottomSolder
100
AcDbPolyline
 90
        2
 70
     0
 43
0.85080094
 10
13.97
 20
0.1999996
 10
13.97
 20
-0.1999996
  0
LWPOLYLINE
  5
291
330
28D
100
AcDbEntity
  8
BottomSolder
100
AcDbPolyline
 90
        2
 70
     1
 43
0.4253992
 10
13.7573004
 20
0.1999996
 42
1.0
 10
14.1826996
 20
0.1999996
 42
1.0
  0
LWPOLYLINE
  5
292
330
28D
100
AcDbEntity
  8
BottomSolder
100
AcDbPolyline
 90
        2
 70
     1
 43
0.4253992
 10
13.7573004
 20
-0.1999996
 42
1.0
 10
14.1826996
 20
-0.1999996
 42
1.0
  0
LWPOLYLINE
  5
293
330
28D
100
AcDbEntity
  8
BottomSolder
100
AcDbPolyline
 90
        2
 70
     0
 43
0.85080094
 10
12.7
 20
0.1999996
 10
12.7
 20
-0.1999996
  0
LWPOLYLINE
  5
294
330
28D
100
AcDbEntity
  8
BottomSolder
100
AcDbPolyline
 90
        2
 70
     1
 43
0.4253992
 10
12.4873004
 20
0.1999996
 42
1.0
 10
12.9126996
 20
0.1999996
 42
1.0
  0
LWPOLYLINE
  5
295
330
28D
100
AcDbEntity
  8
BottomSolder
100
AcDbPolyline
 90
        2
 70
     1
 43
0.4253992
 10
12.4873004
 20
-0.1999996
 42
1.0
 10
12.9126996
 20
-0.1999996
 42
1.0
  0
LWPOLYLINE
  5
296
330
28D
100
AcDbEntity
  8
BottomSolder
100
AcDbPolyline
 90
        2
 70
     0
 43
0.85080094
 10
10.16
 20
0.1999996
 10
10.16
 20
-0.1999996
  0
LWPOLYLINE
  5
297
330
28D
100
AcDbEntity
  8
BottomSolder
100
AcDbPolyline
 90
        2
 70
     1
 43
0.4253992
 10
9.9473004
 20
0.1999996
 42
1.0
 10
10.3726996
 20
0.1999996
 42
1.0
  0
LWPOLYLINE
  5
298
330
28D
100
AcDbEntity
  8
BottomSolder
100
AcDbPolyline
 90
        2
 70
     1
 43
0.4253992
 10
9.9473004
 20
-0.1999996
 42
1.0
 10
10.3726996
 20
-0.1999996
 42
1.0
  0
LWPOLYLINE
  5
299
330
28D
100
AcDbEntity
  8
BottomSolder
100
AcDbPolyline
 90
        2
 70
     0
 43
0.85080094
 10
11.43
 20
0.1999996
 10
11.43
 20
-0.1999996
  0
LWPOLYLINE
  5
29A
330
28D
100
AcDbEntity
  8
BottomSolder
100
AcDbPolyline
 90
        2
 70
     1
 43
0.4253992
 10
11.2173004
 20
0.1999996
 42
1.0
 10
11.6426996
 20
0.1999996
 42
1.0
  0
LWPOLYLINE
  5
29B
330
28D
100
AcDbEntity
  8
BottomSolder
100
AcDbPolyline
 90
        2
 70
     1
 43
0.4253992
 10
11.2173004
 20
-0.1999996
 42
1.0
 10
11.6426996
 20
-0.1999996
 42
1.0
  0
LWPOLYLINE
  5
29C
330
28D
100
AcDbEntity
  8
BottomSolder
100
AcDbPolyline
 90
        2
 70
     0
 43
0.85080094
 10
8.889999999999999
 20
0.1999996
 10
8.889999999999999
 20
-0.1999996
  0
LWPOLYLINE
  5
29D
330
28D
100
AcDbEntity
  8
BottomSolder
100
AcDbPolyline
 90
        2
 70
     1
 43
0.4253992
 10
8.6773004
 20
0.1999996
 42
1.0
 10
9.1026996
 20
0.1999996
 42
1.0
  0
LWPOLYLINE
  5
29E
330
28D
100
AcDbEntity
  8
BottomSolder
100
AcDbPolyline
 90
        2
 70
     1
 43
0.4253992
 10
8.6773004
 20
-0.1999996
 42
1.0
 10
9.1026996
 20
-0.1999996
 42
1.0
  0
LWPOLYLINE
  5
29F
330
28D
100
AcDbEntity
  8
BottomSolder
100
AcDbPolyline
 90
        2
 70
     0
 43
0.85080094
 10
7.619999999999999
 20
0.1999996
 10
7.619999999999999
 20
-0.1999996
  0
LWPOLYLINE
  5
2A0
330
28D
100
AcDbEntity
  8
BottomSolder
100
AcDbPolyline
 90
        2
 70
     1
 43
0.4253992
 10
7.4073004
 20
0.1999996
 42
1.0
 10
7.832699599999999
 20
0.1999996
 42
1.0
  0
LWPOLYLINE
  5
2A1
330
28D
100
AcDbEntity
  8
BottomSolder
100
AcDbPolyline
 90
        2
 70
     1
 43
0.4253992
 10
7.4073004
 20
-0.1999996
 42
1.0
 10
7.832699599999999
 20
-0.1999996
 42
1.0
  0
LWPOLYLINE
  5
2A2
330
28D
100
AcDbEntity
  8
BottomSolder
100
AcDbPolyline
 90
        2
 70
     0
 43
0.85080094
 10
6.35
 20
0.1999996
 10
6.35
 20
-0.1999996
  0
LWPOLYLINE
  5
2A3
330
28D
100
AcDbEntity
  8
BottomSolder
100
AcDbPolyline
 90
        2
 70
     1
 43
0.4253992
 10
6.1373004
 20
0.1999996
 42
1.0
 10
6.562699599999999
 20
0.1999996
 42
1.0
  0
LWPOLYLINE
  5
2A4
330
28D
100
AcDbEntity
  8
BottomSolder
100
AcDbPolyline
 90
        2
 70
     1
 43
0.4253992
 10
6.1373004
 20
-0.1999996
 42
1.0
 10
6.562699599999999
 20
-0.1999996
 42
1.0
  0
LWPOLYLINE
  5
2A5
330
28D
100
AcDbEntity
  8
BottomSolder
100
AcDbPolyline
 90
        2
 70
     0
 43
0.85080094
 10
5.08
 20
0.1999996
 10
5.08
 20
-0.1999996
  0
LWPOLYLINE
  5
2A6
330
28D
100
AcDbEntity
  8
BottomSolder
100
AcDbPolyline
 90
        2
 70
     1
 43
0.4253992
 10
4.8673004
 20
0.1999996
 42
1.0
 10
5.2926996
 20
0.1999996
 42
1.0
  0
LWPOLYLINE
  5
2A7
330
28D
100
AcDbEntity
  8
BottomSolder
100
AcDbPolyline
 90
        2
 70
     1
 43
0.4253992
 10
4.8673004
 20
-0.1999996
 42
1.0
 10
5.2926996
 20
-0.1999996
 42
1.0
  0
LWPOLYLINE
  5
2A8
330
28D
100
AcDbEntity
  8
BottomSolder
100
AcDbPolyline
 90
        2
 70
     0
 43
0.85080094
 10
3.81
 20
0.1999996
 10
3.81
 20
-0.1999996
  0
LWPOLYLINE
  5
2A9
330
28D
100
AcDbEntity
  8
BottomSolder
100
AcDbPolyline
 90
        2
 70
     1
 43
0.4253992
 10
3.5973004
 20
0.1999996
 42
1.0
 10
4.022699599999999
 20
0.1999996
 42
1.0
  0
LWPOLYLINE
  5
2AA
330
28D
100
AcDbEntity
  8
BottomSolder
100
AcDbPolyline
 90
        2
 70
     1
 43
0.4253992
 10
3.5973004
 20
-0.1999996
 42
1.0
 10
4.022699599999999
 20
-0.1999996
 42
1.0
  0
LWPOLYLINE
  5
2AB
330
28D
100
AcDbEntity
  8
BottomSolder
100
AcDbPolyline
 90
        2
 70
     0
 43
0.85080094
 10
2.54
 20
0.1999996
 10
2.54
 20
-0.1999996
  0
LWPOLYLINE
  5
2AC
330
28D
100
AcDbEntity
  8
BottomSolder
100
AcDbPolyline
 90
        2
 70
     1
 43
0.4253992
 10
2.3273004
 20
0.1999996
 42
1.0
 10
2.7526996
 20
0.1999996
 42
1.0
  0
LWPOLYLINE
  5
2AD
330
28D
100
AcDbEntity
  8
BottomSolder
100
AcDbPolyline
 90
        2
 70
     1
 43
0.4253992
 10
2.3273004
 20
-0.1999996
 42
1.0
 10
2.7526996
 20
-0.1999996
 42
1.0
  0
LWPOLYLINE
  5
2AE
330
28D
100
AcDbEntity
  8
BottomSolder
100
AcDbPolyline
 90
        2
 70
     0
 43
0.85080094
 10
1.27
 20
0.1999996
 10
1.27
 20
-0.1999996
  0
LWPOLYLINE
  5
2AF
330
28D
100
AcDbEntity
  8
BottomSolder
100
AcDbPolyline
 90
        2
 70
     1
 43
0.4253992
 10
1.0573004
 20
0.1999996
 42
1.0
 10
1.4826996
 20
0.1999996
 42
1.0
  0
LWPOLYLINE
  5
2B0
330
28D
100
AcDbEntity
  8
BottomSolder
100
AcDbPolyline
 90
        2
 70
     1
 43
0.4253992
 10
1.0573004
 20
-0.1999996
 42
1.0
 10
1.4826996
 20
-0.1999996
 42
1.0
  0
LWPOLYLINE
  5
2B1
330
28D
100
AcDbEntity
  8
BottomSolder
100
AcDbPolyline
 90
        2
 70
     0
 43
0.85080094
 10
0.0
 20
0.1999996
 10
0.0
 20
-0.1999996
  0
LWPOLYLINE
  5
2B2
330
28D
100
AcDbEntity
  8
BottomSolder
100
AcDbPolyline
 90
        2
 70
     1
 43
0.4253992
 10
-0.2126996
 20
0.1999996
 42
1.0
 10
0.2126996
 20
0.1999996
 42
1.0
  0
LWPOLYLINE
  5
2B3
330
28D
100
AcDbEntity
  8
BottomSolder
100
AcDbPolyline
 90
        2
 70
     1
 43
0.4253992
 10
-0.2126996
 20
-0.1999996
 42
1.0
 10
0.2126996
 20
-0.1999996
 42
1.0
  0
LWPOLYLINE
  5
2B4
330
28D
100
AcDbEntity
  8
BottomSolder
100
AcDbPolyline
 90
        2
 70
     0
 43
0.85080094
 10
15.24
 20
0.1999996
 10
15.24
 20
-0.1999996
  0
LWPOLYLINE
  5
2B5
330
28D
100
AcDbEntity
  8
BottomSolder
100
AcDbPolyline
 90
        2
 70
     1
 43
0.4253992
 10
15.0273004
 20
0.1999996
 42
1.0
 10
15.4526996
 20
0.1999996
 42
1.0
  0
LWPOLYLINE
  5
2B6
330
28D
100
AcDbEntity
  8
BottomSolder
100
AcDbPolyline
 90
        2
 70
     1
 43
0.4253992
 10
15.0273004
 20
-0.1999996
 42
1.0
 10
15.4526996
 20
-0.1999996
 42
1.0
  0
LWPOLYLINE
  5
2B7
330
28D
100
AcDbEntity
  8
BottomSolder
100
AcDbPolyline
 90
        2
 70
     0
 43
0.85080094
 10
17.78
 20
0.1999996
 10
17.78
 20
-0.1999996
  0
LWPOLYLINE
  5
2B8
330
28D
100
AcDbEntity
  8
BottomSolder
100
AcDbPolyline
 90
        2
 70
     1
 43
0.4253992
 10
17.5673004
 20
0.1999996
 42
1.0
 10
17.9926996
 20
0.1999996
 42
1.0
  0
LWPOLYLINE
  5
2B9
330
28D
100
AcDbEntity
  8
BottomSolder
100
AcDbPolyline
 90
        2
 70
     1
 43
0.4253992
 10
17.5673004
 20
-0.1999996
 42
1.0
 10
17.9926996
 20
-0.1999996
 42
1.0
  0
LWPOLYLINE
  5
2BA
330
28D
100
AcDbEntity
  8
BottomSolder
100
AcDbPolyline
 90
        2
 70
     0
 43
0.85080094
 10
16.51
 20
0.1999996
 10
16.51
 20
-0.1999996
  0
LWPOLYLINE
  5
2BB
330
28D
100
AcDbEntity
  8
BottomSolder
100
AcDbPolyline
 90
        2
 70
     1
 43
0.4253992
 10
16.2973004
 20
0.1999996
 42
1.0
 10
16.7226996
 20
0.1999996
 42
1.0
  0
LWPOLYLINE
  5
2BC
330
28D
100
AcDbEntity
  8
BottomSolder
100
AcDbPolyline
 90
        2
 70
     1
 43
0.4253992
 10
16.2973004
 20
-0.1999996
 42
1.0
 10
16.7226996
 20
-0.1999996
 42
1.0
  0
LWPOLYLINE
  5
2BD
330
28D
100
AcDbEntity
  8
BottomSolder
100
AcDbPolyline
 90
        2
 70
     0
 43
0.85080094
 10
19.05
 20
0.1999996
 10
19.05
 20
-0.1999996
  0
LWPOLYLINE
  5
2BE
330
28D
100
AcDbEntity
  8
BottomSolder
100
AcDbPolyline
 90
        2
 70
     1
 43
0.4253992
 10
18.8373004
 20
0.1999996
 42
1.0
 10
19.2626996
 20
0.1999996
 42
1.0
  0
LWPOLYLINE
  5
2BF
330
28D
100
AcDbEntity
  8
BottomSolder
100
AcDbPolyline
 90
        2
 70
     1
 43
0.4253992
 10
18.8373004
 20
-0.1999996
 42
1.0
 10
19.2626996
 20
-0.1999996
 42
1.0
  0
LWPOLYLINE
  5
2C0
330
28D
100
AcDbEntity
  8
BottomSolder
100
AcDbPolyline
 90
        2
 70
     0
 43
0.85080094
 10
20.32
 20
0.1999996
 10
20.32
 20
-0.1999996
  0
LWPOLYLINE
  5
2C1
330
28D
100
AcDbEntity
  8
BottomSolder
100
AcDbPolyline
 90
        2
 70
     1
 43
0.4253992
 10
20.1073004
 20
0.1999996
 42
1.0
 10
20.5326996
 20
0.1999996
 42
1.0
  0
LWPOLYLINE
  5
2C2
330
28D
100
AcDbEntity
  8
BottomSolder
100
AcDbPolyline
 90
        2
 70
     1
 43
0.4253992
 10
20.1073004
 20
-0.1999996
 42
1.0
 10
20.5326996
 20
-0.1999996
 42
1.0
  0
LWPOLYLINE
  5
2C3
330
28D
100
AcDbEntity
  8
BottomSolder
100
AcDbPolyline
 90
        2
 70
     0
 43
0.85080094
 10
21.59
 20
0.1999996
 10
21.59
 20
-0.1999996
  0
LWPOLYLINE
  5
2C4
330
28D
100
AcDbEntity
  8
BottomSolder
100
AcDbPolyline
 90
        2
 70
     1
 43
0.4253992
 10
21.3773004
 20
0.1999996
 42
1.0
 10
21.8026996
 20
0.1999996
 42
1.0
  0
LWPOLYLINE
  5
2C5
330
28D
100
AcDbEntity
  8
BottomSolder
100
AcDbPolyline
 90
        2
 70
     1
 43
0.4253992
 10
21.3773004
 20
-0.1999996
 42
1.0
 10
21.8026996
 20
-0.1999996
 42
1.0
  0
ENDBLK
  5
28F
330
28D
100
AcDbEntity
  8
0
100
AcDbBlockEnd
  0
BLOCK
  5
2C8
330
2C7
100
AcDbEntity
  8
0
100
AcDbBlockBegin
  2
SIP18_1_27_____B_52
 70
     0
 10
0.0
 20
0.0
 30
0.0
  3
SIP18_1_27_____B_52
  1

  0
LWPOLYLINE
  5
2CA
330
2C7
100
AcDbEntity
  8
BottomSolder
100
AcDbPolyline
 90
        2
 70
     0
 43
0.85080094
 10
21.59
 20
0.1999996
 10
21.59
 20
-0.1999996
  0
LWPOLYLINE
  5
2CB
330
2C7
100
AcDbEntity
  8
BottomSolder
100
AcDbPolyline
 90
        2
 70
     1
 43
0.4253992
 10
21.3773004
 20
0.1999996
 42
1.0
 10
21.8026996
 20
0.1999996
 42
1.0
  0
LWPOLYLINE
  5
2CC
330
2C7
100
AcDbEntity
  8
BottomSolder
100
AcDbPolyline
 90
        2
 70
     1
 43
0.4253992
 10
21.3773004
 20
-0.1999996
 42
1.0
 10
21.8026996
 20
-0.1999996
 42
1.0
  0
LWPOLYLINE
  5
2CD
330
2C7
100
AcDbEntity
  8
BottomSolder
100
AcDbPolyline
 90
        2
 70
     0
 43
0.85080094
 10
20.32
 20
0.1999996
 10
20.32
 20
-0.1999996
  0
LWPOLYLINE
  5
2CE
330
2C7
100
AcDbEntity
  8
BottomSolder
100
AcDbPolyline
 90
        2
 70
     1
 43
0.4253992
 10
20.1073004
 20
0.1999996
 42
1.0
 10
20.5326996
 20
0.1999996
 42
1.0
  0
LWPOLYLINE
  5
2CF
330
2C7
100
AcDbEntity
  8
BottomSolder
100
AcDbPolyline
 90
        2
 70
     1
 43
0.4253992
 10
20.1073004
 20
-0.1999996
 42
1.0
 10
20.5326996
 20
-0.1999996
 42
1.0
  0
LWPOLYLINE
  5
2D0
330
2C7
100
AcDbEntity
  8
BottomSolder
100
AcDbPolyline
 90
        2
 70
     0
 43
0.85080094
 10
19.05
 20
0.1999996
 10
19.05
 20
-0.1999996
  0
LWPOLYLINE
  5
2D1
330
2C7
100
AcDbEntity
  8
BottomSolder
100
AcDbPolyline
 90
        2
 70
     1
 43
0.4253992
 10
18.8373004
 20
0.1999996
 42
1.0
 10
19.2626996
 20
0.1999996
 42
1.0
  0
LWPOLYLINE
  5
2D2
330
2C7
100
AcDbEntity
  8
BottomSolder
100
AcDbPolyline
 90
        2
 70
     1
 43
0.4253992
 10
18.8373004
 20
-0.1999996
 42
1.0
 10
19.2626996
 20
-0.1999996
 42
1.0
  0
LWPOLYLINE
  5
2D3
330
2C7
100
AcDbEntity
  8
BottomSolder
100
AcDbPolyline
 90
        2
 70
     0
 43
0.85080094
 10
16.51
 20
0.1999996
 10
16.51
 20
-0.1999996
  0
LWPOLYLINE
  5
2D4
330
2C7
100
AcDbEntity
  8
BottomSolder
100
AcDbPolyline
 90
        2
 70
     1
 43
0.4253992
 10
16.2973004
 20
0.1999996
 42
1.0
 10
16.7226996
 20
0.1999996
 42
1.0
  0
LWPOLYLINE
  5
2D5
330
2C7
100
AcDbEntity
  8
BottomSolder
100
AcDbPolyline
 90
        2
 70
     1
 43
0.4253992
 10
16.2973004
 20
-0.1999996
 42
1.0
 10
16.7226996
 20
-0.1999996
 42
1.0
  0
LWPOLYLINE
  5
2D6
330
2C7
100
AcDbEntity
  8
BottomSolder
100
AcDbPolyline
 90
        2
 70
     0
 43
0.85080094
 10
17.78
 20
0.1999996
 10
17.78
 20
-0.1999996
  0
LWPOLYLINE
  5
2D7
330
2C7
100
AcDbEntity
  8
BottomSolder
100
AcDbPolyline
 90
        2
 70
     1
 43
0.4253992
 10
17.5673004
 20
0.1999996
 42
1.0
 10
17.9926996
 20
0.1999996
 42
1.0
  0
LWPOLYLINE
  5
2D8
330
2C7
100
AcDbEntity
  8
BottomSolder
100
AcDbPolyline
 90
        2
 70
     1
 43
0.4253992
 10
17.5673004
 20
-0.1999996
 42
1.0
 10
17.9926996
 20
-0.1999996
 42
1.0
  0
LWPOLYLINE
  5
2D9
330
2C7
100
AcDbEntity
  8
BottomSolder
100
AcDbPolyline
 90
        2
 70
     0
 43
0.85080094
 10
15.24
 20
0.1999996
 10
15.24
 20
-0.1999996
  0
LWPOLYLINE
  5
2DA
330
2C7
100
AcDbEntity
  8
BottomSolder
100
AcDbPolyline
 90
        2
 70
     1
 43
0.4253992
 10
15.0273004
 20
0.1999996
 42
1.0
 10
15.4526996
 20
0.1999996
 42
1.0
  0
LWPOLYLINE
  5
2DB
330
2C7
100
AcDbEntity
  8
BottomSolder
100
AcDbPolyline
 90
        2
 70
     1
 43
0.4253992
 10
15.0273004
 20
-0.1999996
 42
1.0
 10
15.4526996
 20
-0.1999996
 42
1.0
  0
LWPOLYLINE
  5
2DC
330
2C7
100
AcDbEntity
  8
BottomSolder
100
AcDbPolyline
 90
        2
 70
     0
 43
0.85080094
 10
0.0
 20
0.1999996
 10
0.0
 20
-0.1999996
  0
LWPOLYLINE
  5
2DD
330
2C7
100
AcDbEntity
  8
BottomSolder
100
AcDbPolyline
 90
        2
 70
     1
 43
0.4253992
 10
-0.2126996
 20
0.1999996
 42
1.0
 10
0.2126996
 20
0.1999996
 42
1.0
  0
LWPOLYLINE
  5
2DE
330
2C7
100
AcDbEntity
  8
BottomSolder
100
AcDbPolyline
 90
        2
 70
     1
 43
0.4253992
 10
-0.2126996
 20
-0.1999996
 42
1.0
 10
0.2126996
 20
-0.1999996
 42
1.0
  0
LWPOLYLINE
  5
2DF
330
2C7
100
AcDbEntity
  8
BottomSolder
100
AcDbPolyline
 90
        2
 70
     0
 43
0.85080094
 10
1.27
 20
0.1999996
 10
1.27
 20
-0.1999996
  0
LWPOLYLINE
  5
2E0
330
2C7
100
AcDbEntity
  8
BottomSolder
100
AcDbPolyline
 90
        2
 70
     1
 43
0.4253992
 10
1.0573004
 20
0.1999996
 42
1.0
 10
1.4826996
 20
0.1999996
 42
1.0
  0
LWPOLYLINE
  5
2E1
330
2C7
100
AcDbEntity
  8
BottomSolder
100
AcDbPolyline
 90
        2
 70
     1
 43
0.4253992
 10
1.0573004
 20
-0.1999996
 42
1.0
 10
1.4826996
 20
-0.1999996
 42
1.0
  0
LWPOLYLINE
  5
2E2
330
2C7
100
AcDbEntity
  8
BottomSolder
100
AcDbPolyline
 90
        2
 70
     0
 43
0.85080094
 10
2.54
 20
0.1999996
 10
2.54
 20
-0.1999996
  0
LWPOLYLINE
  5
2E3
330
2C7
100
AcDbEntity
  8
BottomSolder
100
AcDbPolyline
 90
        2
 70
     1
 43
0.4253992
 10
2.3273004
 20
0.1999996
 42
1.0
 10
2.7526996
 20
0.1999996
 42
1.0
  0
LWPOLYLINE
  5
2E4
330
2C7
100
AcDbEntity
  8
BottomSolder
100
AcDbPolyline
 90
        2
 70
     1
 43
0.4253992
 10
2.3273004
 20
-0.1999996
 42
1.0
 10
2.7526996
 20
-0.1999996
 42
1.0
  0
LWPOLYLINE
  5
2E5
330
2C7
100
AcDbEntity
  8
BottomSolder
100
AcDbPolyline
 90
        2
 70
     0
 43
0.85080094
 10
3.81
 20
0.1999996
 10
3.81
 20
-0.1999996
  0
LWPOLYLINE
  5
2E6
330
2C7
100
AcDbEntity
  8
BottomSolder
100
AcDbPolyline
 90
        2
 70
     1
 43
0.4253992
 10
3.5973004
 20
0.1999996
 42
1.0
 10
4.022699599999999
 20
0.1999996
 42
1.0
  0
LWPOLYLINE
  5
2E7
330
2C7
100
AcDbEntity
  8
BottomSolder
100
AcDbPolyline
 90
        2
 70
     1
 43
0.4253992
 10
3.5973004
 20
-0.1999996
 42
1.0
 10
4.022699599999999
 20
-0.1999996
 42
1.0
  0
LWPOLYLINE
  5
2E8
330
2C7
100
AcDbEntity
  8
BottomSolder
100
AcDbPolyline
 90
        2
 70
     0
 43
0.85080094
 10
5.08
 20
0.1999996
 10
5.08
 20
-0.1999996
  0
LWPOLYLINE
  5
2E9
330
2C7
100
AcDbEntity
  8
BottomSolder
100
AcDbPolyline
 90
        2
 70
     1
 43
0.4253992
 10
4.8673004
 20
0.1999996
 42
1.0
 10
5.2926996
 20
0.1999996
 42
1.0
  0
LWPOLYLINE
  5
2EA
330
2C7
100
AcDbEntity
  8
BottomSolder
100
AcDbPolyline
 90
        2
 70
     1
 43
0.4253992
 10
4.8673004
 20
-0.1999996
 42
1.0
 10
5.2926996
 20
-0.1999996
 42
1.0
  0
LWPOLYLINE
  5
2EB
330
2C7
100
AcDbEntity
  8
BottomSolder
100
AcDbPolyline
 90
        2
 70
     0
 43
0.85080094
 10
6.35
 20
0.1999996
 10
6.35
 20
-0.1999996
  0
LWPOLYLINE
  5
2EC
330
2C7
100
AcDbEntity
  8
BottomSolder
100
AcDbPolyline
 90
        2
 70
     1
 43
0.4253992
 10
6.1373004
 20
0.1999996
 42
1.0
 10
6.562699599999999
 20
0.1999996
 42
1.0
  0
LWPOLYLINE
  5
2ED
330
2C7
100
AcDbEntity
  8
BottomSolder
100
AcDbPolyline
 90
        2
 70
     1
 43
0.4253992
 10
6.1373004
 20
-0.1999996
 42
1.0
 10
6.562699599999999
 20
-0.1999996
 42
1.0
  0
LWPOLYLINE
  5
2EE
330
2C7
100
AcDbEntity
  8
BottomSolder
100
AcDbPolyline
 90
        2
 70
     0
 43
0.85080094
 10
7.619999999999999
 20
0.1999996
 10
7.619999999999999
 20
-0.1999996
  0
LWPOLYLINE
  5
2EF
330
2C7
100
AcDbEntity
  8
BottomSolder
100
AcDbPolyline
 90
        2
 70
     1
 43
0.4253992
 10
7.4073004
 20
0.1999996
 42
1.0
 10
7.832699599999999
 20
0.1999996
 42
1.0
  0
LWPOLYLINE
  5
2F0
330
2C7
100
AcDbEntity
  8
BottomSolder
100
AcDbPolyline
 90
        2
 70
     1
 43
0.4253992
 10
7.4073004
 20
-0.1999996
 42
1.0
 10
7.832699599999999
 20
-0.1999996
 42
1.0
  0
LWPOLYLINE
  5
2F1
330
2C7
100
AcDbEntity
  8
BottomSolder
100
AcDbPolyline
 90
        2
 70
     0
 43
0.85080094
 10
8.889999999999999
 20
0.1999996
 10
8.889999999999999
 20
-0.1999996
  0
LWPOLYLINE
  5
2F2
330
2C7
100
AcDbEntity
  8
BottomSolder
100
AcDbPolyline
 90
        2
 70
     1
 43
0.4253992
 10
8.6773004
 20
0.1999996
 42
1.0
 10
9.1026996
 20
0.1999996
 42
1.0
  0
LWPOLYLINE
  5
2F3
330
2C7
100
AcDbEntity
  8
BottomSolder
100
AcDbPolyline
 90
        2
 70
     1
 43
0.4253992
 10
8.6773004
 20
-0.1999996
 42
1.0
 10
9.1026996
 20
-0.1999996
 42
1.0
  0
LWPOLYLINE
  5
2F4
330
2C7
100
AcDbEntity
  8
BottomSolder
100
AcDbPolyline
 90
        2
 70
     0
 43
0.85080094
 10
11.43
 20
0.1999996
 10
11.43
 20
-0.1999996
  0
LWPOLYLINE
  5
2F5
330
2C7
100
AcDbEntity
  8
BottomSolder
100
AcDbPolyline
 90
        2
 70
     1
 43
0.4253992
 10
11.2173004
 20
0.1999996
 42
1.0
 10
11.6426996
 20
0.1999996
 42
1.0
  0
LWPOLYLINE
  5
2F6
330
2C7
100
AcDbEntity
  8
BottomSolder
100
AcDbPolyline
 90
        2
 70
     1
 43
0.4253992
 10
11.2173004
 20
-0.1999996
 42
1.0
 10
11.6426996
 20
-0.1999996
 42
1.0
  0
LWPOLYLINE
  5
2F7
330
2C7
100
AcDbEntity
  8
BottomSolder
100
AcDbPolyline
 90
        2
 70
     0
 43
0.85080094
 10
10.16
 20
0.1999996
 10
10.16
 20
-0.1999996
  0
LWPOLYLINE
  5
2F8
330
2C7
100
AcDbEntity
  8
BottomSolder
100
AcDbPolyline
 90
        2
 70
     1
 43
0.4253992
 10
9.9473004
 20
0.1999996
 42
1.0
 10
10.3726996
 20
0.1999996
 42
1.0
  0
LWPOLYLINE
  5
2F9
330
2C7
100
AcDbEntity
  8
BottomSolder
100
AcDbPolyline
 90
        2
 70
     1
 43
0.4253992
 10
9.9473004
 20
-0.1999996
 42
1.0
 10
10.3726996
 20
-0.1999996
 42
1.0
  0
LWPOLYLINE
  5
2FA
330
2C7
100
AcDbEntity
  8
BottomSolder
100
AcDbPolyline
 90
        2
 70
     0
 43
0.85080094
 10
12.7
 20
0.1999996
 10
12.7
 20
-0.1999996
  0
LWPOLYLINE
  5
2FB
330
2C7
100
AcDbEntity
  8
BottomSolder
100
AcDbPolyline
 90
        2
 70
     1
 43
0.4253992
 10
12.4873004
 20
0.1999996
 42
1.0
 10
12.9126996
 20
0.1999996
 42
1.0
  0
LWPOLYLINE
  5
2FC
330
2C7
100
AcDbEntity
  8
BottomSolder
100
AcDbPolyline
 90
        2
 70
     1
 43
0.4253992
 10
12.4873004
 20
-0.1999996
 42
1.0
 10
12.9126996
 20
-0.1999996
 42
1.0
  0
LWPOLYLINE
  5
2FD
330
2C7
100
AcDbEntity
  8
BottomSolder
100
AcDbPolyline
 90
        2
 70
     0
 43
0.85080094
 10
13.97
 20
0.1999996
 10
13.97
 20
-0.1999996
  0
LWPOLYLINE
  5
2FE
330
2C7
100
AcDbEntity
  8
BottomSolder
100
AcDbPolyline
 90
        2
 70
     1
 43
0.4253992
 10
13.7573004
 20
0.1999996
 42
1.0
 10
14.1826996
 20
0.1999996
 42
1.0
  0
LWPOLYLINE
  5
2FF
330
2C7
100
AcDbEntity
  8
BottomSolder
100
AcDbPolyline
 90
        2
 70
     1
 43
0.4253992
 10
13.7573004
 20
-0.1999996
 42
1.0
 10
14.1826996
 20
-0.1999996
 42
1.0
  0
ENDBLK
  5
2C9
330
2C7
100
AcDbEntity
  8
0
100
AcDbBlockEnd
  0
BLOCK
  5
302
330
301
100
AcDbEntity
  8
0
100
AcDbBlockBegin
  2
C0603_M_53
 70
     0
 10
0.0
 20
0.0
 30
0.0
  3
C0603_M_53
  1

  0
ENDBLK
  5
303
330
301
100
AcDbEntity
  8
0
100
AcDbBlockEnd
  0
BLOCK
  5
306
330
305
100
AcDbEntity
  8
0
100
AcDbBlockBegin
  2
C0603_M_54
 70
     0
 10
0.0
 20
0.0
 30
0.0
  3
C0603_M_54
  1

  0
ENDBLK
  5
307
330
305
100
AcDbEntity
  8
0
100
AcDbBlockEnd
  0
BLOCK
  5
30A
330
309
100
AcDbEntity
  8
0
100
AcDbBlockBegin
  2
C0402_S_55
 70
     0
 10
0.0
 20
0.0
 30
0.0
  3
C0402_S_55
  1

  0
ENDBLK
  5
30B
330
309
100
AcDbEntity
  8
0
100
AcDbBlockEnd
  0
BLOCK
  5
30E
330
30D
100
AcDbEntity
  8
0
100
AcDbBlockBegin
  2
C0402_S_56
 70
     0
 10
0.0
 20
0.0
 30
0.0
  3
C0402_S_56
  1

  0
ENDBLK
  5
30F
330
30D
100
AcDbEntity
  8
0
100
AcDbBlockEnd
  0
BLOCK
  5
312
330
311
100
AcDbEntity
  8
0
100
AcDbBlockBegin
  2
C0402_S_57
 70
     0
 10
0.0
 20
0.0
 30
0.0
  3
C0402_S_57
  1

  0
ENDBLK
  5
313
330
311
100
AcDbEntity
  8
0
100
AcDbBlockEnd
  0
BLOCK
  5
316
330
315
100
AcDbEntity
  8
0
100
AcDbBlockBegin
  2
C0402_S_58
 70
     0
 10
0.0
 20
0.0
 30
0.0
  3
C0402_S_58
  1

  0
ENDBLK
  5
317
330
315
100
AcDbEntity
  8
0
100
AcDbBlockEnd
  0
BLOCK
  5
31A
330
319
100
AcDbEntity
  8
0
100
AcDbBlockBegin
  2
C0603_M_59
 70
     0
 10
0.0
 20
0.0
 30
0.0
  3
C0603_M_59
  1

  0
ENDBLK
  5
31B
330
319
100
AcDbEntity
  8
0
100
AcDbBlockEnd
  0
BLOCK
  5
31E
330
31D
100
AcDbEntity
  8
0
100
AcDbBlockBegin
  2
C0603_M_60
 70
     0
 10
0.0
 20
0.0
 30
0.0
  3
C0603_M_60
  1

  0
ENDBLK
  5
31F
330
31D
100
AcDbEntity
  8
0
100
AcDbBlockEnd
  0
BLOCK
  5
322
330
321
100
AcDbEntity
  8
0
100
AcDbBlockBegin
  2
C0402_S_61
 70
     0
 10
0.0
 20
0.0
 30
0.0
  3
C0402_S_61
  1

  0
ENDBLK
  5
323
330
321
100
AcDbEntity
  8
0
100
AcDbBlockEnd
  0
BLOCK
  5
326
330
325
100
AcDbEntity
  8
0
100
AcDbBlockBegin
  2
C0402_S_62
 70
     0
 10
0.0
 20
0.0
 30
0.0
  3
C0402_S_62
  1

  0
ENDBLK
  5
327
330
325
100
AcDbEntity
  8
0
100
AcDbBlockEnd
  0
BLOCK
  5
32A
330
329
100
AcDbEntity
  8
0
100
AcDbBlockBegin
  2
C0402_S_63
 70
     0
 10
0.0
 20
0.0
 30
0.0
  3
C0402_S_63
  1

  0
ENDBLK
  5
32B
330
329
100
AcDbEntity
  8
0
100
AcDbBlockEnd
  0
BLOCK
  5
32E
330
32D
100
AcDbEntity
  8
0
100
AcDbBlockBegin
  2
C0402_S_64
 70
     0
 10
0.0
 20
0.0
 30
0.0
  3
C0402_S_64
  1

  0
ENDBLK
  5
32F
330
32D
100
AcDbEntity
  8
0
100
AcDbBlockEnd
  0
BLOCK
  5
332
330
331
100
AcDbEntity
  8
0
100
AcDbBlockBegin
  2
C0402_S_65
 70
     0
 10
0.0
 20
0.0
 30
0.0
  3
C0402_S_65
  1

  0
ENDBLK
  5
333
330
331
100
AcDbEntity
  8
0
100
AcDbBlockEnd
  0
BLOCK
  5
336
330
335
100
AcDbEntity
  8
0
100
AcDbBlockBegin
  2
C0402_S_66
 70
     0
 10
0.0
 20
0.0
 30
0.0
  3
C0402_S_66
  1

  0
ENDBLK
  5
337
330
335
100
AcDbEntity
  8
0
100
AcDbBlockEnd
  0
BLOCK
  5
33A
330
339
100
AcDbEntity
  8
0
100
AcDbBlockBegin
  2
C0402_S_67
 70
     0
 10
0.0
 20
0.0
 30
0.0
  3
C0402_S_67
  1

  0
ENDBLK
  5
33B
330
339
100
AcDbEntity
  8
0
100
AcDbBlockEnd
  0
BLOCK
  5
33E
330
33D
100
AcDbEntity
  8
0
100
AcDbBlockBegin
  2
BGA144_68
 70
     0
 10
0.0
 20
0.0
 30
0.0
  3
BGA144_68
  1

  0
ENDBLK
  5
33F
330
33D
100
AcDbEntity
  8
0
100
AcDbBlockEnd
  0
BLOCK
  5
342
330
341
100
AcDbEntity
  8
0
100
AcDbBlockBegin
  2
C0402_S_69
 70
     0
 10
0.0
 20
0.0
 30
0.0
  3
C0402_S_69
  1

  0
ENDBLK
  5
343
330
341
100
AcDbEntity
  8
0
100
AcDbBlockEnd
  0
BLOCK
  5
346
330
345
100
AcDbEntity
  8
0
100
AcDbBlockBegin
  2
C0402_S_70
 70
     0
 10
0.0
 20
0.0
 30
0.0
  3
C0402_S_70
  1

  0
ENDBLK
  5
347
330
345
100
AcDbEntity
  8
0
100
AcDbBlockEnd
  0
BLOCK
  5
34A
330
349
100
AcDbEntity
  8
0
100
AcDbBlockBegin
  2
C0603_M_71
 70
     0
 10
0.0
 20
0.0
 30
0.0
  3
C0603_M_71
  1

  0
ENDBLK
  5
34B
330
349
100
AcDbEntity
  8
0
100
AcDbBlockEnd
  0
BLOCK
  5
34E
330
34D
100
AcDbEntity
  8
0
100
AcDbBlockBegin
  2
C0402_S_72
 70
     0
 10
0.0
 20
0.0
 30
0.0
  3
C0402_S_72
  1

  0
ENDBLK
  5
34F
330
34D
100
AcDbEntity
  8
0
100
AcDbBlockEnd
  0
BLOCK
  5
352
330
351
100
AcDbEntity
  8
0
100
AcDbBlockBegin
  2
C0402_S_73
 70
     0
 10
0.0
 20
0.0
 30
0.0
  3
C0402_S_73
  1

  0
ENDBLK
  5
353
330
351
100
AcDbEntity
  8
0
100
AcDbBlockEnd
  0
BLOCK
  5
356
330
355
100
AcDbEntity
  8
0
100
AcDbBlockBegin
  2
C0402_S_74
 70
     0
 10
0.0
 20
0.0
 30
0.0
  3
C0402_S_74
  1

  0
ENDBLK
  5
357
330
355
100
AcDbEntity
  8
0
100
AcDbBlockEnd
  0
BLOCK
  5
35A
330
359
100
AcDbEntity
  8
0
100
AcDbBlockBegin
  2
C0402_S_75
 70
     0
 10
0.0
 20
0.0
 30
0.0
  3
C0402_S_75
  1

  0
ENDBLK
  5
35B
330
359
100
AcDbEntity
  8
0
100
AcDbBlockEnd
  0
BLOCK
  5
35E
330
35D
100
AcDbEntity
  8
0
100
AcDbBlockBegin
  2
C0402_S_76
 70
     0
 10
0.0
 20
0.0
 30
0.0
  3
C0402_S_76
  1

  0
ENDBLK
  5
35F
330
35D
100
AcDbEntity
  8
0
100
AcDbBlockEnd
  0
BLOCK
  5
362
330
361
100
AcDbEntity
  8
0
100
AcDbBlockBegin
  2
C0402_S_77
 70
     0
 10
0.0
 20
0.0
 30
0.0
  3
C0402_S_77
  1

  0
ENDBLK
  5
363
330
361
100
AcDbEntity
  8
0
100
AcDbBlockEnd
  0
BLOCK
  5
366
330
365
100
AcDbEntity
  8
0
100
AcDbBlockBegin
  2
R0402_S_78
 70
     0
 10
0.0
 20
0.0
 30
0.0
  3
R0402_S_78
  1

  0
ENDBLK
  5
367
330
365
100
AcDbEntity
  8
0
100
AcDbBlockEnd
  0
BLOCK
  5
36A
330
369
100
AcDbEntity
  8
0
100
AcDbBlockBegin
  2
R0402_S_79
 70
     0
 10
0.0
 20
0.0
 30
0.0
  3
R0402_S_79
  1

  0
ENDBLK
  5
36B
330
369
100
AcDbEntity
  8
0
100
AcDbBlockEnd
  0
BLOCK
  5
36E
330
36D
100
AcDbEntity
  8
0
100
AcDbBlockBegin
  2
R0402_S_80
 70
     0
 10
0.0
 20
0.0
 30
0.0
  3
R0402_S_80
  1

  0
ENDBLK
  5
36F
330
36D
100
AcDbEntity
  8
0
100
AcDbBlockEnd
  0
BLOCK
  5
372
330
371
100
AcDbEntity
  8
0
100
AcDbBlockBegin
  2
R0402_S_81
 70
     0
 10
0.0
 20
0.0
 30
0.0
  3
R0402_S_81
  1

  0
ENDBLK
  5
373
330
371
100
AcDbEntity
  8
0
100
AcDbBlockEnd
  0
BLOCK
  5
376
330
375
100
AcDbEntity
  8
0
100
AcDbBlockBegin
  2
R0402_S_82
 70
     0
 10
0.0
 20
0.0
 30
0.0
  3
R0402_S_82
  1

  0
ENDBLK
  5
377
330
375
100
AcDbEntity
  8
0
100
AcDbBlockEnd
  0
BLOCK
  5
37A
330
379
100
AcDbEntity
  8
0
100
AcDbBlockBegin
  2
R0402_S_83
 70
     0
 10
0.0
 20
0.0
 30
0.0
  3
R0402_S_83
  1

  0
ENDBLK
  5
37B
330
379
100
AcDbEntity
  8
0
100
AcDbBlockEnd
  0
BLOCK
  5
37E
330
37D
100
AcDbEntity
  8
0
100
AcDbBlockBegin
  2
R0402_S_84
 70
     0
 10
0.0
 20
0.0
 30
0.0
  3
R0402_S_84
  1

  0
ENDBLK
  5
37F
330
37D
100
AcDbEntity
  8
0
100
AcDbBlockEnd
  0
BLOCK
  5
382
330
381
100
AcDbEntity
  8
0
100
AcDbBlockBegin
  2
IPEX_85
 70
     0
 10
0.0
 20
0.0
 30
0.0
  3
IPEX_85
  1

  0
ENDBLK
  5
383
330
381
100
AcDbEntity
  8
0
100
AcDbBlockEnd
  0
BLOCK
  5
386
330
385
100
AcDbEntity
  8
0
100
AcDbBlockBegin
  2
QFN32___8285_86
 70
     0
 10
0.0
 20
0.0
 30
0.0
  3
QFN32___8285_86
  1

  0
ENDBLK
  5
387
330
385
100
AcDbEntity
  8
0
100
AcDbBlockEnd
  0
BLOCK
  5
38A
330
389
100
AcDbEntity
  8
0
100
AcDbBlockBegin
  2
SIP1_____B_87
 70
     0
 10
0.0
 20
0.0
 30
0.0
  3
SIP1_____B_87
  1

  0
LWPOLYLINE
  5
38C
330
389
100
AcDbEntity
  8
BottomSolder
100
AcDbPolyline
 90
        2
 70
     1
 43
0.4253992
 10
-0.2126996
 20
0.0
 42
1.0
 10
0.2126996
 20
0.0
 42
1.0
  0
ENDBLK
  5
38B
330
389
100
AcDbEntity
  8
0
100
AcDbBlockEnd
  0
BLOCK
  5
38F
330
38E
100
AcDbEntity
  8
0
100
AcDbBlockBegin
  2
C0402_S_88
 70
     0
 10
0.0
 20
0.0
 30
0.0
  3
C0402_S_88
  1

  0
ENDBLK
  5
390
330
38E
100
AcDbEntity
  8
0
100
AcDbBlockEnd
  0
BLOCK
  5
393
330
392
100
AcDbEntity
  8
0
100
AcDbBlockBegin
  2
C0402_S_89
 70
     0
 10
0.0
 20
0.0
 30
0.0
  3
C0402_S_89
  1

  0
ENDBLK
  5
394
330
392
100
AcDbEntity
  8
0
100
AcDbBlockEnd
  0
BLOCK
  5
397
330
396
100
AcDbEntity
  8
0
100
AcDbBlockBegin
  2
SMD3225_90
 70
     0
 10
0.0
 20
0.0
 30
0.0
  3
SMD3225_90
  1

  0
ENDBLK
  5
398
330
396
100
AcDbEntity
  8
0
100
AcDbBlockEnd
  0
BLOCK
  5
39B
330
39A
100
AcDbEntity
  8
0
100
AcDbBlockBegin
  2
R0402_S_91
 70
     0
 10
0.0
 20
0.0
 30
0.0
  3
R0402_S_91
  1

  0
ENDBLK
  5
39C
330
39A
100
AcDbEntity
  8
0
100
AcDbBlockEnd
  0
BLOCK
  5
39F
330
39E
100
AcDbEntity
  8
0
100
AcDbBlockBegin
  2
WSON8_6_5__92
 70
     0
 10
0.0
 20
0.0
 30
0.0
  3
WSON8_6_5__92
  1

  0
ENDBLK
  5
3A0
330
39E
100
AcDbEntity
  8
0
100
AcDbBlockEnd
  0
ENDSEC
  0
SECTION
  2
ENTITIES
  0
LWPOLYLINE
  5
70
330
1F
100
AcDbEntity
  8
Mechanical2
100
AcDbPolyline
 90
        2
 70
     0
 43
0.0508
 10
0.0
 20
0.0
 10
0.0
 20
25.4
  0
LWPOLYLINE
  5
71
330
1F
100
AcDbEntity
  8
Mechanical2
100
AcDbPolyline
 90
        2
 70
     1
 43
0.0254
 10
-0.0127
 20
0.0
 42
1.0
 10
0.0127
 20
0.0
 42
1.0
  0
LWPOLYLINE
  5
72
330
1F
100
AcDbEntity
  8
Mechanical2
100
AcDbPolyline
 90
        2
 70
     1
 43
0.0254
 10
-0.0127
 20
25.4
 42
1.0
 10
0.0127
 20
25.4
 42
1.0
  0
LWPOLYLINE
  5
73
330
1F
100
AcDbEntity
  8
Mechanical2
100
AcDbPolyline
 90
        2
 70
     0
 43
0.0508
 10
-25.4
 20
25.4
 10
0.0
 20
25.4
  0
LWPOLYLINE
  5
74
330
1F
100
AcDbEntity
  8
Mechanical2
100
AcDbPolyline
 90
        2
 70
     1
 43
0.0254
 10
-25.4127
 20
25.4
 42
1.0
 10
-25.3873
 20
25.4
 42
1.0
  0
LWPOLYLINE
  5
75
330
1F
100
AcDbEntity
  8
Mechanical2
100
AcDbPolyline
 90
        2
 70
     1
 43
0.0254
 10
-0.0127
 20
25.4
 42
1.0
 10
0.0127
 20
25.4
 42
1.0
  0
LWPOLYLINE
  5
76
330
1F
100
AcDbEntity
  8
Mechanical2
100
AcDbPolyline
 90
        2
 70
     0
 43
0.0508
 10
-25.4
 20
0.0
 10
-25.4
 20
25.4
  0
LWPOLYLINE
  5
77
330
1F
100
AcDbEntity
  8
Mechanical2
100
AcDbPolyline
 90
        2
 70
     1
 43
0.0254
 10
-25.4127
 20
0.0
 42
1.0
 10
-25.3873
 20
0.0
 42
1.0
  0
LWPOLYLINE
  5
78
330
1F
100
AcDbEntity
  8
Mechanical2
100
AcDbPolyline
 90
        2
 70
     1
 43
0.0254
 10
-25.4127
 20
25.4
 42
1.0
 10
-25.3873
 20
25.4
 42
1.0
  0
LWPOLYLINE
  5
79
330
1F
100
AcDbEntity
  8
Mechanical2
100
AcDbPolyline
 90
        2
 70
     0
 43
0.0508
 10
-25.4
 20
0.0
 10
0.0
 20
0.0
  0
LWPOLYLINE
  5
7A
330
1F
100
AcDbEntity
  8
Mechanical2
100
AcDbPolyline
 90
        2
 70
     1
 43
0.0254
 10
-25.4127
 20
0.0
 42
1.0
 10
-25.3873
 20
0.0
 42
1.0
  0
LWPOLYLINE
  5
7B
330
1F
100
AcDbEntity
  8
Mechanical2
100
AcDbPolyline
 90
        2
 70
     1
 43
0.0254
 10
-0.0127
 20
0.0
 42
1.0
 10
0.0127
 20
0.0
 42
1.0
  0
SOLID
  5
7C
330
1F
100
AcDbEntity
  8
BottomSolder
100
AcDbTrace
 10
-20.19053366
 20
5.3582824
 30
0.0
 11
-17.69749826
 21
5.3582824
 31
0.0
 12
-20.19053366
 22
8.51003124
 32
0.0
 13
-17.69749826
 23
8.51003124
 33
0.0
  0
INSERT
  5
81
330
1F
100
AcDbEntity
  8
0
100
AcDbBlockReference
  2
SIP1_____B_1
 10
-0.3999992
 20
0.3999992
 30
0.0
  0
INSERT
  5
86
330
1F
100
AcDbEntity
  8
0
100
AcDbBlockReference
  2
SIP1_____B_2
 10
-0.3999992
 20
25.0000008
 30
0.0
  0
INSERT
  5
8B
330
1F
100
AcDbEntity
  8
0
100
AcDbBlockReference
  2
SIP1_____B_3
 10
-25.0000008
 20
25.0000008
 30
0.0
  0
INSERT
  5
8F
330
1F
100
AcDbEntity
  8
0
100
AcDbBlockReference
  2
R0402_S_4
 10
-9.14999948
 20
17.40000076
 30
0.0
 50
90.0
  0
INSERT
  5
93
330
1F
100
AcDbEntity
  8
0
100
AcDbBlockReference
  2
R0402_S_5
 10
-10.24999982
 20
17.40000076
 30
0.0
 50
270.0
  0
INSERT
  5
97
330
1F
100
AcDbEntity
  8
0
100
AcDbBlockReference
  2
WSON8_6
 10
-5.0292
 20
17.9735988
 30
0.0
 50
270.0
  0
INSERT
  5
9B
330
1F
100
AcDbEntity
  8
0
100
AcDbBlockReference
  2
C0603_M_7
 10
-9.067799999999998
 20
7.238999999999999
 30
0.0
  0
INSERT
  5
9F
330
1F
100
AcDbEntity
  8
0
100
AcDbBlockReference
  2
C0603_M_8
 10
-3.048
 20
12.4206
 30
0.0
 50
180.0
  0
INSERT
  5
A3
330
1F
100
AcDbEntity
  8
0
100
AcDbBlockReference
  2
C0402_S_9
 10
-5.232399999999999
 20
12.2936
 30
0.0
 50
180.0
  0
INSERT
  5
A7
330
1F
100
AcDbEntity
  8
0
100
AcDbBlockReference
  2
C0603_M_10
 10
-2.4892
 20
10.5664
 30
0.0
 50
270.0
  0
INSERT
  5
AB
330
1F
100
AcDbEntity
  8
0
100
AcDbBlockReference
  2
C0603_M_11
 10
-9.067799999999998
 20
8.4328
 30
0.0
 50
180.0
  0
INSERT
  5
AF
330
1F
100
AcDbEntity
  8
0
100
AcDbBlockReference
  2
C0603_M_12
 10
-9.067799999999998
 20
6.045199999999999
 30
0.0
  0
INSERT
  5
B3
330
1F
100
AcDbEntity
  8
0
100
AcDbBlockReference
  2
C0402_S_13
 10
-7.02499992
 20
2.675001
 30
0.0
 50
180.0
  0
INSERT
  5
B7
330
1F
100
AcDbEntity
  8
0
100
AcDbBlockReference
  2
C0402_S_14
 10
-3.6043997
 20
10.3886
 30
0.0
 50
90.0
  0
INSERT
  5
BB
330
1F
100
AcDbEntity
  8
0
100
AcDbBlockReference
  2
C0603_M_15
 10
-4.00280124
 20
2.32499916
 30
0.0
  0
INSERT
  5
BF
330
1F
100
AcDbEntity
  8
0
100
AcDbBlockReference
  2
C0402_S_16
 10
-4.8514
 20
4.597399999999999
 30
0.0
  0
INSERT
  5
C3
330
1F
100
AcDbEntity
  8
0
100
AcDbBlockReference
  2
C0402_S_17
 10
-22.3012
 20
22.8854
 30
0.0
  0
INSERT
  5
C7
330
1F
100
AcDbEntity
  8
0
100
AcDbBlockReference
  2
C0402_S_18
 10
-22.2758
 20
21.971
 30
0.0
  0
INSERT
  5
CB
330
1F
100
AcDbEntity
  8
0
100
AcDbBlockReference
  2
C0402_S_19
 10
-15.875
 20
11.3538
 30
0.0
  0
INSERT
  5
CF
330
1F
100
AcDbEntity
  8
0
100
AcDbBlockReference
  2
C0402_S_20
 10
-15.875
 20
12.2682
 30
0.0
  0
INSERT
  5
D3
330
1F
100
AcDbEntity
  8
0
100
AcDbBlockReference
  2
C0603_M_21
 10
-22.0726
 20
11.3538
 30
0.0
  0
INSERT
  5
D7
330
1F
100
AcDbEntity
  8
0
100
AcDbBlockReference
  2
C0603_M_22
 10
-9.270999999999999
 20
14.8336
 30
0.0
 50
90.0
  0
INSERT
  5
DB
330
1F
100
AcDbEntity
  8
0
100
AcDbBlockReference
  2
C0402_S_23
 10
-22.1996
 20
12.5222
 30
0.0
  0
INSERT
  5
DF
330
1F
100
AcDbEntity
  8
0
100
AcDbBlockReference
  2
C0402_S_24
 10
-10.8712
 20
12.5984
 30
0.0
 50
180.0
  0
INSERT
  5
E3
330
1F
100
AcDbEntity
  8
0
100
AcDbBlockReference
  2
C0402_S_25
 10
-11.37139966
 20
6.824599
 30
0.0
 50
180.0
  0
INSERT
  5
E7
330
1F
100
AcDbEntity
  8
0
100
AcDbBlockReference
  2
C0402_S_26
 10
-11.37139966
 20
8.62460048
 30
0.0
  0
INSERT
  5
EB
330
1F
100
AcDbEntity
  8
0
100
AcDbBlockReference
  2
C0402_S_27
 10
-10.414
 20
15.0622
 30
0.0
 50
270.0
  0
INSERT
  5
EF
330
1F
100
AcDbEntity
  8
0
100
AcDbBlockReference
  2
R0402_S_28
 10
-11.4554
 20
15.0622
 30
0.0
 50
270.0
  0
INSERT
  5
F3
330
1F
100
AcDbEntity
  8
0
100
AcDbBlockReference
  2
R0402_S_29
 10
-17.4244
 20
11.2268
 30
0.0
 50
90.0
  0
INSERT
  5
F7
330
1F
100
AcDbEntity
  8
0
100
AcDbBlockReference
  2
R0402_S_30
 10
-15.875
 20
10.44999942
 30
0.0
  0
INSERT
  5
FB
330
1F
100
AcDbEntity
  8
0
100
AcDbBlockReference
  2
NR3015_31
 10
-7.9502
 20
10.3124
 30
0.0
 50
90.0
  0
INSERT
  5
FF
330
1F
100
AcDbEntity
  8
0
100
AcDbBlockReference
  2
0806L_32
 10
-9.0750009
 20
2.62499856
 30
0.0
 50
90.0
  0
INSERT
  5
103
330
1F
100
AcDbEntity
  8
0
100
AcDbBlockReference
  2
0806L_33
 10
-2.7178
 20
4.648199999999999
 30
0.0
 50
90.0
  0
INSERT
  5
107
330
1F
100
AcDbEntity
  8
0
100
AcDbBlockReference
  2
R0402_S_34
 10
-5.232399999999999
 20
11.303
 30
0.0
  0
INSERT
  5
10B
330
1F
100
AcDbEntity
  8
0
100
AcDbBlockReference
  2
R0402_S_35
 10
-5.232399999999999
 20
10.3124
 30
0.0
 50
180.0
  0
INSERT
  5
10F
330
1F
100
AcDbEntity
  8
0
100
AcDbBlockReference
  2
R0402_S_36
 10
-7.02499992
 20
3.6249991
 30
0.0
  0
INSERT
  5
113
330
1F
100
AcDbEntity
  8
0
100
AcDbBlockReference
  2
R0402_S_37
 10
-6.82500032
 20
4.57499974
 30
0.0
  0
INSERT
  5
117
330
1F
100
AcDbEntity
  8
0
100
AcDbBlockReference
  2
R0402_S_38
 10
-2.59999988
 20
3.40000082
 30
0.0
 50
180.0
  0
INSERT
  5
11B
330
1F
100
AcDbEntity
  8
0
100
AcDbBlockReference
  2
R0402_S_39
 10
-4.700000759999999
 20
3.40000082
 30
0.0
  0
INSERT
  5
11F
330
1F
100
AcDbEntity
  8
0
100
AcDbBlockReference
  2
R0402_S_40
 10
-11.3792
 20
5.8928
 30
0.0
 50
180.0
  0
INSERT
  5
123
330
1F
100
AcDbEntity
  8
0
100
AcDbBlockReference
  2
QFN20_3X3_41
 10
-5.725002519999999
 20
7.52500146
 30
0.0
 50
90.0
  0
INSERT
  5
127
330
1F
100
AcDbEntity
  8
0
100
AcDbBlockReference
  2
SOT_23_42
 10
-10.7696
 20
2.3368
 30
0.0
 50
180.0
  0
INSERT
  5
12B
330
1F
100
AcDbEntity
  8
0
100
AcDbBlockReference
  2
SMD3225_43
 10
-10.19999992
 20
9.39999898
 30
0.0
 50
180.0
  0
INSERT
  5
165
330
1F
100
AcDbEntity
  8
0
100
AcDbBlockReference
  2
SIP18_1_27_____B_44
 10
-1.905
 20
25.019
 30
0.0
 50
180.0
  0
INSERT
  5
19F
330
1F
100
AcDbEntity
  8
0
100
AcDbBlockReference
  2
SIP18_1_27______45
 10
0.0
 20
23.495
 30
0.0
 50
270.0
  0
INSERT
  5
1D9
330
1F
100
AcDbEntity
  8
0
100
AcDbBlockReference
  2
SIP18_1_27______46
 10
-1.905
 20
25.4
 30
0.0
 50
180.0
  0
INSERT
  5
213
330
1F
100
AcDbEntity
  8
0
100
AcDbBlockReference
  2
SIP18_1_27______47
 10
-25.4
 20
23.495
 30
0.0
 50
270.0
  0
INSERT
  5
218
330
1F
100
AcDbEntity
  8
0
100
AcDbBlockReference
  2
SIP1_____B_48
 10
-6.274998879999999
 20
12.12499988
 30
0.0
  0
INSERT
  5
252
330
1F
100
AcDbEntity
  8
0
100
AcDbBlockReference
  2
SIP18_1_27_____B_49
 10
-0.3809999999999999
 20
23.495
 30
0.0
 50
270.0
  0
INSERT
  5
28C
330
1F
100
AcDbEntity
  8
0
100
AcDbBlockReference
  2
SIP18_1_27______50
 10
-1.905
 20
0.0
 30
0.0
 50
180.0
  0
INSERT
  5
2C6
330
1F
100
AcDbEntity
  8
0
100
AcDbBlockReference
  2
SIP18_1_27_____B_51
 10
-25.019
 20
23.495
 30
0.0
 50
270.0
  0
INSERT
  5
300
330
1F
100
AcDbEntity
  8
0
100
AcDbBlockReference
  2
SIP18_1_27_____B_52
 10
-1.905
 20
0.3809999999999999
 30
0.0
 50
180.0
  0
INSERT
  5
304
330
1F
100
AcDbEntity
  8
0
100
AcDbBlockReference
  2
C0603_M_53
 10
-22.5044
 20
20.9042
 30
0.0
  0
INSERT
  5
308
330
1F
100
AcDbEntity
  8
0
100
AcDbBlockReference
  2
C0603_M_54
 10
-10.6426
 20
19.3802
 30
0.0
 50
180.0
  0
INSERT
  5
30C
330
1F
100
AcDbEntity
  8
0
100
AcDbBlockReference
  2
C0402_S_55
 10
-10.668
 20
20.6756
 30
0.0
 50
180.0
  0
INSERT
  5
310
330
1F
100
AcDbEntity
  8
0
100
AcDbBlockReference
  2
C0402_S_56
 10
-22.4028
 20
15.1384
 30
0.0
  0
INSERT
  5
314
330
1F
100
AcDbEntity
  8
0
100
AcDbBlockReference
  2
C0402_S_57
 10
-22.4028
 20
16.0528
 30
0.0
  0
INSERT
  5
318
330
1F
100
AcDbEntity
  8
0
100
AcDbBlockReference
  2
C0402_S_58
 10
-14.72499976
 20
22.30000112
 30
0.0
 50
180.0
  0
INSERT
  5
31C
330
1F
100
AcDbEntity
  8
0
100
AcDbBlockReference
  2
C0603_M_59
 10
-17.399
 20
23.0886
 30
0.0
 50
180.0
  0
INSERT
  5
320
330
1F
100
AcDbEntity
  8
0
100
AcDbBlockReference
  2
C0603_M_60
 10
-22.479
 20
18.4777126
 30
0.0
  0
INSERT
  5
324
330
1F
100
AcDbEntity
  8
0
100
AcDbBlockReference
  2
C0402_S_61
 10
-19.65120022
 20
22.30000112
 30
0.0
  0
INSERT
  5
328
330
1F
100
AcDbEntity
  8
0
100
AcDbBlockReference
  2
C0402_S_62
 10
-10.66800508
 20
21.61547366
 30
0.0
 50
180.0
  0
INSERT
  5
32C
330
1F
100
AcDbEntity
  8
0
100
AcDbBlockReference
  2
C0402_S_63
 10
-22.6822
 20
17.3228
 30
0.0
  0
INSERT
  5
330
330
1F
100
AcDbEntity
  8
0
100
AcDbBlockReference
  2
C0402_S_64
 10
-22.4282
 20
14.1732
 30
0.0
  0
INSERT
  5
334
330
1F
100
AcDbEntity
  8
0
100
AcDbBlockReference
  2
C0402_S_65
 10
-10.6934
 20
22.5552
 30
0.0
 50
180.0
  0
INSERT
  5
338
330
1F
100
AcDbEntity
  8
0
100
AcDbBlockReference
  2
C0402_S_66
 10
-11.2776
 20
17.3736
 30
0.0
 50
270.0
  0
INSERT
  5
33C
330
1F
100
AcDbEntity
  8
0
100
AcDbBlockReference
  2
C0402_S_67
 10
-19.65120022
 20
23.22500054
 30
0.0
  0
INSERT
  5
340
330
1F
100
AcDbEntity
  8
0
100
AcDbBlockReference
  2
BGA144_68
 10
-16.85009838
 20
17.00267364
 30
0.0
 50
180.0
  0
INSERT
  5
344
330
1F
100
AcDbEntity
  8
0
100
AcDbBlockReference
  2
C0402_S_69
 10
-10.8712
 20
13.5128
 30
0.0
 50
180.0
  0
INSERT
  5
348
330
1F
100
AcDbEntity
  8
0
100
AcDbBlockReference
  2
C0402_S_70
 10
-14.72499976
 20
23.22500054
 30
0.0
 50
180.0
  0
INSERT
  5
34C
330
1F
100
AcDbEntity
  8
0
100
AcDbBlockReference
  2
C0603_M_71
 10
-16.5608
 20
2.8702
 30
0.0
 50
270.0
  0
INSERT
  5
350
330
1F
100
AcDbEntity
  8
0
100
AcDbBlockReference
  2
C0402_S_72
 10
-14.9606
 20
2.1336
 30
0.0
  0
INSERT
  5
354
330
1F
100
AcDbEntity
  8
0
100
AcDbBlockReference
  2
C0402_S_73
 10
-14.97499926
 20
3.90000236
 30
0.0
 50
180.0
  0
INSERT
  5
358
330
1F
100
AcDbEntity
  8
0
100
AcDbBlockReference
  2
C0402_S_74
 10
-19.177
 20
3.5306
 30
0.0
 50
180.0
  0
INSERT
  5
35C
330
1F
100
AcDbEntity
  8
0
100
AcDbBlockReference
  2
C0402_S_75
 10
-19.16579606
 20
2.6249249
 30
0.0
  0
INSERT
  5
360
330
1F
100
AcDbEntity
  8
0
100
AcDbBlockReference
  2
C0402_S_76
 10
-11.37139966
 20
7.724599739999999
 30
0.0
  0
INSERT
  5
364
330
1F
100
AcDbEntity
  8
0
100
AcDbBlockReference
  2
C0402_S_77
 10
-20.62507432
 20
2.44079522
 30
0.0
 50
270.0
  0
INSERT
  5
368
330
1F
100
AcDbEntity
  8
0
100
AcDbBlockReference
  2
R0402_S_78
 10
-17.653
 20
2.6924
 30
0.0
 50
270.0
  0
INSERT
  5
36C
330
1F
100
AcDbEntity
  8
0
100
AcDbBlockReference
  2
R0402_S_79
 10
-19.9898
 20
10.6934
 30
0.0
 50
180.0
  0
INSERT
  5
370
330
1F
100
AcDbEntity
  8
0
100
AcDbBlockReference
  2
R0402_S_80
 10
-23.2091992
 20
8.82499886
 30
0.0
  0
INSERT
  5
374
330
1F
100
AcDbEntity
  8
0
100
AcDbBlockReference
  2
R0402_S_81
 10
-23.21839908
 20
7.89999944
 30
0.0
  0
INSERT
  5
378
330
1F
100
AcDbEntity
  8
0
100
AcDbBlockReference
  2
R0402_S_82
 10
-23.23420042
 20
6.97500002
 30
0.0
  0
INSERT
  5
37C
330
1F
100
AcDbEntity
  8
0
100
AcDbBlockReference
  2
R0402_S_83
 10
-14.986
 20
3.048
 30
0.0
 50
180.0
  0
INSERT
  5
380
330
1F
100
AcDbEntity
  8
0
100
AcDbBlockReference
  2
R0402_S_84
 10
-14.94999804
 20
4.800000559999999
 30
0.0
  0
INSERT
  5
384
330
1F
100
AcDbEntity
  8
0
100
AcDbBlockReference
  2
IPEX_85
 10
-21.5908001
 20
2.921
 30
0.0
 50
270.0
  0
INSERT
  5
388
330
1F
100
AcDbEntity
  8
0
100
AcDbBlockReference
  2
QFN32___8285_86
 10
-18.95002306
 20
7.09997564
 30
0.0
 50
90.0
  0
INSERT
  5
38D
330
1F
100
AcDbEntity
  8
0
100
AcDbBlockReference
  2
SIP1_____B_87
 10
-15.79999888
 20
4.354398199999999
 30
0.0
  0
INSERT
  5
391
330
1F
100
AcDbEntity
  8
0
100
AcDbBlockReference
  2
C0402_S_88
 10
-14.72499976
 20
9.550001219999999
 30
0.0
  0
INSERT
  5
395
330
1F
100
AcDbEntity
  8
0
100
AcDbBlockReference
  2
C0402_S_89
 10
-13.47499972
 20
4.275000339999999
 30
0.0
 50
90.0
  0
INSERT
  5
399
330
1F
100
AcDbEntity
  8
0
100
AcDbBlockReference
  2
SMD3225_90
 10
-15.10860072
 20
5.743999179999999
 30
0.0
 50
90.0
  0
INSERT
  5
39D
330
1F
100
AcDbEntity
  8
0
100
AcDbBlockReference
  2
R0402_S_91
 10
-13.65000064
 20
12.27499958
 30
0.0
 50
180.0
  0
INSERT
  5
3A1
330
1F
100
AcDbEntity
  8
0
100
AcDbBlockReference
  2
WSON8_6_5__92
 10
-5.0292
 20
17.8308
 30
0.0
 50
270.0
  0
ENDSEC
  0
SECTION
  2
OBJECTS
  0
DICTIONARY
  5
C
330
0
100
AcDbDictionary
281
     1
  3
ACAD_DETAILVIEWSTYLE
350
3A9
  3
ACAD_GROUP
350
D
  3
ACAD_LAYOUT
350
1A
  3
ACAD_MATERIAL
350
43
  3
ACAD_MLEADERSTYLE
350
6B
  3
ACAD_MLINESTYLE
350
17
  3
ACAD_PLOTSETTINGS
350
19
  3
ACAD_PLOTSTYLENAME
350
E
  3
ACAD_SCALELIST
350
47
  3
ACAD_SECTIONVIEWSTYLE
350
3AA
  3
ACAD_TABLESTYLE
350
69
  3
ACAD_VISUALSTYLE
350
2A
  3
ACDB_RECOMPOSE_DATA
350
3A6
  3
AcDbVariableDictionary
350
3A2
  0
SUN
  5
6D
330
29
100
AcDbSun
 90
        1
290
     0
 63
     7
421
 16777215
 40
1.0
291
     1
 91
  2455826
 92
 54000000
292
     0
 70
     2
 71
   256
280
     1
  0
DICTIONARY
  5
3A9
102
{ACAD_REACTORS
330
C
102
}
330
C
100
AcDbDictionary
281
     1
  0
DICTIONARY
  5
D
102
{ACAD_REACTORS
330
C
102
}
330
C
100
AcDbDictionary
281
     1
  0
DICTIONARY
  5
1A
102
{ACAD_REACTORS
330
C
102
}
330
C
100
AcDbDictionary
281
     1
  3
Layout1
350
1E
  3
Layout2
350
26
  3
Model
350
22
  0
DICTIONARY
  5
43
102
{ACAD_REACTORS
330
C
102
}
330
C
100
AcDbDictionary
281
     1
  3
ByBlock
350
45
  3
ByLayer
350
44
  3
Global
350
46
  0
DICTIONARY
  5
6B
102
{ACAD_REACTORS
330
C
102
}
330
C
100
AcDbDictionary
281
     1
  3
Standard
350
6C
  0
DICTIONARY
  5
17
102
{ACAD_REACTORS
330
C
102
}
330
C
100
AcDbDictionary
281
     1
  3
Standard
350
18
  0
DICTIONARY
  5
19
102
{ACAD_REACTORS
330
C
102
}
330
C
100
AcDbDictionary
281
     1
  0
ACDBDICTIONARYWDFLT
  5
E
102
{ACAD_REACTORS
330
C
102
}
330
C
100
AcDbDictionary
281
     1
  3
Normal
350
F
100
AcDbDictionaryWithDefault
340
F
  0
DICTIONARY
  5
47
102
{ACAD_REACTORS
330
C
102
}
330
C
100
AcDbDictionary
281
     1
  3
A0
350
48
  3
A1
350
49
  3
A2
350
4A
  3
A3
350
4B
  3
A4
350
4C
  3
A5
350
4D
  3
A6
350
4E
  3
A7
350
4F
  3
A8
350
50
  3
A9
350
51
  3
B0
350
52
  3
B1
350
53
  3
B2
350
54
  3
B3
350
55
  3
B4
350
56
  3
B5
350
57
  3
B6
350
58
  3
B7
350
59
  3
B8
350
5A
  3
B9
350
5B
  3
C0
350
5C
  3
C1
350
5D
  3
C2
350
5E
  3
C3
350
5F
  3
C4
350
60
  3
C5
350
61
  3
C6
350
62
  3
C7
350
63
  3
C8
350
64
  3
C9
350
65
  3
D0
350
66
  3
D1
350
67
  3
D2
350
68
  0
DICTIONARY
  5
3AA
102
{ACAD_REACTORS
330
C
102
}
330
C
100
AcDbDictionary
281
     1
  0
DICTIONARY
  5
69
102
{ACAD_REACTORS
330
C
102
}
330
C
100
AcDbDictionary
281
     1
  3
Standard
350
6A
  0
DICTIONARY
  5
2A
102
{ACAD_REACTORS
330
C
102
}
330
C
100
AcDbDictionary
281
     1
  3
2dWireframe
350
2F
  3
Basic
350
32
  3
Brighten
350
36
  3
ColorChange
350
3A
  3
Conceptual
350
34
  3
Dim
350
35
  3
EdgeColorOff
350
3D
  3
Facepattern
350
39
  3
Flat
350
2B
  3
FlatWithEdges
350
2C
  3
Gouraud
350
2D
  3
GouraudWithEdges
350
2E
  3
Hidden
350
31
  3
JitterOff
350
3B
  3
Linepattern
350
38
  3
OverhangOff
350
3C
  3
Realistic
350
33
  3
Shaded
350
42
  3
Shaded with edges
350
41
  3
Shades of Gray
350
3E
  3
Sketchy
350
3F
  3
Thicken
350
37
  3
Wireframe
350
30
  3
X-Ray
350
40
  0
XRECORD
  5
3A6
102
{ACAD_REACTORS
330
C
102
}
330
C
100
AcDbXrecord
280
     1
 90
        1
330
6A
  0
DICTIONARY
  5
3A2
102
{ACAD_REACTORS
330
C
102
}
330
C
100
AcDbDictionary
281
     1
  3
CANNOSCALE
350
3A3
  3
CMLEADERSTYLE
350
3A8
  3
CTABLESTYLE
350
3A7
  0
LAYOUT
  5
1E
102
{ACAD_REACTORS
330
1A
102
}
330
1A
100
AcDbPlotSettings
  1

  2
none_device
  4

  6

 40
0.0
 41
0.0
 42
0.0
 43
0.0
 44
0.0
 45
0.0
 46
0.0
 47
0.0
 48
0.0
 49
0.0
140
0.0
141
0.0
142
1.0
143
1.0
 70
   688
 72
     1
 73
     0
 74
     5
  7

 75
    16
 76
     0
 77
     2
 78
   300
147
1.0
148
0.0
149
0.0
100
AcDbLayout
  1
Layout1
 70
     1
 71
     1
 10
0.0
 20
0.0
 11
420.0
 21
297.0
 12
0.0
 22
0.0
 32
0.0
 14
1.000000000000000E+20
 24
1.000000000000000E+20
 34
1.000000000000000E+20
 15
-1.000000000000000E+20
 25
-1.000000000000000E+20
 35
-1.000000000000000E+20
146
0.0
 13
0.0
 23
0.0
 33
0.0
 16
1.0
 26
0.0
 36
0.0
 17
0.0
 27
1.0
 37
0.0
 76
     0
330
1B
  0
LAYOUT
  5
26
102
{ACAD_REACTORS
330
1A
102
}
330
1A
100
AcDbPlotSettings
  1

  2
none_device
  4

  6

 40
0.0
 41
0.0
 42
0.0
 43
0.0
 44
0.0
 45
0.0
 46
0.0
 47
0.0
 48
0.0
 49
0.0
140
0.0
141
0.0
142
1.0
143
1.0
 70
   688
 72
     1
 73
     0
 74
     5
  7

 75
    16
 76
     0
 77
     2
 78
   300
147
1.0
148
0.0
149
0.0
100
AcDbLayout
  1
Layout2
 70
     1
 71
     2
 10
0.0
 20
0.0
 11
0.0
 21
0.0
 12
0.0
 22
0.0
 32
0.0
 14
0.0
 24
0.0
 34
0.0
 15
0.0
 25
0.0
 35
0.0
146
0.0
 13
0.0
 23
0.0
 33
0.0
 16
1.0
 26
0.0
 36
0.0
 17
0.0
 27
1.0
 37
0.0
 76
     0
330
23
  0
LAYOUT
  5
22
102
{ACAD_REACTORS
330
1A
102
}
330
1A
100
AcDbPlotSettings
  1

  2
none_device
  4
Letter_(8.50_x_11.00_Inches)
  6

 40
6.35
 41
6.35
 42
6.35000508
 43
6.35000508
 44
215.9
 45
279.4
 46
0.0
 47
0.0
 48
0.0
 49
0.0
140
0.0
141
0.0
142
1.0
143
1.0
 70
  1712
 72
     1
 73
     0
 74
     0
  7

 75
     0
 76
     0
 77
     2
 78
   300
147
1.0
148
0.0
149
0.0
100
AcDbLayout
  1
Model
 70
     1
 71
     0
 10
-59.7438988
 20
-18.06479242
 11
33.5527142
 21
50.73493536
 12
0.0
 22
0.0
 32
0.0
 14
1.000000000000000E+20
 24
1.000000000000000E+20
 34
1.000000000000000E+20
 15
-1.000000000000000E+20
 25
-1.000000000000000E+20
 35
-1.000000000000000E+20
146
0.0
 13
0.0
 23
0.0
 33
0.0
 16
1.0
 26
0.0
 36
0.0
 17
0.0
 27
1.0
 37
0.0
 76
     0
330
1F
331
29
  0
MATERIAL
  5
45
102
{ACAD_REACTORS
330
43
102
}
330
43
100
AcDbMaterial
  1
ByBlock
 72
     1
 94
      127
  0
MATERIAL
  5
44
102
{ACAD_REACTORS
330
43
102
}
330
43
100
AcDbMaterial
  1
ByLayer
 72
     1
 94
      127
  0
MATERIAL
  5
46
102
{ACAD_REACTORS
330
43
102
}
330
43
100
AcDbMaterial
  1
Global
 72
     1
 94
      127
  0
MLEADERSTYLE
  5
6C
102
{ACAD_REACTORS
330
6B
102
}
330
6B
100
AcDbMLeaderStyle
179
     2
170
     2
171
     1
172
     0
 90
        2
 40
0.0
 41
0.0
173
     1
 91
-1056964608
340
14
 92
       -2
290
     1
 42
2.0
291
     1
 43
8.0
  3
Standard
341
0
 44
4.0
300

342
11
174
     1
178
     6
175
     1
176
     0
 93
-1056964608
 45
4.0
292
     0
297
     0
 46
4.0
343
0
 94
-1056964608
 47
1.0
 49
1.0
140
1.0
293
     1
141
0.0
294
     1
177
     0
142
1.0
295
     0
296
     0
143
3.75
271
     0
272
     9
273
     9
298
     0
  0
MLINESTYLE
  5
18
102
{ACAD_REACTORS
330
17
102
}
330
17
100
AcDbMlineStyle
  2
Standard
 70
     0
  3

 62
   256
 51
90.0
 52
90.0
 71
     2
 49
0.5
 62
   256
  6
BYLAYER
 49
-0.5
 62
   256
  6
BYLAYER
  0
ACDBPLACEHOLDER
  5
F
102
{ACAD_REACTORS
330
E
102
}
330
E
  0
SCALE
  5
48
102
{ACAD_REACTORS
330
47
102
}
330
47
100
AcDbScale
 70
     0
300
1:1
140
1.0
141
1.0
290
     1
  0
SCALE
  5
49
102
{ACAD_REACTORS
330
47
102
}
330
47
100
AcDbScale
 70
     0
300
1:2
140
1.0
141
2.0
290
     0
  0
SCALE
  5
4A
102
{ACAD_REACTORS
330
47
102
}
330
47
100
AcDbScale
 70
     0
300
1:4
140
1.0
141
4.0
290
     0
  0
SCALE
  5
4B
102
{ACAD_REACTORS
330
47
102
}
330
47
100
AcDbScale
 70
     0
300
1:5
140
1.0
141
5.0
290
     0
  0
SCALE
  5
4C
102
{ACAD_REACTORS
330
47
102
}
330
47
100
AcDbScale
 70
     0
300
1:8
140
1.0
141
8.0
290
     0
  0
SCALE
  5
4D
102
{ACAD_REACTORS
330
47
102
}
330
47
100
AcDbScale
 70
     0
300
1:10
140
1.0
141
10.0
290
     0
  0
SCALE
  5
4E
102
{ACAD_REACTORS
330
47
102
}
330
47
100
AcDbScale
 70
     0
300
1:16
140
1.0
141
16.0
290
     0
  0
SCALE
  5
4F
102
{ACAD_REACTORS
330
47
102
}
330
47
100
AcDbScale
 70
     0
300
1:20
140
1.0
141
20.0
290
     0
  0
SCALE
  5
50
102
{ACAD_REACTORS
330
47
102
}
330
47
100
AcDbScale
 70
     0
300
1:30
140
1.0
141
30.0
290
     0
  0
SCALE
  5
51
102
{ACAD_REACTORS
330
47
102
}
330
47
100
AcDbScale
 70
     0
300
1:40
140
1.0
141
40.0
290
     0
  0
SCALE
  5
52
102
{ACAD_REACTORS
330
47
102
}
330
47
100
AcDbScale
 70
     0
300
1:50
140
1.0
141
50.0
290
     0
  0
SCALE
  5
53
102
{ACAD_REACTORS
330
47
102
}
330
47
100
AcDbScale
 70
     0
300
1:100
140
1.0
141
100.0
290
     0
  0
SCALE
  5
54
102
{ACAD_REACTORS
330
47
102
}
330
47
100
AcDbScale
 70
     0
300
2:1
140
2.0
141
1.0
290
     0
  0
SCALE
  5
55
102
{ACAD_REACTORS
330
47
102
}
330
47
100
AcDbScale
 70
     0
300
4:1
140
4.0
141
1.0
290
     0
  0
SCALE
  5
56
102
{ACAD_REACTORS
330
47
102
}
330
47
100
AcDbScale
 70
     0
300
8:1
140
8.0
141
1.0
290
     0
  0
SCALE
  5
57
102
{ACAD_REACTORS
330
47
102
}
330
47
100
AcDbScale
 70
     0
300
10:1
140
10.0
141
1.0
290
     0
  0
SCALE
  5
58
102
{ACAD_REACTORS
330
47
102
}
330
47
100
AcDbScale
 70
     0
300
100:1
140
100.0
141
1.0
290
     0
  0
SCALE
  5
59
102
{ACAD_REACTORS
330
47
102
}
330
47
100
AcDbScale
 70
     0
300
1/128" = 1'-0"
140
0.0078125
141
12.0
290
     0
  0
SCALE
  5
5A
102
{ACAD_REACTORS
330
47
102
}
330
47
100
AcDbScale
 70
     0
300
1/64" = 1'-0"
140
0.015625
141
12.0
290
     0
  0
SCALE
  5
5B
102
{ACAD_REACTORS
330
47
102
}
330
47
100
AcDbScale
 70
     0
300
1/32" = 1'-0"
140
0.03125
141
12.0
290
     0
  0
SCALE
  5
5C
102
{ACAD_REACTORS
330
47
102
}
330
47
100
AcDbScale
 70
     0
300
1/16" = 1'-0"
140
0.0625
141
12.0
290
     0
  0
SCALE
  5
5D
102
{ACAD_REACTORS
330
47
102
}
330
47
100
AcDbScale
 70
     0
300
3/32" = 1'-0"
140
0.09375
141
12.0
290
     0
  0
SCALE
  5
5E
102
{ACAD_REACTORS
330
47
102
}
330
47
100
AcDbScale
 70
     0
300
1/8" = 1'-0"
140
0.125
141
12.0
290
     0
  0
SCALE
  5
5F
102
{ACAD_REACTORS
330
47
102
}
330
47
100
AcDbScale
 70
     0
300
3/16" = 1'-0"
140
0.1875
141
12.0
290
     0
  0
SCALE
  5
60
102
{ACAD_REACTORS
330
47
102
}
330
47
100
AcDbScale
 70
     0
300
1/4" = 1'-0"
140
0.25
141
12.0
290
     0
  0
SCALE
  5
61
102
{ACAD_REACTORS
330
47
102
}
330
47
100
AcDbScale
 70
     0
300
3/8" = 1'-0"
140
0.375
141
12.0
290
     0
  0
SCALE
  5
62
102
{ACAD_REACTORS
330
47
102
}
330
47
100
AcDbScale
 70
     0
300
1/2" = 1'-0"
140
0.5
141
12.0
290
     0
  0
SCALE
  5
63
102
{ACAD_REACTORS
330
47
102
}
330
47
100
AcDbScale
 70
     0
300
3/4" = 1'-0"
140
0.75
141
12.0
290
     0
  0
SCALE
  5
64
102
{ACAD_REACTORS
330
47
102
}
330
47
100
AcDbScale
 70
     0
300
1" = 1'-0"
140
1.0
141
12.0
290
     0
  0
SCALE
  5
65
102
{ACAD_REACTORS
330
47
102
}
330
47
100
AcDbScale
 70
     0
300
1-1/2" = 1'-0"
140
1.5
141
12.0
290
     0
  0
SCALE
  5
66
102
{ACAD_REACTORS
330
47
102
}
330
47
100
AcDbScale
 70
     0
300
3" = 1'-0"
140
3.0
141
12.0
290
     0
  0
SCALE
  5
67
102
{ACAD_REACTORS
330
47
102
}
330
47
100
AcDbScale
 70
     0
300
6" = 1'-0"
140
6.0
141
12.0
290
     0
  0
SCALE
  5
68
102
{ACAD_REACTORS
330
47
102
}
330
47
100
AcDbScale
 70
     0
300
1'-0" = 1'-0"
140
12.0
141
12.0
290
     0
  0
TABLESTYLE
  5
6A
102
{ACAD_REACTORS
330
69
102
}
102
{ACAD_XDICTIONARY
360
3A4
102
}
330
69
100
AcDbTableStyle
  3
Standard
 70
     0
 71
     0
 40
0.06
 41
0.06
280
     0
281
     0
  7
Standard
140
4.5
170
     2
 62
     0
 63
   257
283
     0
 90
        4
 91
        0
  1

274
    -2
284
     1
 64
     0
275
    -2
285
     1
 65
     0
276
    -2
286
     1
 66
     0
277
    -2
287
     1
 67
     0
278
    -2
288
     1
 68
     0
279
    -2
289
     1
 69
     0
  7
Standard
140
6.0
170
     5
 62
     0
 63
   257
283
     0
 90
        4
 91
        0
  1

274
    -2
284
     1
 64
     0
275
    -2
285
     1
 65
     0
276
    -2
286
     1
 66
     0
277
    -2
287
     1
 67
     0
278
    -2
288
     1
 68
     0
279
    -2
289
     1
 69
     0
  7
Standard
140
4.5
170
     5
 62
     0
 63
   257
283
     0
 90
        4
 91
        0
  1

274
    -2
284
     1
 64
     0
275
    -2
285
     1
 65
     0
276
    -2
286
     1
 66
     0
277
    -2
287
     1
 67
     0
278
    -2
288
     1
 68
     0
279
    -2
289
     1
 69
     0
  0
VISUALSTYLE
  5
2F
102
{ACAD_REACTORS
330
2A
102
}
330
2A
100
AcDbVisualStyle
  2
2dWireframe
 70
     4
177
     3
291
     0
 70
    58
 90
        0
176
     1
 90
        2
176
     1
 90
        0
176
     1
 90
        0
176
     1
 40
0.6
176
     1
 40
30.0
176
     1
 62
     7
420
 16777215
176
     1
 90
        1
176
     1
 90
        4
176
     1
 62
     7
176
     1
 62
   257
176
     1
 90
        1
176
     1
 90
        1
176
     1
 40
1.0
176
     1
 90
        0
176
     1
 62
   257
176
     1
 40
1.0
176
     1
 90
        1
176
     1
 90
        6
176
     1
 90
        2
176
     1
 62
     7
176
     1
 90
        5
176
     1
 90
        0
176
     1
 90
        0
176
     1
290
     0
176
     1
 90
        1
176
     1
 40
0.0
176
     1
 90
        0
176
     1
290
     1
176
     1
290
     1
176
     1
290
     0
176
     1
290
     0
176
     1
290
     0
176
     1
290
     0
176
     1
290
     0
176
     1
290
     0
176
     1
290
     0
176
     1
 90
       50
176
     1
 40
0.0
176
     1
 40
1.0
176
     1
 90
        0
176
     1
 62
    18
420
        0
176
     1
 90
       50
176
     1
 90
        3
176
     1
 62
     5
420
      255
176
     1
290
     0
176
     1
 90
       50
176
     1
 90
       50
176
     1
 90
       50
176
     1
290
     0
176
     1
 90
       50
176
     1
 62
   256
176
     0
 40
1.0
176
     0
 90
        2
176
     1
  1
strokes_ogs.tif
176
     1
290
     0
176
     1
 40
1.0
176
     1
 40
1.0
176
     1
  0
VISUALSTYLE
  5
32
102
{ACAD_REACTORS
330
2A
102
}
330
2A
100
AcDbVisualStyle
  2
Basic
 70
     7
177
     3
291
     1
 70
    58
 90
        1
176
     1
 90
        0
176
     1
 90
        1
176
     1
 90
        0
176
     1
 40
0.6
176
     1
 40
30.0
176
     1
 62
     7
420
 16777215
176
     1
 90
        0
176
     1
 90
        4
176
     1
 62
     7
176
     1
 62
   257
176
     1
 90
        1
176
     1
 90
        1
176
     1
 40
1.0
176
     1
 90
        8
176
     1
 62
     7
176
     1
 40
1.0
176
     1
 90
        1
176
     1
 90
        6
176
     1
 90
        2
176
     1
 62
     7
176
     1
 90
        5
176
     1
 90
        0
176
     1
 90
        0
176
     1
290
     0
176
     1
 90
        1
176
     1
 40
0.0
176
     1
 90
        0
176
     1
290
     0
176
     1
290
     1
176
     1
290
     1
176
     1
290
     0
176
     1
290
     0
176
     1
290
     0
176
     1
290
     0
176
     1
290
     0
176
     1
290
     0
176
     1
 90
       50
176
     1
 40
0.0
176
     1
 40
1.0
176
     1
 90
        0
176
     1
 62
    18
420
        0
176
     1
 90
       50
176
     1
 90
        3
176
     1
 62
     5
420
      255
176
     1
290
     0
176
     1
 90
       50
176
     1
 90
       50
176
     1
 90
       50
176
     1
290
     0
176
     1
 90
       50
176
     1
 62
   256
176
     0
 40
1.0
176
     0
 90
        2
176
     1
  1
strokes_ogs.tif
176
     1
290
     0
176
     1
 40
1.0
176
     1
 40
1.0
176
     1
  0
VISUALSTYLE
  5
36
102
{ACAD_REACTORS
330
2A
102
}
330
2A
100
AcDbVisualStyle
  2
Brighten
 70
    12
177
     3
291
     1
 70
    58
 90
        2
176
     1
 90
        2
176
     1
 90
        0
176
     1
 90
        0
176
     1
 40
0.6
176
     1
 40
30.0
176
     1
 62
     7
420
 16777215
176
     1
 90
        1
176
     1
 90
        4
176
     1
 62
     7
176
     1
 62
   257
176
     1
 90
        1
176
     1
 90
        1
176
     1
 40
1.0
176
     1
 90
        8
176
     1
 62
     7
176
     1
 40
1.0
176
     1
 90
        1
176
     1
 90
        6
176
     1
 90
        2
176
     1
 62
     7
176
     1
 90
        5
176
     1
 90
        0
176
     1
 90
        0
176
     1
290
     0
176
     1
 90
        1
176
     1
 40
50.0
176
     1
 90
        0
176
     1
290
     0
176
     1
290
     1
176
     1
290
     1
176
     1
290
     0
176
     1
290
     0
176
     1
290
     0
176
     1
290
     0
176
     1
290
     0
176
     1
290
     0
176
     1
 90
       50
176
     1
 40
0.0
176
     1
 40
1.0
176
     1
 90
        0
176
     1
 62
    18
420
        0
176
     1
 90
       50
176
     1
 90
        3
176
     1
 62
     5
420
      255
176
     1
290
     0
176
     1
 90
       50
176
     1
 90
       50
176
     1
 90
       50
176
     1
290
     0
176
     1
 90
       50
176
     1
 62
   256
176
     0
 40
1.0
176
     0
 90
        2
176
     1
  1
strokes_ogs.tif
176
     1
290
     0
176
     1
 40
1.0
176
     1
 40
1.0
176
     1
  0
VISUALSTYLE
  5
3A
102
{ACAD_REACTORS
330
2A
102
}
330
2A
100
AcDbVisualStyle
  2
ColorChange
 70
    16
177
     3
291
     1
 70
    58
 90
        2
176
     1
 90
        2
176
     1
 90
        3
176
     1
 90
        0
176
     1
 40
0.6
176
     1
 40
30.0
176
     1
 62
     8
420
  8421504
176
     1
 90
        1
176
     1
 90
        4
176
     1
 62
     7
176
     1
 62
   257
176
     1
 90
        1
176
     1
 90
        1
176
     1
 40
1.0
176
     1
 90
        8
176
     1
 62
     8
420
  8421504
176
     1
 40
1.0
176
     1
 90
        1
176
     1
 90
        6
176
     1
 90
        2
176
     1
 62
     7
176
     1
 90
        5
176
     1
 90
        0
176
     1
 90
        0
176
     1
290
     0
176
     1
 90
        1
176
     1
 40
0.0
176
     1
 90
        0
176
     1
290
     0
176
     1
290
     1
176
     1
290
     1
176
     1
290
     0
176
     1
290
     0
176
     1
290
     0
176
     1
290
     0
176
     1
290
     0
176
     1
290
     0
176
     1
 90
       50
176
     1
 40
0.0
176
     1
 40
1.0
176
     1
 90
        0
176
     1
 62
    18
420
        0
176
     1
 90
       50
176
     1
 90
        3
176
     1
 62
     5
420
      255
176
     1
290
     0
176
     1
 90
       50
176
     1
 90
       50
176
     1
 90
       50
176
     1
290
     0
176
     1
 90
       50
176
     1
 62
   256
176
     0
 40
1.0
176
     0
 90
        2
176
     1
  1
strokes_ogs.tif
176
     1
290
     0
176
     1
 40
1.0
176
     1
 40
1.0
176
     1
  0
VISUALSTYLE
  5
34
102
{ACAD_REACTORS
330
2A
102
}
330
2A
100
AcDbVisualStyle
  2
Conceptual
 70
     9
177
     3
291
     0
 70
    58
 90
        3
176
     1
 90
        2
176
     1
 90
        0
176
     1
 90
        0
176
     1
 40
0.6
176
     1
 40
30.0
176
     1
 62
     7
420
 16777215
176
     1
 90
        2
176
     1
 90
        2
176
     1
 62
     7
176
     1
 62
   257
176
     1
 90
        1
176
     1
 90
        1
176
     1
 40
179.0
176
     1
 90
        8
176
     1
 62
     7
176
     1
 40
1.0
176
     1
 90
        1
176
     1
 90
        6
176
     1
 90
        2
176
     1
 62
     7
176
     1
 90
        3
176
     1
 90
        0
176
     1
 90
        0
176
     1
290
     0
176
     1
 90
        1
176
     1
 40
0.0
176
     1
 90
        0
176
     1
290
     0
176
     1
290
     1
176
     1
290
     1
176
     1
290
     0
176
     1
290
     0
176
     1
290
     0
176
     1
290
     0
176
     1
290
     0
176
     1
290
     0
176
     1
 90
       50
176
     1
 40
0.0
176
     1
 40
1.0
176
     1
 90
        0
176
     1
 62
    18
420
        0
176
     1
 90
       50
176
     1
 90
        3
176
     1
 62
     5
420
      255
176
     1
290
     0
176
     1
 90
       50
176
     1
 90
       50
176
     1
 90
       50
176
     1
290
     0
176
     1
 90
       50
176
     1
 62
   256
176
     0
 40
1.0
176
     0
 90
        2
176
     1
  1
strokes_ogs.tif
176
     1
290
     0
176
     1
 40
1.0
176
     1
 40
1.0
176
     1
  0
VISUALSTYLE
  5
35
102
{ACAD_REACTORS
330
2A
102
}
330
2A
100
AcDbVisualStyle
  2
Dim
 70
    11
177
     3
291
     1
 70
    58
 90
        2
176
     1
 90
        2
176
     1
 90
        0
176
     1
 90
        0
176
     1
 40
0.6
176
     1
 40
30.0
176
     1
 62
     7
420
 16777215
176
     1
 90
        1
176
     1
 90
        4
176
     1
 62
     7
176
     1
 62
   257
176
     1
 90
        1
176
     1
 90
        1
176
     1
 40
1.0
176
     1
 90
        8
176
     1
 62
     7
176
     1
 40
1.0
176
     1
 90
        1
176
     1
 90
        6
176
     1
 90
        2
176
     1
 62
     7
176
     1
 90
        5
176
     1
 90
        0
176
     1
 90
        0
176
     1
290
     0
176
     1
 90
        1
176
     1
 40
-50.0
176
     1
 90
        0
176
     1
290
     0
176
     1
290
     1
176
     1
290
     1
176
     1
290
     0
176
     1
290
     0
176
     1
290
     0
176
     1
290
     0
176
     1
290
     0
176
     1
290
     0
176
     1
 90
       50
176
     1
 40
0.0
176
     1
 40
1.0
176
     1
 90
        0
176
     1
 62
    18
420
        0
176
     1
 90
       50
176
     1
 90
        3
176
     1
 62
     5
420
      255
176
     1
290
     0
176
     1
 90
       50
176
     1
 90
       50
176
     1
 90
       50
176
     1
290
     0
176
     1
 90
       50
176
     1
 62
   256
176
     0
 40
1.0
176
     0
 90
        2
176
     1
  1
strokes_ogs.tif
176
     1
290
     0
176
     1
 40
1.0
176
     1
 40
1.0
176
     1
  0
VISUALSTYLE
  5
3D
102
{ACAD_REACTORS
330
2A
102
}
330
2A
100
AcDbVisualStyle
  2
EdgeColorOff
 70
    22
177
     3
291
     1
 70
    58
 90
        2
176
     0
 90
        2
176
     0
 90
        0
176
     0
 90
        0
176
     0
 40
0.6
176
     0
 40
30.0
176
     0
 62
     7
420
 16777215
176
     0
 90
        1
176
     0
 90
        4
176
     0
 62
     7
176
     0
 62
   257
176
     0
 90
        1
176
     0
 90
        1
176
     0
 40
1.0
176
     0
 90
        8
176
     2
 62
     7
176
     0
 40
1.0
176
     0
 90
        1
176
     0
 90
        6
176
     0
 90
        2
176
     0
 62
     7
176
     0
 90
        5
176
     0
 90
        0
176
     0
 90
        0
176
     0
290
     0
176
     0
 90
        1
176
     0
 40
0.0
176
     0
 90
        0
176
     0
290
     0
176
     0
290
     1
176
     0
290
     1
176
     0
290
     0
176
     0
290
     0
176
     0
290
     0
176
     0
290
     0
176
     0
290
     0
176
     0
290
     0
176
     0
 90
       50
176
     0
 40
0.0
176
     0
 40
1.0
176
     0
 90
        0
176
     0
 62
    18
420
        0
176
     0
 90
       50
176
     0
 90
        3
176
     0
 62
     5
420
      255
176
     0
290
     0
176
     0
 90
       50
176
     0
 90
       50
176
     0
 90
       50
176
     0
290
     0
176
     0
 90
       50
176
     0
 62
   256
176
     0
 40
1.0
176
     0
 90
        2
176
     0
  1
strokes_ogs.tif
176
     0
290
     0
176
     0
 40
1.0
176
     0
 40
1.0
176
     0
  0
VISUALSTYLE
  5
39
102
{ACAD_REACTORS
330
2A
102
}
330
2A
100
AcDbVisualStyle
  2
Facepattern
 70
    15
177
     3
291
     1
 70
    58
 90
        2
176
     1
 90
        2
176
     1
 90
        0
176
     1
 90
        0
176
     1
 40
0.6
176
     1
 40
30.0
176
     1
 62
     7
420
 16777215
176
     1
 90
        1
176
     1
 90
        4
176
     1
 62
     7
176
     1
 62
   257
176
     1
 90
        1
176
     1
 90
        1
176
     1
 40
1.0
176
     1
 90
        8
176
     1
 62
     7
176
     1
 40
1.0
176
     1
 90
        1
176
     1
 90
        6
176
     1
 90
        2
176
     1
 62
     7
176
     1
 90
        5
176
     1
 90
        0
176
     1
 90
        0
176
     1
290
     0
176
     1
 90
        1
176
     1
 40
0.0
176
     1
 90
        0
176
     1
290
     0
176
     1
290
     1
176
     1
290
     1
176
     1
290
     0
176
     1
290
     0
176
     1
290
     0
176
     1
290
     0
176
     1
290
     0
176
     1
290
     0
176
     1
 90
       50
176
     1
 40
0.0
176
     1
 40
1.0
176
     1
 90
        0
176
     1
 62
    18
420
        0
176
     1
 90
       50
176
     1
 90
        3
176
     1
 62
     5
420
      255
176
     1
290
     0
176
     1
 90
       50
176
     1
 90
       50
176
     1
 90
       50
176
     1
290
     0
176
     1
 90
       50
176
     1
 62
   256
176
     0
 40
1.0
176
     0
 90
        2
176
     1
  1
strokes_ogs.tif
176
     1
290
     0
176
     1
 40
1.0
176
     1
 40
1.0
176
     1
  0
VISUALSTYLE
  5
2B
102
{ACAD_REACTORS
330
2A
102
}
330
2A
100
AcDbVisualStyle
  2
Flat
 70
     0
177
     3
291
     1
 70
    58
 90
        2
176
     1
 90
        1
176
     1
 90
        1
176
     1
 90
        2
176
     1
 40
0.6
176
     1
 40
30.0
176
     1
 62
     7
420
 16777215
176
     1
 90
        0
176
     1
 90
        0
176
     1
 62
     7
176
     1
 62
   257
176
     1
 90
        1
176
     1
 90
        1
176
     1
 40
1.0
176
     1
 90
        8
176
     1
 62
     7
176
     1
 40
1.0
176
     1
 90
        1
176
     1
 90
        6
176
     1
 90
        2
176
     1
 62
     7
176
     1
 90
        5
176
     1
 90
        0
176
     1
 90
        0
176
     1
290
     0
176
     1
 90
       13
176
     1
 40
0.0
176
     1
 90
        0
176
     1
290
     0
176
     1
290
     1
176
     1
290
     1
176
     1
290
     0
176
     1
290
     0
176
     1
290
     0
176
     1
290
     0
176
     1
290
     0
176
     1
290
     0
176
     1
 90
       50
176
     1
 40
0.0
176
     1
 40
1.0
176
     1
 90
        0
176
     1
 62
    18
420
        0
176
     1
 90
       50
176
     1
 90
        3
176
     1
 62
     5
420
      255
176
     1
290
     0
176
     1
 90
       50
176
     1
 90
       50
176
     1
 90
       50
176
     1
290
     0
176
     1
 90
       50
176
     1
 62
   256
176
     0
 40
1.0
176
     0
 90
        2
176
     1
  1
strokes_ogs.tif
176
     1
290
     0
176
     1
 40
1.0
176
     1
 40
1.0
176
     1
  0
VISUALSTYLE
  5
2C
102
{ACAD_REACTORS
330
2A
102
}
330
2A
100
AcDbVisualStyle
  2
FlatWithEdges
 70
     1
177
     3
291
     1
 70
    58
 90
        2
176
     1
 90
        1
176
     1
 90
        1
176
     1
 90
        2
176
     1
 40
0.6
176
     1
 40
30.0
176
     1
 62
     7
420
 16777215
176
     1
 90
        1
176
     1
 90
        0
176
     1
 62
     7
176
     1
 62
   257
176
     1
 90
        1
176
     1
 90
        1
176
     1
 40
1.0
176
     1
 90
        0
176
     1
 62
   257
176
     1
 40
1.0
176
     1
 90
        1
176
     1
 90
        6
176
     1
 90
        2
176
     1
 62
     7
176
     1
 90
        5
176
     1
 90
        0
176
     1
 90
        0
176
     1
290
     0
176
     1
 90
       13
176
     1
 40
0.0
176
     1
 90
        0
176
     1
290
     0
176
     1
290
     1
176
     1
290
     1
176
     1
290
     0
176
     1
290
     0
176
     1
290
     0
176
     1
290
     0
176
     1
290
     0
176
     1
290
     0
176
     1
 90
       50
176
     1
 40
0.0
176
     1
 40
1.0
176
     1
 90
        0
176
     1
 62
    18
420
        0
176
     1
 90
       50
176
     1
 90
        3
176
     1
 62
     5
420
      255
176
     1
290
     0
176
     1
 90
       50
176
     1
 90
       50
176
     1
 90
       50
176
     1
290
     0
176
     1
 90
       50
176
     1
 62
   256
176
     0
 40
1.0
176
     0
 90
        2
176
     1
  1
strokes_ogs.tif
176
     1
290
     0
176
     1
 40
1.0
176
     1
 40
1.0
176
     1
  0
VISUALSTYLE
  5
2D
102
{ACAD_REACTORS
330
2A
102
}
330
2A
100
AcDbVisualStyle
  2
Gouraud
 70
     2
177
     3
291
     1
 70
    58
 90
        2
176
     1
 90
        2
176
     1
 90
        1
176
     1
 90
        2
176
     1
 40
0.6
176
     1
 40
30.0
176
     1
 62
     7
420
 16777215
176
     1
 90
        0
176
     1
 90
        0
176
     1
 62
     7
176
     1
 62
   257
176
     1
 90
        1
176
     1
 90
        1
176
     1
 40
1.0
176
     1
 90
        0
176
     1
 62
     7
176
     1
 40
1.0
176
     1
 90
        1
176
     1
 90
        6
176
     1
 90
        2
176
     1
 62
     7
176
     1
 90
        5
176
     1
 90
        0
176
     1
 90
        0
176
     1
290
     0
176
     1
 90
       13
176
     1
 40
0.0
176
     1
 90
        0
176
     1
290
     0
176
     1
290
     1
176
     1
290
     1
176
     1
290
     0
176
     1
290
     0
176
     1
290
     0
176
     1
290
     0
176
     1
290
     0
176
     1
290
     0
176
     1
 90
       50
176
     1
 40
0.0
176
     1
 40
1.0
176
     1
 90
        0
176
     1
 62
    18
420
        0
176
     1
 90
       50
176
     1
 90
        3
176
     1
 62
     5
420
      255
176
     1
290
     0
176
     1
 90
       50
176
     1
 90
       50
176
     1
 90
       50
176
     1
290
     0
176
     1
 90
       50
176
     1
 62
   256
176
     0
 40
1.0
176
     0
 90
        2
176
     1
  1
strokes_ogs.tif
176
     1
290
     0
176
     1
 40
1.0
176
     1
 40
1.0
176
     1
  0
VISUALSTYLE
  5
2E
102
{ACAD_REACTORS
330
2A
102
}
330
2A
100
AcDbVisualStyle
  2
GouraudWithEdges
 70
     3
177
     3
291
     1
 70
    58
 90
        2
176
     1
 90
        2
176
     1
 90
        1
176
     1
 90
        2
176
     1
 40
0.6
176
     1
 40
30.0
176
     1
 62
     7
420
 16777215
176
     1
 90
        1
176
     1
 90
        0
176
     1
 62
     7
176
     1
 62
   257
176
     1
 90
        1
176
     1
 90
        1
176
     1
 40
1.0
176
     1
 90
        0
176
     1
 62
   257
176
     1
 40
1.0
176
     1
 90
        1
176
     1
 90
        6
176
     1
 90
        2
176
     1
 62
     7
176
     1
 90
        5
176
     1
 90
        0
176
     1
 90
        0
176
     1
290
     0
176
     1
 90
       13
176
     1
 40
0.0
176
     1
 90
        0
176
     1
290
     0
176
     1
290
     1
176
     1
290
     1
176
     1
290
     0
176
     1
290
     0
176
     1
290
     0
176
     1
290
     0
176
     1
290
     0
176
     1
290
     0
176
     1
 90
       50
176
     1
 40
0.0
176
     1
 40
1.0
176
     1
 90
        0
176
     1
 62
    18
420
        0
176
     1
 90
       50
176
     1
 90
        3
176
     1
 62
     5
420
      255
176
     1
290
     0
176
     1
 90
       50
176
     1
 90
       50
176
     1
 90
       50
176
     1
290
     0
176
     1
 90
       50
176
     1
 62
   256
176
     0
 40
1.0
176
     0
 90
        2
176
     1
  1
strokes_ogs.tif
176
     1
290
     0
176
     1
 40
1.0
176
     1
 40
1.0
176
     1
  0
VISUALSTYLE
  5
31
102
{ACAD_REACTORS
330
2A
102
}
330
2A
100
AcDbVisualStyle
  2
Hidden
 70
     6
177
     3
291
     0
 70
    58
 90
        1
176
     1
 90
        2
176
     1
 90
        2
176
     1
 90
        0
176
     1
 40
0.6
176
     1
 40
30.0
176
     1
 62
     7
420
 16777215
176
     1
 90
        2
176
     1
 90
        2
176
     1
 62
     7
176
     1
 62
   257
176
     1
 90
        2
176
     1
 90
        1
176
     1
 40
40.0
176
     1
 90
        0
176
     1
 62
   257
176
     1
 40
1.0
176
     1
 90
        1
176
     1
 90
        6
176
     1
 90
        2
176
     1
 62
     7
176
     1
 90
        3
176
     1
 90
        0
176
     1
 90
        0
176
     1
290
     0
176
     1
 90
        1
176
     1
 40
0.0
176
     1
 90
        0
176
     1
290
     0
176
     1
290
     1
176
     1
290
     1
176
     1
290
     0
176
     1
290
     0
176
     1
290
     0
176
     1
290
     0
176
     1
290
     0
176
     1
290
     0
176
     1
 90
       50
176
     1
 40
0.0
176
     1
 40
1.0
176
     1
 90
        0
176
     1
 62
    18
420
        0
176
     1
 90
       50
176
     1
 90
        3
176
     1
 62
     5
420
      255
176
     1
290
     0
176
     1
 90
       50
176
     1
 90
       50
176
     1
 90
       50
176
     1
290
     0
176
     1
 90
       50
176
     1
 62
   256
176
     0
 40
1.0
176
     0
 90
        2
176
     1
  1
strokes_ogs.tif
176
     1
290
     0
176
     1
 40
1.0
176
     1
 40
1.0
176
     1
  0
VISUALSTYLE
  5
3B
102
{ACAD_REACTORS
330
2A
102
}
330
2A
100
AcDbVisualStyle
  2
JitterOff
 70
    20
177
     3
291
     1
 70
    58
 90
        2
176
     0
 90
        2
176
     0
 90
        0
176
     0
 90
        0
176
     0
 40
0.6
176
     0
 40
30.0
176
     0
 62
     7
420
 16777215
176
     0
 90
        1
176
     0
 90
        4
176
     0
 62
     7
176
     0
 62
   257
176
     0
 90
        1
176
     0
 90
        1
176
     0
 40
1.0
176
     0
 90
       10
176
     2
 62
     7
176
     0
 40
1.0
176
     0
 90
        1
176
     0
 90
        6
176
     0
 90
        2
176
     0
 62
     7
176
     0
 90
        5
176
     0
 90
        0
176
     0
 90
        0
176
     0
290
     0
176
     0
 90
        1
176
     0
 40
0.0
176
     0
 90
        0
176
     0
290
     0
176
     0
290
     1
176
     0
290
     1
176
     0
290
     0
176
     0
290
     0
176
     0
290
     0
176
     0
290
     0
176
     0
290
     0
176
     0
290
     0
176
     0
 90
       50
176
     0
 40
0.0
176
     0
 40
1.0
176
     0
 90
        0
176
     0
 62
    18
420
        0
176
     0
 90
       50
176
     0
 90
        3
176
     0
 62
     5
420
      255
176
     0
290
     0
176
     0
 90
       50
176
     0
 90
       50
176
     0
 90
       50
176
     0
290
     0
176
     0
 90
       50
176
     0
 62
   256
176
     0
 40
1.0
176
     0
 90
        2
176
     0
  1
strokes_ogs.tif
176
     0
290
     0
176
     0
 40
1.0
176
     0
 40
1.0
176
     0
  0
VISUALSTYLE
  5
38
102
{ACAD_REACTORS
330
2A
102
}
330
2A
100
AcDbVisualStyle
  2
Linepattern
 70
    14
177
     3
291
     1
 70
    58
 90
        2
176
     1
 90
        2
176
     1
 90
        0
176
     1
 90
        0
176
     1
 40
0.6
176
     1
 40
30.0
176
     1
 62
     7
420
 16777215
176
     1
 90
        1
176
     1
 90
        4
176
     1
 62
     7
176
     1
 62
   257
176
     1
 90
        7
176
     1
 90
        7
176
     1
 40
1.0
176
     1
 90
        8
176
     1
 62
     7
176
     1
 40
1.0
176
     1
 90
        1
176
     1
 90
        6
176
     1
 90
        2
176
     1
 62
     7
176
     1
 90
        5
176
     1
 90
        0
176
     1
 90
        0
176
     1
290
     0
176
     1
 90
        1
176
     1
 40
0.0
176
     1
 90
        0
176
     1
290
     0
176
     1
290
     1
176
     1
290
     1
176
     1
290
     0
176
     1
290
     0
176
     1
290
     0
176
     1
290
     0
176
     1
290
     0
176
     1
290
     0
176
     1
 90
       50
176
     1
 40
0.0
176
     1
 40
1.0
176
     1
 90
        0
176
     1
 62
    18
420
        0
176
     1
 90
       50
176
     1
 90
        3
176
     1
 62
     5
420
      255
176
     1
290
     0
176
     1
 90
       50
176
     1
 90
       50
176
     1
 90
       50
176
     1
290
     0
176
     1
 90
       50
176
     1
 62
   256
176
     0
 40
1.0
176
     0
 90
        2
176
     1
  1
strokes_ogs.tif
176
     1
290
     0
176
     1
 40
1.0
176
     1
 40
1.0
176
     1
  0
VISUALSTYLE
  5
3C
102
{ACAD_REACTORS
330
2A
102
}
330
2A
100
AcDbVisualStyle
  2
OverhangOff
 70
    21
177
     3
291
     1
 70
    58
 90
        2
176
     0
 90
        2
176
     0
 90
        0
176
     0
 90
        0
176
     0
 40
0.6
176
     0
 40
30.0
176
     0
 62
     7
420
 16777215
176
     0
 90
        1
176
     0
 90
        4
176
     0
 62
     7
176
     0
 62
   257
176
     0
 90
        1
176
     0
 90
        1
176
     0
 40
1.0
176
     0
 90
        9
176
     2
 62
     7
176
     0
 40
1.0
176
     0
 90
        1
176
     0
 90
        6
176
     0
 90
        2
176
     0
 62
     7
176
     0
 90
        5
176
     0
 90
        0
176
     0
 90
        0
176
     0
290
     0
176
     0
 90
        1
176
     0
 40
0.0
176
     0
 90
        0
176
     0
290
     0
176
     0
290
     1
176
     0
290
     1
176
     0
290
     0
176
     0
290
     0
176
     0
290
     0
176
     0
290
     0
176
     0
290
     0
176
     0
290
     0
176
     0
 90
       50
176
     0
 40
0.0
176
     0
 40
1.0
176
     0
 90
        0
176
     0
 62
    18
420
        0
176
     0
 90
       50
176
     0
 90
        3
176
     0
 62
     5
420
      255
176
     0
290
     0
176
     0
 90
       50
176
     0
 90
       50
176
     0
 90
       50
176
     0
290
     0
176
     0
 90
       50
176
     0
 62
   256
176
     0
 40
1.0
176
     0
 90
        2
176
     0
  1
strokes_ogs.tif
176
     0
290
     0
176
     0
 40
1.0
176
     0
 40
1.0
176
     0
  0
VISUALSTYLE
  5
33
102
{ACAD_REACTORS
330
2A
102
}
330
2A
100
AcDbVisualStyle
  2
Realistic
 70
     8
177
     3
291
     0
 70
    58
 90
        2
176
     1
 90
        3
176
     1
 90
        0
176
     1
 90
        2
176
     1
 40
0.6
176
     1
 40
30.0
176
     1
 62
     7
420
 16777215
176
     1
 90
        0
176
     1
 90
        0
176
     1
 62
     7
176
     1
 62
   257
176
     1
 90
        1
176
     1
 90
        1
176
     1
 40
1.0
176
     1
 90
        8
176
     1
 62
   257
176
     1
 40
1.0
176
     1
 90
        1
176
     1
 90
        6
176
     1
 90
        2
176
     1
 62
     7
176
     1
 90
        3
176
     1
 90
        0
176
     1
 90
        0
176
     1
290
     0
176
     1
 90
       13
176
     1
 40
0.0
176
     1
 90
        0
176
     1
290
     0
176
     1
290
     1
176
     1
290
     1
176
     1
290
     0
176
     1
290
     0
176
     1
290
     0
176
     1
290
     0
176
     1
290
     0
176
     1
290
     0
176
     1
 90
       50
176
     1
 40
0.0
176
     1
 40
1.0
176
     1
 90
        0
176
     1
 62
    18
420
        0
176
     1
 90
       50
176
     1
 90
        3
176
     1
 62
     5
420
      255
176
     1
290
     0
176
     1
 90
       50
176
     1
 90
       50
176
     1
 90
       50
176
     1
290
     0
176
     1
 90
       50
176
     1
 62
   256
176
     0
 40
1.0
176
     0
 90
        2
176
     1
  1
strokes_ogs.tif
176
     1
290
     0
176
     1
 40
1.0
176
     1
 40
1.0
176
     1
  0
VISUALSTYLE
  5
42
102
{ACAD_REACTORS
330
2A
102
}
330
2A
100
AcDbVisualStyle
  2
Shaded
 70
    27
177
     3
291
     0
 70
    58
 90
        2
176
     1
 90
        2
176
     1
 90
        1
176
     1
 90
        2
176
     1
 40
0.6
176
     1
 40
30.0
176
     1
 62
     7
420
 16777215
176
     1
 90
        0
176
     1
 90
        4
176
     1
 62
     7
176
     1
 62
   257
176
     1
 90
        1
176
     1
 90
        1
176
     1
 40
1.0
176
     1
 90
        8
176
     1
 62
   257
176
     1
 40
1.0
176
     1
 90
        1
176
     1
 90
        6
176
     1
 90
        2
176
     1
 62
     8
420
  7895160
176
     1
 90
        3
176
     1
 90
        0
176
     1
 90
        0
176
     1
290
     0
176
     1
 90
        5
176
     1
 40
0.0
176
     1
 90
        0
176
     1
290
     0
176
     1
290
     1
176
     1
290
     1
176
     1
290
     0
176
     1
290
     0
176
     1
290
     0
176
     1
290
     0
176
     1
290
     0
176
     1
290
     0
176
     1
 90
       50
176
     1
 40
0.0
176
     1
 40
1.0
176
     1
 90
        0
176
     1
 62
    18
420
        0
176
     1
 90
       50
176
     1
 90
        3
176
     1
 62
     5
420
      255
176
     1
290
     0
176
     1
 90
       50
176
     1
 90
       50
176
     1
 90
       50
176
     1
290
     0
176
     1
 90
       50
176
     1
 62
   256
176
     0
 40
1.0
176
     0
 90
        2
176
     1
  1
strokes_ogs.tif
176
     1
290
     0
176
     1
 40
1.0
176
     1
 40
1.0
176
     1
  0
VISUALSTYLE
  5
41
102
{ACAD_REACTORS
330
2A
102
}
330
2A
100
AcDbVisualStyle
  2
Shaded with edges
 70
    26
177
     3
291
     0
 70
    58
 90
        2
176
     1
 90
        2
176
     1
 90
        1
176
     1
 90
        2
176
     1
 40
0.6
176
     1
 40
30.0
176
     1
 62
     7
420
 16777215
176
     1
 90
        1
176
     1
 90
       10
176
     1
 62
     7
176
     1
 62
   257
176
     1
 90
        2
176
     1
 90
        1
176
     1
 40
1.0
176
     1
 90
        8
176
     1
 62
   257
176
     1
 40
1.0
176
     1
 90
        1
176
     1
 90
        6
176
     1
 90
        2
176
     1
 62
     7
176
     1
 90
        3
176
     1
 90
        0
176
     1
 90
        0
176
     1
290
     0
176
     1
 90
        5
176
     1
 40
0.0
176
     1
 90
        0
176
     1
290
     0
176
     1
290
     1
176
     1
290
     1
176
     1
290
     0
176
     1
290
     0
176
     1
290
     0
176
     1
290
     0
176
     1
290
     0
176
     1
290
     0
176
     1
 90
       50
176
     1
 40
0.0
176
     1
 40
1.0
176
     1
 90
        0
176
     1
 62
    18
420
        0
176
     1
 90
       50
176
     1
 90
        3
176
     1
 62
     5
420
      255
176
     1
290
     0
176
     1
 90
       50
176
     1
 90
       50
176
     1
 90
       50
176
     1
290
     0
176
     1
 90
       50
176
     1
 62
   256
176
     0
 40
1.0
176
     0
 90
        2
176
     1
  1
strokes_ogs.tif
176
     1
290
     0
176
     1
 40
1.0
176
     1
 40
1.0
176
     1
  0
VISUALSTYLE
  5
3E
102
{ACAD_REACTORS
330
2A
102
}
330
2A
100
AcDbVisualStyle
  2
Shades of Gray
 70
    23
177
     3
291
     0
 70
    58
 90
        2
176
     1
 90
        2
176
     1
 90
        3
176
     1
 90
        0
176
     1
 40
0.6
176
     1
 40
30.0
176
     1
 62
     7
420
 16777215
176
     1
 90
        2
176
     1
 90
        2
176
     1
 62
     7
176
     1
 62
     7
176
     1
 90
        1
176
     1
 90
        1
176
     1
 40
40.0
176
     1
 90
        8
176
     1
 62
     7
176
     1
 40
1.0
176
     1
 90
        1
176
     1
 90
        6
176
     1
 90
        2
176
     1
 62
     7
176
     1
 90
        3
176
     1
 90
        0
176
     1
 90
        0
176
     1
290
     0
176
     1
 90
        1
176
     1
 40
0.0
176
     1
 90
        0
176
     1
290
     0
176
     1
290
     1
176
     1
290
     1
176
     1
290
     0
176
     1
290
     0
176
     1
290
     0
176
     1
290
     0
176
     1
290
     0
176
     1
290
     0
176
     1
 90
       50
176
     1
 40
0.0
176
     1
 40
1.0
176
     1
 90
        0
176
     1
 62
    18
420
        0
176
     1
 90
       50
176
     1
 90
        3
176
     1
 62
     5
420
      255
176
     1
290
     0
176
     1
 90
       50
176
     1
 90
       50
176
     1
 90
       50
176
     1
290
     0
176
     1
 90
       50
176
     1
 62
   256
176
     0
 40
1.0
176
     0
 90
        2
176
     1
  1
strokes_ogs.tif
176
     1
290
     0
176
     1
 40
1.0
176
     1
 40
1.0
176
     1
  0
VISUALSTYLE
  5
3F
102
{ACAD_REACTORS
330
2A
102
}
330
2A
100
AcDbVisualStyle
  2
Sketchy
 70
    24
177
     3
291
     0
 70
    58
 90
        1
176
     1
 90
        2
176
     1
 90
        2
176
     1
 90
        0
176
     1
 40
0.6
176
     1
 40
30.0
176
     1
 62
     7
420
 16777215
176
     1
 90
        2
176
     1
 90
        2
176
     1
 62
     7
176
     1
 62
     7
176
     1
 90
        1
176
     1
 90
        1
176
     1
 40
40.0
176
     1
 90
       11
176
     1
 62
     7
176
     1
 40
1.0
176
     1
 90
        1
176
     1
 90
        6
176
     1
 90
        2
176
     1
 62
     7
176
     1
 90
        6
176
     1
 90
        0
176
     1
 90
        0
176
     1
290
     0
176
     1
 90
        1
176
     1
 40
0.0
176
     1
 90
        0
176
     1
290
     0
176
     1
290
     1
176
     1
290
     1
176
     1
290
     0
176
     1
290
     0
176
     1
290
     0
176
     1
290
     0
176
     1
290
     0
176
     1
290
     0
176
     1
 90
       50
176
     1
 40
0.0
176
     1
 40
1.0
176
     1
 90
        0
176
     1
 62
    18
420
        0
176
     1
 90
       50
176
     1
 90
        3
176
     1
 62
     5
420
      255
176
     1
290
     0
176
     1
 90
       50
176
     1
 90
       50
176
     1
 90
       50
176
     1
290
     0
176
     1
 90
       50
176
     1
 62
   256
176
     0
 40
1.0
176
     0
 90
        2
176
     1
  1
strokes_ogs.tif
176
     1
290
     0
176
     1
 40
1.0
176
     1
 40
1.0
176
     1
  0
VISUALSTYLE
  5
37
102
{ACAD_REACTORS
330
2A
102
}
330
2A
100
AcDbVisualStyle
  2
Thicken
 70
    13
177
     3
291
     1
 70
    58
 90
        2
176
     1
 90
        2
176
     1
 90
        0
176
     1
 90
        0
176
     1
 40
0.6
176
     1
 40
30.0
176
     1
 62
     7
420
 16777215
176
     1
 90
        1
176
     1
 90
        4
176
     1
 62
     7
176
     1
 62
   257
176
     1
 90
        1
176
     1
 90
        1
176
     1
 40
1.0
176
     1
 90
       12
176
     1
 62
     7
176
     1
 40
1.0
176
     1
 90
        1
176
     1
 90
        6
176
     1
 90
        2
176
     1
 62
     7
176
     1
 90
        5
176
     1
 90
        0
176
     1
 90
        0
176
     1
290
     0
176
     1
 90
        1
176
     1
 40
0.0
176
     1
 90
        0
176
     1
290
     0
176
     1
290
     1
176
     1
290
     1
176
     1
290
     0
176
     1
290
     0
176
     1
290
     0
176
     1
290
     0
176
     1
290
     0
176
     1
290
     0
176
     1
 90
       50
176
     1
 40
0.0
176
     1
 40
1.0
176
     1
 90
        0
176
     1
 62
    18
420
        0
176
     1
 90
       50
176
     1
 90
        3
176
     1
 62
     5
420
      255
176
     1
290
     0
176
     1
 90
       50
176
     1
 90
       50
176
     1
 90
       50
176
     1
290
     0
176
     1
 90
       50
176
     1
 62
   256
176
     0
 40
1.0
176
     0
 90
        2
176
     1
  1
strokes_ogs.tif
176
     1
290
     0
176
     1
 40
1.0
176
     1
 40
1.0
176
     1
  0
VISUALSTYLE
  5
30
102
{ACAD_REACTORS
330
2A
102
}
330
2A
100
AcDbVisualStyle
  2
Wireframe
 70
     5
177
     3
291
     0
 70
    58
 90
        0
176
     1
 90
        2
176
     1
 90
        0
176
     1
 90
        0
176
     1
 40
0.6
176
     1
 40
30.0
176
     1
 62
     7
420
 16777215
176
     1
 90
        1
176
     1
 90
        4
176
     1
 62
     7
176
     1
 62
   257
176
     1
 90
        1
176
     1
 90
        1
176
     1
 40
1.0
176
     1
 90
        0
176
     1
 62
   257
176
     1
 40
1.0
176
     1
 90
        1
176
     1
 90
        6
176
     1
 90
        2
176
     1
 62
     7
176
     1
 90
        3
176
     1
 90
        0
176
     1
 90
        0
176
     1
290
     0
176
     1
 90
        1
176
     1
 40
0.0
176
     1
 90
        0
176
     1
290
     0
176
     1
290
     1
176
     1
290
     1
176
     1
290
     0
176
     1
290
     0
176
     1
290
     0
176
     1
290
     0
176
     1
290
     0
176
     1
290
     0
176
     1
 90
       50
176
     1
 40
0.0
176
     1
 40
1.0
176
     1
 90
        0
176
     1
 62
    18
420
        0
176
     1
 90
       50
176
     1
 90
        3
176
     1
 62
     5
420
      255
176
     1
290
     0
176
     1
 90
       50
176
     1
 90
       50
176
     1
 90
       50
176
     1
290
     0
176
     1
 90
       50
176
     1
 62
   256
176
     0
 40
1.0
176
     0
 90
        2
176
     1
  1
strokes_ogs.tif
176
     1
290
     0
176
     1
 40
1.0
176
     1
 40
1.0
176
     1
  0
VISUALSTYLE
  5
40
102
{ACAD_REACTORS
330
2A
102
}
330
2A
100
AcDbVisualStyle
  2
X-Ray
 70
    25
177
     3
291
     0
 70
    58
 90
        2
176
     1
 90
        2
176
     1
 90
        1
176
     1
 90
        1
176
     1
 40
0.5
176
     1
 40
30.0
176
     1
 62
     7
420
 16777215
176
     1
 90
        1
176
     1
 90
        0
176
     1
 62
     7
176
     1
 62
   257
176
     1
 90
        1
176
     1
 90
        1
176
     1
 40
1.0
176
     1
 90
        8
176
     1
 62
     7
176
     1
 40
1.0
176
     1
 90
        1
176
     1
 90
        6
176
     1
 90
        2
176
     1
 62
     7
176
     1
 90
        3
176
     1
 90
        0
176
     1
 90
        0
176
     1
290
     0
176
     1
 90
       13
176
     1
 40
0.0
176
     1
 90
        0
176
     1
290
     0
176
     1
290
     1
176
     1
290
     1
176
     1
290
     0
176
     1
290
     0
176
     1
290
     0
176
     1
290
     0
176
     1
290
     0
176
     1
290
     0
176
     1
 90
       50
176
     1
 40
0.0
176
     1
 40
1.0
176
     1
 90
        0
176
     1
 62
    18
420
        0
176
     1
 90
       50
176
     1
 90
        3
176
     1
 62
     5
420
      255
176
     1
290
     0
176
     1
 90
       50
176
     1
 90
       50
176
     1
 90
       50
176
     1
290
     0
176
     1
 90
       50
176
     1
 62
   256
176
     0
 40
1.0
176
     0
 90
        2
176
     1
  1
strokes_ogs.tif
176
     1
290
     0
176
     1
 40
1.0
176
     1
 40
1.0
176
     1
  0
DICTIONARYVAR
  5
3A3
102
{ACAD_REACTORS
330
3A2
102
}
330
3A2
100
DictionaryVariables
280
     0
  1
1:1
  0
DICTIONARYVAR
  5
3A8
102
{ACAD_REACTORS
330
3A2
102
}
330
3A2
100
DictionaryVariables
280
     0
  1
Standard
  0
DICTIONARYVAR
  5
3A7
102
{ACAD_REACTORS
330
3A2
102
}
330
3A2
100
DictionaryVariables
280
     0
  1
Standard
  0
DICTIONARY
  5
3A4
330
6A
100
AcDbDictionary
280
     1
281
     1
  3
ACAD_ROUNDTRIP_2008_TABLESTYLE_CELLSTYLEMAP
360
3A5
  0
CELLSTYLEMAP
  5
3A5
102
{ACAD_REACTORS
330
3A4
102
}
330
3A4
100
AcDbCellStyleMap
 90
        3
300
CELLSTYLE
  1
TABLEFORMAT_BEGIN
 90
        5
170
     1
 91
        0
 92
    32768
 62
   257
 93
        1
300
CONTENTFORMAT
  1
CONTENTFORMAT_BEGIN
 90
        0
 91
        0
 92
        4
 93
        0
300

 40
0.0
140
1.0
 94
        5
 62
     0
340
11
144
6.0
309
CONTENTFORMAT_END
171
     1
301
MARGIN
  1
CELLMARGIN_BEGIN
 40
1.5
 40
1.5
 40
1.5
 40
1.5
 40
1.5
 40
1.5
309
CELLMARGIN_END
 94
        6
 95
        1
302
GRIDFORMAT
  1
GRIDFORMAT_BEGIN
 90
        0
 91
        1
 62
     0
 92
       -2
340
14
 93
        0
 40
0.045
309
GRIDFORMAT_END
 95
        2
302
GRIDFORMAT
  1
GRIDFORMAT_BEGIN
 90
        0
 91
        1
 62
     0
 92
       -2
340
14
 93
        0
 40
0.045
309
GRIDFORMAT_END
 95
        4
302
GRIDFORMAT
  1
GRIDFORMAT_BEGIN
 90
        0
 91
        1
 62
     0
 92
       -2
340
14
 93
        0
 40
0.045
309
GRIDFORMAT_END
 95
        8
302
GRIDFORMAT
  1
GRIDFORMAT_BEGIN
 90
        0
 91
        1
 62
     0
 92
       -2
340
14
 93
        0
 40
0.045
309
GRIDFORMAT_END
 95
       16
302
GRIDFORMAT
  1
GRIDFORMAT_BEGIN
 90
        0
 91
        1
 62
     0
 92
       -2
340
14
 93
        0
 40
0.045
309
GRIDFORMAT_END
 95
       32
302
GRIDFORMAT
  1
GRIDFORMAT_BEGIN
 90
        0
 91
        1
 62
     0
 92
       -2
340
14
 93
        0
 40
0.045
309
GRIDFORMAT_END
309
TABLEFORMAT_END
  1
CELLSTYLE_BEGIN
 90
        1
 91
        1
300
_TITLE
309
CELLSTYLE_END
300
CELLSTYLE
  1
TABLEFORMAT_BEGIN
 90
        5
170
     1
 91
        0
 92
        0
 62
   257
 93
        1
300
CONTENTFORMAT
  1
CONTENTFORMAT_BEGIN
 90
        0
 91
        0
 92
        4
 93
        0
300

 40
0.0
140
1.0
 94
        5
 62
     0
340
11
144
4.5
309
CONTENTFORMAT_END
171
     1
301
MARGIN
  1
CELLMARGIN_BEGIN
 40
1.5
 40
1.5
 40
1.5
 40
1.5
 40
1.5
 40
1.5
309
CELLMARGIN_END
 94
        6
 95
        1
302
GRIDFORMAT
  1
GRIDFORMAT_BEGIN
 90
        0
 91
        1
 62
     0
 92
       -2
340
14
 93
        0
 40
0.045
309
GRIDFORMAT_END
 95
        2
302
GRIDFORMAT
  1
GRIDFORMAT_BEGIN
 90
        0
 91
        1
 62
     0
 92
       -2
340
14
 93
        0
 40
0.045
309
GRIDFORMAT_END
 95
        4
302
GRIDFORMAT
  1
GRIDFORMAT_BEGIN
 90
        0
 91
        1
 62
     0
 92
       -2
340
14
 93
        0
 40
0.045
309
GRIDFORMAT_END
 95
        8
302
GRIDFORMAT
  1
GRIDFORMAT_BEGIN
 90
        0
 91
        1
 62
     0
 92
       -2
340
14
 93
        0
 40
0.045
309
GRIDFORMAT_END
 95
       16
302
GRIDFORMAT
  1
GRIDFORMAT_BEGIN
 90
        0
 91
        1
 62
     0
 92
       -2
340
14
 93
        0
 40
0.045
309
GRIDFORMAT_END
 95
       32
302
GRIDFORMAT
  1
GRIDFORMAT_BEGIN
 90
        0
 91
        1
 62
     0
 92
       -2
340
14
 93
        0
 40
0.045
309
GRIDFORMAT_END
309
TABLEFORMAT_END
  1
CELLSTYLE_BEGIN
 90
        2
 91
        1
300
_HEADER
309
CELLSTYLE_END
300
CELLSTYLE
  1
TABLEFORMAT_BEGIN
 90
        5
170
     1
 91
        0
 92
        0
 62
   257
 93
        1
300
CONTENTFORMAT
  1
CONTENTFORMAT_BEGIN
 90
        0
 91
        0
 92
        4
 93
        0
300

 40
0.0
140
1.0
 94
        2
 62
     0
340
11
144
4.5
309
CONTENTFORMAT_END
171
     1
301
MARGIN
  1
CELLMARGIN_BEGIN
 40
1.5
 40
1.5
 40
1.5
 40
1.5
 40
1.5
 40
1.5
309
CELLMARGIN_END
 94
        6
 95
        1
302
GRIDFORMAT
  1
GRIDFORMAT_BEGIN
 90
        0
 91
        1
 62
     0
 92
       -2
340
14
 93
        0
 40
0.045
309
GRIDFORMAT_END
 95
        2
302
GRIDFORMAT
  1
GRIDFORMAT_BEGIN
 90
        0
 91
        1
 62
     0
 92
       -2
340
14
 93
        0
 40
0.045
309
GRIDFORMAT_END
 95
        4
302
GRIDFORMAT
  1
GRIDFORMAT_BEGIN
 90
        0
 91
        1
 62
     0
 92
       -2
340
14
 93
        0
 40
0.045
309
GRIDFORMAT_END
 95
        8
302
GRIDFORMAT
  1
GRIDFORMAT_BEGIN
 90
        0
 91
        1
 62
     0
 92
       -2
340
14
 93
        0
 40
0.045
309
GRIDFORMAT_END
 95
       16
302
GRIDFORMAT
  1
GRIDFORMAT_BEGIN
 90
        0
 91
        1
 62
     0
 92
       -2
340
14
 93
        0
 40
0.045
309
GRIDFORMAT_END
 95
       32
302
GRIDFORMAT
  1
GRIDFORMAT_BEGIN
 90
        0
 91
        1
 62
     0
 92
       -2
340
14
 93
        0
 40
0.045
309
GRIDFORMAT_END
309
TABLEFORMAT_END
  1
CELLSTYLE_BEGIN
 90
        3
 91
        2
300
_DATA
309
CELLSTYLE_END
  0
ENDSEC
  0
EOF
